solid Hopper
facet normal 0.0 0.0 1.0
outer loop
vertex -46.36443966187522 -12.423314164920958 31.999999999999996
vertex -46.36443966187522 12.423314164920999 31.999999999999996
vertex -47.999999999999964 5.8783046359072895e-15 31.999999999999996
endloop
endfacet
facet normal 0.0 0.0 1.0
outer loop
vertex -46.36443966187522 12.423314164920999 31.999999999999996
vertex -46.36443966187522 -12.423314164920958 31.999999999999996
vertex -41.56921938165304 -23.999999999999975 31.999999999999996
endloop
endfacet
facet normal 0.0 0.0 1.0
outer loop
vertex -46.36443966187522 12.423314164920999 31.999999999999996
vertex -41.56921938165304 -23.999999999999975 31.999999999999996
vertex -41.569219381653014 24.0 31.999999999999996
endloop
endfacet
facet normal 0.0 0.0 1.0
outer loop
vertex -41.569219381653014 24.0 31.999999999999996
vertex -41.56921938165304 -23.999999999999975 31.999999999999996
vertex -33.94112549695428 -33.94112549695422 31.999999999999996
endloop
endfacet
facet normal 0.0 0.0 1.0
outer loop
vertex -41.569219381653014 24.0 31.999999999999996
vertex -33.94112549695428 -33.94112549695422 31.999999999999996
vertex -33.94112549695427 33.94112549695428 31.999999999999996
endloop
endfacet
facet normal 0.0 0.0 1.0
outer loop
vertex -33.94112549695427 33.94112549695428 31.999999999999996
vertex -33.94112549695428 -33.94112549695422 31.999999999999996
vertex -24.0 -41.56921938165302 31.999999999999996
endloop
endfacet
facet normal 0.0 0.0 1.0
outer loop
vertex -33.94112549695427 33.94112549695428 31.999999999999996
vertex -24.0 -41.56921938165302 31.999999999999996
vertex -23.999999999999964 41.56921938165304 31.999999999999996
endloop
endfacet
facet normal 0.0 0.0 1.0
outer loop
vertex -23.999999999999964 41.56921938165304 31.999999999999996
vertex -24.0 -41.56921938165302 31.999999999999996
vertex -12.42331416492102 -46.36443966187522 31.999999999999996
endloop
endfacet
facet normal 0.0 0.0 1.0
outer loop
vertex -23.999999999999964 41.56921938165304 31.999999999999996
vertex -12.42331416492102 -46.36443966187522 31.999999999999996
vertex -12.423314164920967 46.36443966187522 31.999999999999996
endloop
endfacet
facet normal 0.0 0.0 1.0
outer loop
vertex -12.423314164920967 46.36443966187522 31.999999999999996
vertex -12.42331416492102 -46.36443966187522 31.999999999999996
vertex -8.499574165447209e-15 -47.99999999999997 31.999999999999996
endloop
endfacet
facet normal 0.0 0.0 1.0
outer loop
vertex -12.423314164920967 46.36443966187522 31.999999999999996
vertex -8.499574165447209e-15 -47.99999999999997 31.999999999999996
vertex 3.2570351063673684e-15 47.99999999999997 31.999999999999996
endloop
endfacet
facet normal 0.0 0.0 1.0
outer loop
vertex 3.2570351063673684e-15 47.99999999999997 31.999999999999996
vertex -8.499574165447209e-15 -47.99999999999997 31.999999999999996
vertex 12.423314164920955 -46.36443966187523 31.999999999999996
endloop
endfacet
facet normal 0.0 0.0 1.0
outer loop
vertex 3.2570351063673684e-15 47.99999999999997 31.999999999999996
vertex 12.423314164920955 -46.36443966187523 31.999999999999996
vertex 12.423314164920999 46.36443966187522 31.999999999999996
endloop
endfacet
facet normal 0.0 0.0 1.0
outer loop
vertex 12.423314164920999 46.36443966187522 31.999999999999996
vertex 12.423314164920955 -46.36443966187523 31.999999999999996
vertex 23.999999999999947 -41.56921938165308 31.999999999999996
endloop
endfacet
facet normal 0.0 0.0 1.0
outer loop
vertex 12.423314164920999 46.36443966187522 31.999999999999996
vertex 23.999999999999947 -41.56921938165308 31.999999999999996
vertex 23.999999999999986 41.56921938165302 31.999999999999996
endloop
endfacet
facet normal 0.0 0.0 1.0
outer loop
vertex 23.999999999999986 41.56921938165302 31.999999999999996
vertex 23.999999999999947 -41.56921938165308 31.999999999999996
vertex 33.94112549695425 -33.94112549695428 31.999999999999996
endloop
endfacet
facet normal 0.0 0.0 1.0
outer loop
vertex 23.999999999999986 41.56921938165302 31.999999999999996
vertex 33.94112549695425 -33.94112549695428 31.999999999999996
vertex 33.94112549695428 33.94112549695428 31.999999999999996
endloop
endfacet
facet normal 0.0 0.0 1.0
outer loop
vertex 33.94112549695428 33.94112549695428 31.999999999999996
vertex 33.94112549695425 -33.94112549695428 31.999999999999996
vertex 41.569219381653014 -24.000000000000007 31.999999999999996
endloop
endfacet
facet normal 0.0 0.0 1.0
outer loop
vertex 33.94112549695428 33.94112549695428 31.999999999999996
vertex 41.569219381653014 -24.000000000000007 31.999999999999996
vertex 41.56921938165302 23.999999999999982 31.999999999999996
endloop
endfacet
facet normal 0.0 0.0 1.0
outer loop
vertex 41.56921938165302 23.999999999999982 31.999999999999996
vertex 41.569219381653014 -24.000000000000007 31.999999999999996
vertex 46.36443966187521 -12.423314164921026 31.999999999999996
endloop
endfacet
facet normal 0.0 0.0 1.0
outer loop
vertex 41.56921938165302 23.999999999999982 31.999999999999996
vertex 46.36443966187521 -12.423314164921026 31.999999999999996
vertex 46.36443966187522 12.423314164920981 31.999999999999996
endloop
endfacet
facet normal 0.0 0.0 1.0
outer loop
vertex 46.36443966187522 12.423314164920981 31.999999999999996
vertex 46.36443966187521 -12.423314164921026 31.999999999999996
vertex 47.999999999999964 0.0 31.999999999999996
endloop
endfacet
facet normal 0.6123724356957956 0.35355339059327273 -0.7071067811865472
outer loop
vertex 41.56921938165302 23.999999999999982 31.999999999999996
vertex 15.454813220625088 4.141104721640332 0.0
vertex 13.856406460551016 7.999999999999998 0.0
endloop
endfacet
facet normal 0.68301270189222 0.18301270189221963 -0.707106781186547
outer loop
vertex 15.454813220625088 4.141104721640332 0.0
vertex 41.56921938165302 23.999999999999982 31.999999999999996
vertex 46.36443966187522 12.423314164920981 31.999999999999996
endloop
endfacet
facet normal 0.6123724356957951 -0.3535533905932735 -0.7071067811865472
outer loop
vertex 13.85640646055101 -8.000000000000007 0.0
vertex 33.94112549695425 -33.94112549695428 31.999999999999996
vertex 11.313708498984754 -11.313708498984761 0.0
endloop
endfacet
facet normal 0.5000000000000007 -0.4999999999999995 -0.7071067811865472
outer loop
vertex 33.94112549695425 -33.94112549695428 31.999999999999996
vertex 13.85640646055101 -8.000000000000007 0.0
vertex 41.569219381653014 -24.000000000000007 31.999999999999996
endloop
endfacet
facet normal 0.6830127018922197 -0.18301270189222005 -0.7071067811865471
outer loop
vertex 15.454813220625086 -4.141104721640344 0.0
vertex 47.999999999999964 0.0 31.999999999999996
vertex 46.36443966187521 -12.423314164921026 31.999999999999996
endloop
endfacet
facet normal 0.7071067811865479 -4.713908867664454e-17 -0.7071067811865471
outer loop
vertex 47.999999999999964 0.0 31.999999999999996
vertex 15.454813220625086 -4.141104721640344 0.0
vertex 15.999999999999996 0.0 0.0
endloop
endfacet
facet normal -0.0 -0.0 1.0
outer loop
vertex -15.454813220625091 -4.141104721640326 0.0
vertex -15.454813220625088 4.141104721640336 0.0
vertex -15.999999999999996 1.9594348786357647e-15 0.0
endloop
endfacet
facet normal -0.0 -0.0 1.0
outer loop
vertex -15.454813220625088 4.141104721640336 0.0
vertex -15.454813220625091 -4.141104721640326 0.0
vertex -13.856406460551018 -7.999999999999996 0.0
endloop
endfacet
facet normal -0.0 -0.0 1.0
outer loop
vertex -15.454813220625088 4.141104721640336 0.0
vertex -13.856406460551018 -7.999999999999996 0.0
vertex -13.856406460551012 8.000000000000005 0.0
endloop
endfacet
facet normal -0.0 -0.0 1.0
outer loop
vertex -13.856406460551012 8.000000000000005 0.0
vertex -13.856406460551018 -7.999999999999996 0.0
vertex -11.313708498984765 -11.313708498984754 0.0
endloop
endfacet
facet normal -0.0 -0.0 1.0
outer loop
vertex -13.856406460551012 8.000000000000005 0.0
vertex -11.313708498984765 -11.313708498984754 0.0
vertex -11.313708498984758 11.313708498984761 0.0
endloop
endfacet
facet normal -0.0 -0.0 1.0
outer loop
vertex -11.313708498984758 11.313708498984761 0.0
vertex -11.313708498984765 -11.313708498984754 0.0
vertex -8.000000000000005 -13.856406460551016 0.0
endloop
endfacet
facet normal -0.0 -0.0 1.0
outer loop
vertex -11.313708498984758 11.313708498984761 0.0
vertex -8.000000000000005 -13.856406460551016 0.0
vertex -7.999999999999994 13.856406460551018 0.0
endloop
endfacet
facet normal -0.0 -0.0 1.0
outer loop
vertex -7.999999999999994 13.856406460551018 0.0
vertex -8.000000000000005 -13.856406460551016 0.0
vertex -4.141104721640343 -15.454813220625088 0.0
endloop
endfacet
facet normal -0.0 -0.0 1.0
outer loop
vertex -7.999999999999994 13.856406460551018 0.0
vertex -4.141104721640343 -15.454813220625088 0.0
vertex -4.141104721640329 15.454813220625091 0.0
endloop
endfacet
facet normal -0.0 -0.0 1.0
outer loop
vertex -4.141104721640329 15.454813220625091 0.0
vertex -4.141104721640343 -15.454813220625088 0.0
vertex -2.9391523179536467e-15 -15.999999999999998 0.0
endloop
endfacet
facet normal -0.0 -0.0 1.0
outer loop
vertex -4.141104721640329 15.454813220625091 0.0
vertex -2.9391523179536467e-15 -15.999999999999998 0.0
vertex 9.797174393178824e-16 15.999999999999998 0.0
endloop
endfacet
facet normal -0.0 -0.0 1.0
outer loop
vertex 9.797174393178824e-16 15.999999999999998 0.0
vertex -2.9391523179536467e-15 -15.999999999999998 0.0
vertex 4.141104721640324 -15.454813220625093 0.0
endloop
endfacet
facet normal -0.0 -0.0 1.0
outer loop
vertex 9.797174393178824e-16 15.999999999999998 0.0
vertex 4.141104721640324 -15.454813220625093 0.0
vertex 4.1411047216403345 15.454813220625091 0.0
endloop
endfacet
facet normal -0.0 -0.0 1.0
outer loop
vertex 4.1411047216403345 15.454813220625091 0.0
vertex 4.141104721640324 -15.454813220625093 0.0
vertex 7.999999999999987 -13.856406460551025 0.0
endloop
endfacet
facet normal -0.0 -0.0 1.0
outer loop
vertex 4.1411047216403345 15.454813220625091 0.0
vertex 7.999999999999987 -13.856406460551025 0.0
vertex 7.999999999999999 13.856406460551016 0.0
endloop
endfacet
facet normal -0.0 -0.0 1.0
outer loop
vertex 7.999999999999999 13.856406460551016 0.0
vertex 7.999999999999987 -13.856406460551025 0.0
vertex 11.313708498984754 -11.313708498984761 0.0
endloop
endfacet
facet normal -0.0 -0.0 1.0
outer loop
vertex 7.999999999999999 13.856406460551016 0.0
vertex 11.313708498984754 -11.313708498984761 0.0
vertex 11.31370849898476 11.313708498984761 0.0
endloop
endfacet
facet normal -0.0 -0.0 1.0
outer loop
vertex 11.31370849898476 11.313708498984761 0.0
vertex 11.313708498984754 -11.313708498984761 0.0
vertex 13.85640646055101 -8.000000000000007 0.0
endloop
endfacet
facet normal -0.0 -0.0 1.0
outer loop
vertex 11.31370849898476 11.313708498984761 0.0
vertex 13.85640646055101 -8.000000000000007 0.0
vertex 13.856406460551016 7.999999999999998 0.0
endloop
endfacet
facet normal -0.0 -0.0 1.0
outer loop
vertex 13.856406460551016 7.999999999999998 0.0
vertex 13.85640646055101 -8.000000000000007 0.0
vertex 15.454813220625086 -4.141104721640344 0.0
endloop
endfacet
facet normal -0.0 -0.0 1.0
outer loop
vertex 13.856406460551016 7.999999999999998 0.0
vertex 15.454813220625086 -4.141104721640344 0.0
vertex 15.454813220625088 4.141104721640332 0.0
endloop
endfacet
facet normal -0.0 -0.0 1.0
outer loop
vertex 15.454813220625088 4.141104721640332 0.0
vertex 15.454813220625086 -4.141104721640344 0.0
vertex 15.999999999999996 0.0 0.0
endloop
endfacet
facet normal 0.10147585994449618 -0.7707856805157138 0.6289611153008212
outer loop
vertex 10.31135075688439 -38.482484919356445 192.00042899999997
vertex -8.499574165447209e-15 -47.99999999999997 182.00042899999997
vertex 12.423314164920955 -46.36443966187523 182.00042899999997
endloop
endfacet
facet normal -3.3745414514343876e-16 -0.7747851199010314 0.6322246578392404
outer loop
vertex -8.499574165447209e-15 -47.99999999999997 182.00042899999997
vertex 10.31135075688439 -38.482484919356445 192.00042899999997
vertex -7.05464655732118e-15 -39.839999999999996 192.00042899999997
endloop
endfacet
facet normal -0.6709835963084654 0.3873925599505147 0.632224657839241
outer loop
vertex -34.50245208677199 19.920000000000012 192.00042899999997
vertex -33.94112549695427 33.94112549695428 182.00042899999997
vertex -41.569219381653014 24.0 182.00042899999997
endloop
endfacet
facet normal -0.5478558122444509 0.547855812244451 0.6322246578392413
outer loop
vertex -33.94112549695427 33.94112549695428 182.00042899999997
vertex -34.50245208677199 19.920000000000012 192.00042899999997
vertex -28.171134162472033 28.171134162472033 192.00042899999997
endloop
endfacet
facet normal -0.29751216767505256 -0.7182579101721316 0.6289611153008218
outer loop
vertex -10.311350756884451 -38.48248491935643 192.00042899999997
vertex -24.0 -41.56921938165302 182.00042899999997
vertex -12.42331416492102 -46.36443966187522 182.00042899999997
endloop
endfacet
facet normal -0.38739255995051575 -0.6709835963084647 0.6322246578392411
outer loop
vertex -24.0 -41.56921938165302 182.00042899999997
vertex -10.311350756884451 -38.48248491935643 192.00042899999997
vertex -19.920000000000012 -34.50245208677199 192.00042899999997
endloop
endfacet
facet normal 0.3873925599505143 -0.6709835963084654 0.6322246578392411
outer loop
vertex 23.999999999999947 -41.56921938165308 182.00042899999997
vertex 28.171134162472015 -28.171134162472033 192.00042899999997
vertex 19.919999999999963 -34.502452086772045 192.00042899999997
endloop
endfacet
facet normal 0.5478558122444512 -0.5478558122444507 0.6322246578392413
outer loop
vertex 28.171134162472015 -28.171134162472033 192.00042899999997
vertex 23.999999999999947 -41.56921938165308 182.00042899999997
vertex 33.94112549695425 -33.94112549695428 182.00042899999997
endloop
endfacet
facet normal -0.7071067811865475 0.7071067811865475 -9.773299926631498e-19
outer loop
vertex -33.94112549695427 33.94112549695428 182.00042899999997
vertex -23.999999999999964 41.56921938165304 31.999999999999996
vertex -33.94112549695427 33.94112549695428 31.999999999999996
endloop
endfacet
facet normal -0.49999999999999784 0.8660254037844399 -9.77329992663151e-19
outer loop
vertex -23.999999999999964 41.56921938165304 31.999999999999996
vertex -33.94112549695427 33.94112549695428 182.00042899999997
vertex -23.999999999999964 41.56921938165304 182.00042899999997
endloop
endfacet
facet normal -0.7071067811865475 0.7071067811865475 -9.773299926631498e-19
outer loop
vertex -33.94112549695427 33.94112549695428 182.00042899999997
vertex -41.569219381653014 24.0 31.999999999999996
vertex -41.569219381653014 24.0 182.00042899999997
endloop
endfacet
facet normal -0.8660254037844394 0.49999999999999867 8.671790325242695e-35
outer loop
vertex -41.569219381653014 24.0 31.999999999999996
vertex -33.94112549695427 33.94112549695428 182.00042899999997
vertex -33.94112549695427 33.94112549695428 31.999999999999996
endloop
endfacet
facet normal 0.6830127018922197 -0.18301270189222005 -0.7071067811865471
outer loop
vertex 15.454813220625086 -4.141104721640344 0.0
vertex 41.569219381653014 -24.000000000000007 31.999999999999996
vertex 13.85640646055101 -8.000000000000007 0.0
endloop
endfacet
facet normal 0.612372435695795 -0.3535533905932735 -0.7071067811865474
outer loop
vertex 41.569219381653014 -24.000000000000007 31.999999999999996
vertex 15.454813220625086 -4.141104721640344 0.0
vertex 46.36443966187521 -12.423314164921026 31.999999999999996
endloop
endfacet
facet normal 0.5000000000000001 0.5000000000000001 -0.7071067811865475
outer loop
vertex 33.94112549695428 33.94112549695428 31.999999999999996
vertex 13.856406460551016 7.999999999999998 0.0
vertex 11.31370849898476 11.313708498984761 0.0
endloop
endfacet
facet normal 0.6123724356957957 0.3535533905932726 -0.7071067811865472
outer loop
vertex 13.856406460551016 7.999999999999998 0.0
vertex 33.94112549695428 33.94112549695428 31.999999999999996
vertex 41.56921938165302 23.999999999999982 31.999999999999996
endloop
endfacet
facet normal 0.1830127018922187 -0.6830127018922202 -0.707106781186547
outer loop
vertex 12.423314164920955 -46.36443966187523 31.999999999999996
vertex -2.9391523179536467e-15 -15.999999999999998 0.0
vertex 4.141104721640324 -15.454813220625093 0.0
endloop
endfacet
facet normal -3.7709935620905646e-16 -0.7071067811865479 -0.7071067811865472
outer loop
vertex -2.9391523179536467e-15 -15.999999999999998 0.0
vertex 12.423314164920955 -46.36443966187523 31.999999999999996
vertex -8.499574165447209e-15 -47.99999999999997 31.999999999999996
endloop
endfacet
facet normal 0.68301270189222 0.18301270189221963 -0.707106781186547
outer loop
vertex 15.454813220625088 4.141104721640332 0.0
vertex 47.999999999999964 0.0 31.999999999999996
vertex 15.999999999999996 0.0 0.0
endloop
endfacet
facet normal 0.7071067811865479 -4.713908867664454e-17 -0.7071067811865471
outer loop
vertex 47.999999999999964 0.0 31.999999999999996
vertex 15.454813220625088 4.141104721640332 0.0
vertex 46.36443966187522 12.423314164920981 31.999999999999996
endloop
endfacet
facet normal -0.0 -0.0 1.0
outer loop
vertex -46.36443966187522 -12.423314164920958 182.00042899999997
vertex -46.36443966187522 12.423314164920999 182.00042899999997
vertex -47.999999999999964 5.8783046359072895e-15 182.00042899999997
endloop
endfacet
facet normal -0.0 -0.0 1.0
outer loop
vertex -46.36443966187522 12.423314164920999 182.00042899999997
vertex -46.36443966187522 -12.423314164920958 182.00042899999997
vertex -41.56921938165304 -23.999999999999975 182.00042899999997
endloop
endfacet
facet normal -0.0 -0.0 1.0
outer loop
vertex -46.36443966187522 12.423314164920999 182.00042899999997
vertex -41.56921938165304 -23.999999999999975 182.00042899999997
vertex -41.569219381653014 24.0 182.00042899999997
endloop
endfacet
facet normal -0.0 -0.0 1.0
outer loop
vertex -41.569219381653014 24.0 182.00042899999997
vertex -41.56921938165304 -23.999999999999975 182.00042899999997
vertex -33.94112549695428 -33.94112549695422 182.00042899999997
endloop
endfacet
facet normal -0.0 -0.0 1.0
outer loop
vertex -41.569219381653014 24.0 182.00042899999997
vertex -33.94112549695428 -33.94112549695422 182.00042899999997
vertex -33.94112549695427 33.94112549695428 182.00042899999997
endloop
endfacet
facet normal -0.0 -0.0 1.0
outer loop
vertex -33.94112549695427 33.94112549695428 182.00042899999997
vertex -33.94112549695428 -33.94112549695422 182.00042899999997
vertex -24.0 -41.56921938165302 182.00042899999997
endloop
endfacet
facet normal -0.0 -0.0 1.0
outer loop
vertex -33.94112549695427 33.94112549695428 182.00042899999997
vertex -24.0 -41.56921938165302 182.00042899999997
vertex -23.999999999999964 41.56921938165304 182.00042899999997
endloop
endfacet
facet normal -0.0 -0.0 1.0
outer loop
vertex -23.999999999999964 41.56921938165304 182.00042899999997
vertex -24.0 -41.56921938165302 182.00042899999997
vertex -12.42331416492102 -46.36443966187522 182.00042899999997
endloop
endfacet
facet normal -0.0 -0.0 1.0
outer loop
vertex -23.999999999999964 41.56921938165304 182.00042899999997
vertex -12.42331416492102 -46.36443966187522 182.00042899999997
vertex -12.423314164920967 46.36443966187522 182.00042899999997
endloop
endfacet
facet normal -0.0 -0.0 1.0
outer loop
vertex -12.423314164920967 46.36443966187522 182.00042899999997
vertex -12.42331416492102 -46.36443966187522 182.00042899999997
vertex -8.499574165447209e-15 -47.99999999999997 182.00042899999997
endloop
endfacet
facet normal -0.0 -0.0 1.0
outer loop
vertex -12.423314164920967 46.36443966187522 182.00042899999997
vertex -8.499574165447209e-15 -47.99999999999997 182.00042899999997
vertex 3.2570351063673684e-15 47.99999999999997 182.00042899999997
endloop
endfacet
facet normal -0.0 -0.0 1.0
outer loop
vertex 3.2570351063673684e-15 47.99999999999997 182.00042899999997
vertex -8.499574165447209e-15 -47.99999999999997 182.00042899999997
vertex 12.423314164920955 -46.36443966187523 182.00042899999997
endloop
endfacet
facet normal -0.0 -0.0 1.0
outer loop
vertex 3.2570351063673684e-15 47.99999999999997 182.00042899999997
vertex 12.423314164920955 -46.36443966187523 182.00042899999997
vertex 12.423314164920999 46.36443966187522 182.00042899999997
endloop
endfacet
facet normal -0.0 -0.0 1.0
outer loop
vertex 12.423314164920999 46.36443966187522 182.00042899999997
vertex 12.423314164920955 -46.36443966187523 182.00042899999997
vertex 23.999999999999947 -41.56921938165308 182.00042899999997
endloop
endfacet
facet normal -0.0 -0.0 1.0
outer loop
vertex 12.423314164920999 46.36443966187522 182.00042899999997
vertex 23.999999999999947 -41.56921938165308 182.00042899999997
vertex 23.999999999999986 41.56921938165302 182.00042899999997
endloop
endfacet
facet normal -0.0 -0.0 1.0
outer loop
vertex 23.999999999999986 41.56921938165302 182.00042899999997
vertex 23.999999999999947 -41.56921938165308 182.00042899999997
vertex 33.94112549695425 -33.94112549695428 182.00042899999997
endloop
endfacet
facet normal -0.0 -0.0 1.0
outer loop
vertex 23.999999999999986 41.56921938165302 182.00042899999997
vertex 33.94112549695425 -33.94112549695428 182.00042899999997
vertex 33.94112549695428 33.94112549695428 182.00042899999997
endloop
endfacet
facet normal -0.0 -0.0 1.0
outer loop
vertex 33.94112549695428 33.94112549695428 182.00042899999997
vertex 33.94112549695425 -33.94112549695428 182.00042899999997
vertex 41.569219381653014 -24.000000000000007 182.00042899999997
endloop
endfacet
facet normal -0.0 -0.0 1.0
outer loop
vertex 33.94112549695428 33.94112549695428 182.00042899999997
vertex 41.569219381653014 -24.000000000000007 182.00042899999997
vertex 41.56921938165302 23.999999999999982 182.00042899999997
endloop
endfacet
facet normal -0.0 -0.0 1.0
outer loop
vertex 41.56921938165302 23.999999999999982 182.00042899999997
vertex 41.569219381653014 -24.000000000000007 182.00042899999997
vertex 46.36443966187521 -12.423314164921026 182.00042899999997
endloop
endfacet
facet normal -0.0 -0.0 1.0
outer loop
vertex 41.56921938165302 23.999999999999982 182.00042899999997
vertex 46.36443966187521 -12.423314164921026 182.00042899999997
vertex 46.36443966187522 12.423314164920981 182.00042899999997
endloop
endfacet
facet normal -0.0 -0.0 1.0
outer loop
vertex 46.36443966187522 12.423314164920981 182.00042899999997
vertex 46.36443966187521 -12.423314164921026 182.00042899999997
vertex 47.999999999999964 0.0 182.00042899999997
endloop
endfacet
facet normal -0.5 0.5000000000000003 -0.7071067811865474
outer loop
vertex -33.94112549695427 33.94112549695428 31.999999999999996
vertex -13.856406460551012 8.000000000000005 0.0
vertex -41.569219381653014 24.0 31.999999999999996
endloop
endfacet
facet normal -0.6123724356957954 0.35355339059327295 -0.7071067811865472
outer loop
vertex -13.856406460551012 8.000000000000005 0.0
vertex -33.94112549695427 33.94112549695428 31.999999999999996
vertex -11.313708498984758 11.313708498984761 0.0
endloop
endfacet
facet normal -0.5000000000000007 -0.4999999999999999 -0.707106781186547
outer loop
vertex -11.313708498984765 -11.313708498984754 0.0
vertex -24.0 -41.56921938165302 31.999999999999996
vertex -33.94112549695428 -33.94112549695422 31.999999999999996
endloop
endfacet
facet normal -0.3535533905932744 -0.6123724356957945 -0.7071067811865472
outer loop
vertex -24.0 -41.56921938165302 31.999999999999996
vertex -11.313708498984765 -11.313708498984754 0.0
vertex -8.000000000000005 -13.856406460551016 0.0
endloop
endfacet
facet normal -3.488292562071696e-16 -0.7071067811865479 -0.7071067811865472
outer loop
vertex -8.499574165447209e-15 -47.99999999999997 31.999999999999996
vertex -4.141104721640343 -15.454813220625088 0.0
vertex -2.9391523179536467e-15 -15.999999999999998 0.0
endloop
endfacet
facet normal -0.18301270189221988 -0.6830127018922197 -0.707106781186547
outer loop
vertex -4.141104721640343 -15.454813220625088 0.0
vertex -8.499574165447209e-15 -47.99999999999997 31.999999999999996
vertex -12.42331416492102 -46.36443966187522 31.999999999999996
endloop
endfacet
facet normal -0.7071067811865479 -2.8283453205986724e-17 -0.707106781186547
outer loop
vertex -47.999999999999964 5.8783046359072895e-15 31.999999999999996
vertex -15.454813220625091 -4.141104721640326 0.0
vertex -46.36443966187522 -12.423314164920958 31.999999999999996
endloop
endfacet
facet normal -0.6830127018922204 -0.1830127018922186 -0.7071067811865468
outer loop
vertex -15.454813220625091 -4.141104721640326 0.0
vertex -47.999999999999964 5.8783046359072895e-15 31.999999999999996
vertex -15.999999999999996 1.9594348786357647e-15 0.0
endloop
endfacet
facet normal -0.6123724356957954 -0.353553390593273 -0.7071067811865472
outer loop
vertex -13.856406460551018 -7.999999999999996 0.0
vertex -33.94112549695428 -33.94112549695422 31.999999999999996
vertex -41.56921938165304 -23.999999999999975 31.999999999999996
endloop
endfacet
facet normal -0.5000000000000007 -0.4999999999999999 -0.7071067811865471
outer loop
vertex -33.94112549695428 -33.94112549695422 31.999999999999996
vertex -13.856406460551018 -7.999999999999996 0.0
vertex -11.313708498984765 -11.313708498984754 0.0
endloop
endfacet
facet normal -0.7071067811865479 -2.8283453205986724e-17 -0.707106781186547
outer loop
vertex -47.999999999999964 5.8783046359072895e-15 31.999999999999996
vertex -15.454813220625088 4.141104721640336 0.0
vertex -15.999999999999996 1.9594348786357647e-15 0.0
endloop
endfacet
facet normal -0.6830127018922201 0.1830127018922192 -0.7071067811865468
outer loop
vertex -15.454813220625088 4.141104721640336 0.0
vertex -47.999999999999964 5.8783046359072895e-15 31.999999999999996
vertex -46.36443966187522 12.423314164920999 31.999999999999996
endloop
endfacet
facet normal -0.6830127018922204 -0.1830127018922186 -0.7071067811865468
outer loop
vertex -15.454813220625091 -4.141104721640326 0.0
vertex -41.56921938165304 -23.999999999999975 31.999999999999996
vertex -46.36443966187522 -12.423314164920958 31.999999999999996
endloop
endfacet
facet normal -0.6123724356957954 -0.35355339059327306 -0.7071067811865472
outer loop
vertex -41.56921938165304 -23.999999999999975 31.999999999999996
vertex -15.454813220625091 -4.141104721640326 0.0
vertex -13.856406460551018 -7.999999999999996 0.0
endloop
endfacet
facet normal -0.3535533905932744 -0.6123724356957945 -0.7071067811865472
outer loop
vertex -8.000000000000005 -13.856406460551016 0.0
vertex -12.42331416492102 -46.36443966187522 31.999999999999996
vertex -24.0 -41.56921938165302 31.999999999999996
endloop
endfacet
facet normal -0.1830127018922199 -0.6830127018922196 -0.707106781186547
outer loop
vertex -12.42331416492102 -46.36443966187522 31.999999999999996
vertex -8.000000000000005 -13.856406460551016 0.0
vertex -4.141104721640343 -15.454813220625088 0.0
endloop
endfacet
facet normal -0.49999999999999784 0.8660254037844399 -9.77329992663151e-19
outer loop
vertex -23.999999999999964 41.56921938165304 182.00042899999997
vertex -12.423314164920967 46.36443966187522 31.999999999999996
vertex -23.999999999999964 41.56921938165304 31.999999999999996
endloop
endfacet
facet normal -0.38268343236508673 0.9238795325112881 -2.7050328703852727e-34
outer loop
vertex -12.423314164920967 46.36443966187522 31.999999999999996
vertex -23.999999999999964 41.56921938165304 182.00042899999997
vertex -12.423314164920967 46.36443966187522 182.00042899999997
endloop
endfacet
facet normal 0.8660254037844389 -0.49999999999999944 -8.680434084090923e-34
outer loop
vertex 41.569219381653014 -24.000000000000007 31.999999999999996
vertex 33.94112549695425 -33.94112549695428 182.00042899999997
vertex 33.94112549695425 -33.94112549695428 31.999999999999996
endloop
endfacet
facet normal 0.7071067811865477 -0.7071067811865472 -3.404893706244881e-19
outer loop
vertex 33.94112549695425 -33.94112549695428 182.00042899999997
vertex 41.569219381653014 -24.000000000000007 31.999999999999996
vertex 41.569219381653014 -24.000000000000007 182.00042899999997
endloop
endfacet
facet normal 0.7071067811865477 0.7071067811865475 -2.2625123891325868e-33
outer loop
vertex 33.94112549695428 33.94112549695428 31.999999999999996
vertex 41.56921938165302 23.999999999999982 182.00042899999997
vertex 41.56921938165302 23.999999999999982 31.999999999999996
endloop
endfacet
facet normal 0.8660254037844398 0.49999999999999817 -1.4288591741512453e-33
outer loop
vertex 41.56921938165302 23.999999999999982 182.00042899999997
vertex 33.94112549695428 33.94112549695428 31.999999999999996
vertex 33.94112549695428 33.94112549695428 182.00042899999997
endloop
endfacet
facet normal 0.49999999999999833 0.8660254037844396 -5.60815765742155e-34
outer loop
vertex 23.999999999999986 41.56921938165302 182.00042899999997
vertex 33.94112549695428 33.94112549695428 31.999999999999996
vertex 23.999999999999986 41.56921938165302 31.999999999999996
endloop
endfacet
facet normal 0.7071067811865477 0.7071067811865475 -2.2625123891325868e-33
outer loop
vertex 33.94112549695428 33.94112549695428 31.999999999999996
vertex 23.999999999999986 41.56921938165302 182.00042899999997
vertex 33.94112549695428 33.94112549695428 182.00042899999997
endloop
endfacet
facet normal 0.38268343236508845 0.9238795325112873 2.7050328703852847e-34
outer loop
vertex 12.423314164920999 46.36443966187522 182.00042899999997
vertex 23.999999999999986 41.56921938165302 31.999999999999996
vertex 12.423314164920999 46.36443966187522 31.999999999999996
endloop
endfacet
facet normal 0.49999999999999833 0.8660254037844396 -5.60815765742155e-34
outer loop
vertex 23.999999999999986 41.56921938165302 31.999999999999996
vertex 12.423314164920999 46.36443966187522 182.00042899999997
vertex 23.999999999999986 41.56921938165302 182.00042899999997
endloop
endfacet
facet normal 0.8660254037844398 0.49999999999999817 -1.4288591741512453e-33
outer loop
vertex 41.56921938165302 23.999999999999982 31.999999999999996
vertex 46.36443966187522 12.423314164920981 182.00042899999997
vertex 46.36443966187522 12.423314164920981 31.999999999999996
endloop
endfacet
facet normal 0.9238795325112875 0.3826834323650882 2.7050328703852825e-34
outer loop
vertex 46.36443966187522 12.423314164920981 182.00042899999997
vertex 41.56921938165302 23.999999999999982 31.999999999999996
vertex 41.56921938165302 23.999999999999982 182.00042899999997
endloop
endfacet
facet normal 0.9238795325112873 -0.3826834323650887 -0.0
outer loop
vertex 46.36443966187521 -12.423314164921026 31.999999999999996
vertex 41.569219381653014 -24.000000000000007 182.00042899999997
vertex 41.569219381653014 -24.000000000000007 31.999999999999996
endloop
endfacet
facet normal 0.8660254037844389 -0.49999999999999944 -8.680434084090923e-34
outer loop
vertex 41.569219381653014 -24.000000000000007 182.00042899999997
vertex 46.36443966187521 -12.423314164921026 31.999999999999996
vertex 46.36443966187521 -12.423314164921026 182.00042899999997
endloop
endfacet
facet normal -0.9238795325112884 -0.3826834323650861 5.410065740770536e-34
outer loop
vertex -46.36443966187522 -12.423314164920958 182.00042899999997
vertex -41.56921938165304 -23.999999999999975 31.999999999999996
vertex -41.56921938165304 -23.999999999999975 182.00042899999997
endloop
endfacet
facet normal -0.8660254037844395 -0.49999999999999856 -1.6118425496536286e-34
outer loop
vertex -41.56921938165304 -23.999999999999975 31.999999999999996
vertex -46.36443966187522 -12.423314164920958 182.00042899999997
vertex -46.36443966187522 -12.423314164920958 31.999999999999996
endloop
endfacet
facet normal -0.38268343236508884 -0.9238795325112873 1.2182385027092119e-18
outer loop
vertex -12.42331416492102 -46.36443966187522 182.00042899999997
vertex -24.0 -41.56921938165302 31.999999999999996
vertex -12.42331416492102 -46.36443966187522 31.999999999999996
endloop
endfacet
facet normal -0.5 -0.8660254037844386 6.143753173631561e-19
outer loop
vertex -24.0 -41.56921938165302 31.999999999999996
vertex -12.42331416492102 -46.36443966187522 182.00042899999997
vertex -24.0 -41.56921938165302 182.00042899999997
endloop
endfacet
facet normal 0.4999999999999982 -0.8660254037844396 -3.40489370624486e-19
outer loop
vertex 23.999999999999947 -41.56921938165308 182.00042899999997
vertex 12.423314164920955 -46.36443966187523 31.999999999999996
vertex 23.999999999999947 -41.56921938165308 31.999999999999996
endloop
endfacet
facet normal 0.38268343236508573 -0.9238795325112884 2.6122108169396842e-33
outer loop
vertex 12.423314164920955 -46.36443966187523 31.999999999999996
vertex 23.999999999999947 -41.56921938165308 182.00042899999997
vertex 12.423314164920955 -46.36443966187523 182.00042899999997
endloop
endfacet
facet normal 0.7071067811865477 -0.7071067811865472 -3.404893706244881e-19
outer loop
vertex 33.94112549695425 -33.94112549695428 182.00042899999997
vertex 23.999999999999947 -41.56921938165308 31.999999999999996
vertex 33.94112549695425 -33.94112549695428 31.999999999999996
endloop
endfacet
facet normal 0.4999999999999982 -0.8660254037844396 -3.40489370624486e-19
outer loop
vertex 23.999999999999947 -41.56921938165308 31.999999999999996
vertex 33.94112549695425 -33.94112549695428 182.00042899999997
vertex 23.999999999999947 -41.56921938165308 182.00042899999997
endloop
endfacet
facet normal -0.8660254037844395 -0.49999999999999856 -1.6118425496536286e-34
outer loop
vertex -41.56921938165304 -23.999999999999975 182.00042899999997
vertex -33.94112549695428 -33.94112549695422 31.999999999999996
vertex -33.94112549695428 -33.94112549695422 182.00042899999997
endloop
endfacet
facet normal -0.7071067811865477 -0.7071067811865474 -1.3020651126136408e-33
outer loop
vertex -33.94112549695428 -33.94112549695422 31.999999999999996
vertex -41.56921938165304 -23.999999999999975 182.00042899999997
vertex -41.56921938165304 -23.999999999999975 31.999999999999996
endloop
endfacet
facet normal -0.5 -0.8660254037844386 6.143753173631561e-19
outer loop
vertex -24.0 -41.56921938165302 182.00042899999997
vertex -33.94112549695428 -33.94112549695422 31.999999999999996
vertex -24.0 -41.56921938165302 31.999999999999996
endloop
endfacet
facet normal -0.7071067811865477 -0.7071067811865474 -1.3020651126136408e-33
outer loop
vertex -33.94112549695428 -33.94112549695422 31.999999999999996
vertex -24.0 -41.56921938165302 182.00042899999997
vertex -33.94112549695428 -33.94112549695422 182.00042899999997
endloop
endfacet
facet normal -0.8660254037844394 0.49999999999999867 8.671790325242695e-35
outer loop
vertex -41.569219381653014 24.0 182.00042899999997
vertex -46.36443966187522 12.423314164920999 31.999999999999996
vertex -46.36443966187522 12.423314164920999 182.00042899999997
endloop
endfacet
facet normal -0.9238795325112873 0.3826834323650885 -2.0712042428626243e-33
outer loop
vertex -46.36443966187522 12.423314164920999 31.999999999999996
vertex -41.569219381653014 24.0 182.00042899999997
vertex -41.569219381653014 24.0 31.999999999999996
endloop
endfacet
facet normal -0.6123724356957952 0.35355339059327306 -0.7071067811865474
outer loop
vertex -41.569219381653014 24.0 31.999999999999996
vertex -15.454813220625088 4.141104721640336 0.0
vertex -46.36443966187522 12.423314164920999 31.999999999999996
endloop
endfacet
facet normal -0.6830127018922201 0.1830127018922192 -0.7071067811865468
outer loop
vertex -15.454813220625088 4.141104721640336 0.0
vertex -41.569219381653014 24.0 31.999999999999996
vertex -13.856406460551012 8.000000000000005 0.0
endloop
endfacet
facet normal 0.5000000000000009 -0.49999999999999956 -0.7071067811865474
outer loop
vertex 11.313708498984754 -11.313708498984761 0.0
vertex 23.999999999999947 -41.56921938165308 31.999999999999996
vertex 7.999999999999987 -13.856406460551025 0.0
endloop
endfacet
facet normal 0.35355339059327306 -0.612372435695795 -0.7071067811865474
outer loop
vertex 23.999999999999947 -41.56921938165308 31.999999999999996
vertex 11.313708498984754 -11.313708498984761 0.0
vertex 33.94112549695425 -33.94112549695428 31.999999999999996
endloop
endfacet
facet normal 0.3535533905932731 -0.612372435695795 -0.7071067811865475
outer loop
vertex 7.999999999999987 -13.856406460551025 0.0
vertex 12.423314164920955 -46.36443966187523 31.999999999999996
vertex 4.141104721640324 -15.454813220625093 0.0
endloop
endfacet
facet normal 0.1830127018922187 -0.6830127018922202 -0.707106781186547
outer loop
vertex 12.423314164920955 -46.36443966187523 31.999999999999996
vertex 7.999999999999987 -13.856406460551025 0.0
vertex 23.999999999999947 -41.56921938165308 31.999999999999996
endloop
endfacet
facet normal -6.599472414730238e-17 0.7071067811865479 -0.7071067811865472
outer loop
vertex 3.2570351063673684e-15 47.99999999999997 31.999999999999996
vertex 4.1411047216403345 15.454813220625091 0.0
vertex 9.797174393178824e-16 15.999999999999998 0.0
endloop
endfacet
facet normal 0.18301270189222016 0.6830127018922199 -0.707106781186547
outer loop
vertex 4.1411047216403345 15.454813220625091 0.0
vertex 3.2570351063673684e-15 47.99999999999997 31.999999999999996
vertex 12.423314164920999 46.36443966187522 31.999999999999996
endloop
endfacet
facet normal 0.353553390593273 0.6123724356957955 -0.7071067811865472
outer loop
vertex 23.999999999999986 41.56921938165302 31.999999999999996
vertex 11.31370849898476 11.313708498984761 0.0
vertex 7.999999999999999 13.856406460551016 0.0
endloop
endfacet
facet normal 0.5000000000000001 0.5000000000000001 -0.7071067811865475
outer loop
vertex 11.31370849898476 11.313708498984761 0.0
vertex 23.999999999999986 41.56921938165302 31.999999999999996
vertex 33.94112549695428 33.94112549695428 31.999999999999996
endloop
endfacet
facet normal 0.18301270189222013 0.6830127018922197 -0.707106781186547
outer loop
vertex 12.423314164920999 46.36443966187522 31.999999999999996
vertex 7.999999999999999 13.856406460551016 0.0
vertex 4.1411047216403345 15.454813220625091 0.0
endloop
endfacet
facet normal 0.35355339059327295 0.6123724356957955 -0.7071067811865472
outer loop
vertex 7.999999999999999 13.856406460551016 0.0
vertex 12.423314164920999 46.36443966187522 31.999999999999996
vertex 23.999999999999986 41.56921938165302 31.999999999999996
endloop
endfacet
facet normal -0.353553390593273 0.6123724356957955 -0.7071067811865472
outer loop
vertex -23.999999999999964 41.56921938165304 31.999999999999996
vertex -11.313708498984758 11.313708498984761 0.0
vertex -33.94112549695427 33.94112549695428 31.999999999999996
endloop
endfacet
facet normal -0.49999999999999994 0.5000000000000003 -0.7071067811865475
outer loop
vertex -11.313708498984758 11.313708498984761 0.0
vertex -23.999999999999964 41.56921938165304 31.999999999999996
vertex -7.999999999999994 13.856406460551018 0.0
endloop
endfacet
facet normal -0.18301270189221966 0.6830127018922199 -0.7071067811865469
outer loop
vertex -12.423314164920967 46.36443966187522 31.999999999999996
vertex 9.797174393178824e-16 15.999999999999998 0.0
vertex -4.141104721640329 15.454813220625091 0.0
endloop
endfacet
facet normal -9.217984262888046e-17 0.7071067811865479 -0.7071067811865472
outer loop
vertex 9.797174393178824e-16 15.999999999999998 0.0
vertex -12.423314164920967 46.36443966187522 31.999999999999996
vertex 3.2570351063673684e-15 47.99999999999997 31.999999999999996
endloop
endfacet
facet normal -0.18301270189221966 0.6830127018922199 -0.7071067811865469
outer loop
vertex -12.423314164920967 46.36443966187522 31.999999999999996
vertex -7.999999999999994 13.856406460551018 0.0
vertex -23.999999999999964 41.56921938165304 31.999999999999996
endloop
endfacet
facet normal -0.35355339059327295 0.6123724356957955 -0.7071067811865472
outer loop
vertex -7.999999999999994 13.856406460551018 0.0
vertex -12.423314164920967 46.36443966187522 31.999999999999996
vertex -4.141104721640329 15.454813220625091 0.0
endloop
endfacet
facet normal 0.38739255995051447 -0.6709835963084654 0.6322246578392412
outer loop
vertex 19.919999999999963 -34.502452086772045 192.00042899999997
vertex 12.423314164920955 -46.36443966187523 182.00042899999997
vertex 23.999999999999947 -41.56921938165308 182.00042899999997
endloop
endfacet
facet normal 0.29751216767505 -0.7182579101721326 0.6289611153008217
outer loop
vertex 12.423314164920955 -46.36443966187523 182.00042899999997
vertex 19.919999999999963 -34.502452086772045 192.00042899999997
vertex 10.31135075688439 -38.482484919356445 192.00042899999997
endloop
endfacet
facet normal -0.6709835963084654 0.3873925599505147 0.632224657839241
outer loop
vertex -34.50245208677199 19.920000000000012 192.00042899999997
vertex -46.36443966187522 12.423314164920999 182.00042899999997
vertex -38.48248491935643 10.31135075688443 192.00042899999997
endloop
endfacet
facet normal -0.7182579101721318 0.29751216767505223 0.6289611153008217
outer loop
vertex -46.36443966187522 12.423314164920999 182.00042899999997
vertex -34.50245208677199 19.920000000000012 192.00042899999997
vertex -41.569219381653014 24.0 182.00042899999997
endloop
endfacet
facet normal 0.5478558122444512 -0.5478558122444508 0.6322246578392412
outer loop
vertex 33.94112549695425 -33.94112549695428 182.00042899999997
vertex 34.50245208677199 -19.920000000000016 192.00042899999997
vertex 28.171134162472015 -28.171134162472033 192.00042899999997
endloop
endfacet
facet normal 0.670983596308465 -0.38739255995051536 0.632224657839241
outer loop
vertex 34.50245208677199 -19.920000000000016 192.00042899999997
vertex 33.94112549695425 -33.94112549695428 182.00042899999997
vertex 41.569219381653014 -24.000000000000007 182.00042899999997
endloop
endfacet
facet normal -0.7707856805157138 -0.10147585994449654 0.6289611153008211
outer loop
vertex -38.48248491935643 -10.311350756884394 192.00042899999997
vertex -47.999999999999964 5.8783046359072895e-15 182.00042899999997
vertex -46.36443966187522 -12.423314164920958 182.00042899999997
endloop
endfacet
facet normal -0.7747851199010315 -1.312321675557817e-16 0.6322246578392402
outer loop
vertex -47.999999999999964 5.8783046359072895e-15 182.00042899999997
vertex -38.48248491935643 -10.311350756884394 192.00042899999997
vertex -39.83999999999998 4.8789928478030495e-15 192.00042899999997
endloop
endfacet
facet normal 0.7182579101721317 -0.29751216767505245 0.6289611153008215
outer loop
vertex 46.36443966187521 -12.423314164921026 182.00042899999997
vertex 34.50245208677199 -19.920000000000016 192.00042899999997
vertex 41.569219381653014 -24.000000000000007 182.00042899999997
endloop
endfacet
facet normal 0.670983596308465 -0.38739255995051536 0.632224657839241
outer loop
vertex 34.50245208677199 -19.920000000000016 192.00042899999997
vertex 46.36443966187521 -12.423314164921026 182.00042899999997
vertex 38.48248491935642 -10.311350756884456 192.00042899999997
endloop
endfacet
facet normal 0.2975121676750524 0.7182579101721317 0.6289611153008218
outer loop
vertex 10.31135075688443 38.48248491935643 192.00042899999997
vertex 23.999999999999986 41.56921938165302 182.00042899999997
vertex 12.423314164920999 46.36443966187522 182.00042899999997
endloop
endfacet
facet normal 0.3873925599505146 0.6709835963084655 0.6322246578392411
outer loop
vertex 23.999999999999986 41.56921938165302 182.00042899999997
vertex 10.31135075688443 38.48248491935643 192.00042899999997
vertex 19.919999999999998 34.50245208677199 192.00042899999997
endloop
endfacet
facet normal -0.6709835963084653 -0.3873925599505147 0.6322246578392411
outer loop
vertex -34.50245208677202 -19.919999999999987 192.00042899999997
vertex -46.36443966187522 -12.423314164920958 182.00042899999997
vertex -41.56921938165304 -23.999999999999975 182.00042899999997
endloop
endfacet
facet normal -0.7182579101721325 -0.2975121676750504 0.6289611153008218
outer loop
vertex -46.36443966187522 -12.423314164920958 182.00042899999997
vertex -34.50245208677202 -19.919999999999987 192.00042899999997
vertex -38.48248491935643 -10.311350756884394 192.00042899999997
endloop
endfacet
facet normal -0.770785680515714 0.10147585994449626 0.6289611153008212
outer loop
vertex -38.48248491935643 10.31135075688443 192.00042899999997
vertex -47.999999999999964 5.8783046359072895e-15 182.00042899999997
vertex -39.83999999999998 4.8789928478030495e-15 192.00042899999997
endloop
endfacet
facet normal -0.7747851199010315 -1.312321675557817e-16 0.6322246578392402
outer loop
vertex -47.999999999999964 5.8783046359072895e-15 182.00042899999997
vertex -38.48248491935643 10.31135075688443 192.00042899999997
vertex -46.36443966187522 12.423314164920999 182.00042899999997
endloop
endfacet
facet normal -0.38739255995051575 -0.6709835963084647 0.6322246578392411
outer loop
vertex -24.0 -41.56921938165302 182.00042899999997
vertex -28.171134162472036 -28.171134162471986 192.00042899999997
vertex -33.94112549695428 -33.94112549695422 182.00042899999997
endloop
endfacet
facet normal -0.5478558122444511 -0.5478558122444509 0.6322246578392412
outer loop
vertex -28.171134162472036 -28.171134162471986 192.00042899999997
vertex -24.0 -41.56921938165302 182.00042899999997
vertex -19.920000000000012 -34.50245208677199 192.00042899999997
endloop
endfacet
facet normal -0.5478558122444512 -0.5478558122444509 0.6322246578392412
outer loop
vertex -33.94112549695428 -33.94112549695422 182.00042899999997
vertex -34.50245208677202 -19.919999999999987 192.00042899999997
vertex -41.56921938165304 -23.999999999999975 182.00042899999997
endloop
endfacet
facet normal -0.6709835963084653 -0.3873925599505147 0.6322246578392411
outer loop
vertex -34.50245208677202 -19.919999999999987 192.00042899999997
vertex -33.94112549695428 -33.94112549695422 182.00042899999997
vertex -28.171134162472036 -28.171134162471986 192.00042899999997
endloop
endfacet
facet normal -3.543529407675771e-16 -0.7747851199010314 0.6322246578392403
outer loop
vertex -7.05464655732118e-15 -39.839999999999996 192.00042899999997
vertex -12.42331416492102 -46.36443966187522 182.00042899999997
vertex -8.499574165447209e-15 -47.99999999999997 182.00042899999997
endloop
endfacet
facet normal -0.10147585994449686 -0.7707856805157138 0.6289611153008212
outer loop
vertex -12.42331416492102 -46.36443966187522 182.00042899999997
vertex -7.05464655732118e-15 -39.839999999999996 192.00042899999997
vertex -10.311350756884451 -38.48248491935643 192.00042899999997
endloop
endfacet
facet normal 0.0 0.0 1.0
outer loop
vertex -38.48248491935643 -10.311350756884394 192.00042899999997
vertex -38.48248491935643 10.31135075688443 192.00042899999997
vertex -39.83999999999998 4.8789928478030495e-15 192.00042899999997
endloop
endfacet
facet normal 0.0 0.0 1.0
outer loop
vertex -38.48248491935643 10.31135075688443 192.00042899999997
vertex -38.48248491935643 -10.311350756884394 192.00042899999997
vertex -34.50245208677202 -19.919999999999987 192.00042899999997
endloop
endfacet
facet normal 0.0 0.0 1.0
outer loop
vertex -38.48248491935643 10.31135075688443 192.00042899999997
vertex -34.50245208677202 -19.919999999999987 192.00042899999997
vertex -34.50245208677199 19.920000000000012 192.00042899999997
endloop
endfacet
facet normal 0.0 0.0 1.0
outer loop
vertex -34.50245208677199 19.920000000000012 192.00042899999997
vertex -34.50245208677202 -19.919999999999987 192.00042899999997
vertex -28.171134162472036 -28.171134162471986 192.00042899999997
endloop
endfacet
facet normal 0.0 0.0 1.0
outer loop
vertex -34.50245208677199 19.920000000000012 192.00042899999997
vertex -28.171134162472036 -28.171134162471986 192.00042899999997
vertex -28.171134162472033 28.171134162472033 192.00042899999997
endloop
endfacet
facet normal 0.0 0.0 1.0
outer loop
vertex -28.171134162472033 28.171134162472033 192.00042899999997
vertex -28.171134162472036 -28.171134162471986 192.00042899999997
vertex -19.920000000000012 -34.50245208677199 192.00042899999997
endloop
endfacet
facet normal 0.0 0.0 1.0
outer loop
vertex -28.171134162472033 28.171134162472033 192.00042899999997
vertex -19.920000000000012 -34.50245208677199 192.00042899999997
vertex -19.919999999999977 34.50245208677202 192.00042899999997
endloop
endfacet
facet normal 0.0 0.0 1.0
outer loop
vertex -19.919999999999977 34.50245208677202 192.00042899999997
vertex -19.920000000000012 -34.50245208677199 192.00042899999997
vertex -10.311350756884451 -38.48248491935643 192.00042899999997
endloop
endfacet
facet normal 0.0 0.0 1.0
outer loop
vertex -19.919999999999977 34.50245208677202 192.00042899999997
vertex -10.311350756884451 -38.48248491935643 192.00042899999997
vertex -10.311350756884403 38.48248491935643 192.00042899999997
endloop
endfacet
facet normal 0.0 0.0 1.0
outer loop
vertex -10.311350756884403 38.48248491935643 192.00042899999997
vertex -10.311350756884451 -38.48248491935643 192.00042899999997
vertex -7.05464655732118e-15 -39.839999999999996 192.00042899999997
endloop
endfacet
facet normal 0.0 0.0 1.0
outer loop
vertex -10.311350756884403 38.48248491935643 192.00042899999997
vertex -7.05464655732118e-15 -39.839999999999996 192.00042899999997
vertex 2.703339138284914e-15 39.839999999999996 192.00042899999997
endloop
endfacet
facet normal 0.0 0.0 1.0
outer loop
vertex 2.703339138284914e-15 39.839999999999996 192.00042899999997
vertex -7.05464655732118e-15 -39.839999999999996 192.00042899999997
vertex 10.31135075688439 -38.482484919356445 192.00042899999997
endloop
endfacet
facet normal 0.0 0.0 1.0
outer loop
vertex 2.703339138284914e-15 39.839999999999996 192.00042899999997
vertex 10.31135075688439 -38.482484919356445 192.00042899999997
vertex 10.31135075688443 38.48248491935643 192.00042899999997
endloop
endfacet
facet normal 0.0 0.0 1.0
outer loop
vertex 10.31135075688443 38.48248491935643 192.00042899999997
vertex 10.31135075688439 -38.482484919356445 192.00042899999997
vertex 19.919999999999963 -34.502452086772045 192.00042899999997
endloop
endfacet
facet normal 0.0 0.0 1.0
outer loop
vertex 10.31135075688443 38.48248491935643 192.00042899999997
vertex 19.919999999999963 -34.502452086772045 192.00042899999997
vertex 19.919999999999998 34.50245208677199 192.00042899999997
endloop
endfacet
facet normal 0.0 0.0 1.0
outer loop
vertex 19.919999999999998 34.50245208677199 192.00042899999997
vertex 19.919999999999963 -34.502452086772045 192.00042899999997
vertex 28.171134162472015 -28.171134162472033 192.00042899999997
endloop
endfacet
facet normal 0.0 0.0 1.0
outer loop
vertex 19.919999999999998 34.50245208677199 192.00042899999997
vertex 28.171134162472015 -28.171134162472033 192.00042899999997
vertex 28.171134162472033 28.171134162472033 192.00042899999997
endloop
endfacet
facet normal 0.0 0.0 1.0
outer loop
vertex 28.171134162472033 28.171134162472033 192.00042899999997
vertex 28.171134162472015 -28.171134162472033 192.00042899999997
vertex 34.50245208677199 -19.920000000000016 192.00042899999997
endloop
endfacet
facet normal 0.0 0.0 1.0
outer loop
vertex 28.171134162472033 28.171134162472033 192.00042899999997
vertex 34.50245208677199 -19.920000000000016 192.00042899999997
vertex 34.50245208677199 19.91999999999999 192.00042899999997
endloop
endfacet
facet normal 0.0 0.0 1.0
outer loop
vertex 34.50245208677199 19.91999999999999 192.00042899999997
vertex 34.50245208677199 -19.920000000000016 192.00042899999997
vertex 38.48248491935642 -10.311350756884456 192.00042899999997
endloop
endfacet
facet normal 0.0 0.0 1.0
outer loop
vertex 34.50245208677199 19.91999999999999 192.00042899999997
vertex 38.48248491935642 -10.311350756884456 192.00042899999997
vertex 38.48248491935643 10.311350756884416 192.00042899999997
endloop
endfacet
facet normal 0.0 0.0 1.0
outer loop
vertex 38.48248491935643 10.311350756884416 192.00042899999997
vertex 38.48248491935642 -10.311350756884456 192.00042899999997
vertex 39.83999999999998 0.0 192.00042899999997
endloop
endfacet
facet normal 0.7182579101721318 0.2975121676750522 0.6289611153008217
outer loop
vertex 46.36443966187522 12.423314164920981 182.00042899999997
vertex 34.50245208677199 19.91999999999999 192.00042899999997
vertex 38.48248491935643 10.311350756884416 192.00042899999997
endloop
endfacet
facet normal 0.6709835963084655 0.3873925599505144 0.632224657839241
outer loop
vertex 34.50245208677199 19.91999999999999 192.00042899999997
vertex 46.36443966187522 12.423314164920981 182.00042899999997
vertex 41.56921938165302 23.999999999999982 182.00042899999997
endloop
endfacet
facet normal 0.547855812244451 0.5478558122444508 0.6322246578392414
outer loop
vertex 28.171134162472033 28.171134162472033 192.00042899999997
vertex 23.999999999999986 41.56921938165302 182.00042899999997
vertex 19.919999999999998 34.50245208677199 192.00042899999997
endloop
endfacet
facet normal 0.3873925599505146 0.6709835963084655 0.6322246578392411
outer loop
vertex 23.999999999999986 41.56921938165302 182.00042899999997
vertex 28.171134162472033 28.171134162472033 192.00042899999997
vertex 33.94112549695428 33.94112549695428 182.00042899999997
endloop
endfacet
facet normal 0.7747851199010313 -1.8747452507968816e-17 0.6322246578392402
outer loop
vertex 47.999999999999964 0.0 182.00042899999997
vertex 38.48248491935642 -10.311350756884456 192.00042899999997
vertex 46.36443966187521 -12.423314164921026 182.00042899999997
endloop
endfacet
facet normal 0.7707856805157138 -0.10147585994449641 0.6289611153008211
outer loop
vertex 38.48248491935642 -10.311350756884456 192.00042899999997
vertex 47.999999999999964 0.0 182.00042899999997
vertex 39.83999999999998 0.0 192.00042899999997
endloop
endfacet
facet normal -0.3873925599505141 0.6709835963084657 0.6322246578392411
outer loop
vertex -19.919999999999977 34.50245208677202 192.00042899999997
vertex -12.423314164920967 46.36443966187522 182.00042899999997
vertex -23.999999999999964 41.56921938165304 182.00042899999997
endloop
endfacet
facet normal -0.2975121676750509 0.7182579101721323 0.6289611153008217
outer loop
vertex -12.423314164920967 46.36443966187522 182.00042899999997
vertex -19.919999999999977 34.50245208677202 192.00042899999997
vertex -10.311350756884403 38.48248491935643 192.00042899999997
endloop
endfacet
facet normal -9.280672258198442e-17 0.7747851199010314 0.6322246578392402
outer loop
vertex 2.703339138284914e-15 39.839999999999996 192.00042899999997
vertex 12.423314164920999 46.36443966187522 182.00042899999997
vertex 3.2570351063673684e-15 47.99999999999997 182.00042899999997
endloop
endfacet
facet normal 0.10147585994449701 0.7707856805157138 0.6289611153008212
outer loop
vertex 12.423314164920999 46.36443966187522 182.00042899999997
vertex 2.703339138284914e-15 39.839999999999996 192.00042899999997
vertex 10.31135075688443 38.48248491935643 192.00042899999997
endloop
endfacet
facet normal 0.7707856805157138 0.10147585994449637 0.6289611153008211
outer loop
vertex 46.36443966187522 12.423314164920981 182.00042899999997
vertex 39.83999999999998 0.0 192.00042899999997
vertex 47.999999999999964 0.0 182.00042899999997
endloop
endfacet
facet normal 0.7747851199010314 -2.531092434054122e-17 0.6322246578392402
outer loop
vertex 39.83999999999998 0.0 192.00042899999997
vertex 46.36443966187522 12.423314164920981 182.00042899999997
vertex 38.48248491935643 10.311350756884416 192.00042899999997
endloop
endfacet
facet normal 0.6709835963084655 0.3873925599505144 0.632224657839241
outer loop
vertex 34.50245208677199 19.91999999999999 192.00042899999997
vertex 33.94112549695428 33.94112549695428 182.00042899999997
vertex 28.171134162472033 28.171134162472033 192.00042899999997
endloop
endfacet
facet normal 0.5478558122444509 0.5478558122444508 0.6322246578392414
outer loop
vertex 33.94112549695428 33.94112549695428 182.00042899999997
vertex 34.50245208677199 19.91999999999999 192.00042899999997
vertex 41.56921938165302 23.999999999999982 182.00042899999997
endloop
endfacet
facet normal -0.547855812244451 0.547855812244451 0.6322246578392413
outer loop
vertex -28.171134162472033 28.171134162472033 192.00042899999997
vertex -23.999999999999964 41.56921938165304 182.00042899999997
vertex -33.94112549695427 33.94112549695428 182.00042899999997
endloop
endfacet
facet normal -0.3873925599505141 0.6709835963084657 0.6322246578392411
outer loop
vertex -23.999999999999964 41.56921938165304 182.00042899999997
vertex -28.171134162472033 28.171134162472033 192.00042899999997
vertex -19.919999999999977 34.50245208677202 192.00042899999997
endloop
endfacet
facet normal -0.10147585994449718 0.7707856805157137 0.6289611153008212
outer loop
vertex -10.311350756884403 38.48248491935643 192.00042899999997
vertex 3.2570351063673684e-15 47.99999999999997 182.00042899999997
vertex -12.423314164920967 46.36443966187522 182.00042899999997
endloop
endfacet
facet normal -7.49898100318753e-17 0.7747851199010314 0.6322246578392403
outer loop
vertex 3.2570351063673684e-15 47.99999999999997 182.00042899999997
vertex -10.311350756884403 38.48248491935643 192.00042899999997
vertex 2.703339138284914e-15 39.839999999999996 192.00042899999997
endloop
endfacet
endsolid Hopper
