solid Indicators
facet normal 0.860537904350738 0.5093864104740526 0.0
outer loop
vertex -67.45204116844505 257.82854033056094 0.0
vertex -16.740372295332918 172.1581879990486 10.0
vertex -16.740372295332918 172.1581879990486 0.0
endloop
endfacet
facet normal 0.860537904350738 0.5093864104740526 0.0
outer loop
vertex -16.740372295332918 172.1581879990486 10.0
vertex -67.45204116844505 257.82854033056094 0.0
vertex -67.45204116844505 257.82854033056094 10.0
endloop
endfacet
facet normal 0.850767829605454 0.5255417206163802 0.0
outer loop
vertex -16.44798084803985 171.77348913573698 0.0
vertex -16.23485022331362 171.3398287724489 10.0
vertex -16.23485022331362 171.3398287724489 0.0
endloop
endfacet
facet normal 0.9358096557015396 0.3525057280325611 0.0
outer loop
vertex -16.23485022331362 171.3398287724489 10.0
vertex -16.44798084803985 171.77348913573698 0.0
vertex -16.44798084803985 171.77348913573698 10.0
endloop
endfacet
facet normal 0.9860640989414834 0.166365840179769 0.0
outer loop
vertex -16.108903246694165 170.87332761171743 0.0
vertex -16.074821816544564 170.39132716565712 10.0
vertex -16.074821816544564 170.39132716565712 0.0
endloop
endfacet
facet normal 0.999663022416744 -0.02595845936531385 0.0
outer loop
vertex -16.074821816544564 170.39132716565712 10.0
vertex -16.108903246694165 170.87332761171743 0.0
vertex -16.108903246694165 170.87332761171743 10.0
endloop
endfacet
facet normal 0.6174642116283248 0.7865989749282739 0.0
outer loop
vertex -67.93883794392156 258.3628480349812 10.0
vertex -67.67316378851393 258.1159891771778 0.0
vertex -67.93883794392156 258.3628480349812 0.0
endloop
endfacet
facet normal 0.7392079845813785 0.6734772123324863 0.0
outer loop
vertex -67.67316378851393 258.1159891771778 0.0
vertex -67.93883794392156 258.3628480349812 10.0
vertex -67.67316378851393 258.1159891771778 10.0
endloop
endfacet
facet normal 0.16561216696801903 0.9861909602871834 0.0
outer loop
vertex -68.92488764011948 258.7984056889797 10.0
vertex -68.57346343838007 258.7088340251605 0.0
vertex -68.92488764011948 258.7984056889797 0.0
endloop
endfacet
facet normal 0.3266504439547722 0.9451452203043457 0.0
outer loop
vertex -68.57346343838007 258.7088340251605 0.0
vertex -68.92488764011948 258.7984056889797 10.0
vertex -68.57346343838007 258.7088340251605 10.0
endloop
endfacet
facet normal 0.3266504439547722 0.9451452203043457 0.0
outer loop
vertex -68.57346343838007 258.7088340251605 10.0
vertex -68.24172622474254 258.5622991364292 0.0
vertex -68.57346343838007 258.7088340251605 0.0
endloop
endfacet
facet normal 0.47866726303598994 0.8779963845584072 0.0
outer loop
vertex -68.24172622474254 258.5622991364292 0.0
vertex -68.57346343838007 258.7088340251605 10.0
vertex -68.24172622474254 258.5622991364292 10.0
endloop
endfacet
facet normal 0.7392079845813785 0.6734772123324863 0.0
outer loop
vertex -67.67316378851393 258.1159891771778 0.0
vertex -67.45204116844505 257.82854033056094 10.0
vertex -67.45204116844505 257.82854033056094 0.0
endloop
endfacet
facet normal 0.7926131649079897 0.6097248320468338 0.0
outer loop
vertex -67.45204116844505 257.82854033056094 10.0
vertex -67.67316378851393 258.1159891771778 0.0
vertex -67.67316378851393 258.1159891771778 10.0
endloop
endfacet
facet normal 0.47866726303598994 0.8779963845584072 0.0
outer loop
vertex -68.24172622474254 258.5622991364292 10.0
vertex -67.93883794392156 258.3628480349812 0.0
vertex -68.24172622474254 258.5622991364292 0.0
endloop
endfacet
facet normal 0.6174642116283248 0.7865989749282739 0.0
outer loop
vertex -67.93883794392156 258.3628480349812 0.0
vertex -68.24172622474254 258.5622991364292 10.0
vertex -67.93883794392156 258.3628480349812 10.0
endloop
endfacet
facet normal 0.9358096557015396 0.3525057280325611 0.0
outer loop
vertex -16.23485022331362 171.3398287724489 0.0
vertex -16.108903246694165 170.87332761171743 10.0
vertex -16.108903246694165 170.87332761171743 0.0
endloop
endfacet
facet normal 0.9860640989414834 0.166365840179769 0.0
outer loop
vertex -16.108903246694165 170.87332761171743 10.0
vertex -16.23485022331362 171.3398287724489 0.0
vertex -16.23485022331362 171.3398287724489 10.0
endloop
endfacet
facet normal 0.999663022416744 -0.02595845936531385 0.0
outer loop
vertex -16.074821816544564 170.39132716565712 0.0
vertex -16.133872861189072 169.91174511010274 10.0
vertex -16.133872861189072 169.91174511010274 0.0
endloop
endfacet
facet normal 0.9761009056355354 -0.21731779038423768 0.0
outer loop
vertex -16.133872861189072 169.91174511010274 10.0
vertex -16.074821816544564 170.39132716565712 0.0
vertex -16.074821816544564 170.39132716565712 10.0
endloop
endfacet
facet normal 0.7961419438477546 0.6051099117072193 0.0
outer loop
vertex -16.740372295332918 172.1581879990486 0.0
vertex -16.44798084803985 171.77348913573698 10.0
vertex -16.44798084803985 171.77348913573698 0.0
endloop
endfacet
facet normal 0.850767829605454 0.5255417206163802 0.0
outer loop
vertex -16.44798084803985 171.77348913573698 10.0
vertex -16.740372295332918 172.1581879990486 0.0
vertex -16.740372295332918 172.1581879990486 10.0
endloop
endfacet
facet normal -0.884527661098119 -0.46648774555425504 0.0
outer loop
vertex -120.5281525747575 169.58770525349433 10.0
vertex -120.29687507573847 169.21187038696573 0.0
vertex -120.29687507573847 169.21187038696573 10.0
endloop
endfacet
facet normal -0.815054588699714 -0.5793841708569019 0.0
outer loop
vertex -120.29687507573847 169.21187038696573 0.0
vertex -120.5281525747575 169.58770525349433 10.0
vertex -120.5281525747575 169.58770525349433 0.0
endloop
endfacet
facet normal -0.5268176338893636 -0.8499783412671246 0.0
outer loop
vertex -119.33732744480704 168.31105600203784 10.0
vertex -119.69618481288525 168.56788769367085 0.0
vertex -119.33732744480704 168.31105600203784 0.0
endloop
endfacet
facet normal -0.6346142159993158 -0.772829086442516 0.0
outer loop
vertex -119.69618481288525 168.56788769367085 0.0
vertex -119.33732744480704 168.31105600203784 10.0
vertex -119.69618481288525 168.56788769367085 10.0
endloop
endfacet
facet normal -0.9842051659979114 0.17703161080164084 0.0
outer loop
vertex -120.85998134302451 171.72999639120104 10.0
vertex -120.9091456876807 171.29144879325347 0.0
vertex -120.9091456876807 171.29144879325347 10.0
endloop
endfacet
facet normal -0.9989735636596251 0.045297009936518126 0.0
outer loop
vertex -120.9091456876807 171.29144879325347 0.0
vertex -120.85998134302451 171.72999639120104 10.0
vertex -120.85998134302451 171.72999639120104 0.0
endloop
endfacet
facet normal -0.9961878873396854 -0.08723355499860219 0.0
outer loop
vertex -120.89987210541192 170.8502514121155 10.0
vertex -120.83232355263173 170.41415701698028 0.0
vertex -120.83232355263173 170.41415701698028 10.0
endloop
endfacet
facet normal -0.9758970872505769 -0.21823124225426493 0.0
outer loop
vertex -120.83232355263173 170.41415701698028 0.0
vertex -120.89987210541192 170.8502514121155 10.0
vertex -120.89987210541192 170.8502514121155 0.0
endloop
endfacet
facet normal -0.9989735636596251 0.045297009936518126 0.0
outer loop
vertex -120.9091456876807 171.29144879325347 10.0
vertex -120.89987210541192 170.8502514121155 0.0
vertex -120.89987210541192 170.8502514121155 10.0
endloop
endfacet
facet normal -0.9961878873396854 -0.08723355499860219 0.0
outer loop
vertex -120.89987210541192 170.8502514121155 0.0
vertex -120.9091456876807 171.29144879325347 10.0
vertex -120.9091456876807 171.29144879325347 0.0
endloop
endfacet
facet normal -0.9703073254574219 0.24187536907189292 0.0
outer loop
vertex -120.75324299274689 172.1581879990486 10.0
vertex -120.85998134302451 171.72999639120104 0.0
vertex -120.85998134302451 171.72999639120104 10.0
endloop
endfacet
facet normal -0.9842051659979114 0.17703161080164084 0.0
outer loop
vertex -120.85998134302451 171.72999639120104 0.0
vertex -120.75324299274689 172.1581879990486 10.0
vertex -120.75324299274689 172.1581879990486 0.0
endloop
endfacet
facet normal -0.9384577155763448 -0.34539414597706836 0.0
outer loop
vertex -120.70768699998284 169.99082870680618 10.0
vertex -120.5281525747575 169.58770525349433 0.0
vertex -120.5281525747575 169.58770525349433 10.0
endloop
endfacet
facet normal -0.884527661098119 -0.46648774555425504 0.0
outer loop
vertex -120.5281525747575 169.58770525349433 0.0
vertex -120.70768699998284 169.99082870680618 10.0
vertex -120.70768699998284 169.99082870680618 0.0
endloop
endfacet
facet normal -0.959286807371723 -0.2824337465717697 -0.0
outer loop
vertex -120.75324299274689 170.14555973093388 10.0
vertex -120.70768699998284 169.99082870680618 0.0
vertex -120.70768699998284 169.99082870680618 10.0
endloop
endfacet
facet normal -0.9384577155763448 -0.34539414597706836 0.0
outer loop
vertex -120.70768699998284 169.99082870680618 0.0
vertex -120.75324299274689 170.14555973093388 10.0
vertex -120.75324299274689 170.14555973093388 0.0
endloop
endfacet
facet normal -0.9758970872505769 -0.21823124225426493 0.0
outer loop
vertex -120.83232355263173 170.41415701698028 10.0
vertex -120.75324299274689 170.14555973093388 0.0
vertex -120.75324299274689 170.14555973093388 10.0
endloop
endfacet
facet normal -0.9592868073717136 -0.2824337465718023 -0.0
outer loop
vertex -120.75324299274689 170.14555973093388 0.0
vertex -120.83232355263173 170.41415701698028 10.0
vertex -120.83232355263173 170.41415701698028 0.0
endloop
endfacet
facet normal -0.815054588699714 -0.5793841708569019 0.0
outer loop
vertex -120.29687507573847 169.21187038696573 10.0
vertex -120.01791853672579 168.86992831907537 0.0
vertex -120.01791853672579 168.86992831907537 10.0
endloop
endfacet
facet normal -0.7312592868954481 -0.6820995934093206 0.0
outer loop
vertex -120.01791853672579 168.86992831907537 0.0
vertex -120.29687507573847 169.21187038696573 10.0
vertex -120.29687507573847 169.21187038696573 0.0
endloop
endfacet
facet normal -0.6346142159993158 -0.772829086442516 0.0
outer loop
vertex -119.69618481288525 168.56788769367085 10.0
vertex -120.01791853672579 168.86992831907537 0.0
vertex -119.69618481288525 168.56788769367085 0.0
endloop
endfacet
facet normal -0.7312592868954481 -0.6820995934093206 0.0
outer loop
vertex -120.01791853672579 168.86992831907537 0.0
vertex -119.69618481288525 168.56788769367085 10.0
vertex -120.01791853672579 168.86992831907537 10.0
endloop
endfacet
facet normal -0.0 -0.0 1.0
outer loop
vertex -18.580163179307714 167.9501979990486 10.0
vertex -112.78085536691827 173.95019799904858 10.0
vertex -118.53400683457185 167.9501979990486 10.0
endloop
endfacet
facet normal -0.0 -0.0 1.0
outer loop
vertex -112.78085536691827 173.95019799904858 10.0
vertex -18.580163179307714 167.9501979990486 10.0
vertex -24.773517037108352 173.95019799904858 10.0
endloop
endfacet
facet normal -0.0 -0.0 1.0
outer loop
vertex -120.89987210541192 170.8502514121155 10.0
vertex -120.85998134302451 171.72999639120104 10.0
vertex -120.9091456876807 171.29144879325347 10.0
endloop
endfacet
facet normal -0.0 -0.0 1.0
outer loop
vertex -120.85998134302451 171.72999639120104 10.0
vertex -120.89987210541192 170.8502514121155 10.0
vertex -120.83232355263173 170.41415701698028 10.0
endloop
endfacet
facet normal -0.0 -0.0 1.0
outer loop
vertex -120.85998134302451 171.72999639120104 10.0
vertex -120.83232355263173 170.41415701698028 10.0
vertex -120.75324299274689 172.1581879990486 10.0
endloop
endfacet
facet normal -0.0 -0.0 1.0
outer loop
vertex -120.75324299274689 172.1581879990486 10.0
vertex -120.83232355263173 170.41415701698028 10.0
vertex -120.75324299274689 170.14555973093388 10.0
endloop
endfacet
facet normal -0.0 -0.0 1.0
outer loop
vertex -120.75324299274689 172.1581879990486 10.0
vertex -120.75324299274689 170.14555973093388 10.0
vertex -120.70768699998284 169.99082870680618 10.0
endloop
endfacet
facet normal -0.0 -0.0 1.0
outer loop
vertex -120.75324299274689 172.1581879990486 10.0
vertex -120.70768699998284 169.99082870680618 10.0
vertex -71.12054516844505 257.82854033056094 10.0
endloop
endfacet
facet normal -0.0 -0.0 1.0
outer loop
vertex -71.12054516844505 257.82854033056094 10.0
vertex -120.70768699998284 169.99082870680618 10.0
vertex -120.5281525747575 169.58770525349433 10.0
endloop
endfacet
facet normal -0.0 -0.0 1.0
outer loop
vertex -71.12054516844505 257.82854033056094 10.0
vertex -120.5281525747575 169.58770525349433 10.0
vertex -120.29687507573847 169.21187038696573 10.0
endloop
endfacet
facet normal -0.0 -0.0 1.0
outer loop
vertex -71.12054516844505 257.82854033056094 10.0
vertex -120.29687507573847 169.21187038696573 10.0
vertex -120.01791853672579 168.86992831907537 10.0
endloop
endfacet
facet normal -0.0 -0.0 1.0
outer loop
vertex -71.12054516844505 257.82854033056094 10.0
vertex -120.01791853672579 168.86992831907537 10.0
vertex -119.69618481288525 168.56788769367085 10.0
endloop
endfacet
facet normal -0.0 -0.0 1.0
outer loop
vertex -71.12054516844505 257.82854033056094 10.0
vertex -119.69618481288525 168.56788769367085 10.0
vertex -119.33732744480704 168.31105600203784 10.0
endloop
endfacet
facet normal -0.0 -0.0 1.0
outer loop
vertex -71.12054516844505 257.82854033056094 10.0
vertex -119.33732744480704 168.31105600203784 10.0
vertex -118.9476523138651 168.10394631907627 10.0
endloop
endfacet
facet normal -0.0 -0.0 1.0
outer loop
vertex -71.12054516844505 257.82854033056094 10.0
vertex -118.9476523138651 168.10394631907627 10.0
vertex -118.53400683457185 167.9501979990486 10.0
endloop
endfacet
facet normal -0.0 -0.0 1.0
outer loop
vertex -71.12054516844505 257.82854033056094 10.0
vertex -118.53400683457185 167.9501979990486 10.0
vertex -112.78085536691827 173.95019799904858 10.0
endloop
endfacet
facet normal -0.0 -0.0 1.0
outer loop
vertex -71.12054516844505 257.82854033056094 10.0
vertex -112.78085536691827 173.95019799904858 10.0
vertex -69.250343656019 249.08764647394867 10.0
endloop
endfacet
facet normal -0.0 -0.0 1.0
outer loop
vertex -71.12054516844505 257.82854033056094 10.0
vertex -69.250343656019 249.08764647394867 10.0
vertex -70.89942254837617 258.1159891771778 10.0
endloop
endfacet
facet normal -0.0 -0.0 1.0
outer loop
vertex -70.89942254837617 258.1159891771778 10.0
vertex -69.250343656019 249.08764647394867 10.0
vertex -70.63374839296854 258.3628480349812 10.0
endloop
endfacet
facet normal -0.0 -0.0 1.0
outer loop
vertex -70.63374839296854 258.3628480349812 10.0
vertex -69.250343656019 249.08764647394867 10.0
vertex -70.33086011214755 258.5622991364292 10.0
endloop
endfacet
facet normal -0.0 -0.0 1.0
outer loop
vertex -70.33086011214755 258.5622991364292 10.0
vertex -69.250343656019 249.08764647394867 10.0
vertex -69.99912289851001 258.7088340251605 10.0
endloop
endfacet
facet normal -0.0 -0.0 1.0
outer loop
vertex -69.99912289851001 258.7088340251605 10.0
vertex -69.250343656019 249.08764647394867 10.0
vertex -69.64769869677062 258.7984056889797 10.0
endloop
endfacet
facet normal -0.0 -0.0 1.0
outer loop
vertex -69.64769869677062 258.7984056889797 10.0
vertex -69.250343656019 249.08764647394867 10.0
vertex -69.28629316844504 258.82854033056094 10.0
endloop
endfacet
facet normal -0.0 -0.0 1.0
outer loop
vertex -69.28629316844504 258.82854033056094 10.0
vertex -69.250343656019 249.08764647394867 10.0
vertex -68.92488764011948 258.7984056889797 10.0
endloop
endfacet
facet normal -0.0 -0.0 1.0
outer loop
vertex -68.92488764011948 258.7984056889797 10.0
vertex -69.250343656019 249.08764647394867 10.0
vertex -24.773517037108352 173.95019799904858 10.0
endloop
endfacet
facet normal -0.0 -0.0 1.0
outer loop
vertex -68.92488764011948 258.7984056889797 10.0
vertex -24.773517037108352 173.95019799904858 10.0
vertex -68.57346343838007 258.7088340251605 10.0
endloop
endfacet
facet normal -0.0 -0.0 1.0
outer loop
vertex -68.57346343838007 258.7088340251605 10.0
vertex -24.773517037108352 173.95019799904858 10.0
vertex -68.24172622474254 258.5622991364292 10.0
endloop
endfacet
facet normal -0.0 -0.0 1.0
outer loop
vertex -68.24172622474254 258.5622991364292 10.0
vertex -24.773517037108352 173.95019799904858 10.0
vertex -67.93883794392156 258.3628480349812 10.0
endloop
endfacet
facet normal -0.0 -0.0 1.0
outer loop
vertex -67.93883794392156 258.3628480349812 10.0
vertex -24.773517037108352 173.95019799904858 10.0
vertex -67.67316378851393 258.1159891771778 10.0
endloop
endfacet
facet normal -0.0 -0.0 1.0
outer loop
vertex -67.67316378851393 258.1159891771778 10.0
vertex -24.773517037108352 173.95019799904858 10.0
vertex -67.45204116844505 257.82854033056094 10.0
endloop
endfacet
facet normal -0.0 -0.0 1.0
outer loop
vertex -67.45204116844505 257.82854033056094 10.0
vertex -24.773517037108352 173.95019799904858 10.0
vertex -16.740372295332918 172.1581879990486 10.0
endloop
endfacet
facet normal -0.0 -0.0 1.0
outer loop
vertex -16.740372295332918 172.1581879990486 10.0
vertex -24.773517037108352 173.95019799904858 10.0
vertex -18.580163179307714 167.9501979990486 10.0
endloop
endfacet
facet normal -0.0 -0.0 1.0
outer loop
vertex -16.740372295332918 172.1581879990486 10.0
vertex -18.580163179307714 167.9501979990486 10.0
vertex -18.099209858012486 167.99677993351338 10.0
endloop
endfacet
facet normal -0.0 -0.0 1.0
outer loop
vertex -16.740372295332918 172.1581879990486 10.0
vertex -18.099209858012486 167.99677993351338 10.0
vertex -17.63613528718956 168.13479412024978 10.0
endloop
endfacet
facet normal -0.0 -0.0 1.0
outer loop
vertex -16.740372295332918 172.1581879990486 10.0
vertex -17.63613528718956 168.13479412024978 10.0
vertex -17.20815360038407 168.35911007965197 10.0
endloop
endfacet
facet normal -0.0 -0.0 1.0
outer loop
vertex -16.740372295332918 172.1581879990486 10.0
vertex -17.20815360038407 168.35911007965197 10.0
vertex -16.83117440346901 168.6613891873929 10.0
endloop
endfacet
facet normal -0.0 -0.0 1.0
outer loop
vertex -16.740372295332918 172.1581879990486 10.0
vertex -16.83117440346901 168.6613891873929 10.0
vertex -16.740372295332918 168.76879445370363 10.0
endloop
endfacet
facet normal -0.0 -0.0 1.0
outer loop
vertex -16.740372295332918 172.1581879990486 10.0
vertex -16.740372295332918 168.76879445370363 10.0
vertex -16.519211357846572 169.03039465083395 10.0
endloop
endfacet
facet normal -0.0 -0.0 1.0
outer loop
vertex -16.740372295332918 172.1581879990486 10.0
vertex -16.519211357846572 169.03039465083395 10.0
vertex -16.44798084803985 171.77348913573698 10.0
endloop
endfacet
facet normal -0.0 -0.0 1.0
outer loop
vertex -16.44798084803985 171.77348913573698 10.0
vertex -16.519211357846572 169.03039465083395 10.0
vertex -16.283861242668237 169.45240922068777 10.0
endloop
endfacet
facet normal -0.0 -0.0 1.0
outer loop
vertex -16.44798084803985 171.77348913573698 10.0
vertex -16.283861242668237 169.45240922068777 10.0
vertex -16.23485022331362 171.3398287724489 10.0
endloop
endfacet
facet normal -0.0 -0.0 1.0
outer loop
vertex -16.23485022331362 171.3398287724489 10.0
vertex -16.283861242668237 169.45240922068777 10.0
vertex -16.133872861189072 169.91174511010274 10.0
endloop
endfacet
facet normal -0.0 -0.0 1.0
outer loop
vertex -16.23485022331362 171.3398287724489 10.0
vertex -16.133872861189072 169.91174511010274 10.0
vertex -16.108903246694165 170.87332761171743 10.0
endloop
endfacet
facet normal -0.0 -0.0 1.0
outer loop
vertex -16.108903246694165 170.87332761171743 10.0
vertex -16.133872861189072 169.91174511010274 10.0
vertex -16.074821816544564 170.39132716565712 10.0
endloop
endfacet
facet normal -0.7392079845813785 0.6734772123324863 0.0
outer loop
vertex -70.89942254837617 258.1159891771778 10.0
vertex -70.63374839296854 258.3628480349812 0.0
vertex -70.89942254837617 258.1159891771778 0.0
endloop
endfacet
facet normal -0.6174642116283248 0.7865989749282739 0.0
outer loop
vertex -70.63374839296854 258.3628480349812 0.0
vertex -70.89942254837617 258.1159891771778 10.0
vertex -70.63374839296854 258.3628480349812 10.0
endloop
endfacet
facet normal -0.8652770255422361 0.5012939946466354 0.0
outer loop
vertex -71.12054516844505 257.82854033056094 10.0
vertex -120.75324299274689 172.1581879990486 0.0
vertex -120.75324299274689 172.1581879990486 10.0
endloop
endfacet
facet normal -0.8652770255422361 0.5012939946466354 0.0
outer loop
vertex -120.75324299274689 172.1581879990486 0.0
vertex -71.12054516844505 257.82854033056094 10.0
vertex -71.12054516844505 257.82854033056094 0.0
endloop
endfacet
facet normal -0.6174642116283248 0.7865989749282739 0.0
outer loop
vertex -70.63374839296854 258.3628480349812 10.0
vertex -70.33086011214755 258.5622991364292 0.0
vertex -70.63374839296854 258.3628480349812 0.0
endloop
endfacet
facet normal -0.47866726303598994 0.8779963845584072 0.0
outer loop
vertex -70.33086011214755 258.5622991364292 0.0
vertex -70.63374839296854 258.3628480349812 10.0
vertex -70.33086011214755 258.5622991364292 10.0
endloop
endfacet
facet normal -0.47866726303598994 0.8779963845584072 0.0
outer loop
vertex -70.33086011214755 258.5622991364292 10.0
vertex -69.99912289851001 258.7088340251605 0.0
vertex -70.33086011214755 258.5622991364292 0.0
endloop
endfacet
facet normal -0.3266504439547722 0.9451452203043457 0.0
outer loop
vertex -69.99912289851001 258.7088340251605 0.0
vertex -70.33086011214755 258.5622991364292 10.0
vertex -69.99912289851001 258.7088340251605 10.0
endloop
endfacet
facet normal -0.7392079845813785 0.6734772123324863 0.0
outer loop
vertex -70.89942254837617 258.1159891771778 10.0
vertex -71.12054516844505 257.82854033056094 0.0
vertex -71.12054516844505 257.82854033056094 10.0
endloop
endfacet
facet normal -0.7926131649079897 0.6097248320468338 0.0
outer loop
vertex -71.12054516844505 257.82854033056094 0.0
vertex -70.89942254837617 258.1159891771778 10.0
vertex -70.89942254837617 258.1159891771778 0.0
endloop
endfacet
facet normal -0.3266504439547722 0.9451452203043457 0.0
outer loop
vertex -69.99912289851001 258.7088340251605 10.0
vertex -69.64769869677062 258.7984056889797 0.0
vertex -69.99912289851001 258.7088340251605 0.0
endloop
endfacet
facet normal -0.16561216696801903 0.9861909602871834 0.0
outer loop
vertex -69.64769869677062 258.7984056889797 0.0
vertex -69.99912289851001 258.7088340251605 10.0
vertex -69.64769869677062 258.7984056889797 10.0
endloop
endfacet
facet normal -0.16561216696801903 0.9861909602871834 0.0
outer loop
vertex -69.64769869677062 258.7984056889797 10.0
vertex -69.28629316844504 258.82854033056094 0.0
vertex -69.64769869677062 258.7984056889797 0.0
endloop
endfacet
facet normal 0.0 1.0 0.0
outer loop
vertex -69.28629316844504 258.82854033056094 0.0
vertex -69.64769869677062 258.7984056889797 10.0
vertex -69.28629316844504 258.82854033056094 10.0
endloop
endfacet
facet normal 0.0 1.0 0.0
outer loop
vertex -69.28629316844504 258.82854033056094 10.0
vertex -68.92488764011948 258.7984056889797 0.0
vertex -69.28629316844504 258.82854033056094 0.0
endloop
endfacet
facet normal 0.16561216696801903 0.9861909602871834 0.0
outer loop
vertex -68.92488764011948 258.7984056889797 0.0
vertex -69.28629316844504 258.82854033056094 10.0
vertex -68.92488764011948 258.7984056889797 10.0
endloop
endfacet
facet normal 0.0 0.0 -1.0
outer loop
vertex -120.85998134302451 171.72999639120104 0.0
vertex -120.89987210541192 170.8502514121155 0.0
vertex -120.9091456876807 171.29144879325347 0.0
endloop
endfacet
facet normal 0.0 0.0 -1.0
outer loop
vertex -120.89987210541192 170.8502514121155 0.0
vertex -120.85998134302451 171.72999639120104 0.0
vertex -120.83232355263173 170.41415701698028 0.0
endloop
endfacet
facet normal 0.0 0.0 -1.0
outer loop
vertex -120.83232355263173 170.41415701698028 0.0
vertex -120.85998134302451 171.72999639120104 0.0
vertex -120.75324299274689 172.1581879990486 0.0
endloop
endfacet
facet normal 0.0 0.0 -1.0
outer loop
vertex -120.83232355263173 170.41415701698028 0.0
vertex -120.75324299274689 172.1581879990486 0.0
vertex -120.75324299274689 170.14555973093388 0.0
endloop
endfacet
facet normal 0.0 0.0 -1.0
outer loop
vertex -120.75324299274689 170.14555973093388 0.0
vertex -120.75324299274689 172.1581879990486 0.0
vertex -71.12054516844505 257.82854033056094 0.0
endloop
endfacet
facet normal 0.0 0.0 -1.0
outer loop
vertex -120.75324299274689 170.14555973093388 0.0
vertex -71.12054516844505 257.82854033056094 0.0
vertex -120.70768699998284 169.99082870680618 0.0
endloop
endfacet
facet normal 0.0 0.0 -1.0
outer loop
vertex -120.70768699998284 169.99082870680618 0.0
vertex -71.12054516844505 257.82854033056094 0.0
vertex -120.5281525747575 169.58770525349433 0.0
endloop
endfacet
facet normal 0.0 0.0 -1.0
outer loop
vertex -120.5281525747575 169.58770525349433 0.0
vertex -71.12054516844505 257.82854033056094 0.0
vertex -120.29687507573847 169.21187038696573 0.0
endloop
endfacet
facet normal 0.0 0.0 -1.0
outer loop
vertex -120.29687507573847 169.21187038696573 0.0
vertex -71.12054516844505 257.82854033056094 0.0
vertex -120.01791853672579 168.86992831907537 0.0
endloop
endfacet
facet normal 0.0 0.0 -1.0
outer loop
vertex -120.01791853672579 168.86992831907537 0.0
vertex -71.12054516844505 257.82854033056094 0.0
vertex -119.69618481288525 168.56788769367085 0.0
endloop
endfacet
facet normal 0.0 0.0 -1.0
outer loop
vertex -119.69618481288525 168.56788769367085 0.0
vertex -71.12054516844505 257.82854033056094 0.0
vertex -119.33732744480704 168.31105600203784 0.0
endloop
endfacet
facet normal 0.0 0.0 -1.0
outer loop
vertex -119.33732744480704 168.31105600203784 0.0
vertex -71.12054516844505 257.82854033056094 0.0
vertex -118.9476523138651 168.10394631907627 0.0
endloop
endfacet
facet normal 0.0 0.0 -1.0
outer loop
vertex -118.9476523138651 168.10394631907627 0.0
vertex -71.12054516844505 257.82854033056094 0.0
vertex -118.53400683457185 167.9501979990486 0.0
endloop
endfacet
facet normal 0.0 0.0 -1.0
outer loop
vertex -118.53400683457185 167.9501979990486 0.0
vertex -71.12054516844505 257.82854033056094 0.0
vertex -112.78085536691827 173.95019799904858 0.0
endloop
endfacet
facet normal 0.0 0.0 -1.0
outer loop
vertex -112.78085536691827 173.95019799904858 0.0
vertex -71.12054516844505 257.82854033056094 0.0
vertex -69.250343656019 249.08764647394867 0.0
endloop
endfacet
facet normal 0.0 0.0 -1.0
outer loop
vertex -69.250343656019 249.08764647394867 0.0
vertex -71.12054516844505 257.82854033056094 0.0
vertex -70.89942254837617 258.1159891771778 0.0
endloop
endfacet
facet normal 0.0 0.0 -1.0
outer loop
vertex -69.250343656019 249.08764647394867 0.0
vertex -70.89942254837617 258.1159891771778 0.0
vertex -70.63374839296854 258.3628480349812 0.0
endloop
endfacet
facet normal 0.0 0.0 -1.0
outer loop
vertex -69.250343656019 249.08764647394867 0.0
vertex -70.63374839296854 258.3628480349812 0.0
vertex -70.33086011214755 258.5622991364292 0.0
endloop
endfacet
facet normal 0.0 0.0 -1.0
outer loop
vertex -69.250343656019 249.08764647394867 0.0
vertex -70.33086011214755 258.5622991364292 0.0
vertex -69.99912289851001 258.7088340251605 0.0
endloop
endfacet
facet normal 0.0 0.0 -1.0
outer loop
vertex -69.250343656019 249.08764647394867 0.0
vertex -69.99912289851001 258.7088340251605 0.0
vertex -69.64769869677062 258.7984056889797 0.0
endloop
endfacet
facet normal 0.0 0.0 -1.0
outer loop
vertex -69.250343656019 249.08764647394867 0.0
vertex -69.64769869677062 258.7984056889797 0.0
vertex -69.28629316844504 258.82854033056094 0.0
endloop
endfacet
facet normal 0.0 0.0 -1.0
outer loop
vertex -69.250343656019 249.08764647394867 0.0
vertex -69.28629316844504 258.82854033056094 0.0
vertex -68.92488764011948 258.7984056889797 0.0
endloop
endfacet
facet normal 0.0 0.0 -1.0
outer loop
vertex -69.250343656019 249.08764647394867 0.0
vertex -68.92488764011948 258.7984056889797 0.0
vertex -24.773517037108352 173.95019799904858 0.0
endloop
endfacet
facet normal 0.0 0.0 -1.0
outer loop
vertex -24.773517037108352 173.95019799904858 0.0
vertex -68.92488764011948 258.7984056889797 0.0
vertex -68.57346343838007 258.7088340251605 0.0
endloop
endfacet
facet normal 0.0 0.0 -1.0
outer loop
vertex -24.773517037108352 173.95019799904858 0.0
vertex -68.57346343838007 258.7088340251605 0.0
vertex -68.24172622474254 258.5622991364292 0.0
endloop
endfacet
facet normal 0.0 0.0 -1.0
outer loop
vertex -24.773517037108352 173.95019799904858 0.0
vertex -68.24172622474254 258.5622991364292 0.0
vertex -67.93883794392156 258.3628480349812 0.0
endloop
endfacet
facet normal 0.0 0.0 -1.0
outer loop
vertex -24.773517037108352 173.95019799904858 0.0
vertex -67.93883794392156 258.3628480349812 0.0
vertex -67.67316378851393 258.1159891771778 0.0
endloop
endfacet
facet normal 0.0 0.0 -1.0
outer loop
vertex -24.773517037108352 173.95019799904858 0.0
vertex -67.67316378851393 258.1159891771778 0.0
vertex -67.45204116844505 257.82854033056094 0.0
endloop
endfacet
facet normal 0.0 0.0 -1.0
outer loop
vertex -24.773517037108352 173.95019799904858 0.0
vertex -67.45204116844505 257.82854033056094 0.0
vertex -16.740372295332918 172.1581879990486 0.0
endloop
endfacet
facet normal 0.0 0.0 -1.0
outer loop
vertex -24.773517037108352 173.95019799904858 0.0
vertex -16.740372295332918 172.1581879990486 0.0
vertex -18.580163179307714 167.9501979990486 0.0
endloop
endfacet
facet normal 0.0 0.0 -1.0
outer loop
vertex -18.580163179307714 167.9501979990486 0.0
vertex -16.740372295332918 172.1581879990486 0.0
vertex -18.099209858012486 167.99677993351338 0.0
endloop
endfacet
facet normal 0.0 0.0 -1.0
outer loop
vertex -18.099209858012486 167.99677993351338 0.0
vertex -16.740372295332918 172.1581879990486 0.0
vertex -17.63613528718956 168.13479412024978 0.0
endloop
endfacet
facet normal 0.0 0.0 -1.0
outer loop
vertex -17.63613528718956 168.13479412024978 0.0
vertex -16.740372295332918 172.1581879990486 0.0
vertex -17.20815360038407 168.35911007965197 0.0
endloop
endfacet
facet normal 0.0 0.0 -1.0
outer loop
vertex -17.20815360038407 168.35911007965197 0.0
vertex -16.740372295332918 172.1581879990486 0.0
vertex -16.83117440346901 168.6613891873929 0.0
endloop
endfacet
facet normal 0.0 0.0 -1.0
outer loop
vertex -16.83117440346901 168.6613891873929 0.0
vertex -16.740372295332918 172.1581879990486 0.0
vertex -16.740372295332918 168.76879445370363 0.0
endloop
endfacet
facet normal 0.0 0.0 -1.0
outer loop
vertex -16.740372295332918 168.76879445370363 0.0
vertex -16.740372295332918 172.1581879990486 0.0
vertex -16.44798084803985 171.77348913573698 0.0
endloop
endfacet
facet normal 0.0 0.0 -1.0
outer loop
vertex -16.740372295332918 168.76879445370363 0.0
vertex -16.44798084803985 171.77348913573698 0.0
vertex -16.519211357846572 169.03039465083395 0.0
endloop
endfacet
facet normal 0.0 0.0 -1.0
outer loop
vertex -16.519211357846572 169.03039465083395 0.0
vertex -16.44798084803985 171.77348913573698 0.0
vertex -16.283861242668237 169.45240922068777 0.0
endloop
endfacet
facet normal 0.0 0.0 -1.0
outer loop
vertex -16.283861242668237 169.45240922068777 0.0
vertex -16.44798084803985 171.77348913573698 0.0
vertex -16.23485022331362 171.3398287724489 0.0
endloop
endfacet
facet normal 0.0 0.0 -1.0
outer loop
vertex -16.283861242668237 169.45240922068777 0.0
vertex -16.23485022331362 171.3398287724489 0.0
vertex -16.133872861189072 169.91174511010274 0.0
endloop
endfacet
facet normal 0.0 0.0 -1.0
outer loop
vertex -16.133872861189072 169.91174511010274 0.0
vertex -16.23485022331362 171.3398287724489 0.0
vertex -16.108903246694165 170.87332761171743 0.0
endloop
endfacet
facet normal 0.0 0.0 -1.0
outer loop
vertex -16.133872861189072 169.91174511010274 0.0
vertex -16.108903246694165 170.87332761171743 0.0
vertex -16.074821816544564 170.39132716565712 0.0
endloop
endfacet
facet normal 0.0 0.0 -1.0
outer loop
vertex -112.78085536691827 173.95019799904858 0.0
vertex -18.580163179307714 167.9501979990486 0.0
vertex -118.53400683457185 167.9501979990486 0.0
endloop
endfacet
facet normal 0.0 0.0 -1.0
outer loop
vertex -18.580163179307714 167.9501979990486 0.0
vertex -112.78085536691827 173.95019799904858 0.0
vertex -24.773517037108352 173.95019799904858 0.0
endloop
endfacet
facet normal -0.8605379043507376 -0.5093864104740531 -0.0
outer loop
vertex -69.250343656019 249.08764647394867 10.0
vertex -24.773517037108352 173.95019799904858 0.0
vertex -24.773517037108352 173.95019799904858 10.0
endloop
endfacet
facet normal -0.8605379043507376 -0.5093864104740531 -0.0
outer loop
vertex -24.773517037108352 173.95019799904858 0.0
vertex -69.250343656019 249.08764647394867 10.0
vertex -69.250343656019 249.08764647394867 0.0
endloop
endfacet
facet normal 0.8652770255422358 -0.5012939946466353 0.0
outer loop
vertex -69.250343656019 249.08764647394867 0.0
vertex -112.78085536691827 173.95019799904858 10.0
vertex -112.78085536691827 173.95019799904858 0.0
endloop
endfacet
facet normal 0.8652770255422358 -0.5012939946466353 0.0
outer loop
vertex -112.78085536691827 173.95019799904858 10.0
vertex -69.250343656019 249.08764647394867 0.0
vertex -69.250343656019 249.08764647394867 10.0
endloop
endfacet
facet normal -0.0 0.9999999999999999 0.0
outer loop
vertex -112.78085536691827 173.95019799904858 10.0
vertex -24.773517037108352 173.95019799904858 0.0
vertex -112.78085536691827 173.95019799904858 0.0
endloop
endfacet
facet normal -0.0 0.9999999999999999 0.0
outer loop
vertex -24.773517037108352 173.95019799904858 0.0
vertex -112.78085536691827 173.95019799904858 10.0
vertex -24.773517037108352 173.95019799904858 10.0
endloop
endfacet
facet normal 0.9761009056355354 -0.21731779038423768 0.0
outer loop
vertex -16.133872861189072 169.91174511010274 0.0
vertex -16.283861242668237 169.45240922068777 10.0
vertex -16.283861242668237 169.45240922068777 0.0
endloop
endfacet
facet normal 0.9162536365226758 -0.40059864398044615 0.0
outer loop
vertex -16.283861242668237 169.45240922068777 10.0
vertex -16.133872861189072 169.91174511010274 0.0
vertex -16.133872861189072 169.91174511010274 10.0
endloop
endfacet
facet normal -0.0 -1.0 -0.0
outer loop
vertex -18.580163179307714 167.9501979990486 10.0
vertex -118.53400683457185 167.9501979990486 0.0
vertex -18.580163179307714 167.9501979990486 0.0
endloop
endfacet
facet normal -0.0 -1.0 -0.0
outer loop
vertex -118.53400683457185 167.9501979990486 0.0
vertex -18.580163179307714 167.9501979990486 10.0
vertex -118.53400683457185 167.9501979990486 10.0
endloop
endfacet
facet normal 0.5474492469716091 -0.8368388865189154 0.0
outer loop
vertex -17.20815360038407 168.35911007965197 10.0
vertex -17.63613528718956 168.13479412024978 0.0
vertex -17.20815360038407 168.35911007965197 0.0
endloop
endfacet
facet normal 0.376679118425485 -0.9263438032081822 0.0
outer loop
vertex -17.63613528718956 168.13479412024978 0.0
vertex -17.20815360038407 168.35911007965197 10.0
vertex -17.63613528718956 168.13479412024978 10.0
endloop
endfacet
facet normal 0.7636641408956242 -0.6456137234524589 0.0
outer loop
vertex -16.740372295332918 168.76879445370363 0.0
vertex -16.83117440346901 168.6613891873929 10.0
vertex -16.83117440346901 168.6613891873929 0.0
endloop
endfacet
facet normal 0.6978687343027332 -0.7162256834844036 0.0
outer loop
vertex -16.83117440346901 168.6613891873929 10.0
vertex -16.740372295332918 168.76879445370363 0.0
vertex -16.740372295332918 168.76879445370363 10.0
endloop
endfacet
facet normal -0.4097637540324239 -0.9121916826420066 0.0
outer loop
vertex -118.9476523138651 168.10394631907627 10.0
vertex -119.33732744480704 168.31105600203784 0.0
vertex -118.9476523138651 168.10394631907627 0.0
endloop
endfacet
facet normal -0.5268176338893636 -0.8499783412671246 0.0
outer loop
vertex -119.33732744480704 168.31105600203784 0.0
vertex -118.9476523138651 168.10394631907627 10.0
vertex -119.33732744480704 168.31105600203784 10.0
endloop
endfacet
facet normal 0.8223459515412679 -0.5689878170784386 0.0
outer loop
vertex -16.519211357846572 169.03039465083395 0.0
vertex -16.740372295332918 168.76879445370363 10.0
vertex -16.740372295332918 168.76879445370363 0.0
endloop
endfacet
facet normal 0.7636641408956871 -0.6456137234523845 0.0
outer loop
vertex -16.740372295332918 168.76879445370363 10.0
vertex -16.519211357846572 169.03039465083395 0.0
vertex -16.519211357846572 169.03039465083395 10.0
endloop
endfacet
facet normal 0.376679118425485 -0.9263438032081822 0.0
outer loop
vertex -17.63613528718956 168.13479412024978 10.0
vertex -18.099209858012486 167.99677993351338 0.0
vertex -17.63613528718956 168.13479412024978 0.0
endloop
endfacet
facet normal 0.19190648346502703 -0.9814132165423937 0.0
outer loop
vertex -18.099209858012486 167.99677993351338 0.0
vertex -17.63613528718956 168.13479412024978 10.0
vertex -18.099209858012486 167.99677993351338 10.0
endloop
endfacet
facet normal 0.19190648346502703 -0.9814132165423937 0.0
outer loop
vertex -18.099209858012486 167.99677993351338 10.0
vertex -18.580163179307714 167.9501979990486 0.0
vertex -18.099209858012486 167.99677993351338 0.0
endloop
endfacet
facet normal 0.09640223923130166 -0.9953424577858572 0.0
outer loop
vertex -18.580163179307714 167.9501979990486 0.0
vertex -18.099209858012486 167.99677993351338 10.0
vertex -18.580163179307714 167.9501979990486 10.0
endloop
endfacet
facet normal 0.6978687343027332 -0.7162256834844036 0.0
outer loop
vertex -16.83117440346901 168.6613891873929 10.0
vertex -17.20815360038407 168.35911007965197 0.0
vertex -16.83117440346901 168.6613891873929 0.0
endloop
endfacet
facet normal 0.5474492469716091 -0.8368388865189154 0.0
outer loop
vertex -17.20815360038407 168.35911007965197 0.0
vertex -16.83117440346901 168.6613891873929 10.0
vertex -17.20815360038407 168.35911007965197 10.0
endloop
endfacet
facet normal -0.3484027208041997 -0.9373449440500712 -0.0
outer loop
vertex -118.53400683457185 167.9501979990486 10.0
vertex -118.9476523138651 168.10394631907627 0.0
vertex -118.53400683457185 167.9501979990486 0.0
endloop
endfacet
facet normal -0.4097637540324239 -0.9121916826420066 0.0
outer loop
vertex -118.9476523138651 168.10394631907627 0.0
vertex -118.53400683457185 167.9501979990486 10.0
vertex -118.9476523138651 168.10394631907627 10.0
endloop
endfacet
facet normal 0.9162536365226758 -0.40059864398044615 0.0
outer loop
vertex -16.283861242668237 169.45240922068777 0.0
vertex -16.519211357846572 169.03039465083395 10.0
vertex -16.519211357846572 169.03039465083395 0.0
endloop
endfacet
facet normal 0.8223459515412679 -0.5689878170784386 0.0
outer loop
vertex -16.519211357846572 169.03039465083395 10.0
vertex -16.283861242668237 169.45240922068777 0.0
vertex -16.283861242668237 169.45240922068777 10.0
endloop
endfacet
endsolid Indicators
