solid Indicators
facet normal -0.0 -0.0 1.0
outer loop
vertex -457.74920138553387 46.429105019982195 10.0
vertex -449.5287005671662 75.4820872194225 10.0
vertex -468.4564134966093 56.444329447366414 10.0
endloop
endfacet
facet normal -0.0 -0.0 1.0
outer loop
vertex -449.5287005671662 75.4820872194225 10.0
vertex -457.74920138553387 46.429105019982195 10.0
vertex -439.1721708390364 65.11414155802898 10.0
endloop
endfacet
facet normal -0.0 -0.0 1.0
outer loop
vertex -449.5287005671662 75.4820872194225 10.0
vertex -458.18500762712307 104.63151474908024 10.0
vertex -468.4564134966093 94.30039140360869 10.0
endloop
endfacet
facet normal -0.0 -0.0 1.0
outer loop
vertex -458.18500762712307 104.63151474908024 10.0
vertex -449.5287005671662 75.4820872194225 10.0
vertex -439.1721708390364 85.72857875167617 10.0
endloop
endfacet
facet normal -0.0 -0.0 1.0
outer loop
vertex -439.1721708390364 85.72857875167617 10.0
vertex -449.5287005671662 75.4820872194225 10.0
vertex -439.1721708390364 65.11414155802898 10.0
endloop
endfacet
facet normal -0.0 -0.0 1.0
outer loop
vertex -439.1721708390364 85.72857875167617 10.0
vertex -439.1721708390364 65.11414155802898 10.0
vertex -420.37850036762893 46.429105019982195 10.0
endloop
endfacet
facet normal -0.0 -0.0 1.0
outer loop
vertex -439.1721708390364 85.72857875167617 10.0
vertex -420.37850036762893 46.429105019982195 10.0
vertex -428.6968402109663 75.4820872194225 10.0
endloop
endfacet
facet normal -0.0 -0.0 1.0
outer loop
vertex -428.6968402109663 75.4820872194225 10.0
vertex -420.37850036762893 46.429105019982195 10.0
vertex -409.9873123515442 56.88070691988139 10.0
endloop
endfacet
facet normal -0.0 -0.0 1.0
outer loop
vertex -428.6968402109663 75.4820872194225 10.0
vertex -420.37850036762893 104.63151474908024 10.0
vertex -439.1721708390364 85.72857875167617 10.0
endloop
endfacet
facet normal -0.0 -0.0 1.0
outer loop
vertex -420.37850036762893 104.63151474908024 10.0
vertex -428.6968402109663 75.4820872194225 10.0
vertex -409.9873123515442 94.30039140360869 10.0
endloop
endfacet
facet normal -0.6831134848525433 -0.7303122392597663 -0.0
outer loop
vertex -457.74920138553387 46.429105019982195 10.0
vertex -468.4564134966093 56.444329447366414 0.0
vertex -457.74920138553387 46.429105019982195 0.0
endloop
endfacet
facet normal -0.6831134848525433 -0.7303122392597663 -0.0
outer loop
vertex -468.4564134966093 56.444329447366414 0.0
vertex -457.74920138553387 46.429105019982195 10.0
vertex -468.4564134966093 56.444329447366414 10.0
endloop
endfacet
facet normal -0.7050542345292392 -0.709153387055571 -0.0
outer loop
vertex -449.5287005671662 75.4820872194225 10.0
vertex -468.4564134966093 94.30039140360869 0.0
vertex -449.5287005671662 75.4820872194225 0.0
endloop
endfacet
facet normal -0.7050542345292392 -0.709153387055571 -0.0
outer loop
vertex -468.4564134966093 94.30039140360869 0.0
vertex -449.5287005671662 75.4820872194225 10.0
vertex -468.4564134966093 94.30039140360869 10.0
endloop
endfacet
facet normal -0.7091533870555708 0.7050542345292393 0.0
outer loop
vertex -449.5287005671662 75.4820872194225 10.0
vertex -468.4564134966093 56.444329447366414 0.0
vertex -468.4564134966093 56.444329447366414 10.0
endloop
endfacet
facet normal -0.7091533870555708 0.7050542345292393 0.0
outer loop
vertex -468.4564134966093 56.444329447366414 0.0
vertex -449.5287005671662 75.4820872194225 10.0
vertex -449.5287005671662 75.4820872194225 0.0
endloop
endfacet
facet normal 0.7050542345292391 0.7091533870555712 0.0
outer loop
vertex -428.6968402109663 75.4820872194225 10.0
vertex -409.9873123515442 56.88070691988139 0.0
vertex -428.6968402109663 75.4820872194225 0.0
endloop
endfacet
facet normal 0.7050542345292391 0.7091533870555712 0.0
outer loop
vertex -409.9873123515442 56.88070691988139 0.0
vertex -428.6968402109663 75.4820872194225 10.0
vertex -409.9873123515442 56.88070691988139 10.0
endloop
endfacet
facet normal 0.7091533870555697 -0.7050542345292407 0.0
outer loop
vertex -409.9873123515442 56.88070691988139 0.0
vertex -420.37850036762893 46.429105019982195 10.0
vertex -420.37850036762893 46.429105019982195 0.0
endloop
endfacet
facet normal 0.7091533870555697 -0.7050542345292407 0.0
outer loop
vertex -420.37850036762893 46.429105019982195 10.0
vertex -409.9873123515442 56.88070691988139 0.0
vertex -409.9873123515442 56.88070691988139 10.0
endloop
endfacet
facet normal -0.7091533870555696 0.7050542345292407 0.0
outer loop
vertex -458.18500762712307 104.63151474908024 10.0
vertex -468.4564134966093 94.30039140360869 0.0
vertex -468.4564134966093 94.30039140360869 10.0
endloop
endfacet
facet normal -0.7091533870555696 0.7050542345292407 0.0
outer loop
vertex -468.4564134966093 94.30039140360869 0.0
vertex -458.18500762712307 104.63151474908024 10.0
vertex -458.18500762712307 104.63151474908024 0.0
endloop
endfacet
facet normal 0.7050542345292392 0.7091533870555712 0.0
outer loop
vertex -458.18500762712307 104.63151474908024 10.0
vertex -439.1721708390364 85.72857875167617 0.0
vertex -458.18500762712307 104.63151474908024 0.0
endloop
endfacet
facet normal 0.7050542345292392 0.7091533870555712 0.0
outer loop
vertex -439.1721708390364 85.72857875167617 0.0
vertex -458.18500762712307 104.63151474908024 10.0
vertex -439.1721708390364 85.72857875167617 10.0
endloop
endfacet
facet normal -0.7091533870555724 0.7050542345292379 0.0
outer loop
vertex -420.37850036762893 104.63151474908024 10.0
vertex -439.1721708390364 85.72857875167617 0.0
vertex -439.1721708390364 85.72857875167617 10.0
endloop
endfacet
facet normal -0.7091533870555724 0.7050542345292379 0.0
outer loop
vertex -439.1721708390364 85.72857875167617 0.0
vertex -420.37850036762893 104.63151474908024 10.0
vertex -420.37850036762893 104.63151474908024 0.0
endloop
endfacet
facet normal 0.7050542345292371 0.7091533870555731 0.0
outer loop
vertex -420.37850036762893 104.63151474908024 10.0
vertex -409.9873123515442 94.30039140360869 0.0
vertex -420.37850036762893 104.63151474908024 0.0
endloop
endfacet
facet normal 0.7050542345292371 0.7091533870555731 0.0
outer loop
vertex -409.9873123515442 94.30039140360869 0.0
vertex -420.37850036762893 104.63151474908024 10.0
vertex -409.9873123515442 94.30039140360869 10.0
endloop
endfacet
facet normal 0.7091533870555712 -0.7050542345292389 0.0
outer loop
vertex -409.9873123515442 94.30039140360869 0.0
vertex -428.6968402109663 75.4820872194225 10.0
vertex -428.6968402109663 75.4820872194225 0.0
endloop
endfacet
facet normal 0.7091533870555712 -0.7050542345292389 0.0
outer loop
vertex -428.6968402109663 75.4820872194225 10.0
vertex -409.9873123515442 94.30039140360869 0.0
vertex -409.9873123515442 94.30039140360869 10.0
endloop
endfacet
facet normal -0.7050542345292399 -0.7091533870555706 -0.0
outer loop
vertex -420.37850036762893 46.429105019982195 10.0
vertex -439.1721708390364 65.11414155802898 0.0
vertex -420.37850036762893 46.429105019982195 0.0
endloop
endfacet
facet normal -0.7050542345292399 -0.7091533870555706 -0.0
outer loop
vertex -439.1721708390364 65.11414155802898 0.0
vertex -420.37850036762893 46.429105019982195 10.0
vertex -439.1721708390364 65.11414155802898 10.0
endloop
endfacet
facet normal 0.7091533870555703 -0.7050542345292399 0.0
outer loop
vertex -439.1721708390364 65.11414155802898 0.0
vertex -457.74920138553387 46.429105019982195 10.0
vertex -457.74920138553387 46.429105019982195 0.0
endloop
endfacet
facet normal 0.7091533870555703 -0.7050542345292399 0.0
outer loop
vertex -457.74920138553387 46.429105019982195 10.0
vertex -439.1721708390364 65.11414155802898 0.0
vertex -439.1721708390364 65.11414155802898 10.0
endloop
endfacet
facet normal 0.0 0.0 -1.0
outer loop
vertex -458.18500762712307 104.63151474908024 0.0
vertex -449.5287005671662 75.4820872194225 0.0
vertex -468.4564134966093 94.30039140360869 0.0
endloop
endfacet
facet normal 0.0 0.0 -1.0
outer loop
vertex -449.5287005671662 75.4820872194225 0.0
vertex -458.18500762712307 104.63151474908024 0.0
vertex -439.1721708390364 85.72857875167617 0.0
endloop
endfacet
facet normal 0.0 0.0 -1.0
outer loop
vertex -449.5287005671662 75.4820872194225 0.0
vertex -457.74920138553387 46.429105019982195 0.0
vertex -468.4564134966093 56.444329447366414 0.0
endloop
endfacet
facet normal 0.0 0.0 -1.0
outer loop
vertex -457.74920138553387 46.429105019982195 0.0
vertex -449.5287005671662 75.4820872194225 0.0
vertex -439.1721708390364 65.11414155802898 0.0
endloop
endfacet
facet normal 0.0 0.0 -1.0
outer loop
vertex -439.1721708390364 65.11414155802898 0.0
vertex -449.5287005671662 75.4820872194225 0.0
vertex -439.1721708390364 85.72857875167617 0.0
endloop
endfacet
facet normal 0.0 0.0 -1.0
outer loop
vertex -439.1721708390364 65.11414155802898 0.0
vertex -439.1721708390364 85.72857875167617 0.0
vertex -420.37850036762893 104.63151474908024 0.0
endloop
endfacet
facet normal 0.0 0.0 -1.0
outer loop
vertex -439.1721708390364 65.11414155802898 0.0
vertex -420.37850036762893 104.63151474908024 0.0
vertex -428.6968402109663 75.4820872194225 0.0
endloop
endfacet
facet normal 0.0 0.0 -1.0
outer loop
vertex -428.6968402109663 75.4820872194225 0.0
vertex -420.37850036762893 104.63151474908024 0.0
vertex -409.9873123515442 94.30039140360869 0.0
endloop
endfacet
facet normal 0.0 0.0 -1.0
outer loop
vertex -428.6968402109663 75.4820872194225 0.0
vertex -420.37850036762893 46.429105019982195 0.0
vertex -439.1721708390364 65.11414155802898 0.0
endloop
endfacet
facet normal 0.0 0.0 -1.0
outer loop
vertex -420.37850036762893 46.429105019982195 0.0
vertex -428.6968402109663 75.4820872194225 0.0
vertex -409.9873123515442 56.88070691988139 0.0
endloop
endfacet
endsolid Indicators
