solid Indicators
facet normal -0.7825639142723598 0.6225702531270852 0.0
outer loop
vertex -346.86309589355477 79.72925536765406 10.0
vertex -356.8001246070814 67.23852031047039 0.0
vertex -356.8001246070814 67.23852031047039 10.0
endloop
endfacet
facet normal -0.7825639142723598 0.6225702531270852 0.0
outer loop
vertex -356.8001246070814 67.23852031047039 0.0
vertex -346.86309589355477 79.72925536765406 10.0
vertex -346.86309589355477 79.72925536765406 0.0
endloop
endfacet
facet normal 0.5136443928111306 0.8580031688366221 0.0
outer loop
vertex -302.9668860721142 105.44468604006045 10.0
vertex -288.9947188831404 97.08023519337291 0.0
vertex -302.9668860721142 105.44468604006045 0.0
endloop
endfacet
facet normal 0.5136443928111306 0.8580031688366221 0.0
outer loop
vertex -288.9947188831404 97.08023519337291 0.0
vertex -302.9668860721142 105.44468604006045 10.0
vertex -288.9947188831404 97.08023519337291 10.0
endloop
endfacet
facet normal -0.8580031688366222 0.5136443928111304 0.0
outer loop
vertex -302.9668860721142 105.44468604006045 10.0
vertex -327.55641304557867 64.36978605340005 0.0
vertex -327.55641304557867 64.36978605340005 10.0
endloop
endfacet
facet normal -0.8580031688366222 0.5136443928111304 0.0
outer loop
vertex -327.55641304557867 64.36978605340005 0.0
vertex -302.9668860721142 105.44468604006045 10.0
vertex -302.9668860721142 105.44468604006045 0.0
endloop
endfacet
facet normal -0.6179355655721024 -0.7862287433063522 -0.0
outer loop
vertex -322.83866266049665 40.54654882725394 10.0
vertex -356.8001246070814 67.23852031047039 0.0
vertex -322.83866266049665 40.54654882725394 0.0
endloop
endfacet
facet normal -0.6179355655721024 -0.7862287433063522 -0.0
outer loop
vertex -356.8001246070814 67.23852031047039 0.0
vertex -322.83866266049665 40.54654882725394 10.0
vertex -356.8001246070814 67.23852031047039 10.0
endloop
endfacet
facet normal 0.6225702531270846 0.78256391427236 0.0
outer loop
vertex -346.86309589355477 79.72925536765406 10.0
vertex -327.55641304557867 64.36978605340005 0.0
vertex -346.86309589355477 79.72925536765406 0.0
endloop
endfacet
facet normal 0.6225702531270846 0.78256391427236 0.0
outer loop
vertex -327.55641304557867 64.36978605340005 0.0
vertex -346.86309589355477 79.72925536765406 10.0
vertex -327.55641304557867 64.36978605340005 10.0
endloop
endfacet
facet normal 0.8580031688366216 -0.5136443928111313 0.0
outer loop
vertex -288.9947188831404 97.08023519337291 0.0
vertex -322.83866266049665 40.54654882725394 10.0
vertex -322.83866266049665 40.54654882725394 0.0
endloop
endfacet
facet normal 0.8580031688366216 -0.5136443928111313 0.0
outer loop
vertex -322.83866266049665 40.54654882725394 10.0
vertex -288.9947188831404 97.08023519337291 0.0
vertex -288.9947188831404 97.08023519337291 10.0
endloop
endfacet
facet normal -0.0 -0.0 1.0
outer loop
vertex -322.83866266049665 40.54654882725394 10.0
vertex -346.86309589355477 79.72925536765406 10.0
vertex -356.8001246070814 67.23852031047039 10.0
endloop
endfacet
facet normal -0.0 -0.0 1.0
outer loop
vertex -346.86309589355477 79.72925536765406 10.0
vertex -322.83866266049665 40.54654882725394 10.0
vertex -327.55641304557867 64.36978605340005 10.0
endloop
endfacet
facet normal -0.0 -0.0 1.0
outer loop
vertex -327.55641304557867 64.36978605340005 10.0
vertex -322.83866266049665 40.54654882725394 10.0
vertex -302.9668860721142 105.44468604006045 10.0
endloop
endfacet
facet normal -0.0 -0.0 1.0
outer loop
vertex -302.9668860721142 105.44468604006045 10.0
vertex -322.83866266049665 40.54654882725394 10.0
vertex -288.9947188831404 97.08023519337291 10.0
endloop
endfacet
facet normal 0.0 0.0 -1.0
outer loop
vertex -346.86309589355477 79.72925536765406 0.0
vertex -322.83866266049665 40.54654882725394 0.0
vertex -356.8001246070814 67.23852031047039 0.0
endloop
endfacet
facet normal 0.0 0.0 -1.0
outer loop
vertex -322.83866266049665 40.54654882725394 0.0
vertex -346.86309589355477 79.72925536765406 0.0
vertex -327.55641304557867 64.36978605340005 0.0
endloop
endfacet
facet normal 0.0 0.0 -1.0
outer loop
vertex -322.83866266049665 40.54654882725394 0.0
vertex -327.55641304557867 64.36978605340005 0.0
vertex -302.9668860721142 105.44468604006045 0.0
endloop
endfacet
facet normal 0.0 0.0 -1.0
outer loop
vertex -322.83866266049665 40.54654882725394 0.0
vertex -302.9668860721142 105.44468604006045 0.0
vertex -288.9947188831404 97.08023519337291 0.0
endloop
endfacet
endsolid Indicators
