solid model
facet normal -0.8095004432678898 -0.5871192658643473 0.0
outer loop
vertex -239.30959756865076 50.13206396474097 6.0
vertex -235.4494874350493 45.48300905119241 0.0
vertex -235.4494874350493 45.48300905119241 6.0
endloop
endfacet
facet normal -0.7259406126054665 -0.6877573896149716 0.0
outer loop
vertex -235.4494874350493 45.48300905119241 0.0
vertex -239.30959756865076 50.13206396474097 6.0
vertex -239.30959756865076 50.13206396474097 0.0
endloop
endfacet
facet normal -0.9338750322972079 -0.35759953027358554 0.0
outer loop
vertex -245.0551766066715 60.734903273914355 6.0
vertex -242.5298604896595 55.245191046312385 0.0
vertex -242.5298604896595 55.245191046312385 6.0
endloop
endfacet
facet normal -0.8792094969100769 -0.4764353686945687 0.0
outer loop
vertex -242.5298604896595 55.245191046312385 0.0
vertex -245.0551766066715 60.734903273914355 6.0
vertex -245.0551766066715 60.734903273914355 0.0
endloop
endfacet
facet normal -0.972561706962658 -0.23264506474430335 0.0
outer loop
vertex -246.84233706077472 66.50727014929679 6.0
vertex -245.0551766066715 60.734903273914355 0.0
vertex -245.0551766066715 60.734903273914355 6.0
endloop
endfacet
facet normal -0.9338750322972079 -0.35759953027358554 0.0
outer loop
vertex -245.0551766066715 60.734903273914355 0.0
vertex -246.84233706077472 66.50727014929679 6.0
vertex -246.84233706077472 66.50727014929679 0.0
endloop
endfacet
facet normal -0.8792094969100769 -0.4764353686945687 0.0
outer loop
vertex -242.5298604896595 55.245191046312385 6.0
vertex -239.30959756865076 50.13206396474097 0.0
vertex -239.30959756865076 50.13206396474097 6.0
endloop
endfacet
facet normal -0.8095004432678898 -0.5871192658643473 0.0
outer loop
vertex -239.30959756865076 50.13206396474097 0.0
vertex -242.5298604896595 55.245191046312385 6.0
vertex -242.5298604896595 55.245191046312385 0.0
endloop
endfacet
facet normal -0.9946075811769302 -0.10370997765584766 0.0
outer loop
vertex -247.86076304110506 72.46352487481943 6.0
vertex -246.84233706077472 66.50727014929679 0.0
vertex -246.84233706077472 66.50727014929679 6.0
endloop
endfacet
facet normal -0.972561706962658 -0.23264506474430335 0.0
outer loop
vertex -246.84233706077472 66.50727014929679 0.0
vertex -247.86076304110506 72.46352487481943 6.0
vertex -247.86076304110506 72.46352487481943 0.0
endloop
endfacet
facet normal -0.0 -0.0 1.0
outer loop
vertex -247.86076304110506 72.46352487481943 6.0
vertex -247.53516079289565 84.51864258781819 6.0
vertex -248.093028996778 78.50175428074286 6.0
endloop
endfacet
facet normal -0.0 -0.0 1.0
outer loop
vertex -247.53516079289565 84.51864258781819 6.0
vertex -247.86076304110506 72.46352487481943 6.0
vertex -246.84233706077472 66.50727014929679 6.0
endloop
endfacet
facet normal -0.0 -0.0 1.0
outer loop
vertex -247.53516079289565 84.51864258781819 6.0
vertex -246.84233706077472 66.50727014929679 6.0
vertex -246.1967037090968 90.41123916891479 6.0
endloop
endfacet
facet normal -0.0 -0.0 1.0
outer loop
vertex -246.1967037090968 90.41123916891479 6.0
vertex -246.84233706077472 66.50727014929679 6.0
vertex -245.0551766066715 60.734903273914355 6.0
endloop
endfacet
facet normal -0.0 -0.0 1.0
outer loop
vertex -246.1967037090968 90.41123916891479 6.0
vertex -245.0551766066715 60.734903273914355 6.0
vertex -245.26167374395146 92.93933979856106 6.0
endloop
endfacet
facet normal -0.0 -0.0 1.0
outer loop
vertex -245.26167374395146 92.93933979856106 6.0
vertex -245.0551766066715 60.734903273914355 6.0
vertex -244.10055911717558 96.0787200627937 6.0
endloop
endfacet
facet normal -0.0 -0.0 1.0
outer loop
vertex -244.10055911717558 96.0787200627937 6.0
vertex -245.0551766066715 60.734903273914355 6.0
vertex -242.5298604896595 55.245191046312385 6.0
endloop
endfacet
facet normal -0.0 -0.0 1.0
outer loop
vertex -244.10055911717558 96.0787200627937 6.0
vertex -242.5298604896595 55.245191046312385 6.0
vertex -241.2825926322609 101.42411310003804 6.0
endloop
endfacet
facet normal -0.0 -0.0 1.0
outer loop
vertex -241.2825926322609 101.42411310003804 6.0
vertex -242.5298604896595 55.245191046312385 6.0
vertex -239.30959756865076 50.13206396474097 6.0
endloop
endfacet
facet normal -0.0 -0.0 1.0
outer loop
vertex -241.2825926322609 101.42411310003804 6.0
vertex -239.30959756865076 50.13206396474097 6.0
vertex -237.79102044219755 106.35595712375768 6.0
endloop
endfacet
facet normal -0.0 -0.0 1.0
outer loop
vertex -237.79102044219755 106.35595712375768 6.0
vertex -239.30959756865076 50.13206396474097 6.0
vertex -235.4494874350493 45.48300905119241 6.0
endloop
endfacet
facet normal -0.0 -0.0 1.0
outer loop
vertex -237.79102044219755 106.35595712375768 6.0
vertex -235.4494874350493 45.48300905119241 6.0
vertex -233.68558431520424 110.78986691534124 6.0
endloop
endfacet
facet normal -0.0 -0.0 1.0
outer loop
vertex -233.68558431520424 110.78986691534124 6.0
vertex -235.4494874350493 45.48300905119241 6.0
vertex -231.01557764346575 41.37757292419906 6.0
endloop
endfacet
facet normal -0.0 -0.0 1.0
outer loop
vertex -233.68558431520424 110.78986691534124 6.0
vertex -231.01557764346575 41.37757292419906 6.0
vertex -229.03652940165566 114.6499770489427 6.0
endloop
endfacet
facet normal -0.0 -0.0 1.0
outer loop
vertex -229.03652940165566 114.6499770489427 6.0
vertex -231.01557764346575 41.37757292419906 6.0
vertex -226.0837336197461 37.88600073413569 6.0
endloop
endfacet
facet normal -0.0 -0.0 1.0
outer loop
vertex -229.03652940165566 114.6499770489427 6.0
vertex -226.0837336197461 37.88600073413569 6.0
vertex -223.92340232008425 117.87023996995143 6.0
endloop
endfacet
facet normal -0.0 -0.0 1.0
outer loop
vertex -223.92340232008425 117.87023996995143 6.0
vertex -226.0837336197461 37.88600073413569 6.0
vertex -220.73834058250176 35.068034249221014 6.0
endloop
endfacet
facet normal -0.0 -0.0 1.0
outer loop
vertex -223.92340232008425 117.87023996995143 6.0
vertex -220.73834058250176 35.068034249221014 6.0
vertex -218.43369009248227 120.39555608696341 6.0
endloop
endfacet
facet normal -0.0 -0.0 1.0
outer loop
vertex -218.43369009248227 120.39555608696341 6.0
vertex -220.73834058250176 35.068034249221014 6.0
vertex -215.07085968862285 32.97188965729982 6.0
endloop
endfacet
facet normal -0.0 -0.0 1.0
outer loop
vertex -218.43369009248227 120.39555608696341 6.0
vertex -215.07085968862285 32.97188965729982 6.0
vertex -212.66132321709983 122.18271654106665 6.0
endloop
endfacet
facet normal -0.0 -0.0 1.0
outer loop
vertex -212.66132321709983 122.18271654106665 6.0
vertex -215.07085968862285 32.97188965729982 6.0
vertex -209.17826310752625 31.633432573500958 6.0
endloop
endfacet
facet normal -0.0 -0.0 1.0
outer loop
vertex -212.66132321709983 122.18271654106665 6.0
vertex -209.17826310752625 31.633432573500958 6.0
vertex -206.70506849157718 123.201142521397 6.0
endloop
endfacet
facet normal -0.0 -0.0 1.0
outer loop
vertex -206.70506849157718 123.201142521397 6.0
vertex -209.17826310752625 31.633432573500958 6.0
vertex -203.16137480045091 31.075564369618633 6.0
endloop
endfacet
facet normal -0.0 -0.0 1.0
outer loop
vertex -206.70506849157718 123.201142521397 6.0
vertex -203.16137480045091 31.075564369618633 6.0
vertex -200.66683908565378 123.43340847706993 6.0
endloop
endfacet
facet normal -0.0 -0.0 1.0
outer loop
vertex -200.66683908565378 123.43340847706993 6.0
vertex -203.16137480045091 31.075564369618633 6.0
vertex -197.12314539452748 31.307830325291558 6.0
endloop
endfacet
facet normal -0.0 -0.0 1.0
outer loop
vertex -200.66683908565378 123.43340847706993 6.0
vertex -197.12314539452748 31.307830325291558 6.0
vertex -194.64995077857847 122.87554027318758 6.0
endloop
endfacet
facet normal -0.0 -0.0 1.0
outer loop
vertex -194.64995077857847 122.87554027318758 6.0
vertex -197.12314539452748 31.307830325291558 6.0
vertex -191.16689066900486 32.32625630562189 6.0
endloop
endfacet
facet normal -0.0 -0.0 1.0
outer loop
vertex -194.64995077857847 122.87554027318758 6.0
vertex -191.16689066900486 32.32625630562189 6.0
vertex -188.75735419748187 121.53708318938874 6.0
endloop
endfacet
facet normal -0.0 -0.0 1.0
outer loop
vertex -188.75735419748187 121.53708318938874 6.0
vertex -191.16689066900486 32.32625630562189 6.0
vertex -185.39452379362243 34.11341675972513 6.0
endloop
endfacet
facet normal -0.0 -0.0 1.0
outer loop
vertex -188.75735419748187 121.53708318938874 6.0
vertex -185.39452379362243 34.11341675972513 6.0
vertex -183.0898733036029 119.44093859746755 6.0
endloop
endfacet
facet normal -0.0 -0.0 1.0
outer loop
vertex -183.0898733036029 119.44093859746755 6.0
vertex -185.39452379362243 34.11341675972513 6.0
vertex -179.90481156602047 36.638732876737116 6.0
endloop
endfacet
facet normal -0.0 -0.0 1.0
outer loop
vertex -183.0898733036029 119.44093859746755 6.0
vertex -179.90481156602047 36.638732876737116 6.0
vertex -177.74448026635858 116.62297211255286 6.0
endloop
endfacet
facet normal -0.0 -0.0 1.0
outer loop
vertex -177.74448026635858 116.62297211255286 6.0
vertex -179.90481156602047 36.638732876737116 6.0
vertex -174.79168448444906 39.85899579774585 6.0
endloop
endfacet
facet normal -0.0 -0.0 1.0
outer loop
vertex -177.74448026635858 116.62297211255286 6.0
vertex -174.79168448444906 39.85899579774585 6.0
vertex -172.81263624263894 113.1313999224895 6.0
endloop
endfacet
facet normal -0.0 -0.0 1.0
outer loop
vertex -172.81263624263894 113.1313999224895 6.0
vertex -174.79168448444906 39.85899579774585 6.0
vertex -170.14262957090045 43.71910593134731 6.0
endloop
endfacet
facet normal -0.0 -0.0 1.0
outer loop
vertex -172.81263624263894 113.1313999224895 6.0
vertex -170.14262957090045 43.71910593134731 6.0
vertex -168.37872645105534 109.02596379549615 6.0
endloop
endfacet
facet normal -0.0 -0.0 1.0
outer loop
vertex -168.37872645105534 109.02596379549615 6.0
vertex -170.14262957090045 43.71910593134731 6.0
vertex -166.03719344390709 48.153015722930874 6.0
endloop
endfacet
facet normal -0.0 -0.0 1.0
outer loop
vertex -168.37872645105534 109.02596379549615 6.0
vertex -166.03719344390709 48.153015722930874 6.0
vertex -164.51861631745388 104.3769088819476 6.0
endloop
endfacet
facet normal -0.0 -0.0 1.0
outer loop
vertex -164.51861631745388 104.3769088819476 6.0
vertex -166.03719344390709 48.153015722930874 6.0
vertex -162.54562125384373 53.0848597466505 6.0
endloop
endfacet
facet normal -0.0 -0.0 1.0
outer loop
vertex -164.51861631745388 104.3769088819476 6.0
vertex -162.54562125384373 53.0848597466505 6.0
vertex -161.29835339644515 99.26378180037618 6.0
endloop
endfacet
facet normal -0.0 -0.0 1.0
outer loop
vertex -161.29835339644515 99.26378180037618 6.0
vertex -162.54562125384373 53.0848597466505 6.0
vertex -159.72765476892906 58.430252783894844 6.0
endloop
endfacet
facet normal -0.0 -0.0 1.0
outer loop
vertex -161.29835339644515 99.26378180037618 6.0
vertex -159.72765476892906 58.430252783894844 6.0
vertex -158.77303727943317 93.77406957277421 6.0
endloop
endfacet
facet normal -0.0 -0.0 1.0
outer loop
vertex -158.77303727943317 93.77406957277421 6.0
vertex -159.72765476892906 58.430252783894844 6.0
vertex -157.63151017700784 64.0977336777738 6.0
endloop
endfacet
facet normal -0.0 -0.0 1.0
outer loop
vertex -158.77303727943317 93.77406957277421 6.0
vertex -157.63151017700784 64.0977336777738 6.0
vertex -156.9858768253299 88.00170269739178 6.0
endloop
endfacet
facet normal -0.0 -0.0 1.0
outer loop
vertex -156.9858768253299 88.00170269739178 6.0
vertex -157.63151017700784 64.0977336777738 6.0
vertex -156.29305309320898 69.9903302588704 6.0
endloop
endfacet
facet normal -0.0 -0.0 1.0
outer loop
vertex -156.9858768253299 88.00170269739178 6.0
vertex -156.29305309320898 69.9903302588704 6.0
vertex -155.96745084499958 82.04544797186911 6.0
endloop
endfacet
facet normal -0.0 -0.0 1.0
outer loop
vertex -155.96745084499958 82.04544797186911 6.0
vertex -156.29305309320898 69.9903302588704 6.0
vertex -155.73518488932666 76.00721856594572 6.0
endloop
endfacet
facet normal 0.0 0.0 -1.0
outer loop
vertex -247.53516079289565 84.51864258781819 0.0
vertex -247.86076304110506 72.46352487481943 0.0
vertex -248.093028996778 78.50175428074286 0.0
endloop
endfacet
facet normal 0.0 0.0 -1.0
outer loop
vertex -247.86076304110506 72.46352487481943 0.0
vertex -247.53516079289565 84.51864258781819 0.0
vertex -246.84233706077472 66.50727014929679 0.0
endloop
endfacet
facet normal 0.0 0.0 -1.0
outer loop
vertex -246.84233706077472 66.50727014929679 0.0
vertex -247.53516079289565 84.51864258781819 0.0
vertex -246.1967037090968 90.41123916891479 0.0
endloop
endfacet
facet normal 0.0 0.0 -1.0
outer loop
vertex -246.84233706077472 66.50727014929679 0.0
vertex -246.1967037090968 90.41123916891479 0.0
vertex -245.0551766066715 60.734903273914355 0.0
endloop
endfacet
facet normal 0.0 0.0 -1.0
outer loop
vertex -245.0551766066715 60.734903273914355 0.0
vertex -246.1967037090968 90.41123916891479 0.0
vertex -245.26167374395146 92.93933979856106 0.0
endloop
endfacet
facet normal 0.0 0.0 -1.0
outer loop
vertex -245.0551766066715 60.734903273914355 0.0
vertex -245.26167374395146 92.93933979856106 0.0
vertex -244.10055911717558 96.0787200627937 0.0
endloop
endfacet
facet normal 0.0 0.0 -1.0
outer loop
vertex -245.0551766066715 60.734903273914355 0.0
vertex -244.10055911717558 96.0787200627937 0.0
vertex -242.5298604896595 55.245191046312385 0.0
endloop
endfacet
facet normal 0.0 0.0 -1.0
outer loop
vertex -242.5298604896595 55.245191046312385 0.0
vertex -244.10055911717558 96.0787200627937 0.0
vertex -241.2825926322609 101.42411310003804 0.0
endloop
endfacet
facet normal 0.0 0.0 -1.0
outer loop
vertex -242.5298604896595 55.245191046312385 0.0
vertex -241.2825926322609 101.42411310003804 0.0
vertex -239.30959756865076 50.13206396474097 0.0
endloop
endfacet
facet normal 0.0 0.0 -1.0
outer loop
vertex -239.30959756865076 50.13206396474097 0.0
vertex -241.2825926322609 101.42411310003804 0.0
vertex -237.79102044219755 106.35595712375768 0.0
endloop
endfacet
facet normal 0.0 0.0 -1.0
outer loop
vertex -239.30959756865076 50.13206396474097 0.0
vertex -237.79102044219755 106.35595712375768 0.0
vertex -235.4494874350493 45.48300905119241 0.0
endloop
endfacet
facet normal 0.0 0.0 -1.0
outer loop
vertex -235.4494874350493 45.48300905119241 0.0
vertex -237.79102044219755 106.35595712375768 0.0
vertex -233.68558431520424 110.78986691534124 0.0
endloop
endfacet
facet normal 0.0 0.0 -1.0
outer loop
vertex -235.4494874350493 45.48300905119241 0.0
vertex -233.68558431520424 110.78986691534124 0.0
vertex -231.01557764346575 41.37757292419906 0.0
endloop
endfacet
facet normal 0.0 0.0 -1.0
outer loop
vertex -231.01557764346575 41.37757292419906 0.0
vertex -233.68558431520424 110.78986691534124 0.0
vertex -229.03652940165566 114.6499770489427 0.0
endloop
endfacet
facet normal 0.0 0.0 -1.0
outer loop
vertex -231.01557764346575 41.37757292419906 0.0
vertex -229.03652940165566 114.6499770489427 0.0
vertex -226.0837336197461 37.88600073413569 0.0
endloop
endfacet
facet normal 0.0 0.0 -1.0
outer loop
vertex -226.0837336197461 37.88600073413569 0.0
vertex -229.03652940165566 114.6499770489427 0.0
vertex -223.92340232008425 117.87023996995143 0.0
endloop
endfacet
facet normal 0.0 0.0 -1.0
outer loop
vertex -226.0837336197461 37.88600073413569 0.0
vertex -223.92340232008425 117.87023996995143 0.0
vertex -220.73834058250176 35.068034249221014 0.0
endloop
endfacet
facet normal 0.0 0.0 -1.0
outer loop
vertex -220.73834058250176 35.068034249221014 0.0
vertex -223.92340232008425 117.87023996995143 0.0
vertex -218.43369009248227 120.39555608696341 0.0
endloop
endfacet
facet normal 0.0 0.0 -1.0
outer loop
vertex -220.73834058250176 35.068034249221014 0.0
vertex -218.43369009248227 120.39555608696341 0.0
vertex -215.07085968862285 32.97188965729982 0.0
endloop
endfacet
facet normal 0.0 0.0 -1.0
outer loop
vertex -215.07085968862285 32.97188965729982 0.0
vertex -218.43369009248227 120.39555608696341 0.0
vertex -212.66132321709983 122.18271654106665 0.0
endloop
endfacet
facet normal 0.0 0.0 -1.0
outer loop
vertex -215.07085968862285 32.97188965729982 0.0
vertex -212.66132321709983 122.18271654106665 0.0
vertex -209.17826310752625 31.633432573500958 0.0
endloop
endfacet
facet normal 0.0 0.0 -1.0
outer loop
vertex -209.17826310752625 31.633432573500958 0.0
vertex -212.66132321709983 122.18271654106665 0.0
vertex -206.70506849157718 123.201142521397 0.0
endloop
endfacet
facet normal 0.0 0.0 -1.0
outer loop
vertex -209.17826310752625 31.633432573500958 0.0
vertex -206.70506849157718 123.201142521397 0.0
vertex -203.16137480045091 31.075564369618633 0.0
endloop
endfacet
facet normal 0.0 0.0 -1.0
outer loop
vertex -203.16137480045091 31.075564369618633 0.0
vertex -206.70506849157718 123.201142521397 0.0
vertex -200.66683908565378 123.43340847706993 0.0
endloop
endfacet
facet normal 0.0 0.0 -1.0
outer loop
vertex -203.16137480045091 31.075564369618633 0.0
vertex -200.66683908565378 123.43340847706993 0.0
vertex -197.12314539452748 31.307830325291558 0.0
endloop
endfacet
facet normal 0.0 0.0 -1.0
outer loop
vertex -197.12314539452748 31.307830325291558 0.0
vertex -200.66683908565378 123.43340847706993 0.0
vertex -194.64995077857847 122.87554027318758 0.0
endloop
endfacet
facet normal 0.0 0.0 -1.0
outer loop
vertex -197.12314539452748 31.307830325291558 0.0
vertex -194.64995077857847 122.87554027318758 0.0
vertex -191.16689066900486 32.32625630562189 0.0
endloop
endfacet
facet normal 0.0 0.0 -1.0
outer loop
vertex -191.16689066900486 32.32625630562189 0.0
vertex -194.64995077857847 122.87554027318758 0.0
vertex -188.75735419748187 121.53708318938874 0.0
endloop
endfacet
facet normal 0.0 0.0 -1.0
outer loop
vertex -191.16689066900486 32.32625630562189 0.0
vertex -188.75735419748187 121.53708318938874 0.0
vertex -185.39452379362243 34.11341675972513 0.0
endloop
endfacet
facet normal 0.0 0.0 -1.0
outer loop
vertex -185.39452379362243 34.11341675972513 0.0
vertex -188.75735419748187 121.53708318938874 0.0
vertex -183.0898733036029 119.44093859746755 0.0
endloop
endfacet
facet normal 0.0 0.0 -1.0
outer loop
vertex -185.39452379362243 34.11341675972513 0.0
vertex -183.0898733036029 119.44093859746755 0.0
vertex -179.90481156602047 36.638732876737116 0.0
endloop
endfacet
facet normal 0.0 0.0 -1.0
outer loop
vertex -179.90481156602047 36.638732876737116 0.0
vertex -183.0898733036029 119.44093859746755 0.0
vertex -177.74448026635858 116.62297211255286 0.0
endloop
endfacet
facet normal 0.0 0.0 -1.0
outer loop
vertex -179.90481156602047 36.638732876737116 0.0
vertex -177.74448026635858 116.62297211255286 0.0
vertex -174.79168448444906 39.85899579774585 0.0
endloop
endfacet
facet normal 0.0 0.0 -1.0
outer loop
vertex -174.79168448444906 39.85899579774585 0.0
vertex -177.74448026635858 116.62297211255286 0.0
vertex -172.81263624263894 113.1313999224895 0.0
endloop
endfacet
facet normal 0.0 0.0 -1.0
outer loop
vertex -174.79168448444906 39.85899579774585 0.0
vertex -172.81263624263894 113.1313999224895 0.0
vertex -170.14262957090045 43.71910593134731 0.0
endloop
endfacet
facet normal 0.0 0.0 -1.0
outer loop
vertex -170.14262957090045 43.71910593134731 0.0
vertex -172.81263624263894 113.1313999224895 0.0
vertex -168.37872645105534 109.02596379549615 0.0
endloop
endfacet
facet normal 0.0 0.0 -1.0
outer loop
vertex -170.14262957090045 43.71910593134731 0.0
vertex -168.37872645105534 109.02596379549615 0.0
vertex -166.03719344390709 48.153015722930874 0.0
endloop
endfacet
facet normal 0.0 0.0 -1.0
outer loop
vertex -166.03719344390709 48.153015722930874 0.0
vertex -168.37872645105534 109.02596379549615 0.0
vertex -164.51861631745388 104.3769088819476 0.0
endloop
endfacet
facet normal 0.0 0.0 -1.0
outer loop
vertex -166.03719344390709 48.153015722930874 0.0
vertex -164.51861631745388 104.3769088819476 0.0
vertex -162.54562125384373 53.0848597466505 0.0
endloop
endfacet
facet normal 0.0 0.0 -1.0
outer loop
vertex -162.54562125384373 53.0848597466505 0.0
vertex -164.51861631745388 104.3769088819476 0.0
vertex -161.29835339644515 99.26378180037618 0.0
endloop
endfacet
facet normal 0.0 0.0 -1.0
outer loop
vertex -162.54562125384373 53.0848597466505 0.0
vertex -161.29835339644515 99.26378180037618 0.0
vertex -159.72765476892906 58.430252783894844 0.0
endloop
endfacet
facet normal 0.0 0.0 -1.0
outer loop
vertex -159.72765476892906 58.430252783894844 0.0
vertex -161.29835339644515 99.26378180037618 0.0
vertex -158.77303727943317 93.77406957277421 0.0
endloop
endfacet
facet normal 0.0 0.0 -1.0
outer loop
vertex -159.72765476892906 58.430252783894844 0.0
vertex -158.77303727943317 93.77406957277421 0.0
vertex -157.63151017700784 64.0977336777738 0.0
endloop
endfacet
facet normal 0.0 0.0 -1.0
outer loop
vertex -157.63151017700784 64.0977336777738 0.0
vertex -158.77303727943317 93.77406957277421 0.0
vertex -156.9858768253299 88.00170269739178 0.0
endloop
endfacet
facet normal 0.0 0.0 -1.0
outer loop
vertex -157.63151017700784 64.0977336777738 0.0
vertex -156.9858768253299 88.00170269739178 0.0
vertex -156.29305309320898 69.9903302588704 0.0
endloop
endfacet
facet normal 0.0 0.0 -1.0
outer loop
vertex -156.29305309320898 69.9903302588704 0.0
vertex -156.9858768253299 88.00170269739178 0.0
vertex -155.96745084499958 82.04544797186911 0.0
endloop
endfacet
facet normal 0.0 0.0 -1.0
outer loop
vertex -156.29305309320898 69.9903302588704 0.0
vertex -155.96745084499958 82.04544797186911 0.0
vertex -155.73518488932666 76.00721856594572 0.0
endloop
endfacet
facet normal -0.6299597367926014 -0.7766277937469122 0.0
outer loop
vertex -231.01557764346575 41.37757292419906 6.0
vertex -235.4494874350493 45.48300905119241 0.0
vertex -231.01557764346575 41.37757292419906 0.0
endloop
endfacet
facet normal -0.7259406126054665 -0.6877573896149716 0.0
outer loop
vertex -235.4494874350493 45.48300905119241 0.0
vertex -231.01557764346575 41.37757292419906 6.0
vertex -235.4494874350493 45.48300905119241 6.0
endloop
endfacet
facet normal 0.5871192658643444 -0.809500443267892 0.0
outer loop
vertex -174.79168448444906 39.85899579774585 6.0
vertex -179.90481156602047 36.638732876737116 0.0
vertex -174.79168448444906 39.85899579774585 0.0
endloop
endfacet
facet normal 0.47643536869456843 -0.879209496910077 0.0
outer loop
vertex -179.90481156602047 36.638732876737116 0.0
vertex -174.79168448444906 39.85899579774585 6.0
vertex -179.90481156602047 36.638732876737116 6.0
endloop
endfacet
facet normal 0.47643536869456843 -0.879209496910077 0.0
outer loop
vertex -179.90481156602047 36.638732876737116 6.0
vertex -185.39452379362243 34.11341675972513 0.0
vertex -179.90481156602047 36.638732876737116 0.0
endloop
endfacet
facet normal 0.3575995302735862 -0.9338750322972076 0.0
outer loop
vertex -185.39452379362243 34.11341675972513 0.0
vertex -179.90481156602047 36.638732876737116 6.0
vertex -185.39452379362243 34.11341675972513 6.0
endloop
endfacet
facet normal -0.15724723855029527 -0.987559267066188 0.0
outer loop
vertex -209.17826310752625 31.633432573500958 6.0
vertex -215.07085968862285 32.97188965729982 0.0
vertex -209.17826310752625 31.633432573500958 0.0
endloop
endfacet
facet normal -0.2848043173476866 -0.9585856773497704 0.0
outer loop
vertex -215.07085968862285 32.97188965729982 0.0
vertex -209.17826310752625 31.633432573500958 6.0
vertex -215.07085968862285 32.97188965729982 6.0
endloop
endfacet
facet normal 0.3575995302735862 -0.9338750322972076 0.0
outer loop
vertex -185.39452379362243 34.11341675972513 6.0
vertex -191.16689066900486 32.32625630562189 0.0
vertex -185.39452379362243 34.11341675972513 0.0
endloop
endfacet
facet normal 0.23264506474430335 -0.972561706962658 0.0
outer loop
vertex -191.16689066900486 32.32625630562189 0.0
vertex -185.39452379362243 34.11341675972513 6.0
vertex -191.16689066900486 32.32625630562189 6.0
endloop
endfacet
facet normal -0.4074883153125847 -0.9132104209237385 0.0
outer loop
vertex -220.73834058250176 35.068034249221014 6.0
vertex -226.0837336197461 37.88600073413569 0.0
vertex -220.73834058250176 35.068034249221014 0.0
endloop
endfacet
facet normal -0.5232000752253794 -0.8522098810059395 0.0
outer loop
vertex -226.0837336197461 37.88600073413569 0.0
vertex -220.73834058250176 35.068034249221014 6.0
vertex -226.0837336197461 37.88600073413569 6.0
endloop
endfacet
facet normal 0.10370997765584766 -0.9946075811769302 0.0
outer loop
vertex -197.12314539452748 31.307830325291558 6.0
vertex -203.16137480045091 31.075564369618633 0.0
vertex -197.12314539452748 31.307830325291558 0.0
endloop
endfacet
facet normal -0.026999615904137957 -0.9996354439199467 0.0
outer loop
vertex -203.16137480045091 31.075564369618633 0.0
vertex -197.12314539452748 31.307830325291558 6.0
vertex -203.16137480045091 31.075564369618633 6.0
endloop
endfacet
facet normal 0.23264506474430335 -0.972561706962658 0.0
outer loop
vertex -191.16689066900486 32.32625630562189 6.0
vertex -197.12314539452748 31.307830325291558 0.0
vertex -191.16689066900486 32.32625630562189 0.0
endloop
endfacet
facet normal 0.10370997765584766 -0.9946075811769302 0.0
outer loop
vertex -197.12314539452748 31.307830325291558 0.0
vertex -191.16689066900486 32.32625630562189 6.0
vertex -197.12314539452748 31.307830325291558 6.0
endloop
endfacet
facet normal -0.026999615904137957 -0.9996354439199467 0.0
outer loop
vertex -203.16137480045091 31.075564369618633 6.0
vertex -209.17826310752625 31.633432573500958 0.0
vertex -203.16137480045091 31.075564369618633 0.0
endloop
endfacet
facet normal -0.15724723855029527 -0.987559267066188 0.0
outer loop
vertex -209.17826310752625 31.633432573500958 0.0
vertex -203.16137480045091 31.075564369618633 6.0
vertex -209.17826310752625 31.633432573500958 6.0
endloop
endfacet
facet normal -0.2848043173476866 -0.9585856773497704 0.0
outer loop
vertex -215.07085968862285 32.97188965729982 6.0
vertex -220.73834058250176 35.068034249221014 0.0
vertex -215.07085968862285 32.97188965729982 0.0
endloop
endfacet
facet normal -0.4074883153125847 -0.9132104209237385 0.0
outer loop
vertex -220.73834058250176 35.068034249221014 0.0
vertex -215.07085968862285 32.97188965729982 6.0
vertex -220.73834058250176 35.068034249221014 6.0
endloop
endfacet
facet normal -0.5232000752253794 -0.8522098810059395 0.0
outer loop
vertex -226.0837336197461 37.88600073413569 6.0
vertex -231.01557764346575 41.37757292419906 0.0
vertex -226.0837336197461 37.88600073413569 0.0
endloop
endfacet
facet normal -0.6299597367926014 -0.7766277937469122 0.0
outer loop
vertex -231.01557764346575 41.37757292419906 0.0
vertex -226.0837336197461 37.88600073413569 6.0
vertex -231.01557764346575 41.37757292419906 6.0
endloop
endfacet
facet normal -0.9875592670661879 0.15724723855029527 0.0
outer loop
vertex -247.53516079289565 84.51864258781819 6.0
vertex -248.093028996778 78.50175428074286 0.0
vertex -248.093028996778 78.50175428074286 6.0
endloop
endfacet
facet normal -0.9996354439199467 0.026999615904139348 0.0
outer loop
vertex -248.093028996778 78.50175428074286 0.0
vertex -247.53516079289565 84.51864258781819 6.0
vertex -247.53516079289565 84.51864258781819 0.0
endloop
endfacet
facet normal -0.476435368694567 0.8792094969100777 0.0
outer loop
vertex -223.92340232008425 117.87023996995143 6.0
vertex -218.43369009248227 120.39555608696341 0.0
vertex -223.92340232008425 117.87023996995143 0.0
endloop
endfacet
facet normal -0.357599530273585 0.9338750322972081 0.0
outer loop
vertex -218.43369009248227 120.39555608696341 0.0
vertex -223.92340232008425 117.87023996995143 6.0
vertex -218.43369009248227 120.39555608696341 6.0
endloop
endfacet
facet normal -0.7766277937469143 0.629959736792599 0.0
outer loop
vertex -237.79102044219755 106.35595712375768 6.0
vertex -241.2825926322609 101.42411310003804 0.0
vertex -241.2825926322609 101.42411310003804 6.0
endloop
endfacet
facet normal -0.8522098810059396 0.523200075225379 0.0
outer loop
vertex -241.2825926322609 101.42411310003804 0.0
vertex -237.79102044219755 106.35595712375768 6.0
vertex -237.79102044219755 106.35595712375768 0.0
endloop
endfacet
facet normal -0.8522098810059396 0.523200075225379 0.0
outer loop
vertex -241.2825926322609 101.42411310003804 6.0
vertex -244.10055911717558 96.0787200627937 0.0
vertex -244.10055911717558 96.0787200627937 6.0
endloop
endfacet
facet normal -0.913210420923736 0.40748831531259017 0.0
outer loop
vertex -244.10055911717558 96.0787200627937 0.0
vertex -241.2825926322609 101.42411310003804 6.0
vertex -241.2825926322609 101.42411310003804 0.0
endloop
endfacet
facet normal -0.687757389614973 0.7259406126054654 0.0
outer loop
vertex -233.68558431520424 110.78986691534124 6.0
vertex -237.79102044219755 106.35595712375768 0.0
vertex -237.79102044219755 106.35595712375768 6.0
endloop
endfacet
facet normal -0.7766277937469143 0.629959736792599 0.0
outer loop
vertex -237.79102044219755 106.35595712375768 0.0
vertex -233.68558431520424 110.78986691534124 6.0
vertex -233.68558431520424 110.78986691534124 0.0
endloop
endfacet
facet normal -0.5871192658643453 0.8095004432678912 0.0
outer loop
vertex -229.03652940165566 114.6499770489427 6.0
vertex -223.92340232008425 117.87023996995143 0.0
vertex -229.03652940165566 114.6499770489427 0.0
endloop
endfacet
facet normal -0.476435368694567 0.8792094969100777 0.0
outer loop
vertex -223.92340232008425 117.87023996995143 0.0
vertex -229.03652940165566 114.6499770489427 6.0
vertex -223.92340232008425 117.87023996995143 6.0
endloop
endfacet
facet normal -0.913210420923736 0.40748831531259017 0.0
outer loop
vertex -244.10055911717558 96.0787200627937 6.0
vertex -245.26167374395146 92.93933979856106 0.0
vertex -245.26167374395146 92.93933979856106 6.0
endloop
endfacet
facet normal -0.9379061782593919 0.3468890323761497 0.0
outer loop
vertex -245.26167374395146 92.93933979856106 0.0
vertex -244.10055911717558 96.0787200627937 6.0
vertex -244.10055911717558 96.0787200627937 0.0
endloop
endfacet
facet normal -0.357599530273585 0.9338750322972081 0.0
outer loop
vertex -218.43369009248227 120.39555608696341 6.0
vertex -212.66132321709983 122.18271654106665 0.0
vertex -218.43369009248227 120.39555608696341 0.0
endloop
endfacet
facet normal -0.2326450647443046 0.9725617069626575 0.0
outer loop
vertex -212.66132321709983 122.18271654106665 0.0
vertex -218.43369009248227 120.39555608696341 6.0
vertex -212.66132321709983 122.18271654106665 6.0
endloop
endfacet
facet normal -0.9996354439199467 0.026999615904139348 0.0
outer loop
vertex -248.093028996778 78.50175428074286 6.0
vertex -247.86076304110506 72.46352487481943 0.0
vertex -247.86076304110506 72.46352487481943 6.0
endloop
endfacet
facet normal -0.9946075811769302 -0.10370997765584766 0.0
outer loop
vertex -247.86076304110506 72.46352487481943 0.0
vertex -248.093028996778 78.50175428074286 6.0
vertex -248.093028996778 78.50175428074286 0.0
endloop
endfacet
facet normal -0.687757389614973 0.7259406126054654 0.0
outer loop
vertex -233.68558431520424 110.78986691534124 6.0
vertex -229.03652940165566 114.6499770489427 0.0
vertex -233.68558431520424 110.78986691534124 0.0
endloop
endfacet
facet normal -0.5871192658643453 0.8095004432678912 0.0
outer loop
vertex -229.03652940165566 114.6499770489427 0.0
vertex -233.68558431520424 110.78986691534124 6.0
vertex -229.03652940165566 114.6499770489427 6.0
endloop
endfacet
facet normal -0.9585856773497717 0.2848043173476823 0.0
outer loop
vertex -246.1967037090968 90.41123916891479 6.0
vertex -247.53516079289565 84.51864258781819 0.0
vertex -247.53516079289565 84.51864258781819 6.0
endloop
endfacet
facet normal -0.9875592670661879 0.15724723855029527 0.0
outer loop
vertex -247.53516079289565 84.51864258781819 0.0
vertex -246.1967037090968 90.41123916891479 6.0
vertex -246.1967037090968 90.41123916891479 0.0
endloop
endfacet
facet normal -0.2326450647443046 0.9725617069626575 0.0
outer loop
vertex -212.66132321709983 122.18271654106665 6.0
vertex -206.70506849157718 123.201142521397 0.0
vertex -212.66132321709983 122.18271654106665 0.0
endloop
endfacet
facet normal -0.10370997765584956 0.9946075811769298 0.0
outer loop
vertex -206.70506849157718 123.201142521397 0.0
vertex -212.66132321709983 122.18271654106665 6.0
vertex -206.70506849157718 123.201142521397 6.0
endloop
endfacet
facet normal -0.9379061782593979 0.34688903237613344 0.0
outer loop
vertex -245.26167374395146 92.93933979856106 6.0
vertex -246.1967037090968 90.41123916891479 0.0
vertex -246.1967037090968 90.41123916891479 6.0
endloop
endfacet
facet normal -0.9585856773497717 0.2848043173476823 0.0
outer loop
vertex -246.1967037090968 90.41123916891479 0.0
vertex -245.26167374395146 92.93933979856106 6.0
vertex -245.26167374395146 92.93933979856106 0.0
endloop
endfacet
facet normal 0.9132104209237382 -0.40748831531258556 0.0
outer loop
vertex -159.72765476892906 58.430252783894844 0.0
vertex -162.54562125384373 53.0848597466505 6.0
vertex -162.54562125384373 53.0848597466505 0.0
endloop
endfacet
facet normal 0.8522098810059396 -0.523200075225379 0.0
outer loop
vertex -162.54562125384373 53.0848597466505 6.0
vertex -159.72765476892906 58.430252783894844 0.0
vertex -159.72765476892906 58.430252783894844 6.0
endloop
endfacet
facet normal 0.9875592670661879 -0.15724723855029546 0.0
outer loop
vertex -156.29305309320898 69.9903302588704 0.0
vertex -157.63151017700784 64.0977336777738 6.0
vertex -157.63151017700784 64.0977336777738 0.0
endloop
endfacet
facet normal 0.9585856773497706 -0.28480431734768563 0.0
outer loop
vertex -157.63151017700784 64.0977336777738 6.0
vertex -156.29305309320898 69.9903302588704 0.0
vertex -156.29305309320898 69.9903302588704 6.0
endloop
endfacet
facet normal 0.9585856773497706 -0.28480431734768563 0.0
outer loop
vertex -157.63151017700784 64.0977336777738 0.0
vertex -159.72765476892906 58.430252783894844 6.0
vertex -159.72765476892906 58.430252783894844 0.0
endloop
endfacet
facet normal 0.9132104209237382 -0.40748831531258556 0.0
outer loop
vertex -159.72765476892906 58.430252783894844 6.0
vertex -157.63151017700784 64.0977336777738 0.0
vertex -157.63151017700784 64.0977336777738 6.0
endloop
endfacet
facet normal 0.9996354439199467 -0.02699961590413946 0.0
outer loop
vertex -155.73518488932666 76.00721856594572 0.0
vertex -156.29305309320898 69.9903302588704 6.0
vertex -156.29305309320898 69.9903302588704 0.0
endloop
endfacet
facet normal 0.9875592670661879 -0.15724723855029546 0.0
outer loop
vertex -156.29305309320898 69.9903302588704 6.0
vertex -155.73518488932666 76.00721856594572 0.0
vertex -155.73518488932666 76.00721856594572 6.0
endloop
endfacet
facet normal 0.8522098810059396 -0.523200075225379 0.0
outer loop
vertex -162.54562125384373 53.0848597466505 0.0
vertex -166.03719344390709 48.153015722930874 6.0
vertex -166.03719344390709 48.153015722930874 0.0
endloop
endfacet
facet normal 0.7766277937469125 -0.6299597367926009 0.0
outer loop
vertex -166.03719344390709 48.153015722930874 6.0
vertex -162.54562125384373 53.0848597466505 0.0
vertex -162.54562125384373 53.0848597466505 6.0
endloop
endfacet
facet normal 0.879209496910077 0.47643536869456843 0.0
outer loop
vertex -161.29835339644515 99.26378180037618 0.0
vertex -158.77303727943317 93.77406957277421 6.0
vertex -158.77303727943317 93.77406957277421 0.0
endloop
endfacet
facet normal 0.9338750322972079 0.35759953027358554 0.0
outer loop
vertex -158.77303727943317 93.77406957277421 6.0
vertex -161.29835339644515 99.26378180037618 0.0
vertex -161.29835339644515 99.26378180037618 6.0
endloop
endfacet
facet normal 0.7766277937469125 -0.6299597367926009 0.0
outer loop
vertex -166.03719344390709 48.153015722930874 0.0
vertex -170.14262957090045 43.71910593134731 6.0
vertex -170.14262957090045 43.71910593134731 0.0
endloop
endfacet
facet normal 0.6877573896149698 -0.7259406126054682 0.0
outer loop
vertex -170.14262957090045 43.71910593134731 6.0
vertex -166.03719344390709 48.153015722930874 0.0
vertex -166.03719344390709 48.153015722930874 6.0
endloop
endfacet
facet normal 0.9338750322972079 0.35759953027358554 0.0
outer loop
vertex -158.77303727943317 93.77406957277421 0.0
vertex -156.9858768253299 88.00170269739178 6.0
vertex -156.9858768253299 88.00170269739178 0.0
endloop
endfacet
facet normal 0.972561706962658 0.23264506474430308 0.0
outer loop
vertex -156.9858768253299 88.00170269739178 6.0
vertex -158.77303727943317 93.77406957277421 0.0
vertex -158.77303727943317 93.77406957277421 6.0
endloop
endfacet
facet normal 0.972561706962658 0.23264506474430308 0.0
outer loop
vertex -156.9858768253299 88.00170269739178 0.0
vertex -155.96745084499958 82.04544797186911 6.0
vertex -155.96745084499958 82.04544797186911 0.0
endloop
endfacet
facet normal 0.99460758117693 0.1037099776558474 0.0
outer loop
vertex -155.96745084499958 82.04544797186911 6.0
vertex -156.9858768253299 88.00170269739178 0.0
vertex -156.9858768253299 88.00170269739178 6.0
endloop
endfacet
facet normal 0.6877573896149698 -0.7259406126054682 0.0
outer loop
vertex -170.14262957090045 43.71910593134731 6.0
vertex -174.79168448444906 39.85899579774585 0.0
vertex -170.14262957090045 43.71910593134731 0.0
endloop
endfacet
facet normal 0.5871192658643444 -0.809500443267892 0.0
outer loop
vertex -174.79168448444906 39.85899579774585 0.0
vertex -170.14262957090045 43.71910593134731 6.0
vertex -174.79168448444906 39.85899579774585 6.0
endloop
endfacet
facet normal 0.99460758117693 0.1037099776558474 0.0
outer loop
vertex -155.96745084499958 82.04544797186911 0.0
vertex -155.73518488932666 76.00721856594572 6.0
vertex -155.73518488932666 76.00721856594572 0.0
endloop
endfacet
facet normal 0.9996354439199467 -0.02699961590413946 0.0
outer loop
vertex -155.73518488932666 76.00721856594572 6.0
vertex -155.96745084499958 82.04544797186911 0.0
vertex -155.96745084499958 82.04544797186911 6.0
endloop
endfacet
facet normal 0.28480431734768397 0.9585856773497712 0.0
outer loop
vertex -188.75735419748187 121.53708318938874 6.0
vertex -183.0898733036029 119.44093859746755 0.0
vertex -188.75735419748187 121.53708318938874 0.0
endloop
endfacet
facet normal 0.4074883153125839 0.9132104209237388 0.0
outer loop
vertex -183.0898733036029 119.44093859746755 0.0
vertex -188.75735419748187 121.53708318938874 6.0
vertex -183.0898733036029 119.44093859746755 6.0
endloop
endfacet
facet normal 0.523200075225379 0.8522098810059396 0.0
outer loop
vertex -177.74448026635858 116.62297211255286 6.0
vertex -172.81263624263894 113.1313999224895 0.0
vertex -177.74448026635858 116.62297211255286 0.0
endloop
endfacet
facet normal 0.6299597367926001 0.7766277937469132 0.0
outer loop
vertex -172.81263624263894 113.1313999224895 0.0
vertex -177.74448026635858 116.62297211255286 6.0
vertex -172.81263624263894 113.1313999224895 6.0
endloop
endfacet
facet normal 0.6299597367926001 0.7766277937469132 0.0
outer loop
vertex -172.81263624263894 113.1313999224895 6.0
vertex -168.37872645105534 109.02596379549615 0.0
vertex -172.81263624263894 113.1313999224895 0.0
endloop
endfacet
facet normal 0.7259406126054655 0.6877573896149727 0.0
outer loop
vertex -168.37872645105534 109.02596379549615 0.0
vertex -172.81263624263894 113.1313999224895 6.0
vertex -168.37872645105534 109.02596379549615 6.0
endloop
endfacet
facet normal 0.7259406126054655 0.6877573896149727 0.0
outer loop
vertex -168.37872645105534 109.02596379549615 0.0
vertex -164.51861631745388 104.3769088819476 6.0
vertex -164.51861631745388 104.3769088819476 0.0
endloop
endfacet
facet normal 0.8095004432678896 0.5871192658643475 0.0
outer loop
vertex -164.51861631745388 104.3769088819476 6.0
vertex -168.37872645105534 109.02596379549615 0.0
vertex -168.37872645105534 109.02596379549615 6.0
endloop
endfacet
facet normal -0.10370997765584956 0.9946075811769298 0.0
outer loop
vertex -206.70506849157718 123.201142521397 6.0
vertex -200.66683908565378 123.43340847706993 0.0
vertex -206.70506849157718 123.201142521397 0.0
endloop
endfacet
facet normal 0.02699961590413946 0.9996354439199467 0.0
outer loop
vertex -200.66683908565378 123.43340847706993 0.0
vertex -206.70506849157718 123.201142521397 6.0
vertex -200.66683908565378 123.43340847706993 6.0
endloop
endfacet
facet normal 0.4074883153125839 0.9132104209237388 0.0
outer loop
vertex -183.0898733036029 119.44093859746755 6.0
vertex -177.74448026635858 116.62297211255286 0.0
vertex -183.0898733036029 119.44093859746755 0.0
endloop
endfacet
facet normal 0.523200075225379 0.8522098810059396 0.0
outer loop
vertex -177.74448026635858 116.62297211255286 0.0
vertex -183.0898733036029 119.44093859746755 6.0
vertex -177.74448026635858 116.62297211255286 6.0
endloop
endfacet
facet normal 0.8095004432678896 0.5871192658643475 0.0
outer loop
vertex -164.51861631745388 104.3769088819476 0.0
vertex -161.29835339644515 99.26378180037618 6.0
vertex -161.29835339644515 99.26378180037618 0.0
endloop
endfacet
facet normal 0.879209496910077 0.47643536869456843 0.0
outer loop
vertex -161.29835339644515 99.26378180037618 6.0
vertex -164.51861631745388 104.3769088819476 0.0
vertex -164.51861631745388 104.3769088819476 6.0
endloop
endfacet
facet normal 0.02699961590413946 0.9996354439199467 0.0
outer loop
vertex -200.66683908565378 123.43340847706993 6.0
vertex -194.64995077857847 122.87554027318758 0.0
vertex -200.66683908565378 123.43340847706993 0.0
endloop
endfacet
facet normal 0.15724723855029546 0.9875592670661879 0.0
outer loop
vertex -194.64995077857847 122.87554027318758 0.0
vertex -200.66683908565378 123.43340847706993 6.0
vertex -194.64995077857847 122.87554027318758 6.0
endloop
endfacet
facet normal 0.15724723855029546 0.9875592670661879 0.0
outer loop
vertex -194.64995077857847 122.87554027318758 6.0
vertex -188.75735419748187 121.53708318938874 0.0
vertex -194.64995077857847 122.87554027318758 0.0
endloop
endfacet
facet normal 0.28480431734768397 0.9585856773497712 0.0
outer loop
vertex -188.75735419748187 121.53708318938874 0.0
vertex -194.64995077857847 122.87554027318758 6.0
vertex -188.75735419748187 121.53708318938874 6.0
endloop
endfacet
endsolid model
