solid Indicators
facet normal -0.0 -0.9999999999999999 -0.0
outer loop
vertex -157.62201703710835 173.95019799904858 6.0
vertex -245.62935536691828 173.95019799904858 0.0
vertex -157.62201703710835 173.95019799904858 0.0
endloop
endfacet
facet normal -0.0 -0.9999999999999999 -0.0
outer loop
vertex -245.62935536691828 173.95019799904858 0.0
vertex -157.62201703710835 173.95019799904858 6.0
vertex -245.62935536691828 173.95019799904858 6.0
endloop
endfacet
facet normal -0.0 -0.0 1.0
outer loop
vertex -157.62201703710835 173.95019799904858 6.0
vertex -202.09884365601897 249.08764647394867 6.0
vertex -245.62935536691828 173.95019799904858 6.0
endloop
endfacet
facet normal 0.0 0.0 -1.0
outer loop
vertex -157.62201703710835 173.95019799904858 0.0
vertex -245.62935536691828 173.95019799904858 0.0
vertex -202.09884365601897 249.08764647394867 0.0
endloop
endfacet
facet normal -0.8652770255422358 0.5012939946466353 0.0
outer loop
vertex -202.09884365601897 249.08764647394867 6.0
vertex -245.62935536691828 173.95019799904858 0.0
vertex -245.62935536691828 173.95019799904858 6.0
endloop
endfacet
facet normal -0.8652770255422358 0.5012939946466353 0.0
outer loop
vertex -245.62935536691828 173.95019799904858 0.0
vertex -202.09884365601897 249.08764647394867 6.0
vertex -202.09884365601897 249.08764647394867 0.0
endloop
endfacet
facet normal 0.8605379043507376 0.5093864104740531 0.0
outer loop
vertex -202.09884365601897 249.08764647394867 0.0
vertex -157.62201703710835 173.95019799904858 6.0
vertex -157.62201703710835 173.95019799904858 0.0
endloop
endfacet
facet normal 0.8605379043507376 0.5093864104740531 0.0
outer loop
vertex -157.62201703710835 173.95019799904858 6.0
vertex -202.09884365601897 249.08764647394867 0.0
vertex -202.09884365601897 249.08764647394867 6.0
endloop
endfacet
endsolid Indicators
