solid model
facet normal -0.0 -0.0 1.0
outer loop
vertex -121.63569584718923 71.84294907684742 10.0
vertex -121.26791816656247 85.45957260003037 10.0
vertex -121.89804733565627 78.66331354980612 10.0
endloop
endfacet
facet normal -0.0 -0.0 1.0
outer loop
vertex -121.26791816656247 85.45957260003037 10.0
vertex -121.63569584718923 71.84294907684742 10.0
vertex -120.4853526078666 65.1151775082489 10.0
endloop
endfacet
facet normal -0.0 -0.0 1.0
outer loop
vertex -121.26791816656247 85.45957260003037 10.0
vertex -120.4853526078666 65.1151775082489 10.0
vertex -119.75609002469584 92.11544035089186 10.0
endloop
endfacet
facet normal -0.0 -0.0 1.0
outer loop
vertex -119.75609002469584 92.11544035089186 10.0
vertex -120.4853526078666 65.1151775082489 10.0
vertex -118.46670030944858 58.595112880839935 10.0
endloop
endfacet
facet normal -0.0 -0.0 1.0
outer loop
vertex -119.75609002469584 92.11544035089186 10.0
vertex -118.46670030944858 58.595112880839935 10.0
vertex -117.38843070872166 98.51703305981817 10.0
endloop
endfacet
facet normal -0.0 -0.0 1.0
outer loop
vertex -117.38843070872166 98.51703305981817 10.0
vertex -118.46670030944858 58.595112880839935 10.0
vertex -115.61427865243726 52.39431530809893 10.0
endloop
endfacet
facet normal -0.0 -0.0 1.0
outer loop
vertex -117.38843070872166 98.51703305981817 10.0
vertex -115.61427865243726 52.39431530809893 10.0
vertex -115.916466996778 78.50175428074286 10.0
endloop
endfacet
facet normal -0.0 -0.0 1.0
outer loop
vertex -115.916466996778 78.50175428074286 10.0
vertex -115.61427865243726 52.39431530809893 10.0
vertex -115.68420104110508 72.46352487481943 10.0
endloop
endfacet
facet normal -0.0 -0.0 1.0
outer loop
vertex -115.68420104110508 72.46352487481943 10.0
vertex -115.61427865243726 52.39431530809893 10.0
vertex -114.66577506077475 66.50727014929679 10.0
endloop
endfacet
facet normal -0.0 -0.0 1.0
outer loop
vertex -114.66577506077475 66.50727014929679 10.0
vertex -115.61427865243726 52.39431530809893 10.0
vertex -111.97689336222483 46.61888215568135 10.0
endloop
endfacet
facet normal -0.0 -0.0 1.0
outer loop
vertex -114.66577506077475 66.50727014929679 10.0
vertex -111.97689336222483 46.61888215568135 10.0
vertex -112.87861460667148 60.734903273914355 10.0
endloop
endfacet
facet normal -0.0 -0.0 1.0
outer loop
vertex -112.87861460667148 60.734903273914355 10.0
vertex -111.97689336222483 46.61888215568135 10.0
vertex -110.3532984896595 55.245191046312385 10.0
endloop
endfacet
facet normal -0.0 -0.0 1.0
outer loop
vertex -110.3532984896595 55.245191046312385 10.0
vertex -111.97689336222483 46.61888215568135 10.0
vertex -107.61678110960048 41.36763268607766 10.0
endloop
endfacet
facet normal -0.0 -0.0 1.0
outer loop
vertex -110.3532984896595 55.245191046312385 10.0
vertex -107.61678110960048 41.36763268607766 10.0
vertex -107.13303556865078 50.13206396474097 10.0
endloop
endfacet
facet normal -0.0 -0.0 1.0
outer loop
vertex -107.13303556865078 50.13206396474097 10.0
vertex -107.61678110960048 41.36763268607766 10.0
vertex -102.60854462405815 36.73041723363418 10.0
endloop
endfacet
facet normal -0.0 -0.0 1.0
outer loop
vertex -107.13303556865078 50.13206396474097 10.0
vertex -102.60854462405815 36.73041723363418 10.0
vertex -103.2729254350493 45.48300905119241 10.0
endloop
endfacet
facet normal -0.0 -0.0 1.0
outer loop
vertex -103.2729254350493 45.48300905119241 10.0
vertex -102.60854462405815 36.73041723363418 10.0
vertex -98.83901564346574 41.37757292419906 10.0
endloop
endfacet
facet normal -0.0 -0.0 1.0
outer loop
vertex -98.83901564346574 41.37757292419906 10.0
vertex -102.60854462405815 36.73041723363418 10.0
vertex -97.03787622041092 32.786579840421226 10.0
endloop
endfacet
facet normal -0.0 -0.0 1.0
outer loop
vertex -98.83901564346574 41.37757292419906 10.0
vertex -97.03787622041092 32.786579840421226 10.0
vertex -93.90717161974612 37.88600073413569 10.0
endloop
endfacet
facet normal -0.0 -0.0 1.0
outer loop
vertex -93.90717161974612 37.88600073413569 10.0
vertex -97.03787622041092 32.786579840421226 10.0
vertex -91.00009157952631 29.603600657674985 10.0
endloop
endfacet
facet normal -0.0 -0.0 1.0
outer loop
vertex -93.90717161974612 37.88600073413569 10.0
vertex -91.00009157952631 29.603600657674985 10.0
vertex -88.56177858250177 35.068034249221014 10.0
endloop
endfacet
facet normal -0.0 -0.0 1.0
outer loop
vertex -88.56177858250177 35.068034249221014 10.0
vertex -91.00009157952631 29.603600657674985 10.0
vertex -84.59849887059997 27.235941341700805 10.0
endloop
endfacet
facet normal -0.0 -0.0 1.0
outer loop
vertex -88.56177858250177 35.068034249221014 10.0
vertex -84.59849887059997 27.235941341700805 10.0
vertex -82.89429768862287 32.97188965729982 10.0
endloop
endfacet
facet normal -0.0 -0.0 1.0
outer loop
vertex -82.89429768862287 32.97188965729982 10.0
vertex -84.59849887059997 27.235941341700805 10.0
vertex -77.94263111973848 25.724113199834164 10.0
endloop
endfacet
facet normal -0.0 -0.0 1.0
outer loop
vertex -82.89429768862287 32.97188965729982 10.0
vertex -77.94263111973848 25.724113199834164 10.0
vertex -77.00170110752624 31.633432573500958 10.0
endloop
endfacet
facet normal -0.0 -0.0 1.0
outer loop
vertex -77.00170110752624 31.633432573500958 10.0
vertex -77.94263111973848 25.724113199834164 10.0
vertex -71.14637206951421 25.093984030740348 10.0
endloop
endfacet
facet normal -0.0 -0.0 1.0
outer loop
vertex -77.00170110752624 31.633432573500958 10.0
vertex -71.14637206951421 25.093984030740348 10.0
vertex -70.98481280045092 31.075564369618633 10.0
endloop
endfacet
facet normal -0.0 -0.0 1.0
outer loop
vertex -70.98481280045092 31.075564369618633 10.0
vertex -71.14637206951421 25.093984030740348 10.0
vertex -64.3260075965555 25.3563355192074 10.0
endloop
endfacet
facet normal -0.0 -0.0 1.0
outer loop
vertex -70.98481280045092 31.075564369618633 10.0
vertex -64.3260075965555 25.3563355192074 10.0
vertex -64.94658339452752 31.307830325291558 10.0
endloop
endfacet
facet normal -0.0 -0.0 1.0
outer loop
vertex -64.94658339452752 31.307830325291558 10.0
vertex -64.3260075965555 25.3563355192074 10.0
vertex -58.99032866900486 32.32625630562189 10.0
endloop
endfacet
facet normal -0.0 -0.0 1.0
outer loop
vertex -58.99032866900486 32.32625630562189 10.0
vertex -64.3260075965555 25.3563355192074 10.0
vertex -57.59823602795698 26.506678758530033 10.0
endloop
endfacet
facet normal -0.0 -0.0 1.0
outer loop
vertex -58.99032866900486 32.32625630562189 10.0
vertex -57.59823602795698 26.506678758530033 10.0
vertex -53.21796179362243 34.11341675972513 10.0
endloop
endfacet
facet normal -0.0 -0.0 1.0
outer loop
vertex -53.21796179362243 34.11341675972513 10.0
vertex -57.59823602795698 26.506678758530033 10.0
vertex -51.07817140054801 28.52533105694804 10.0
endloop
endfacet
facet normal -0.0 -0.0 1.0
outer loop
vertex -53.21796179362243 34.11341675972513 10.0
vertex -51.07817140054801 28.52533105694804 10.0
vertex -47.72824956602047 36.638732876737116 10.0
endloop
endfacet
facet normal -0.0 -0.0 1.0
outer loop
vertex -47.72824956602047 36.638732876737116 10.0
vertex -51.07817140054801 28.52533105694804 10.0
vertex -44.877373827806984 31.37775271395936 10.0
endloop
endfacet
facet normal -0.0 -0.0 1.0
outer loop
vertex -47.72824956602047 36.638732876737116 10.0
vertex -44.877373827806984 31.37775271395936 10.0
vertex -42.61512248444905 39.85899579774585 10.0
endloop
endfacet
facet normal -0.0 -0.0 1.0
outer loop
vertex -42.61512248444905 39.85899579774585 10.0
vertex -44.877373827806984 31.37775271395936 10.0
vertex -39.1019406753894 35.01513800417181 10.0
endloop
endfacet
facet normal -0.0 -0.0 1.0
outer loop
vertex -42.61512248444905 39.85899579774585 10.0
vertex -39.1019406753894 35.01513800417181 10.0
vertex -37.966067570900464 43.71910593134731 10.0
endloop
endfacet
facet normal -0.0 -0.0 1.0
outer loop
vertex -37.966067570900464 43.71910593134731 10.0
vertex -39.1019406753894 35.01513800417181 10.0
vertex -33.850691205785736 39.37525025679616 10.0
endloop
endfacet
facet normal -0.0 -0.0 1.0
outer loop
vertex -37.966067570900464 43.71910593134731 10.0
vertex -33.850691205785736 39.37525025679616 10.0
vertex -33.86063144390711 48.153015722930874 10.0
endloop
endfacet
facet normal -0.0 -0.0 1.0
outer loop
vertex -33.86063144390711 48.153015722930874 10.0
vertex -33.850691205785736 39.37525025679616 10.0
vertex -30.369059253843755 53.0848597466505 10.0
endloop
endfacet
facet normal -0.0 -0.0 1.0
outer loop
vertex -30.369059253843755 53.0848597466505 10.0
vertex -33.850691205785736 39.37525025679616 10.0
vertex -29.21347575334225 44.383486742338505 10.0
endloop
endfacet
facet normal -0.0 -0.0 1.0
outer loop
vertex -30.369059253843755 53.0848597466505 10.0
vertex -29.21347575334225 44.383486742338505 10.0
vertex -27.551092768929074 58.430252783894844 10.0
endloop
endfacet
facet normal -0.0 -0.0 1.0
outer loop
vertex -27.551092768929074 58.430252783894844 10.0
vertex -29.21347575334225 44.383486742338505 10.0
vertex -25.269638360129296 49.9541551459857 10.0
endloop
endfacet
facet normal -0.0 -0.0 1.0
outer loop
vertex -27.551092768929074 58.430252783894844 10.0
vertex -25.269638360129296 49.9541551459857 10.0
vertex -25.454948177007854 64.0977336777738 10.0
endloop
endfacet
facet normal -0.0 -0.0 1.0
outer loop
vertex -25.454948177007854 64.0977336777738 10.0
vertex -25.269638360129296 49.9541551459857 10.0
vertex -24.116491093209007 69.9903302588704 10.0
endloop
endfacet
facet normal -0.0 -0.0 1.0
outer loop
vertex -24.116491093209007 69.9903302588704 10.0
vertex -25.269638360129296 49.9541551459857 10.0
vertex -22.086659177383055 55.99193978687032 10.0
endloop
endfacet
facet normal -0.0 -0.0 1.0
outer loop
vertex -24.116491093209007 69.9903302588704 10.0
vertex -22.086659177383055 55.99193978687032 10.0
vertex -23.558622889326667 76.00721856594572 10.0
endloop
endfacet
facet normal -0.0 -0.0 1.0
outer loop
vertex -115.916466996778 78.50175428074286 10.0
vertex -114.20545152597545 104.55481770070278 10.0
vertex -117.38843070872166 98.51703305981817 10.0
endloop
endfacet
facet normal -0.0 -0.0 1.0
outer loop
vertex -114.20545152597545 104.55481770070278 10.0
vertex -115.916466996778 78.50175428074286 10.0
vertex -115.35859879289566 84.51864258781819 10.0
endloop
endfacet
facet normal -0.0 -0.0 1.0
outer loop
vertex -114.20545152597545 104.55481770070278 10.0
vertex -115.35859879289566 84.51864258781819 10.0
vertex -114.02014170909682 90.41123916891479 10.0
endloop
endfacet
facet normal -0.0 -0.0 1.0
outer loop
vertex -114.20545152597545 104.55481770070278 10.0
vertex -114.02014170909682 90.41123916891479 10.0
vertex -110.2616141327625 110.12548610435 10.0
endloop
endfacet
facet normal -0.0 -0.0 1.0
outer loop
vertex -110.2616141327625 110.12548610435 10.0
vertex -114.02014170909682 90.41123916891479 10.0
vertex -113.08511174395144 92.93933979856106 10.0
endloop
endfacet
facet normal -0.0 -0.0 1.0
outer loop
vertex -110.2616141327625 110.12548610435 10.0
vertex -113.08511174395144 92.93933979856106 10.0
vertex -111.92399711717562 96.0787200627937 10.0
endloop
endfacet
facet normal -0.0 -0.0 1.0
outer loop
vertex -110.2616141327625 110.12548610435 10.0
vertex -111.92399711717562 96.0787200627937 10.0
vertex -109.10603063226094 101.42411310003804 10.0
endloop
endfacet
facet normal -0.0 -0.0 1.0
outer loop
vertex -110.2616141327625 110.12548610435 10.0
vertex -109.10603063226094 101.42411310003804 10.0
vertex -105.62439868031903 115.13372258989233 10.0
endloop
endfacet
facet normal -0.0 -0.0 1.0
outer loop
vertex -105.62439868031903 115.13372258989233 10.0
vertex -109.10603063226094 101.42411310003804 10.0
vertex -105.61445844219759 106.35595712375768 10.0
endloop
endfacet
facet normal -0.0 -0.0 1.0
outer loop
vertex -105.62439868031903 115.13372258989233 10.0
vertex -105.61445844219759 106.35595712375768 10.0
vertex -100.37314921071535 119.49383484251668 10.0
endloop
endfacet
facet normal -0.0 -0.0 1.0
outer loop
vertex -100.37314921071535 119.49383484251668 10.0
vertex -105.61445844219759 106.35595712375768 10.0
vertex -101.50902231520423 110.78986691534124 10.0
endloop
endfacet
facet normal -0.0 -0.0 1.0
outer loop
vertex -100.37314921071535 119.49383484251668 10.0
vertex -101.50902231520423 110.78986691534124 10.0
vertex -96.85996740165567 114.6499770489427 10.0
endloop
endfacet
facet normal -0.0 -0.0 1.0
outer loop
vertex -100.37314921071535 119.49383484251668 10.0
vertex -96.85996740165567 114.6499770489427 10.0
vertex -94.59771605829779 123.13122013272915 10.0
endloop
endfacet
facet normal -0.0 -0.0 1.0
outer loop
vertex -94.59771605829779 123.13122013272915 10.0
vertex -96.85996740165567 114.6499770489427 10.0
vertex -91.74684032008423 117.87023996995143 10.0
endloop
endfacet
facet normal -0.0 -0.0 1.0
outer loop
vertex -94.59771605829779 123.13122013272915 10.0
vertex -91.74684032008423 117.87023996995143 10.0
vertex -88.39691848555677 125.98364178974047 10.0
endloop
endfacet
facet normal -0.0 -0.0 1.0
outer loop
vertex -88.39691848555677 125.98364178974047 10.0
vertex -91.74684032008423 117.87023996995143 10.0
vertex -86.25712809248229 120.39555608696341 10.0
endloop
endfacet
facet normal -0.0 -0.0 1.0
outer loop
vertex -88.39691848555677 125.98364178974047 10.0
vertex -86.25712809248229 120.39555608696341 10.0
vertex -81.87685385814781 128.00229408815852 10.0
endloop
endfacet
facet normal -0.0 -0.0 1.0
outer loop
vertex -81.87685385814781 128.00229408815852 10.0
vertex -86.25712809248229 120.39555608696341 10.0
vertex -80.48476121709984 122.18271654106665 10.0
endloop
endfacet
facet normal -0.0 -0.0 1.0
outer loop
vertex -81.87685385814781 128.00229408815852 10.0
vertex -80.48476121709984 122.18271654106665 10.0
vertex -75.1490822895493 129.15263732748113 10.0
endloop
endfacet
facet normal -0.0 -0.0 1.0
outer loop
vertex -75.1490822895493 129.15263732748113 10.0
vertex -80.48476121709984 122.18271654106665 10.0
vertex -74.52850649157719 123.201142521397 10.0
endloop
endfacet
facet normal -0.0 -0.0 1.0
outer loop
vertex -75.1490822895493 129.15263732748113 10.0
vertex -74.52850649157719 123.201142521397 10.0
vertex -68.32871781659061 129.4149888159482 10.0
endloop
endfacet
facet normal -0.0 -0.0 1.0
outer loop
vertex -68.32871781659061 129.4149888159482 10.0
vertex -74.52850649157719 123.201142521397 10.0
vertex -68.49027708565379 123.43340847706993 10.0
endloop
endfacet
facet normal -0.0 -0.0 1.0
outer loop
vertex -68.32871781659061 129.4149888159482 10.0
vertex -68.49027708565379 123.43340847706993 10.0
vertex -62.47338877857847 122.87554027318758 10.0
endloop
endfacet
facet normal -0.0 -0.0 1.0
outer loop
vertex -68.32871781659061 129.4149888159482 10.0
vertex -62.47338877857847 122.87554027318758 10.0
vertex -61.53245876636635 128.78485964685441 10.0
endloop
endfacet
facet normal -0.0 -0.0 1.0
outer loop
vertex -61.53245876636635 128.78485964685441 10.0
vertex -62.47338877857847 122.87554027318758 10.0
vertex -56.58079219748186 121.53708318938874 10.0
endloop
endfacet
facet normal -0.0 -0.0 1.0
outer loop
vertex -61.53245876636635 128.78485964685441 10.0
vertex -56.58079219748186 121.53708318938874 10.0
vertex -54.87659101550486 127.27303150498778 10.0
endloop
endfacet
facet normal -0.0 -0.0 1.0
outer loop
vertex -54.87659101550486 127.27303150498778 10.0
vertex -56.58079219748186 121.53708318938874 10.0
vertex -50.91331130360293 119.44093859746755 10.0
endloop
endfacet
facet normal -0.0 -0.0 1.0
outer loop
vertex -54.87659101550486 127.27303150498778 10.0
vertex -50.91331130360293 119.44093859746755 10.0
vertex -48.47499830657853 124.9053721890136 10.0
endloop
endfacet
facet normal -0.0 -0.0 1.0
outer loop
vertex -48.47499830657853 124.9053721890136 10.0
vertex -50.91331130360293 119.44093859746755 10.0
vertex -45.567918266358575 116.62297211255286 10.0
endloop
endfacet
facet normal -0.0 -0.0 1.0
outer loop
vertex -48.47499830657853 124.9053721890136 10.0
vertex -45.567918266358575 116.62297211255286 10.0
vertex -42.43721366569391 121.72239300626741 10.0
endloop
endfacet
facet normal -0.0 -0.0 1.0
outer loop
vertex -42.43721366569391 121.72239300626741 10.0
vertex -45.567918266358575 116.62297211255286 10.0
vertex -40.636074242638955 113.1313999224895 10.0
endloop
endfacet
facet normal -0.0 -0.0 1.0
outer loop
vertex -42.43721366569391 121.72239300626741 10.0
vertex -40.636074242638955 113.1313999224895 10.0
vertex -36.8665452620467 117.77855561305448 10.0
endloop
endfacet
facet normal -0.0 -0.0 1.0
outer loop
vertex -36.8665452620467 117.77855561305448 10.0
vertex -40.636074242638955 113.1313999224895 10.0
vertex -36.20216445105537 109.02596379549615 10.0
endloop
endfacet
facet normal -0.0 -0.0 1.0
outer loop
vertex -36.8665452620467 117.77855561305448 10.0
vertex -36.20216445105537 109.02596379549615 10.0
vertex -31.858308776504366 113.14134016061102 10.0
endloop
endfacet
facet normal -0.0 -0.0 1.0
outer loop
vertex -31.858308776504366 113.14134016061102 10.0
vertex -36.20216445105537 109.02596379549615 10.0
vertex -32.34205431745389 104.3769088819476 10.0
endloop
endfacet
facet normal -0.0 -0.0 1.0
outer loop
vertex -31.858308776504366 113.14134016061102 10.0
vertex -32.34205431745389 104.3769088819476 10.0
vertex -29.12179139644515 99.26378180037618 10.0
endloop
endfacet
facet normal -0.0 -0.0 1.0
outer loop
vertex -31.858308776504366 113.14134016061102 10.0
vertex -29.12179139644515 99.26378180037618 10.0
vertex -27.498196523880004 107.89009069100736 10.0
endloop
endfacet
facet normal -0.0 -0.0 1.0
outer loop
vertex -27.498196523880004 107.89009069100736 10.0
vertex -29.12179139644515 99.26378180037618 10.0
vertex -26.596475279433168 93.77406957277421 10.0
endloop
endfacet
facet normal -0.0 -0.0 1.0
outer loop
vertex -27.498196523880004 107.89009069100736 10.0
vertex -26.596475279433168 93.77406957277421 10.0
vertex -23.860811233667516 102.1146575385898 10.0
endloop
endfacet
facet normal -0.0 -0.0 1.0
outer loop
vertex -23.860811233667516 102.1146575385898 10.0
vertex -26.596475279433168 93.77406957277421 10.0
vertex -24.809314825329924 88.00170269739178 10.0
endloop
endfacet
facet normal -0.0 -0.0 1.0
outer loop
vertex -23.860811233667516 102.1146575385898 10.0
vertex -24.809314825329924 88.00170269739178 10.0
vertex -23.790888844999593 82.04544797186911 10.0
endloop
endfacet
facet normal -0.0 -0.0 1.0
outer loop
vertex -23.860811233667516 102.1146575385898 10.0
vertex -23.790888844999593 82.04544797186911 10.0
vertex -21.008389576656196 95.91385996584881 10.0
endloop
endfacet
facet normal -0.0 -0.0 1.0
outer loop
vertex -21.008389576656196 95.91385996584881 10.0
vertex -23.790888844999593 82.04544797186911 10.0
vertex -23.558622889326667 76.00721856594572 10.0
endloop
endfacet
facet normal -0.0 -0.0 1.0
outer loop
vertex -21.008389576656196 95.91385996584881 10.0
vertex -23.558622889326667 76.00721856594572 10.0
vertex -22.086659177383055 55.99193978687032 10.0
endloop
endfacet
facet normal -0.0 -0.0 1.0
outer loop
vertex -21.008389576656196 95.91385996584881 10.0
vertex -22.086659177383055 55.99193978687032 10.0
vertex -19.718999861408793 62.39353249579687 10.0
endloop
endfacet
facet normal -0.0 -0.0 1.0
outer loop
vertex -21.008389576656196 95.91385996584881 10.0
vertex -19.718999861408793 62.39353249579687 10.0
vertex -18.98973727823813 89.39379533843984 10.0
endloop
endfacet
facet normal -0.0 -0.0 1.0
outer loop
vertex -18.98973727823813 89.39379533843984 10.0
vertex -19.718999861408793 62.39353249579687 10.0
vertex -18.207171719542185 69.04940024665838 10.0
endloop
endfacet
facet normal -0.0 -0.0 1.0
outer loop
vertex -18.98973727823813 89.39379533843984 10.0
vertex -18.207171719542185 69.04940024665838 10.0
vertex -17.839394038915465 82.66602376984132 10.0
endloop
endfacet
facet normal -0.0 -0.0 1.0
outer loop
vertex -17.839394038915465 82.66602376984132 10.0
vertex -18.207171719542185 69.04940024665838 10.0
vertex -17.577042550448425 75.84565929688263 10.0
endloop
endfacet
facet normal 0.0 0.0 -1.0
outer loop
vertex -114.20545152597545 104.55481770070278 0.0
vertex -115.916466996778 78.50175428074286 0.0
vertex -117.38843070872166 98.51703305981817 0.0
endloop
endfacet
facet normal 0.0 0.0 -1.0
outer loop
vertex -115.916466996778 78.50175428074286 0.0
vertex -114.20545152597545 104.55481770070278 0.0
vertex -115.35859879289566 84.51864258781819 0.0
endloop
endfacet
facet normal 0.0 0.0 -1.0
outer loop
vertex -115.35859879289566 84.51864258781819 0.0
vertex -114.20545152597545 104.55481770070278 0.0
vertex -114.02014170909682 90.41123916891479 0.0
endloop
endfacet
facet normal 0.0 0.0 -1.0
outer loop
vertex -114.02014170909682 90.41123916891479 0.0
vertex -114.20545152597545 104.55481770070278 0.0
vertex -110.2616141327625 110.12548610435 0.0
endloop
endfacet
facet normal 0.0 0.0 -1.0
outer loop
vertex -114.02014170909682 90.41123916891479 0.0
vertex -110.2616141327625 110.12548610435 0.0
vertex -113.08511174395144 92.93933979856106 0.0
endloop
endfacet
facet normal 0.0 0.0 -1.0
outer loop
vertex -113.08511174395144 92.93933979856106 0.0
vertex -110.2616141327625 110.12548610435 0.0
vertex -111.92399711717562 96.0787200627937 0.0
endloop
endfacet
facet normal 0.0 0.0 -1.0
outer loop
vertex -111.92399711717562 96.0787200627937 0.0
vertex -110.2616141327625 110.12548610435 0.0
vertex -109.10603063226094 101.42411310003804 0.0
endloop
endfacet
facet normal 0.0 0.0 -1.0
outer loop
vertex -109.10603063226094 101.42411310003804 0.0
vertex -110.2616141327625 110.12548610435 0.0
vertex -105.62439868031903 115.13372258989233 0.0
endloop
endfacet
facet normal 0.0 0.0 -1.0
outer loop
vertex -109.10603063226094 101.42411310003804 0.0
vertex -105.62439868031903 115.13372258989233 0.0
vertex -105.61445844219759 106.35595712375768 0.0
endloop
endfacet
facet normal 0.0 0.0 -1.0
outer loop
vertex -105.61445844219759 106.35595712375768 0.0
vertex -105.62439868031903 115.13372258989233 0.0
vertex -100.37314921071535 119.49383484251668 0.0
endloop
endfacet
facet normal 0.0 0.0 -1.0
outer loop
vertex -105.61445844219759 106.35595712375768 0.0
vertex -100.37314921071535 119.49383484251668 0.0
vertex -101.50902231520423 110.78986691534124 0.0
endloop
endfacet
facet normal 0.0 0.0 -1.0
outer loop
vertex -101.50902231520423 110.78986691534124 0.0
vertex -100.37314921071535 119.49383484251668 0.0
vertex -96.85996740165567 114.6499770489427 0.0
endloop
endfacet
facet normal 0.0 0.0 -1.0
outer loop
vertex -96.85996740165567 114.6499770489427 0.0
vertex -100.37314921071535 119.49383484251668 0.0
vertex -94.59771605829779 123.13122013272915 0.0
endloop
endfacet
facet normal 0.0 0.0 -1.0
outer loop
vertex -96.85996740165567 114.6499770489427 0.0
vertex -94.59771605829779 123.13122013272915 0.0
vertex -91.74684032008423 117.87023996995143 0.0
endloop
endfacet
facet normal 0.0 0.0 -1.0
outer loop
vertex -91.74684032008423 117.87023996995143 0.0
vertex -94.59771605829779 123.13122013272915 0.0
vertex -88.39691848555677 125.98364178974047 0.0
endloop
endfacet
facet normal 0.0 0.0 -1.0
outer loop
vertex -91.74684032008423 117.87023996995143 0.0
vertex -88.39691848555677 125.98364178974047 0.0
vertex -86.25712809248229 120.39555608696341 0.0
endloop
endfacet
facet normal 0.0 0.0 -1.0
outer loop
vertex -86.25712809248229 120.39555608696341 0.0
vertex -88.39691848555677 125.98364178974047 0.0
vertex -81.87685385814781 128.00229408815852 0.0
endloop
endfacet
facet normal 0.0 0.0 -1.0
outer loop
vertex -86.25712809248229 120.39555608696341 0.0
vertex -81.87685385814781 128.00229408815852 0.0
vertex -80.48476121709984 122.18271654106665 0.0
endloop
endfacet
facet normal 0.0 0.0 -1.0
outer loop
vertex -80.48476121709984 122.18271654106665 0.0
vertex -81.87685385814781 128.00229408815852 0.0
vertex -75.1490822895493 129.15263732748113 0.0
endloop
endfacet
facet normal 0.0 0.0 -1.0
outer loop
vertex -80.48476121709984 122.18271654106665 0.0
vertex -75.1490822895493 129.15263732748113 0.0
vertex -74.52850649157719 123.201142521397 0.0
endloop
endfacet
facet normal 0.0 0.0 -1.0
outer loop
vertex -74.52850649157719 123.201142521397 0.0
vertex -75.1490822895493 129.15263732748113 0.0
vertex -68.32871781659061 129.4149888159482 0.0
endloop
endfacet
facet normal 0.0 0.0 -1.0
outer loop
vertex -74.52850649157719 123.201142521397 0.0
vertex -68.32871781659061 129.4149888159482 0.0
vertex -68.49027708565379 123.43340847706993 0.0
endloop
endfacet
facet normal 0.0 0.0 -1.0
outer loop
vertex -68.49027708565379 123.43340847706993 0.0
vertex -68.32871781659061 129.4149888159482 0.0
vertex -62.47338877857847 122.87554027318758 0.0
endloop
endfacet
facet normal 0.0 0.0 -1.0
outer loop
vertex -62.47338877857847 122.87554027318758 0.0
vertex -68.32871781659061 129.4149888159482 0.0
vertex -61.53245876636635 128.78485964685441 0.0
endloop
endfacet
facet normal 0.0 0.0 -1.0
outer loop
vertex -62.47338877857847 122.87554027318758 0.0
vertex -61.53245876636635 128.78485964685441 0.0
vertex -56.58079219748186 121.53708318938874 0.0
endloop
endfacet
facet normal 0.0 0.0 -1.0
outer loop
vertex -56.58079219748186 121.53708318938874 0.0
vertex -61.53245876636635 128.78485964685441 0.0
vertex -54.87659101550486 127.27303150498778 0.0
endloop
endfacet
facet normal 0.0 0.0 -1.0
outer loop
vertex -56.58079219748186 121.53708318938874 0.0
vertex -54.87659101550486 127.27303150498778 0.0
vertex -50.91331130360293 119.44093859746755 0.0
endloop
endfacet
facet normal 0.0 0.0 -1.0
outer loop
vertex -50.91331130360293 119.44093859746755 0.0
vertex -54.87659101550486 127.27303150498778 0.0
vertex -48.47499830657853 124.9053721890136 0.0
endloop
endfacet
facet normal 0.0 0.0 -1.0
outer loop
vertex -50.91331130360293 119.44093859746755 0.0
vertex -48.47499830657853 124.9053721890136 0.0
vertex -45.567918266358575 116.62297211255286 0.0
endloop
endfacet
facet normal 0.0 0.0 -1.0
outer loop
vertex -45.567918266358575 116.62297211255286 0.0
vertex -48.47499830657853 124.9053721890136 0.0
vertex -42.43721366569391 121.72239300626741 0.0
endloop
endfacet
facet normal 0.0 0.0 -1.0
outer loop
vertex -45.567918266358575 116.62297211255286 0.0
vertex -42.43721366569391 121.72239300626741 0.0
vertex -40.636074242638955 113.1313999224895 0.0
endloop
endfacet
facet normal 0.0 0.0 -1.0
outer loop
vertex -40.636074242638955 113.1313999224895 0.0
vertex -42.43721366569391 121.72239300626741 0.0
vertex -36.8665452620467 117.77855561305448 0.0
endloop
endfacet
facet normal 0.0 0.0 -1.0
outer loop
vertex -40.636074242638955 113.1313999224895 0.0
vertex -36.8665452620467 117.77855561305448 0.0
vertex -36.20216445105537 109.02596379549615 0.0
endloop
endfacet
facet normal 0.0 0.0 -1.0
outer loop
vertex -36.20216445105537 109.02596379549615 0.0
vertex -36.8665452620467 117.77855561305448 0.0
vertex -31.858308776504366 113.14134016061102 0.0
endloop
endfacet
facet normal 0.0 0.0 -1.0
outer loop
vertex -36.20216445105537 109.02596379549615 0.0
vertex -31.858308776504366 113.14134016061102 0.0
vertex -32.34205431745389 104.3769088819476 0.0
endloop
endfacet
facet normal 0.0 0.0 -1.0
outer loop
vertex -32.34205431745389 104.3769088819476 0.0
vertex -31.858308776504366 113.14134016061102 0.0
vertex -29.12179139644515 99.26378180037618 0.0
endloop
endfacet
facet normal 0.0 0.0 -1.0
outer loop
vertex -29.12179139644515 99.26378180037618 0.0
vertex -31.858308776504366 113.14134016061102 0.0
vertex -27.498196523880004 107.89009069100736 0.0
endloop
endfacet
facet normal 0.0 0.0 -1.0
outer loop
vertex -29.12179139644515 99.26378180037618 0.0
vertex -27.498196523880004 107.89009069100736 0.0
vertex -26.596475279433168 93.77406957277421 0.0
endloop
endfacet
facet normal 0.0 0.0 -1.0
outer loop
vertex -26.596475279433168 93.77406957277421 0.0
vertex -27.498196523880004 107.89009069100736 0.0
vertex -23.860811233667516 102.1146575385898 0.0
endloop
endfacet
facet normal 0.0 0.0 -1.0
outer loop
vertex -26.596475279433168 93.77406957277421 0.0
vertex -23.860811233667516 102.1146575385898 0.0
vertex -24.809314825329924 88.00170269739178 0.0
endloop
endfacet
facet normal 0.0 0.0 -1.0
outer loop
vertex -24.809314825329924 88.00170269739178 0.0
vertex -23.860811233667516 102.1146575385898 0.0
vertex -23.790888844999593 82.04544797186911 0.0
endloop
endfacet
facet normal 0.0 0.0 -1.0
outer loop
vertex -23.790888844999593 82.04544797186911 0.0
vertex -23.860811233667516 102.1146575385898 0.0
vertex -21.008389576656196 95.91385996584881 0.0
endloop
endfacet
facet normal 0.0 0.0 -1.0
outer loop
vertex -23.790888844999593 82.04544797186911 0.0
vertex -21.008389576656196 95.91385996584881 0.0
vertex -23.558622889326667 76.00721856594572 0.0
endloop
endfacet
facet normal 0.0 0.0 -1.0
outer loop
vertex -23.558622889326667 76.00721856594572 0.0
vertex -21.008389576656196 95.91385996584881 0.0
vertex -22.086659177383055 55.99193978687032 0.0
endloop
endfacet
facet normal 0.0 0.0 -1.0
outer loop
vertex -22.086659177383055 55.99193978687032 0.0
vertex -21.008389576656196 95.91385996584881 0.0
vertex -19.718999861408793 62.39353249579687 0.0
endloop
endfacet
facet normal 0.0 0.0 -1.0
outer loop
vertex -19.718999861408793 62.39353249579687 0.0
vertex -21.008389576656196 95.91385996584881 0.0
vertex -18.98973727823813 89.39379533843984 0.0
endloop
endfacet
facet normal 0.0 0.0 -1.0
outer loop
vertex -19.718999861408793 62.39353249579687 0.0
vertex -18.98973727823813 89.39379533843984 0.0
vertex -18.207171719542185 69.04940024665838 0.0
endloop
endfacet
facet normal 0.0 0.0 -1.0
outer loop
vertex -18.207171719542185 69.04940024665838 0.0
vertex -18.98973727823813 89.39379533843984 0.0
vertex -17.839394038915465 82.66602376984132 0.0
endloop
endfacet
facet normal 0.0 0.0 -1.0
outer loop
vertex -18.207171719542185 69.04940024665838 0.0
vertex -17.839394038915465 82.66602376984132 0.0
vertex -17.577042550448425 75.84565929688263 0.0
endloop
endfacet
facet normal 0.0 0.0 -1.0
outer loop
vertex -121.26791816656247 85.45957260003037 0.0
vertex -121.63569584718923 71.84294907684742 0.0
vertex -121.89804733565627 78.66331354980612 0.0
endloop
endfacet
facet normal 0.0 0.0 -1.0
outer loop
vertex -121.63569584718923 71.84294907684742 0.0
vertex -121.26791816656247 85.45957260003037 0.0
vertex -120.4853526078666 65.1151775082489 0.0
endloop
endfacet
facet normal 0.0 0.0 -1.0
outer loop
vertex -120.4853526078666 65.1151775082489 0.0
vertex -121.26791816656247 85.45957260003037 0.0
vertex -119.75609002469584 92.11544035089186 0.0
endloop
endfacet
facet normal 0.0 0.0 -1.0
outer loop
vertex -120.4853526078666 65.1151775082489 0.0
vertex -119.75609002469584 92.11544035089186 0.0
vertex -118.46670030944858 58.595112880839935 0.0
endloop
endfacet
facet normal 0.0 0.0 -1.0
outer loop
vertex -118.46670030944858 58.595112880839935 0.0
vertex -119.75609002469584 92.11544035089186 0.0
vertex -117.38843070872166 98.51703305981817 0.0
endloop
endfacet
facet normal 0.0 0.0 -1.0
outer loop
vertex -118.46670030944858 58.595112880839935 0.0
vertex -117.38843070872166 98.51703305981817 0.0
vertex -115.61427865243726 52.39431530809893 0.0
endloop
endfacet
facet normal 0.0 0.0 -1.0
outer loop
vertex -115.61427865243726 52.39431530809893 0.0
vertex -117.38843070872166 98.51703305981817 0.0
vertex -115.916466996778 78.50175428074286 0.0
endloop
endfacet
facet normal 0.0 0.0 -1.0
outer loop
vertex -115.61427865243726 52.39431530809893 0.0
vertex -115.916466996778 78.50175428074286 0.0
vertex -115.68420104110508 72.46352487481943 0.0
endloop
endfacet
facet normal 0.0 0.0 -1.0
outer loop
vertex -115.61427865243726 52.39431530809893 0.0
vertex -115.68420104110508 72.46352487481943 0.0
vertex -114.66577506077475 66.50727014929679 0.0
endloop
endfacet
facet normal 0.0 0.0 -1.0
outer loop
vertex -115.61427865243726 52.39431530809893 0.0
vertex -114.66577506077475 66.50727014929679 0.0
vertex -111.97689336222483 46.61888215568135 0.0
endloop
endfacet
facet normal 0.0 0.0 -1.0
outer loop
vertex -111.97689336222483 46.61888215568135 0.0
vertex -114.66577506077475 66.50727014929679 0.0
vertex -112.87861460667148 60.734903273914355 0.0
endloop
endfacet
facet normal 0.0 0.0 -1.0
outer loop
vertex -111.97689336222483 46.61888215568135 0.0
vertex -112.87861460667148 60.734903273914355 0.0
vertex -110.3532984896595 55.245191046312385 0.0
endloop
endfacet
facet normal 0.0 0.0 -1.0
outer loop
vertex -111.97689336222483 46.61888215568135 0.0
vertex -110.3532984896595 55.245191046312385 0.0
vertex -107.61678110960048 41.36763268607766 0.0
endloop
endfacet
facet normal 0.0 0.0 -1.0
outer loop
vertex -107.61678110960048 41.36763268607766 0.0
vertex -110.3532984896595 55.245191046312385 0.0
vertex -107.13303556865078 50.13206396474097 0.0
endloop
endfacet
facet normal 0.0 0.0 -1.0
outer loop
vertex -107.61678110960048 41.36763268607766 0.0
vertex -107.13303556865078 50.13206396474097 0.0
vertex -102.60854462405815 36.73041723363418 0.0
endloop
endfacet
facet normal 0.0 0.0 -1.0
outer loop
vertex -102.60854462405815 36.73041723363418 0.0
vertex -107.13303556865078 50.13206396474097 0.0
vertex -103.2729254350493 45.48300905119241 0.0
endloop
endfacet
facet normal 0.0 0.0 -1.0
outer loop
vertex -102.60854462405815 36.73041723363418 0.0
vertex -103.2729254350493 45.48300905119241 0.0
vertex -98.83901564346574 41.37757292419906 0.0
endloop
endfacet
facet normal 0.0 0.0 -1.0
outer loop
vertex -102.60854462405815 36.73041723363418 0.0
vertex -98.83901564346574 41.37757292419906 0.0
vertex -97.03787622041092 32.786579840421226 0.0
endloop
endfacet
facet normal 0.0 0.0 -1.0
outer loop
vertex -97.03787622041092 32.786579840421226 0.0
vertex -98.83901564346574 41.37757292419906 0.0
vertex -93.90717161974612 37.88600073413569 0.0
endloop
endfacet
facet normal 0.0 0.0 -1.0
outer loop
vertex -97.03787622041092 32.786579840421226 0.0
vertex -93.90717161974612 37.88600073413569 0.0
vertex -91.00009157952631 29.603600657674985 0.0
endloop
endfacet
facet normal 0.0 0.0 -1.0
outer loop
vertex -91.00009157952631 29.603600657674985 0.0
vertex -93.90717161974612 37.88600073413569 0.0
vertex -88.56177858250177 35.068034249221014 0.0
endloop
endfacet
facet normal 0.0 0.0 -1.0
outer loop
vertex -91.00009157952631 29.603600657674985 0.0
vertex -88.56177858250177 35.068034249221014 0.0
vertex -84.59849887059997 27.235941341700805 0.0
endloop
endfacet
facet normal 0.0 0.0 -1.0
outer loop
vertex -84.59849887059997 27.235941341700805 0.0
vertex -88.56177858250177 35.068034249221014 0.0
vertex -82.89429768862287 32.97188965729982 0.0
endloop
endfacet
facet normal 0.0 0.0 -1.0
outer loop
vertex -84.59849887059997 27.235941341700805 0.0
vertex -82.89429768862287 32.97188965729982 0.0
vertex -77.94263111973848 25.724113199834164 0.0
endloop
endfacet
facet normal 0.0 0.0 -1.0
outer loop
vertex -77.94263111973848 25.724113199834164 0.0
vertex -82.89429768862287 32.97188965729982 0.0
vertex -77.00170110752624 31.633432573500958 0.0
endloop
endfacet
facet normal 0.0 0.0 -1.0
outer loop
vertex -77.94263111973848 25.724113199834164 0.0
vertex -77.00170110752624 31.633432573500958 0.0
vertex -71.14637206951421 25.093984030740348 0.0
endloop
endfacet
facet normal 0.0 0.0 -1.0
outer loop
vertex -71.14637206951421 25.093984030740348 0.0
vertex -77.00170110752624 31.633432573500958 0.0
vertex -70.98481280045092 31.075564369618633 0.0
endloop
endfacet
facet normal 0.0 0.0 -1.0
outer loop
vertex -71.14637206951421 25.093984030740348 0.0
vertex -70.98481280045092 31.075564369618633 0.0
vertex -64.3260075965555 25.3563355192074 0.0
endloop
endfacet
facet normal 0.0 0.0 -1.0
outer loop
vertex -64.3260075965555 25.3563355192074 0.0
vertex -70.98481280045092 31.075564369618633 0.0
vertex -64.94658339452752 31.307830325291558 0.0
endloop
endfacet
facet normal 0.0 0.0 -1.0
outer loop
vertex -64.3260075965555 25.3563355192074 0.0
vertex -64.94658339452752 31.307830325291558 0.0
vertex -58.99032866900486 32.32625630562189 0.0
endloop
endfacet
facet normal 0.0 0.0 -1.0
outer loop
vertex -64.3260075965555 25.3563355192074 0.0
vertex -58.99032866900486 32.32625630562189 0.0
vertex -57.59823602795698 26.506678758530033 0.0
endloop
endfacet
facet normal 0.0 0.0 -1.0
outer loop
vertex -57.59823602795698 26.506678758530033 0.0
vertex -58.99032866900486 32.32625630562189 0.0
vertex -53.21796179362243 34.11341675972513 0.0
endloop
endfacet
facet normal 0.0 0.0 -1.0
outer loop
vertex -57.59823602795698 26.506678758530033 0.0
vertex -53.21796179362243 34.11341675972513 0.0
vertex -51.07817140054801 28.52533105694804 0.0
endloop
endfacet
facet normal 0.0 0.0 -1.0
outer loop
vertex -51.07817140054801 28.52533105694804 0.0
vertex -53.21796179362243 34.11341675972513 0.0
vertex -47.72824956602047 36.638732876737116 0.0
endloop
endfacet
facet normal 0.0 0.0 -1.0
outer loop
vertex -51.07817140054801 28.52533105694804 0.0
vertex -47.72824956602047 36.638732876737116 0.0
vertex -44.877373827806984 31.37775271395936 0.0
endloop
endfacet
facet normal 0.0 0.0 -1.0
outer loop
vertex -44.877373827806984 31.37775271395936 0.0
vertex -47.72824956602047 36.638732876737116 0.0
vertex -42.61512248444905 39.85899579774585 0.0
endloop
endfacet
facet normal 0.0 0.0 -1.0
outer loop
vertex -44.877373827806984 31.37775271395936 0.0
vertex -42.61512248444905 39.85899579774585 0.0
vertex -39.1019406753894 35.01513800417181 0.0
endloop
endfacet
facet normal 0.0 0.0 -1.0
outer loop
vertex -39.1019406753894 35.01513800417181 0.0
vertex -42.61512248444905 39.85899579774585 0.0
vertex -37.966067570900464 43.71910593134731 0.0
endloop
endfacet
facet normal 0.0 0.0 -1.0
outer loop
vertex -39.1019406753894 35.01513800417181 0.0
vertex -37.966067570900464 43.71910593134731 0.0
vertex -33.850691205785736 39.37525025679616 0.0
endloop
endfacet
facet normal 0.0 0.0 -1.0
outer loop
vertex -33.850691205785736 39.37525025679616 0.0
vertex -37.966067570900464 43.71910593134731 0.0
vertex -33.86063144390711 48.153015722930874 0.0
endloop
endfacet
facet normal 0.0 0.0 -1.0
outer loop
vertex -33.850691205785736 39.37525025679616 0.0
vertex -33.86063144390711 48.153015722930874 0.0
vertex -30.369059253843755 53.0848597466505 0.0
endloop
endfacet
facet normal 0.0 0.0 -1.0
outer loop
vertex -33.850691205785736 39.37525025679616 0.0
vertex -30.369059253843755 53.0848597466505 0.0
vertex -29.21347575334225 44.383486742338505 0.0
endloop
endfacet
facet normal 0.0 0.0 -1.0
outer loop
vertex -29.21347575334225 44.383486742338505 0.0
vertex -30.369059253843755 53.0848597466505 0.0
vertex -27.551092768929074 58.430252783894844 0.0
endloop
endfacet
facet normal 0.0 0.0 -1.0
outer loop
vertex -29.21347575334225 44.383486742338505 0.0
vertex -27.551092768929074 58.430252783894844 0.0
vertex -25.269638360129296 49.9541551459857 0.0
endloop
endfacet
facet normal 0.0 0.0 -1.0
outer loop
vertex -25.269638360129296 49.9541551459857 0.0
vertex -27.551092768929074 58.430252783894844 0.0
vertex -25.454948177007854 64.0977336777738 0.0
endloop
endfacet
facet normal 0.0 0.0 -1.0
outer loop
vertex -25.269638360129296 49.9541551459857 0.0
vertex -25.454948177007854 64.0977336777738 0.0
vertex -24.116491093209007 69.9903302588704 0.0
endloop
endfacet
facet normal 0.0 0.0 -1.0
outer loop
vertex -25.269638360129296 49.9541551459857 0.0
vertex -24.116491093209007 69.9903302588704 0.0
vertex -22.086659177383055 55.99193978687032 0.0
endloop
endfacet
facet normal 0.0 0.0 -1.0
outer loop
vertex -22.086659177383055 55.99193978687032 0.0
vertex -24.116491093209007 69.9903302588704 0.0
vertex -23.558622889326667 76.00721856594572 0.0
endloop
endfacet
facet normal 0.5871192658643454 -0.8095004432678912 0.0
outer loop
vertex -96.85996740165567 114.6499770489427 10.0
vertex -101.50902231520423 110.78986691534124 0.0
vertex -96.85996740165567 114.6499770489427 0.0
endloop
endfacet
facet normal 0.6877573896149715 -0.7259406126054668 0.0
outer loop
vertex -101.50902231520423 110.78986691534124 0.0
vertex -96.85996740165567 114.6499770489427 10.0
vertex -101.50902231520423 110.78986691534124 10.0
endloop
endfacet
facet normal -0.725940612605465 -0.6877573896149731 0.0
outer loop
vertex -36.20216445105537 109.02596379549615 10.0
vertex -40.636074242638955 113.1313999224895 0.0
vertex -36.20216445105537 109.02596379549615 0.0
endloop
endfacet
facet normal -0.6299597367926001 -0.7766277937469134 0.0
outer loop
vertex -40.636074242638955 113.1313999224895 0.0
vertex -36.20216445105537 109.02596379549615 10.0
vertex -40.636074242638955 113.1313999224895 10.0
endloop
endfacet
facet normal -0.02699961590413937 -0.9996354439199467 0.0
outer loop
vertex -68.49027708565379 123.43340847706993 10.0
vertex -74.52850649157719 123.201142521397 0.0
vertex -68.49027708565379 123.43340847706993 0.0
endloop
endfacet
facet normal 0.10370997765584941 -0.9946075811769298 0.0
outer loop
vertex -74.52850649157719 123.201142521397 0.0
vertex -68.49027708565379 123.43340847706993 10.0
vertex -74.52850649157719 123.201142521397 10.0
endloop
endfacet
facet normal 0.23264506474430477 -0.9725617069626576 0.0
outer loop
vertex -80.48476121709984 122.18271654106665 10.0
vertex -86.25712809248229 120.39555608696341 0.0
vertex -80.48476121709984 122.18271654106665 0.0
endloop
endfacet
facet normal 0.357599530273586 -0.9338750322972076 0.0
outer loop
vertex -86.25712809248229 120.39555608696341 0.0
vertex -80.48476121709984 122.18271654106665 10.0
vertex -86.25712809248229 120.39555608696341 10.0
endloop
endfacet
facet normal 0.9379061782593954 -0.3468890323761409 0.0
outer loop
vertex -113.08511174395144 92.93933979856106 0.0
vertex -114.02014170909682 90.41123916891479 10.0
vertex -114.02014170909682 90.41123916891479 0.0
endloop
endfacet
facet normal 0.9585856773497706 -0.2848043173476861 0.0
outer loop
vertex -114.02014170909682 90.41123916891479 10.0
vertex -113.08511174395144 92.93933979856106 0.0
vertex -113.08511174395144 92.93933979856106 10.0
endloop
endfacet
facet normal -0.523200075225379 -0.8522098810059396 0.0
outer loop
vertex -45.567918266358575 116.62297211255286 10.0
vertex -50.91331130360293 119.44093859746755 0.0
vertex -45.567918266358575 116.62297211255286 0.0
endloop
endfacet
facet normal -0.40748831531258406 -0.9132104209237387 0.0
outer loop
vertex -50.91331130360293 119.44093859746755 0.0
vertex -45.567918266358575 116.62297211255286 10.0
vertex -50.91331130360293 119.44093859746755 10.0
endloop
endfacet
facet normal -0.15724723855029538 -0.9875592670661879 0.0
outer loop
vertex -62.47338877857847 122.87554027318758 10.0
vertex -68.49027708565379 123.43340847706993 0.0
vertex -62.47338877857847 122.87554027318758 0.0
endloop
endfacet
facet normal -0.02699961590413937 -0.9996354439199467 0.0
outer loop
vertex -68.49027708565379 123.43340847706993 0.0
vertex -62.47338877857847 122.87554027318758 10.0
vertex -68.49027708565379 123.43340847706993 10.0
endloop
endfacet
facet normal 0.47643536869456726 -0.8792094969100775 0.0
outer loop
vertex -91.74684032008423 117.87023996995143 10.0
vertex -96.85996740165567 114.6499770489427 0.0
vertex -91.74684032008423 117.87023996995143 0.0
endloop
endfacet
facet normal 0.5871192658643454 -0.8095004432678912 0.0
outer loop
vertex -96.85996740165567 114.6499770489427 0.0
vertex -91.74684032008423 117.87023996995143 10.0
vertex -96.85996740165567 114.6499770489427 10.0
endloop
endfacet
facet normal 0.7766277937469124 -0.6299597367926012 0.0
outer loop
vertex -105.61445844219759 106.35595712375768 0.0
vertex -109.10603063226094 101.42411310003804 10.0
vertex -109.10603063226094 101.42411310003804 0.0
endloop
endfacet
facet normal 0.8522098810059396 -0.523200075225379 0.0
outer loop
vertex -109.10603063226094 101.42411310003804 10.0
vertex -105.61445844219759 106.35595712375768 0.0
vertex -105.61445844219759 106.35595712375768 10.0
endloop
endfacet
facet normal 0.9946075811769302 0.10370997765584766 0.0
outer loop
vertex -115.68420104110508 72.46352487481943 0.0
vertex -114.66577506077475 66.50727014929679 10.0
vertex -114.66577506077475 66.50727014929679 0.0
endloop
endfacet
facet normal 0.9725617069626575 0.2326450647443051 0.0
outer loop
vertex -114.66577506077475 66.50727014929679 10.0
vertex -115.68420104110508 72.46352487481943 0.0
vertex -115.68420104110508 72.46352487481943 10.0
endloop
endfacet
facet normal 0.9996354439199467 -0.026999615904139348 0.0
outer loop
vertex -115.916466996778 78.50175428074286 0.0
vertex -115.68420104110508 72.46352487481943 10.0
vertex -115.68420104110508 72.46352487481943 0.0
endloop
endfacet
facet normal 0.9946075811769302 0.10370997765584766 0.0
outer loop
vertex -115.68420104110508 72.46352487481943 10.0
vertex -115.916466996778 78.50175428074286 0.0
vertex -115.916466996778 78.50175428074286 10.0
endloop
endfacet
facet normal 0.9132104209237385 -0.4074883153125844 0.0
outer loop
vertex -111.92399711717562 96.0787200627937 0.0
vertex -113.08511174395144 92.93933979856106 10.0
vertex -113.08511174395144 92.93933979856106 0.0
endloop
endfacet
facet normal 0.9379061782593965 -0.34688903237613794 0.0
outer loop
vertex -113.08511174395144 92.93933979856106 10.0
vertex -111.92399711717562 96.0787200627937 0.0
vertex -111.92399711717562 96.0787200627937 10.0
endloop
endfacet
facet normal 0.9725617069626575 0.2326450647443051 0.0
outer loop
vertex -114.66577506077475 66.50727014929679 0.0
vertex -112.87861460667148 60.734903273914355 10.0
vertex -112.87861460667148 60.734903273914355 0.0
endloop
endfacet
facet normal 0.9338750322972073 0.3575995302735872 0.0
outer loop
vertex -112.87861460667148 60.734903273914355 10.0
vertex -114.66577506077475 66.50727014929679 0.0
vertex -114.66577506077475 66.50727014929679 10.0
endloop
endfacet
facet normal 0.9338750322972073 0.3575995302735872 0.0
outer loop
vertex -112.87861460667148 60.734903273914355 0.0
vertex -110.3532984896595 55.245191046312385 10.0
vertex -110.3532984896595 55.245191046312385 0.0
endloop
endfacet
facet normal 0.8792094969100775 0.47643536869456715 0.0
outer loop
vertex -110.3532984896595 55.245191046312385 10.0
vertex -112.87861460667148 60.734903273914355 0.0
vertex -112.87861460667148 60.734903273914355 10.0
endloop
endfacet
facet normal 0.9875592670661879 -0.15724723855029527 0.0
outer loop
vertex -115.35859879289566 84.51864258781819 0.0
vertex -115.916466996778 78.50175428074286 10.0
vertex -115.916466996778 78.50175428074286 0.0
endloop
endfacet
facet normal 0.9996354439199467 -0.026999615904139348 0.0
outer loop
vertex -115.916466996778 78.50175428074286 10.0
vertex -115.35859879289566 84.51864258781819 0.0
vertex -115.35859879289566 84.51864258781819 10.0
endloop
endfacet
facet normal -0.6299597367926001 -0.7766277937469134 0.0
outer loop
vertex -40.636074242638955 113.1313999224895 10.0
vertex -45.567918266358575 116.62297211255286 0.0
vertex -40.636074242638955 113.1313999224895 0.0
endloop
endfacet
facet normal -0.523200075225379 -0.8522098810059396 0.0
outer loop
vertex -45.567918266358575 116.62297211255286 0.0
vertex -40.636074242638955 113.1313999224895 10.0
vertex -45.567918266358575 116.62297211255286 10.0
endloop
endfacet
facet normal 0.357599530273586 -0.9338750322972076 0.0
outer loop
vertex -86.25712809248229 120.39555608696341 10.0
vertex -91.74684032008423 117.87023996995143 0.0
vertex -86.25712809248229 120.39555608696341 0.0
endloop
endfacet
facet normal 0.47643536869456726 -0.8792094969100775 0.0
outer loop
vertex -91.74684032008423 117.87023996995143 0.0
vertex -86.25712809248229 120.39555608696341 10.0
vertex -91.74684032008423 117.87023996995143 10.0
endloop
endfacet
facet normal 0.10370997765584941 -0.9946075811769298 0.0
outer loop
vertex -74.52850649157719 123.201142521397 10.0
vertex -80.48476121709984 122.18271654106665 0.0
vertex -74.52850649157719 123.201142521397 0.0
endloop
endfacet
facet normal 0.23264506474430477 -0.9725617069626576 0.0
outer loop
vertex -80.48476121709984 122.18271654106665 0.0
vertex -74.52850649157719 123.201142521397 10.0
vertex -80.48476121709984 122.18271654106665 10.0
endloop
endfacet
facet normal -0.2848043173476845 -0.958585677349771 0.0
outer loop
vertex -56.58079219748186 121.53708318938874 10.0
vertex -62.47338877857847 122.87554027318758 0.0
vertex -56.58079219748186 121.53708318938874 0.0
endloop
endfacet
facet normal -0.15724723855029538 -0.9875592670661879 0.0
outer loop
vertex -62.47338877857847 122.87554027318758 0.0
vertex -56.58079219748186 121.53708318938874 10.0
vertex -62.47338877857847 122.87554027318758 10.0
endloop
endfacet
facet normal 0.6877573896149715 -0.7259406126054668 0.0
outer loop
vertex -101.50902231520423 110.78986691534124 0.0
vertex -105.61445844219759 106.35595712375768 10.0
vertex -105.61445844219759 106.35595712375768 0.0
endloop
endfacet
facet normal 0.7766277937469124 -0.6299597367926012 0.0
outer loop
vertex -105.61445844219759 106.35595712375768 10.0
vertex -101.50902231520423 110.78986691534124 0.0
vertex -101.50902231520423 110.78986691534124 10.0
endloop
endfacet
facet normal 0.8522098810059396 -0.523200075225379 0.0
outer loop
vertex -109.10603063226094 101.42411310003804 0.0
vertex -111.92399711717562 96.0787200627937 10.0
vertex -111.92399711717562 96.0787200627937 0.0
endloop
endfacet
facet normal 0.9132104209237385 -0.4074883153125844 0.0
outer loop
vertex -111.92399711717562 96.0787200627937 10.0
vertex -109.10603063226094 101.42411310003804 0.0
vertex -109.10603063226094 101.42411310003804 10.0
endloop
endfacet
facet normal 0.9585856773497706 -0.2848043173476861 0.0
outer loop
vertex -114.02014170909682 90.41123916891479 0.0
vertex -115.35859879289566 84.51864258781819 10.0
vertex -115.35859879289566 84.51864258781819 0.0
endloop
endfacet
facet normal 0.9875592670661879 -0.15724723855029527 0.0
outer loop
vertex -115.35859879289566 84.51864258781819 10.0
vertex -114.02014170909682 90.41123916891479 0.0
vertex -114.02014170909682 90.41123916891479 10.0
endloop
endfacet
facet normal -0.40748831531258406 -0.9132104209237387 0.0
outer loop
vertex -50.91331130360293 119.44093859746755 10.0
vertex -56.58079219748186 121.53708318938874 0.0
vertex -50.91331130360293 119.44093859746755 0.0
endloop
endfacet
facet normal -0.2848043173476845 -0.958585677349771 0.0
outer loop
vertex -56.58079219748186 121.53708318938874 0.0
vertex -50.91331130360293 119.44093859746755 10.0
vertex -56.58079219748186 121.53708318938874 10.0
endloop
endfacet
facet normal -0.9996354439199467 0.02699961590413946 0.0
outer loop
vertex -23.558622889326667 76.00721856594572 10.0
vertex -24.116491093209007 69.9903302588704 0.0
vertex -24.116491093209007 69.9903302588704 10.0
endloop
endfacet
facet normal -0.9875592670661879 0.15724723855029546 0.0
outer loop
vertex -24.116491093209007 69.9903302588704 0.0
vertex -23.558622889326667 76.00721856594572 10.0
vertex -23.558622889326667 76.00721856594572 0.0
endloop
endfacet
facet normal -0.725940612605465 -0.6877573896149731 0.0
outer loop
vertex -36.20216445105537 109.02596379549615 10.0
vertex -32.34205431745389 104.3769088819476 0.0
vertex -32.34205431745389 104.3769088819476 10.0
endloop
endfacet
facet normal -0.8095004432678896 -0.5871192658643475 0.0
outer loop
vertex -32.34205431745389 104.3769088819476 0.0
vertex -36.20216445105537 109.02596379549615 10.0
vertex -36.20216445105537 109.02596379549615 0.0
endloop
endfacet
facet normal 0.9725617069626565 0.23264506474430888 0.0
outer loop
vertex -18.98973727823813 89.39379533843984 0.0
vertex -17.839394038915465 82.66602376984132 10.0
vertex -17.839394038915465 82.66602376984132 0.0
endloop
endfacet
facet normal 0.9946075811769298 0.10370997765585044 0.0
outer loop
vertex -17.839394038915465 82.66602376984132 10.0
vertex -18.98973727823813 89.39379533843984 0.0
vertex -18.98973727823813 89.39379533843984 10.0
endloop
endfacet
facet normal -0.879209496910077 -0.47643536869456843 0.0
outer loop
vertex -29.12179139644515 99.26378180037618 10.0
vertex -26.596475279433168 93.77406957277421 0.0
vertex -26.596475279433168 93.77406957277421 10.0
endloop
endfacet
facet normal -0.9338750322972079 -0.35759953027358554 0.0
outer loop
vertex -26.596475279433168 93.77406957277421 0.0
vertex -29.12179139644515 99.26378180037618 10.0
vertex -29.12179139644515 99.26378180037618 0.0
endloop
endfacet
facet normal -0.99460758117693 -0.1037099776558474 0.0
outer loop
vertex -23.790888844999593 82.04544797186911 10.0
vertex -23.558622889326667 76.00721856594572 0.0
vertex -23.558622889326667 76.00721856594572 10.0
endloop
endfacet
facet normal -0.9996354439199467 0.02699961590413946 0.0
outer loop
vertex -23.558622889326667 76.00721856594572 0.0
vertex -23.790888844999593 82.04544797186911 10.0
vertex -23.790888844999593 82.04544797186911 0.0
endloop
endfacet
facet normal -0.972561706962658 -0.23264506474430308 0.0
outer loop
vertex -24.809314825329924 88.00170269739178 10.0
vertex -23.790888844999593 82.04544797186911 0.0
vertex -23.790888844999593 82.04544797186911 10.0
endloop
endfacet
facet normal -0.99460758117693 -0.1037099776558474 0.0
outer loop
vertex -23.790888844999593 82.04544797186911 0.0
vertex -24.809314825329924 88.00170269739178 10.0
vertex -24.809314825329924 88.00170269739178 0.0
endloop
endfacet
facet normal -0.9585856773497706 0.28480431734768563 0.0
outer loop
vertex -25.454948177007854 64.0977336777738 10.0
vertex -27.551092768929074 58.430252783894844 0.0
vertex -27.551092768929074 58.430252783894844 10.0
endloop
endfacet
facet normal -0.9132104209237382 0.40748831531258556 0.0
outer loop
vertex -27.551092768929074 58.430252783894844 0.0
vertex -25.454948177007854 64.0977336777738 10.0
vertex -25.454948177007854 64.0977336777738 0.0
endloop
endfacet
facet normal 0.9338750322972059 0.3575995302735905 0.0
outer loop
vertex -21.008389576656196 95.91385996584881 0.0
vertex -18.98973727823813 89.39379533843984 10.0
vertex -18.98973727823813 89.39379533843984 0.0
endloop
endfacet
facet normal 0.9725617069626565 0.23264506474430888 0.0
outer loop
vertex -18.98973727823813 89.39379533843984 10.0
vertex -21.008389576656196 95.91385996584881 0.0
vertex -21.008389576656196 95.91385996584881 10.0
endloop
endfacet
facet normal -0.9875592670661879 0.15724723855029546 0.0
outer loop
vertex -24.116491093209007 69.9903302588704 10.0
vertex -25.454948177007854 64.0977336777738 0.0
vertex -25.454948177007854 64.0977336777738 10.0
endloop
endfacet
facet normal -0.9585856773497706 0.28480431734768563 0.0
outer loop
vertex -25.454948177007854 64.0977336777738 0.0
vertex -24.116491093209007 69.9903302588704 10.0
vertex -24.116491093209007 69.9903302588704 0.0
endloop
endfacet
facet normal -0.9338750322972079 -0.35759953027358554 0.0
outer loop
vertex -26.596475279433168 93.77406957277421 10.0
vertex -24.809314825329924 88.00170269739178 0.0
vertex -24.809314825329924 88.00170269739178 10.0
endloop
endfacet
facet normal -0.972561706962658 -0.23264506474430308 0.0
outer loop
vertex -24.809314825329924 88.00170269739178 0.0
vertex -26.596475279433168 93.77406957277421 10.0
vertex -26.596475279433168 93.77406957277421 0.0
endloop
endfacet
facet normal -0.8095004432678896 -0.5871192658643475 0.0
outer loop
vertex -32.34205431745389 104.3769088819476 10.0
vertex -29.12179139644515 99.26378180037618 0.0
vertex -29.12179139644515 99.26378180037618 10.0
endloop
endfacet
facet normal -0.879209496910077 -0.47643536869456843 0.0
outer loop
vertex -29.12179139644515 99.26378180037618 0.0
vertex -32.34205431745389 104.3769088819476 10.0
vertex -32.34205431745389 104.3769088819476 0.0
endloop
endfacet
facet normal 0.9996354439199469 -0.02699961590413415 0.0
outer loop
vertex -17.577042550448425 75.84565929688263 0.0
vertex -18.207171719542185 69.04940024665838 10.0
vertex -18.207171719542185 69.04940024665838 0.0
endloop
endfacet
facet normal 0.9875592670661887 -0.15724723855029044 0.0
outer loop
vertex -18.207171719542185 69.04940024665838 10.0
vertex -17.577042550448425 75.84565929688263 0.0
vertex -17.577042550448425 75.84565929688263 10.0
endloop
endfacet
facet normal 0.7766277937469115 -0.6299597367926021 0.0
outer loop
vertex -29.21347575334225 44.383486742338505 0.0
vertex -33.850691205785736 39.37525025679616 10.0
vertex -33.850691205785736 39.37525025679616 0.0
endloop
endfacet
facet normal 0.6877573896149726 -0.7259406126054656 0.0
outer loop
vertex -33.850691205785736 39.37525025679616 10.0
vertex -29.21347575334225 44.383486742338505 0.0
vertex -29.21347575334225 44.383486742338505 10.0
endloop
endfacet
facet normal 0.587119265864346 -0.8095004432678906 0.0
outer loop
vertex -39.1019406753894 35.01513800417181 10.0
vertex -44.877373827806984 31.37775271395936 0.0
vertex -39.1019406753894 35.01513800417181 0.0
endloop
endfacet
facet normal 0.47643536869456676 -0.8792094969100779 0.0
outer loop
vertex -44.877373827806984 31.37775271395936 0.0
vertex -39.1019406753894 35.01513800417181 10.0
vertex -44.877373827806984 31.37775271395936 10.0
endloop
endfacet
facet normal -0.02699961590413795 -0.9996354439199467 0.0
outer loop
vertex -71.14637206951421 25.093984030740348 10.0
vertex -77.94263111973848 25.724113199834164 0.0
vertex -71.14637206951421 25.093984030740348 0.0
endloop
endfacet
facet normal -0.15724723855029651 -0.9875592670661879 0.0
outer loop
vertex -77.94263111973848 25.724113199834164 0.0
vertex -71.14637206951421 25.093984030740348 10.0
vertex -77.94263111973848 25.724113199834164 10.0
endloop
endfacet
facet normal -0.40748831531258445 -0.9132104209237385 0.0
outer loop
vertex -91.00009157952631 29.603600657674985 10.0
vertex -97.03787622041092 32.786579840421226 0.0
vertex -91.00009157952631 29.603600657674985 0.0
endloop
endfacet
facet normal -0.5232000752253793 -0.8522098810059394 0.0
outer loop
vertex -97.03787622041092 32.786579840421226 0.0
vertex -91.00009157952631 29.603600657674985 10.0
vertex -97.03787622041092 32.786579840421226 10.0
endloop
endfacet
facet normal 0.9946075811769298 0.10370997765585044 0.0
outer loop
vertex -17.839394038915465 82.66602376984132 0.0
vertex -17.577042550448425 75.84565929688263 10.0
vertex -17.577042550448425 75.84565929688263 0.0
endloop
endfacet
facet normal 0.9996354439199469 -0.02699961590413415 0.0
outer loop
vertex -17.577042550448425 75.84565929688263 10.0
vertex -17.839394038915465 82.66602376984132 0.0
vertex -17.839394038915465 82.66602376984132 10.0
endloop
endfacet
facet normal -0.28480431734768624 -0.9585856773497704 0.0
outer loop
vertex -84.59849887059997 27.235941341700805 10.0
vertex -91.00009157952631 29.603600657674985 0.0
vertex -84.59849887059997 27.235941341700805 0.0
endloop
endfacet
facet normal -0.40748831531258445 -0.9132104209237385 0.0
outer loop
vertex -91.00009157952631 29.603600657674985 0.0
vertex -84.59849887059997 27.235941341700805 10.0
vertex -91.00009157952631 29.603600657674985 10.0
endloop
endfacet
facet normal 0.6877573896149726 -0.7259406126054656 0.0
outer loop
vertex -33.850691205785736 39.37525025679616 10.0
vertex -39.1019406753894 35.01513800417181 0.0
vertex -33.850691205785736 39.37525025679616 0.0
endloop
endfacet
facet normal 0.587119265864346 -0.8095004432678906 0.0
outer loop
vertex -39.1019406753894 35.01513800417181 0.0
vertex -33.850691205785736 39.37525025679616 10.0
vertex -39.1019406753894 35.01513800417181 10.0
endloop
endfacet
facet normal 0.35759953027358565 -0.9338750322972079 0.0
outer loop
vertex -51.07817140054801 28.52533105694804 10.0
vertex -57.59823602795698 26.506678758530033 0.0
vertex -51.07817140054801 28.52533105694804 0.0
endloop
endfacet
facet normal 0.23264506474430321 -0.972561706962658 0.0
outer loop
vertex -57.59823602795698 26.506678758530033 0.0
vertex -51.07817140054801 28.52533105694804 10.0
vertex -57.59823602795698 26.506678758530033 10.0
endloop
endfacet
facet normal 0.9875592670661887 -0.15724723855029044 0.0
outer loop
vertex -18.207171719542185 69.04940024665838 0.0
vertex -19.718999861408793 62.39353249579687 10.0
vertex -19.718999861408793 62.39353249579687 0.0
endloop
endfacet
facet normal 0.958585677349771 -0.28480431734768424 0.0
outer loop
vertex -19.718999861408793 62.39353249579687 10.0
vertex -18.207171719542185 69.04940024665838 0.0
vertex -18.207171719542185 69.04940024665838 10.0
endloop
endfacet
facet normal 0.10370997765584883 -0.9946075811769299 0.0
outer loop
vertex -64.3260075965555 25.3563355192074 10.0
vertex -71.14637206951421 25.093984030740348 0.0
vertex -64.3260075965555 25.3563355192074 0.0
endloop
endfacet
facet normal -0.02699961590413795 -0.9996354439199467 0.0
outer loop
vertex -71.14637206951421 25.093984030740348 0.0
vertex -64.3260075965555 25.3563355192074 10.0
vertex -71.14637206951421 25.093984030740348 10.0
endloop
endfacet
facet normal -0.15724723855029651 -0.9875592670661879 0.0
outer loop
vertex -77.94263111973848 25.724113199834164 10.0
vertex -84.59849887059997 27.235941341700805 0.0
vertex -77.94263111973848 25.724113199834164 0.0
endloop
endfacet
facet normal -0.28480431734768624 -0.9585856773497704 0.0
outer loop
vertex -84.59849887059997 27.235941341700805 0.0
vertex -77.94263111973848 25.724113199834164 10.0
vertex -84.59849887059997 27.235941341700805 10.0
endloop
endfacet
facet normal 0.958585677349771 -0.28480431734768424 0.0
outer loop
vertex -19.718999861408793 62.39353249579687 0.0
vertex -22.086659177383055 55.99193978687032 10.0
vertex -22.086659177383055 55.99193978687032 0.0
endloop
endfacet
facet normal 0.9132104209237385 -0.4074883153125844 0.0
outer loop
vertex -22.086659177383055 55.99193978687032 10.0
vertex -19.718999861408793 62.39353249579687 0.0
vertex -19.718999861408793 62.39353249579687 10.0
endloop
endfacet
facet normal -0.5232000752253793 -0.8522098810059394 0.0
outer loop
vertex -97.03787622041092 32.786579840421226 10.0
vertex -102.60854462405815 36.73041723363418 0.0
vertex -97.03787622041092 32.786579840421226 0.0
endloop
endfacet
facet normal -0.6299597367926016 -0.776627793746912 0.0
outer loop
vertex -102.60854462405815 36.73041723363418 0.0
vertex -97.03787622041092 32.786579840421226 10.0
vertex -102.60854462405815 36.73041723363418 10.0
endloop
endfacet
facet normal -0.6299597367926016 -0.776627793746912 0.0
outer loop
vertex -102.60854462405815 36.73041723363418 10.0
vertex -107.61678110960048 41.36763268607766 0.0
vertex -102.60854462405815 36.73041723363418 0.0
endloop
endfacet
facet normal -0.7259406126054674 -0.6877573896149709 0.0
outer loop
vertex -107.61678110960048 41.36763268607766 0.0
vertex -102.60854462405815 36.73041723363418 10.0
vertex -107.61678110960048 41.36763268607766 10.0
endloop
endfacet
facet normal 0.8522098810059388 -0.5232000752253804 0.0
outer loop
vertex -25.269638360129296 49.9541551459857 0.0
vertex -29.21347575334225 44.383486742338505 10.0
vertex -29.21347575334225 44.383486742338505 0.0
endloop
endfacet
facet normal 0.7766277937469115 -0.6299597367926021 0.0
outer loop
vertex -29.21347575334225 44.383486742338505 10.0
vertex -25.269638360129296 49.9541551459857 0.0
vertex -25.269638360129296 49.9541551459857 10.0
endloop
endfacet
facet normal -0.8095004432678917 -0.5871192658643446 0.0
outer loop
vertex -111.97689336222483 46.61888215568135 10.0
vertex -107.61678110960048 41.36763268607766 0.0
vertex -107.61678110960048 41.36763268607766 10.0
endloop
endfacet
facet normal -0.7259406126054674 -0.6877573896149709 0.0
outer loop
vertex -107.61678110960048 41.36763268607766 0.0
vertex -111.97689336222483 46.61888215568135 10.0
vertex -111.97689336222483 46.61888215568135 0.0
endloop
endfacet
facet normal -0.8792094969100777 -0.47643536869456715 0.0
outer loop
vertex -115.61427865243726 52.39431530809893 10.0
vertex -111.97689336222483 46.61888215568135 0.0
vertex -111.97689336222483 46.61888215568135 10.0
endloop
endfacet
facet normal -0.8095004432678917 -0.5871192658643446 0.0
outer loop
vertex -111.97689336222483 46.61888215568135 0.0
vertex -115.61427865243726 52.39431530809893 10.0
vertex -115.61427865243726 52.39431530809893 0.0
endloop
endfacet
facet normal -0.9338750322972074 -0.357599530273587 0.0
outer loop
vertex -118.46670030944858 58.595112880839935 10.0
vertex -115.61427865243726 52.39431530809893 0.0
vertex -115.61427865243726 52.39431530809893 10.0
endloop
endfacet
facet normal -0.8792094969100777 -0.47643536869456715 0.0
outer loop
vertex -115.61427865243726 52.39431530809893 0.0
vertex -118.46670030944858 58.595112880839935 10.0
vertex -118.46670030944858 58.595112880839935 0.0
endloop
endfacet
facet normal 0.47643536869456676 -0.8792094969100779 0.0
outer loop
vertex -44.877373827806984 31.37775271395936 10.0
vertex -51.07817140054801 28.52533105694804 0.0
vertex -44.877373827806984 31.37775271395936 0.0
endloop
endfacet
facet normal 0.35759953027358565 -0.9338750322972079 0.0
outer loop
vertex -51.07817140054801 28.52533105694804 0.0
vertex -44.877373827806984 31.37775271395936 10.0
vertex -51.07817140054801 28.52533105694804 10.0
endloop
endfacet
facet normal -0.972561706962658 -0.23264506474430297 0.0
outer loop
vertex -120.4853526078666 65.1151775082489 10.0
vertex -118.46670030944858 58.595112880839935 0.0
vertex -118.46670030944858 58.595112880839935 10.0
endloop
endfacet
facet normal -0.9338750322972074 -0.357599530273587 0.0
outer loop
vertex -118.46670030944858 58.595112880839935 0.0
vertex -120.4853526078666 65.1151775082489 10.0
vertex -120.4853526078666 65.1151775082489 0.0
endloop
endfacet
facet normal 0.23264506474430321 -0.972561706962658 0.0
outer loop
vertex -57.59823602795698 26.506678758530033 10.0
vertex -64.3260075965555 25.3563355192074 0.0
vertex -57.59823602795698 26.506678758530033 0.0
endloop
endfacet
facet normal 0.10370997765584883 -0.9946075811769299 0.0
outer loop
vertex -64.3260075965555 25.3563355192074 0.0
vertex -57.59823602795698 26.506678758530033 10.0
vertex -64.3260075965555 25.3563355192074 10.0
endloop
endfacet
facet normal 0.9132104209237385 -0.4074883153125844 0.0
outer loop
vertex -22.086659177383055 55.99193978687032 0.0
vertex -25.269638360129296 49.9541551459857 10.0
vertex -25.269638360129296 49.9541551459857 0.0
endloop
endfacet
facet normal 0.8522098810059388 -0.5232000752253804 0.0
outer loop
vertex -25.269638360129296 49.9541551459857 10.0
vertex -22.086659177383055 55.99193978687032 0.0
vertex -22.086659177383055 55.99193978687032 10.0
endloop
endfacet
facet normal -0.3575995302735859 0.9338750322972077 0.0
outer loop
vertex -53.21796179362243 34.11341675972513 10.0
vertex -47.72824956602047 36.638732876737116 0.0
vertex -53.21796179362243 34.11341675972513 0.0
endloop
endfacet
facet normal -0.47643536869456804 0.8792094969100771 0.0
outer loop
vertex -47.72824956602047 36.638732876737116 0.0
vertex -53.21796179362243 34.11341675972513 10.0
vertex -47.72824956602047 36.638732876737116 10.0
endloop
endfacet
facet normal 0.8792094969100775 0.47643536869456715 0.0
outer loop
vertex -110.3532984896595 55.245191046312385 0.0
vertex -107.13303556865078 50.13206396474097 10.0
vertex -107.13303556865078 50.13206396474097 0.0
endloop
endfacet
facet normal 0.8095004432678907 0.5871192658643459 0.0
outer loop
vertex -107.13303556865078 50.13206396474097 10.0
vertex -110.3532984896595 55.245191046312385 0.0
vertex -110.3532984896595 55.245191046312385 10.0
endloop
endfacet
facet normal 0.7259406126054665 0.6877573896149716 0.0
outer loop
vertex -103.2729254350493 45.48300905119241 10.0
vertex -98.83901564346574 41.37757292419906 0.0
vertex -103.2729254350493 45.48300905119241 0.0
endloop
endfacet
facet normal 0.6299597367926019 0.7766277937469118 0.0
outer loop
vertex -98.83901564346574 41.37757292419906 0.0
vertex -103.2729254350493 45.48300905119241 10.0
vertex -98.83901564346574 41.37757292419906 10.0
endloop
endfacet
facet normal 0.026999615904138012 0.9996354439199467 0.0
outer loop
vertex -70.98481280045092 31.075564369618633 10.0
vertex -64.94658339452752 31.307830325291558 0.0
vertex -70.98481280045092 31.075564369618633 0.0
endloop
endfacet
facet normal -0.10370997765584754 0.9946075811769302 0.0
outer loop
vertex -64.94658339452752 31.307830325291558 0.0
vertex -70.98481280045092 31.075564369618633 10.0
vertex -64.94658339452752 31.307830325291558 10.0
endloop
endfacet
facet normal -0.23264506474430321 0.972561706962658 0.0
outer loop
vertex -58.99032866900486 32.32625630562189 10.0
vertex -53.21796179362243 34.11341675972513 0.0
vertex -58.99032866900486 32.32625630562189 0.0
endloop
endfacet
facet normal -0.3575995302735859 0.9338750322972077 0.0
outer loop
vertex -53.21796179362243 34.11341675972513 0.0
vertex -58.99032866900486 32.32625630562189 10.0
vertex -53.21796179362243 34.11341675972513 10.0
endloop
endfacet
facet normal 0.5232000752253794 0.8522098810059395 0.0
outer loop
vertex -93.90717161974612 37.88600073413569 10.0
vertex -88.56177858250177 35.068034249221014 0.0
vertex -93.90717161974612 37.88600073413569 0.0
endloop
endfacet
facet normal 0.4074883153125846 0.9132104209237385 0.0
outer loop
vertex -88.56177858250177 35.068034249221014 0.0
vertex -93.90717161974612 37.88600073413569 10.0
vertex -88.56177858250177 35.068034249221014 10.0
endloop
endfacet
facet normal -0.8522098810059396 0.523200075225379 0.0
outer loop
vertex -30.369059253843755 53.0848597466505 10.0
vertex -33.86063144390711 48.153015722930874 0.0
vertex -33.86063144390711 48.153015722930874 10.0
endloop
endfacet
facet normal -0.7766277937469125 0.6299597367926009 0.0
outer loop
vertex -33.86063144390711 48.153015722930874 0.0
vertex -30.369059253843755 53.0848597466505 10.0
vertex -30.369059253843755 53.0848597466505 0.0
endloop
endfacet
facet normal -0.5871192658643448 0.8095004432678916 0.0
outer loop
vertex -42.61512248444905 39.85899579774585 10.0
vertex -37.966067570900464 43.71910593134731 0.0
vertex -42.61512248444905 39.85899579774585 0.0
endloop
endfacet
facet normal -0.6877573896149702 0.7259406126054679 0.0
outer loop
vertex -37.966067570900464 43.71910593134731 0.0
vertex -42.61512248444905 39.85899579774585 10.0
vertex -37.966067570900464 43.71910593134731 10.0
endloop
endfacet
facet normal -0.47643536869456804 0.8792094969100771 0.0
outer loop
vertex -47.72824956602047 36.638732876737116 10.0
vertex -42.61512248444905 39.85899579774585 0.0
vertex -47.72824956602047 36.638732876737116 0.0
endloop
endfacet
facet normal -0.5871192658643448 0.8095004432678916 0.0
outer loop
vertex -42.61512248444905 39.85899579774585 0.0
vertex -47.72824956602047 36.638732876737116 10.0
vertex -42.61512248444905 39.85899579774585 10.0
endloop
endfacet
facet normal -0.7766277937469125 0.6299597367926009 0.0
outer loop
vertex -33.86063144390711 48.153015722930874 10.0
vertex -37.966067570900464 43.71910593134731 0.0
vertex -37.966067570900464 43.71910593134731 10.0
endloop
endfacet
facet normal -0.6877573896149702 0.7259406126054679 0.0
outer loop
vertex -37.966067570900464 43.71910593134731 0.0
vertex -33.86063144390711 48.153015722930874 10.0
vertex -33.86063144390711 48.153015722930874 0.0
endloop
endfacet
facet normal 0.4074883153125846 0.9132104209237385 0.0
outer loop
vertex -88.56177858250177 35.068034249221014 10.0
vertex -82.89429768862287 32.97188965729982 0.0
vertex -88.56177858250177 35.068034249221014 0.0
endloop
endfacet
facet normal 0.28480431734768635 0.9585856773497704 0.0
outer loop
vertex -82.89429768862287 32.97188965729982 0.0
vertex -88.56177858250177 35.068034249221014 10.0
vertex -82.89429768862287 32.97188965729982 10.0
endloop
endfacet
facet normal 0.8095004432678907 0.5871192658643459 0.0
outer loop
vertex -107.13303556865078 50.13206396474097 0.0
vertex -103.2729254350493 45.48300905119241 10.0
vertex -103.2729254350493 45.48300905119241 0.0
endloop
endfacet
facet normal 0.7259406126054665 0.6877573896149716 0.0
outer loop
vertex -103.2729254350493 45.48300905119241 10.0
vertex -107.13303556865078 50.13206396474097 0.0
vertex -107.13303556865078 50.13206396474097 10.0
endloop
endfacet
facet normal 0.28480431734768635 0.9585856773497704 0.0
outer loop
vertex -82.89429768862287 32.97188965729982 10.0
vertex -77.00170110752624 31.633432573500958 0.0
vertex -82.89429768862287 32.97188965729982 0.0
endloop
endfacet
facet normal 0.1572472385502949 0.987559267066188 0.0
outer loop
vertex -77.00170110752624 31.633432573500958 0.0
vertex -82.89429768862287 32.97188965729982 10.0
vertex -77.00170110752624 31.633432573500958 10.0
endloop
endfacet
facet normal -0.10370997765584754 0.9946075811769302 0.0
outer loop
vertex -64.94658339452752 31.307830325291558 10.0
vertex -58.99032866900486 32.32625630562189 0.0
vertex -64.94658339452752 31.307830325291558 0.0
endloop
endfacet
facet normal -0.23264506474430321 0.972561706962658 0.0
outer loop
vertex -58.99032866900486 32.32625630562189 0.0
vertex -64.94658339452752 31.307830325291558 10.0
vertex -58.99032866900486 32.32625630562189 10.0
endloop
endfacet
facet normal -0.9132104209237382 0.40748831531258556 0.0
outer loop
vertex -27.551092768929074 58.430252783894844 10.0
vertex -30.369059253843755 53.0848597466505 0.0
vertex -30.369059253843755 53.0848597466505 10.0
endloop
endfacet
facet normal -0.8522098810059396 0.523200075225379 0.0
outer loop
vertex -30.369059253843755 53.0848597466505 0.0
vertex -27.551092768929074 58.430252783894844 10.0
vertex -27.551092768929074 58.430252783894844 0.0
endloop
endfacet
facet normal 0.1572472385502949 0.987559267066188 0.0
outer loop
vertex -77.00170110752624 31.633432573500958 10.0
vertex -70.98481280045092 31.075564369618633 0.0
vertex -77.00170110752624 31.633432573500958 0.0
endloop
endfacet
facet normal 0.026999615904138012 0.9996354439199467 0.0
outer loop
vertex -70.98481280045092 31.075564369618633 0.0
vertex -77.00170110752624 31.633432573500958 10.0
vertex -70.98481280045092 31.075564369618633 10.0
endloop
endfacet
facet normal 0.6299597367926019 0.7766277937469118 0.0
outer loop
vertex -98.83901564346574 41.37757292419906 10.0
vertex -93.90717161974612 37.88600073413569 0.0
vertex -98.83901564346574 41.37757292419906 0.0
endloop
endfacet
facet normal 0.5232000752253794 0.8522098810059395 0.0
outer loop
vertex -93.90717161974612 37.88600073413569 0.0
vertex -98.83901564346574 41.37757292419906 10.0
vertex -93.90717161974612 37.88600073413569 10.0
endloop
endfacet
facet normal 0.4074883153125813 0.9132104209237398 0.0
outer loop
vertex -48.47499830657853 124.9053721890136 10.0
vertex -42.43721366569391 121.72239300626741 0.0
vertex -48.47499830657853 124.9053721890136 0.0
endloop
endfacet
facet normal 0.523200075225376 0.8522098810059414 0.0
outer loop
vertex -42.43721366569391 121.72239300626741 0.0
vertex -48.47499830657853 124.9053721890136 10.0
vertex -42.43721366569391 121.72239300626741 10.0
endloop
endfacet
facet normal 0.6299597367926 0.7766277937469134 0.0
outer loop
vertex -36.8665452620467 117.77855561305448 10.0
vertex -31.858308776504366 113.14134016061102 0.0
vertex -36.8665452620467 117.77855561305448 0.0
endloop
endfacet
facet normal 0.7259406126054646 0.6877573896149737 0.0
outer loop
vertex -31.858308776504366 113.14134016061102 0.0
vertex -36.8665452620467 117.77855561305448 10.0
vertex -31.858308776504366 113.14134016061102 10.0
endloop
endfacet
facet normal -0.8522098810059406 0.5232000752253773 0.0
outer loop
vertex -114.20545152597545 104.55481770070278 10.0
vertex -117.38843070872166 98.51703305981817 0.0
vertex -117.38843070872166 98.51703305981817 10.0
endloop
endfacet
facet normal -0.9132104209237392 0.40748831531258306 0.0
outer loop
vertex -117.38843070872166 98.51703305981817 0.0
vertex -114.20545152597545 104.55481770070278 10.0
vertex -114.20545152597545 104.55481770070278 0.0
endloop
endfacet
facet normal -0.10370997765584893 0.9946075811769299 0.0
outer loop
vertex -75.1490822895493 129.15263732748113 10.0
vertex -68.32871781659061 129.4149888159482 0.0
vertex -75.1490822895493 129.15263732748113 0.0
endloop
endfacet
facet normal 0.02699961590413407 0.9996354439199467 0.0
outer loop
vertex -68.32871781659061 129.4149888159482 0.0
vertex -75.1490822895493 129.15263732748113 10.0
vertex -68.32871781659061 129.4149888159482 10.0
endloop
endfacet
facet normal -0.9132104209237392 0.40748831531258306 0.0
outer loop
vertex -117.38843070872166 98.51703305981817 10.0
vertex -119.75609002469584 92.11544035089186 0.0
vertex -119.75609002469584 92.11544035089186 10.0
endloop
endfacet
facet normal -0.9585856773497706 0.2848043173476858 0.0
outer loop
vertex -119.75609002469584 92.11544035089186 0.0
vertex -117.38843070872166 98.51703305981817 10.0
vertex -117.38843070872166 98.51703305981817 0.0
endloop
endfacet
facet normal -0.23264506474430463 0.9725617069626575 0.0
outer loop
vertex -81.87685385814781 128.00229408815852 10.0
vertex -75.1490822895493 129.15263732748113 0.0
vertex -81.87685385814781 128.00229408815852 0.0
endloop
endfacet
facet normal -0.10370997765584893 0.9946075811769299 0.0
outer loop
vertex -75.1490822895493 129.15263732748113 0.0
vertex -81.87685385814781 128.00229408815852 10.0
vertex -75.1490822895493 129.15263732748113 10.0
endloop
endfacet
facet normal 0.523200075225376 0.8522098810059414 0.0
outer loop
vertex -42.43721366569391 121.72239300626741 10.0
vertex -36.8665452620467 117.77855561305448 0.0
vertex -42.43721366569391 121.72239300626741 0.0
endloop
endfacet
facet normal 0.6299597367926 0.7766277937469134 0.0
outer loop
vertex -36.8665452620467 117.77855561305448 0.0
vertex -42.43721366569391 121.72239300626741 10.0
vertex -36.8665452620467 117.77855561305448 10.0
endloop
endfacet
facet normal 0.7259406126054646 0.6877573896149737 0.0
outer loop
vertex -31.858308776504366 113.14134016061102 0.0
vertex -27.498196523880004 107.89009069100736 10.0
vertex -27.498196523880004 107.89009069100736 0.0
endloop
endfacet
facet normal 0.8095004432678882 0.5871192658643491 0.0
outer loop
vertex -27.498196523880004 107.89009069100736 10.0
vertex -31.858308776504366 113.14134016061102 0.0
vertex -31.858308776504366 113.14134016061102 10.0
endloop
endfacet
facet normal -0.5871192658643476 0.8095004432678895 0.0
outer loop
vertex -100.37314921071535 119.49383484251668 10.0
vertex -94.59771605829779 123.13122013272915 0.0
vertex -100.37314921071535 119.49383484251668 0.0
endloop
endfacet
facet normal -0.4764353686945687 0.8792094969100769 0.0
outer loop
vertex -94.59771605829779 123.13122013272915 0.0
vertex -100.37314921071535 119.49383484251668 10.0
vertex -94.59771605829779 123.13122013272915 10.0
endloop
endfacet
facet normal 0.8095004432678882 0.5871192658643491 0.0
outer loop
vertex -27.498196523880004 107.89009069100736 0.0
vertex -23.860811233667516 102.1146575385898 10.0
vertex -23.860811233667516 102.1146575385898 0.0
endloop
endfacet
facet normal 0.8792094969100757 0.4764353686945707 0.0
outer loop
vertex -23.860811233667516 102.1146575385898 10.0
vertex -27.498196523880004 107.89009069100736 0.0
vertex -27.498196523880004 107.89009069100736 10.0
endloop
endfacet
facet normal 0.8792094969100757 0.4764353686945707 0.0
outer loop
vertex -23.860811233667516 102.1146575385898 0.0
vertex -21.008389576656196 95.91385996584881 10.0
vertex -21.008389576656196 95.91385996584881 0.0
endloop
endfacet
facet normal 0.9338750322972059 0.3575995302735905 0.0
outer loop
vertex -21.008389576656196 95.91385996584881 10.0
vertex -23.860811233667516 102.1146575385898 0.0
vertex -23.860811233667516 102.1146575385898 10.0
endloop
endfacet
facet normal -0.6877573896149717 0.7259406126054666 0.0
outer loop
vertex -105.62439868031903 115.13372258989233 10.0
vertex -110.2616141327625 110.12548610435 0.0
vertex -110.2616141327625 110.12548610435 10.0
endloop
endfacet
facet normal -0.776627793746912 0.6299597367926014 0.0
outer loop
vertex -110.2616141327625 110.12548610435 0.0
vertex -105.62439868031903 115.13372258989233 10.0
vertex -105.62439868031903 115.13372258989233 0.0
endloop
endfacet
facet normal -0.6877573896149717 0.7259406126054666 0.0
outer loop
vertex -105.62439868031903 115.13372258989233 10.0
vertex -100.37314921071535 119.49383484251668 0.0
vertex -105.62439868031903 115.13372258989233 0.0
endloop
endfacet
facet normal -0.5871192658643476 0.8095004432678895 0.0
outer loop
vertex -100.37314921071535 119.49383484251668 0.0
vertex -105.62439868031903 115.13372258989233 10.0
vertex -100.37314921071535 119.49383484251668 10.0
endloop
endfacet
facet normal -0.987559267066188 0.15724723855029563 0.0
outer loop
vertex -121.26791816656247 85.45957260003037 10.0
vertex -121.89804733565627 78.66331354980612 0.0
vertex -121.89804733565627 78.66331354980612 10.0
endloop
endfacet
facet normal -0.9996354439199467 0.026999615904137516 0.0
outer loop
vertex -121.89804733565627 78.66331354980612 0.0
vertex -121.26791816656247 85.45957260003037 10.0
vertex -121.26791816656247 85.45957260003037 0.0
endloop
endfacet
facet normal -0.4764353686945687 0.8792094969100769 0.0
outer loop
vertex -94.59771605829779 123.13122013272915 10.0
vertex -88.39691848555677 125.98364178974047 0.0
vertex -94.59771605829779 123.13122013272915 0.0
endloop
endfacet
facet normal -0.3575995302735883 0.9338750322972068 0.0
outer loop
vertex -88.39691848555677 125.98364178974047 0.0
vertex -94.59771605829779 123.13122013272915 10.0
vertex -88.39691848555677 125.98364178974047 10.0
endloop
endfacet
facet normal -0.9585856773497706 0.2848043173476858 0.0
outer loop
vertex -119.75609002469584 92.11544035089186 10.0
vertex -121.26791816656247 85.45957260003037 0.0
vertex -121.26791816656247 85.45957260003037 10.0
endloop
endfacet
facet normal -0.987559267066188 0.15724723855029563 0.0
outer loop
vertex -121.26791816656247 85.45957260003037 0.0
vertex -119.75609002469584 92.11544035089186 10.0
vertex -119.75609002469584 92.11544035089186 0.0
endloop
endfacet
facet normal -0.3575995302735883 0.9338750322972068 0.0
outer loop
vertex -88.39691848555677 125.98364178974047 10.0
vertex -81.87685385814781 128.00229408815852 0.0
vertex -88.39691848555677 125.98364178974047 0.0
endloop
endfacet
facet normal -0.23264506474430463 0.9725617069626575 0.0
outer loop
vertex -81.87685385814781 128.00229408815852 0.0
vertex -88.39691848555677 125.98364178974047 10.0
vertex -81.87685385814781 128.00229408815852 10.0
endloop
endfacet
facet normal 0.15724723855029374 0.9875592670661881 0.0
outer loop
vertex -61.53245876636635 128.78485964685441 10.0
vertex -54.87659101550486 127.27303150498778 0.0
vertex -61.53245876636635 128.78485964685441 0.0
endloop
endfacet
facet normal 0.2848043173476856 0.9585856773497706 0.0
outer loop
vertex -54.87659101550486 127.27303150498778 0.0
vertex -61.53245876636635 128.78485964685441 10.0
vertex -54.87659101550486 127.27303150498778 10.0
endloop
endfacet
facet normal -0.9996354439199467 0.026999615904137516 0.0
outer loop
vertex -121.89804733565627 78.66331354980612 10.0
vertex -121.63569584718923 71.84294907684742 0.0
vertex -121.63569584718923 71.84294907684742 10.0
endloop
endfacet
facet normal -0.99460758117693 -0.10370997765584739 0.0
outer loop
vertex -121.63569584718923 71.84294907684742 0.0
vertex -121.89804733565627 78.66331354980612 10.0
vertex -121.89804733565627 78.66331354980612 0.0
endloop
endfacet
facet normal 0.2848043173476856 0.9585856773497706 0.0
outer loop
vertex -54.87659101550486 127.27303150498778 10.0
vertex -48.47499830657853 124.9053721890136 0.0
vertex -54.87659101550486 127.27303150498778 0.0
endloop
endfacet
facet normal 0.4074883153125813 0.9132104209237398 0.0
outer loop
vertex -48.47499830657853 124.9053721890136 0.0
vertex -54.87659101550486 127.27303150498778 10.0
vertex -48.47499830657853 124.9053721890136 10.0
endloop
endfacet
facet normal -0.776627793746912 0.6299597367926014 0.0
outer loop
vertex -110.2616141327625 110.12548610435 10.0
vertex -114.20545152597545 104.55481770070278 0.0
vertex -114.20545152597545 104.55481770070278 10.0
endloop
endfacet
facet normal -0.8522098810059406 0.5232000752253773 0.0
outer loop
vertex -114.20545152597545 104.55481770070278 0.0
vertex -110.2616141327625 110.12548610435 10.0
vertex -110.2616141327625 110.12548610435 0.0
endloop
endfacet
facet normal -0.99460758117693 -0.10370997765584739 0.0
outer loop
vertex -121.63569584718923 71.84294907684742 10.0
vertex -120.4853526078666 65.1151775082489 0.0
vertex -120.4853526078666 65.1151775082489 10.0
endloop
endfacet
facet normal -0.972561706962658 -0.23264506474430297 0.0
outer loop
vertex -120.4853526078666 65.1151775082489 0.0
vertex -121.63569584718923 71.84294907684742 10.0
vertex -121.63569584718923 71.84294907684742 0.0
endloop
endfacet
facet normal 0.02699961590413407 0.9996354439199467 0.0
outer loop
vertex -68.32871781659061 129.4149888159482 10.0
vertex -61.53245876636635 128.78485964685441 0.0
vertex -68.32871781659061 129.4149888159482 0.0
endloop
endfacet
facet normal 0.15724723855029374 0.9875592670661881 0.0
outer loop
vertex -61.53245876636635 128.78485964685441 0.0
vertex -68.32871781659061 129.4149888159482 10.0
vertex -61.53245876636635 128.78485964685441 10.0
endloop
endfacet
endsolid model
