solid model
facet normal 0.0 0.0 -1.0
outer loop
vertex -330.5275902628906 82.5881904510252 0.0
vertex -330.86833199999995 50.0 0.0
vertex -330.86833199999995 80.0 0.0
endloop
endfacet
facet normal 0.0 0.0 -1.0
outer loop
vertex -330.86833199999995 50.0 0.0
vertex -330.5275902628906 82.5881904510252 0.0
vertex -330.86833199999995 29.999999999999996 0.0
endloop
endfacet
facet normal 0.0 0.0 -1.0
outer loop
vertex -330.86833199999995 29.999999999999996 0.0
vertex -330.5275902628906 82.5881904510252 0.0
vertex -330.86833199999995 -4.229949723821846e-15 0.0
endloop
endfacet
facet normal 0.0 0.0 -1.0
outer loop
vertex -330.86833199999995 -4.229949723821846e-15 0.0
vertex -330.5275902628906 82.5881904510252 0.0
vertex -330.5275902628906 -2.588190451025211 0.0
endloop
endfacet
facet normal 0.0 0.0 -1.0
outer loop
vertex -330.5275902628906 -2.588190451025211 0.0
vertex -330.5275902628906 82.5881904510252 0.0
vertex -329.5285860378444 85.0 0.0
endloop
endfacet
facet normal 0.0 0.0 -1.0
outer loop
vertex -330.5275902628906 -2.588190451025211 0.0
vertex -329.5285860378444 85.0 0.0
vertex -329.5285860378444 -5.000000000000003 0.0
endloop
endfacet
facet normal 0.0 0.0 -1.0
outer loop
vertex -329.5285860378444 -5.000000000000003 0.0
vertex -329.5285860378444 85.0 0.0
vertex -327.9393998118654 87.07106781186548 0.0
endloop
endfacet
facet normal 0.0 0.0 -1.0
outer loop
vertex -329.5285860378444 -5.000000000000003 0.0
vertex -327.9393998118654 87.07106781186548 0.0
vertex -327.9393998118654 -7.071067811865479 0.0
endloop
endfacet
facet normal 0.0 0.0 -1.0
outer loop
vertex -327.9393998118654 -7.071067811865479 0.0
vertex -327.9393998118654 87.07106781186548 0.0
vertex -325.86833199999995 88.66025403784438 0.0
endloop
endfacet
facet normal 0.0 0.0 -1.0
outer loop
vertex -327.9393998118654 -7.071067811865479 0.0
vertex -325.86833199999995 88.66025403784438 0.0
vertex -325.86833199999995 -8.660254037844389 0.0
endloop
endfacet
facet normal 0.0 0.0 -1.0
outer loop
vertex -325.86833199999995 -8.660254037844389 0.0
vertex -325.86833199999995 88.66025403784438 0.0
vertex -323.4565224510252 89.65925826289069 0.0
endloop
endfacet
facet normal 0.0 0.0 -1.0
outer loop
vertex -325.86833199999995 -8.660254037844389 0.0
vertex -323.4565224510252 89.65925826289069 0.0
vertex -323.4565224510252 -9.659258262890686 0.0
endloop
endfacet
facet normal 0.0 0.0 -1.0
outer loop
vertex -323.4565224510252 -9.659258262890686 0.0
vertex -323.4565224510252 89.65925826289069 0.0
vertex -320.868332 90.0 0.0
endloop
endfacet
facet normal 0.0 0.0 -1.0
outer loop
vertex -323.4565224510252 -9.659258262890686 0.0
vertex -320.868332 90.0 0.0
vertex -320.868332 -10.000000000000004 0.0
endloop
endfacet
facet normal 0.0 0.0 -1.0
outer loop
vertex -320.868332 -10.000000000000004 0.0
vertex -320.868332 90.0 0.0
vertex -318.28014154897477 89.65925826289069 0.0
endloop
endfacet
facet normal 0.0 0.0 -1.0
outer loop
vertex -320.868332 -10.000000000000004 0.0
vertex -318.28014154897477 89.65925826289069 0.0
vertex -318.28014154897477 -9.659258262890688 0.0
endloop
endfacet
facet normal 0.0 0.0 -1.0
outer loop
vertex -318.28014154897477 -9.659258262890688 0.0
vertex -318.28014154897477 89.65925826289069 0.0
vertex -315.86833199999995 88.6602540378444 0.0
endloop
endfacet
facet normal 0.0 0.0 -1.0
outer loop
vertex -318.28014154897477 -9.659258262890688 0.0
vertex -315.86833199999995 88.6602540378444 0.0
vertex -315.86833199999995 -8.66025403784439 0.0
endloop
endfacet
facet normal 0.0 0.0 -1.0
outer loop
vertex -315.86833199999995 -8.66025403784439 0.0
vertex -315.86833199999995 88.6602540378444 0.0
vertex -313.7972641881345 87.07106781186548 0.0
endloop
endfacet
facet normal 0.0 0.0 -1.0
outer loop
vertex -315.86833199999995 -8.66025403784439 0.0
vertex -313.7972641881345 87.07106781186548 0.0
vertex -313.7972641881345 -7.071067811865482 0.0
endloop
endfacet
facet normal 0.0 0.0 -1.0
outer loop
vertex -313.7972641881345 -7.071067811865482 0.0
vertex -313.7972641881345 87.07106781186548 0.0
vertex -312.2080779621556 85.0 0.0
endloop
endfacet
facet normal 0.0 0.0 -1.0
outer loop
vertex -313.7972641881345 -7.071067811865482 0.0
vertex -312.2080779621556 85.0 0.0
vertex -312.2080779621556 -5.000000000000005 0.0
endloop
endfacet
facet normal 0.0 0.0 -1.0
outer loop
vertex -312.2080779621556 -5.000000000000005 0.0
vertex -312.2080779621556 85.0 0.0
vertex -311.2090737371093 82.5881904510252 0.0
endloop
endfacet
facet normal 0.0 0.0 -1.0
outer loop
vertex -312.2080779621556 -5.000000000000005 0.0
vertex -311.2090737371093 82.5881904510252 0.0
vertex -311.2090737371093 -2.5881904510252123 0.0
endloop
endfacet
facet normal 0.0 0.0 -1.0
outer loop
vertex -311.2090737371093 -2.5881904510252123 0.0
vertex -311.2090737371093 82.5881904510252 0.0
vertex -310.86833199999995 80.0 0.0
endloop
endfacet
facet normal 0.0 0.0 -1.0
outer loop
vertex -311.2090737371093 -2.5881904510252123 0.0
vertex -310.86833199999995 80.0 0.0
vertex -310.86833199999995 -4.229949723821846e-15 0.0
endloop
endfacet
facet normal 0.0 0.0 -1.0
outer loop
vertex -310.86833199999995 -4.229949723821846e-15 0.0
vertex -310.86833199999995 80.0 0.0
vertex -310.86833199999995 50.0 0.0
endloop
endfacet
facet normal 0.0 0.0 -1.0
outer loop
vertex -310.86833199999995 -4.229949723821846e-15 0.0
vertex -310.86833199999995 50.0 0.0
vertex -310.86833199999995 29.999999999999996 0.0
endloop
endfacet
facet normal -0.0 -0.0 1.0
outer loop
vertex -330.5275902628906 -2.588190451025211 0.49999999999999994
vertex -330.86833199999995 29.999999999999996 0.49999999999999994
vertex -330.86833199999995 -4.229949723821846e-15 0.49999999999999994
endloop
endfacet
facet normal -0.0 -0.0 1.0
outer loop
vertex -330.86833199999995 29.999999999999996 0.49999999999999994
vertex -330.5275902628906 -2.588190451025211 0.49999999999999994
vertex -330.86833199999995 50.0 0.49999999999999994
endloop
endfacet
facet normal -0.0 -0.0 1.0
outer loop
vertex -330.86833199999995 50.0 0.49999999999999994
vertex -330.5275902628906 -2.588190451025211 0.49999999999999994
vertex -330.86833199999995 80.0 0.49999999999999994
endloop
endfacet
facet normal -0.0 -0.0 1.0
outer loop
vertex -330.86833199999995 80.0 0.49999999999999994
vertex -330.5275902628906 -2.588190451025211 0.49999999999999994
vertex -330.5275902628906 82.5881904510252 0.49999999999999994
endloop
endfacet
facet normal -0.0 -0.0 1.0
outer loop
vertex -330.5275902628906 82.5881904510252 0.49999999999999994
vertex -330.5275902628906 -2.588190451025211 0.49999999999999994
vertex -329.5285860378444 -5.000000000000003 0.49999999999999994
endloop
endfacet
facet normal -0.0 -0.0 1.0
outer loop
vertex -330.5275902628906 82.5881904510252 0.49999999999999994
vertex -329.5285860378444 -5.000000000000003 0.49999999999999994
vertex -329.5285860378444 85.0 0.49999999999999994
endloop
endfacet
facet normal -0.0 -0.0 1.0
outer loop
vertex -329.5285860378444 85.0 0.49999999999999994
vertex -329.5285860378444 -5.000000000000003 0.49999999999999994
vertex -327.9393998118654 -7.071067811865479 0.49999999999999994
endloop
endfacet
facet normal -0.0 -0.0 1.0
outer loop
vertex -329.5285860378444 85.0 0.49999999999999994
vertex -327.9393998118654 -7.071067811865479 0.49999999999999994
vertex -327.9393998118654 87.07106781186548 0.49999999999999994
endloop
endfacet
facet normal -0.0 -0.0 1.0
outer loop
vertex -327.9393998118654 87.07106781186548 0.49999999999999994
vertex -327.9393998118654 -7.071067811865479 0.49999999999999994
vertex -325.86833199999995 -8.660254037844389 0.49999999999999994
endloop
endfacet
facet normal -0.0 -0.0 1.0
outer loop
vertex -327.9393998118654 87.07106781186548 0.49999999999999994
vertex -325.86833199999995 -8.660254037844389 0.49999999999999994
vertex -325.86833199999995 88.66025403784438 0.49999999999999994
endloop
endfacet
facet normal -0.0 -0.0 1.0
outer loop
vertex -325.86833199999995 88.66025403784438 0.49999999999999994
vertex -325.86833199999995 -8.660254037844389 0.49999999999999994
vertex -323.4565224510252 -9.659258262890686 0.49999999999999994
endloop
endfacet
facet normal -0.0 -0.0 1.0
outer loop
vertex -325.86833199999995 88.66025403784438 0.49999999999999994
vertex -323.4565224510252 -9.659258262890686 0.49999999999999994
vertex -323.4565224510252 89.65925826289069 0.49999999999999994
endloop
endfacet
facet normal -0.0 -0.0 1.0
outer loop
vertex -323.4565224510252 89.65925826289069 0.49999999999999994
vertex -323.4565224510252 -9.659258262890686 0.49999999999999994
vertex -320.868332 -10.000000000000004 0.49999999999999994
endloop
endfacet
facet normal -0.0 -0.0 1.0
outer loop
vertex -323.4565224510252 89.65925826289069 0.49999999999999994
vertex -320.868332 -10.000000000000004 0.49999999999999994
vertex -320.868332 90.0 0.49999999999999994
endloop
endfacet
facet normal -0.0 -0.0 1.0
outer loop
vertex -320.868332 90.0 0.49999999999999994
vertex -320.868332 -10.000000000000004 0.49999999999999994
vertex -318.28014154897477 -9.659258262890688 0.49999999999999994
endloop
endfacet
facet normal -0.0 -0.0 1.0
outer loop
vertex -320.868332 90.0 0.49999999999999994
vertex -318.28014154897477 -9.659258262890688 0.49999999999999994
vertex -318.28014154897477 89.65925826289069 0.49999999999999994
endloop
endfacet
facet normal -0.0 -0.0 1.0
outer loop
vertex -318.28014154897477 89.65925826289069 0.49999999999999994
vertex -318.28014154897477 -9.659258262890688 0.49999999999999994
vertex -315.86833199999995 -8.66025403784439 0.49999999999999994
endloop
endfacet
facet normal -0.0 -0.0 1.0
outer loop
vertex -318.28014154897477 89.65925826289069 0.49999999999999994
vertex -315.86833199999995 -8.66025403784439 0.49999999999999994
vertex -315.86833199999995 88.6602540378444 0.49999999999999994
endloop
endfacet
facet normal -0.0 -0.0 1.0
outer loop
vertex -315.86833199999995 88.6602540378444 0.49999999999999994
vertex -315.86833199999995 -8.66025403784439 0.49999999999999994
vertex -313.7972641881345 -7.071067811865482 0.49999999999999994
endloop
endfacet
facet normal -0.0 -0.0 1.0
outer loop
vertex -315.86833199999995 88.6602540378444 0.49999999999999994
vertex -313.7972641881345 -7.071067811865482 0.49999999999999994
vertex -313.7972641881345 87.07106781186548 0.49999999999999994
endloop
endfacet
facet normal -0.0 -0.0 1.0
outer loop
vertex -313.7972641881345 87.07106781186548 0.49999999999999994
vertex -313.7972641881345 -7.071067811865482 0.49999999999999994
vertex -312.2080779621556 -5.000000000000005 0.49999999999999994
endloop
endfacet
facet normal -0.0 -0.0 1.0
outer loop
vertex -313.7972641881345 87.07106781186548 0.49999999999999994
vertex -312.2080779621556 -5.000000000000005 0.49999999999999994
vertex -312.2080779621556 85.0 0.49999999999999994
endloop
endfacet
facet normal -0.0 -0.0 1.0
outer loop
vertex -312.2080779621556 85.0 0.49999999999999994
vertex -312.2080779621556 -5.000000000000005 0.49999999999999994
vertex -311.2090737371093 -2.5881904510252123 0.49999999999999994
endloop
endfacet
facet normal -0.0 -0.0 1.0
outer loop
vertex -312.2080779621556 85.0 0.49999999999999994
vertex -311.2090737371093 -2.5881904510252123 0.49999999999999994
vertex -311.2090737371093 82.5881904510252 0.49999999999999994
endloop
endfacet
facet normal -0.0 -0.0 1.0
outer loop
vertex -311.2090737371093 82.5881904510252 0.49999999999999994
vertex -311.2090737371093 -2.5881904510252123 0.49999999999999994
vertex -310.86833199999995 -4.229949723821846e-15 0.49999999999999994
endloop
endfacet
facet normal -0.0 -0.0 1.0
outer loop
vertex -311.2090737371093 82.5881904510252 0.49999999999999994
vertex -310.86833199999995 -4.229949723821846e-15 0.49999999999999994
vertex -310.86833199999995 80.0 0.49999999999999994
endloop
endfacet
facet normal -0.0 -0.0 1.0
outer loop
vertex -310.86833199999995 80.0 0.49999999999999994
vertex -310.86833199999995 -4.229949723821846e-15 0.49999999999999994
vertex -310.86833199999995 29.999999999999996 0.49999999999999994
endloop
endfacet
facet normal -0.0 -0.0 1.0
outer loop
vertex -310.86833199999995 80.0 0.49999999999999994
vertex -310.86833199999995 29.999999999999996 0.49999999999999994
vertex -310.86833199999995 50.0 0.49999999999999994
endloop
endfacet
facet normal 0.9914448613738099 -0.130526192220056 0.0
outer loop
vertex -310.86833199999995 -4.229949723821846e-15 0.0
vertex -311.2090737371093 -2.5881904510252123 0.49999999999999994
vertex -311.2090737371093 -2.5881904510252123 0.0
endloop
endfacet
facet normal 0.9659258262890689 -0.25881904510251874 0.0
outer loop
vertex -311.2090737371093 -2.5881904510252123 0.49999999999999994
vertex -310.86833199999995 -4.229949723821846e-15 0.0
vertex -310.86833199999995 -4.229949723821846e-15 0.49999999999999994
endloop
endfacet
facet normal 1.0 0.0 0.0
outer loop
vertex -310.86833199999995 80.0 0.0
vertex -310.86833199999995 50.0 0.49999999999999994
vertex -310.86833199999995 50.0 0.0
endloop
endfacet
facet normal 1.0 0.0 0.0
outer loop
vertex -310.86833199999995 50.0 0.49999999999999994
vertex -310.86833199999995 80.0 0.0
vertex -310.86833199999995 80.0 0.49999999999999994
endloop
endfacet
facet normal -0.707106781186546 0.707106781186549 0.0
outer loop
vertex -327.9393998118654 87.07106781186548 0.49999999999999994
vertex -325.86833199999995 88.66025403784438 0.0
vertex -327.9393998118654 87.07106781186548 0.0
endloop
endfacet
facet normal -0.5000000000000036 0.8660254037844365 0.0
outer loop
vertex -325.86833199999995 88.66025403784438 0.0
vertex -327.9393998118654 87.07106781186548 0.49999999999999994
vertex -325.86833199999995 88.66025403784438 0.49999999999999994
endloop
endfacet
facet normal -0.5000000000000036 0.8660254037844365 0.0
outer loop
vertex -325.86833199999995 88.66025403784438 0.49999999999999994
vertex -323.4565224510252 89.65925826289069 0.0
vertex -325.86833199999995 88.66025403784438 0.0
endloop
endfacet
facet normal -0.258819045102521 0.9659258262890683 0.0
outer loop
vertex -323.4565224510252 89.65925826289069 0.0
vertex -325.86833199999995 88.66025403784438 0.49999999999999994
vertex -323.4565224510252 89.65925826289069 0.49999999999999994
endloop
endfacet
facet normal -0.258819045102521 0.9659258262890683 0.0
outer loop
vertex -323.4565224510252 89.65925826289069 0.49999999999999994
vertex -320.868332 90.0 0.0
vertex -323.4565224510252 89.65925826289069 0.0
endloop
endfacet
facet normal 0.0 1.0 0.0
outer loop
vertex -320.868332 90.0 0.0
vertex -323.4565224510252 89.65925826289069 0.49999999999999994
vertex -320.868332 90.0 0.49999999999999994
endloop
endfacet
facet normal 1.0 0.0 0.0
outer loop
vertex -310.86833199999995 50.0 0.0
vertex -310.86833199999995 29.999999999999996 0.49999999999999994
vertex -310.86833199999995 29.999999999999996 0.0
endloop
endfacet
facet normal 1.0 0.0 0.0
outer loop
vertex -310.86833199999995 29.999999999999996 0.49999999999999994
vertex -310.86833199999995 50.0 0.0
vertex -310.86833199999995 50.0 0.49999999999999994
endloop
endfacet
facet normal 0.0 1.0 0.0
outer loop
vertex -320.868332 90.0 0.49999999999999994
vertex -318.28014154897477 89.65925826289069 0.0
vertex -320.868332 90.0 0.0
endloop
endfacet
facet normal 0.2588190451025159 0.9659258262890695 0.0
outer loop
vertex -318.28014154897477 89.65925826289069 0.0
vertex -320.868332 90.0 0.49999999999999994
vertex -318.28014154897477 89.65925826289069 0.49999999999999994
endloop
endfacet
facet normal 0.2588190451025159 0.9659258262890695 0.0
outer loop
vertex -318.28014154897477 89.65925826289069 0.49999999999999994
vertex -315.86833199999995 88.6602540378444 0.0
vertex -318.28014154897477 89.65925826289069 0.0
endloop
endfacet
facet normal 0.5000000000000006 0.8660254037844383 0.0
outer loop
vertex -315.86833199999995 88.6602540378444 0.0
vertex -318.28014154897477 89.65925826289069 0.49999999999999994
vertex -315.86833199999995 88.6602540378444 0.49999999999999994
endloop
endfacet
facet normal 0.9659258262890689 -0.25881904510251874 0.0
outer loop
vertex -311.2090737371093 -2.5881904510252123 0.0
vertex -312.2080779621556 -5.000000000000005 0.49999999999999994
vertex -312.2080779621556 -5.000000000000005 0.0
endloop
endfacet
facet normal 0.8660254037844392 -0.499999999999999 0.0
outer loop
vertex -312.2080779621556 -5.000000000000005 0.49999999999999994
vertex -311.2090737371093 -2.5881904510252123 0.0
vertex -311.2090737371093 -2.5881904510252123 0.49999999999999994
endloop
endfacet
facet normal 0.8660254037844389 0.49999999999999967 0.0
outer loop
vertex -312.2080779621556 85.0 0.0
vertex -311.2090737371093 82.5881904510252 0.49999999999999994
vertex -311.2090737371093 82.5881904510252 0.0
endloop
endfacet
facet normal 0.965925826289069 0.2588190451025185 0.0
outer loop
vertex -311.2090737371093 82.5881904510252 0.49999999999999994
vertex -312.2080779621556 85.0 0.0
vertex -312.2080779621556 85.0 0.49999999999999994
endloop
endfacet
facet normal 0.965925826289069 0.2588190451025185 0.0
outer loop
vertex -311.2090737371093 82.5881904510252 0.0
vertex -310.86833199999995 80.0 0.49999999999999994
vertex -310.86833199999995 80.0 0.0
endloop
endfacet
facet normal 0.9914448613738099 0.13052619222005613 0.0
outer loop
vertex -310.86833199999995 80.0 0.49999999999999994
vertex -311.2090737371093 82.5881904510252 0.0
vertex -311.2090737371093 82.5881904510252 0.49999999999999994
endloop
endfacet
facet normal -0.965925826289069 0.2588190451025185 0.0
outer loop
vertex -330.5275902628906 82.5881904510252 0.49999999999999994
vertex -330.86833199999995 80.0 0.0
vertex -330.86833199999995 80.0 0.49999999999999994
endloop
endfacet
facet normal -0.9914448613738099 0.13052619222005613 0.0
outer loop
vertex -330.86833199999995 80.0 0.0
vertex -330.5275902628906 82.5881904510252 0.49999999999999994
vertex -330.5275902628906 82.5881904510252 0.0
endloop
endfacet
facet normal 0.2588190451025179 -0.9659258262890691 0.0
outer loop
vertex -318.28014154897477 -9.659258262890688 0.49999999999999994
vertex -320.868332 -10.000000000000004 0.0
vertex -318.28014154897477 -9.659258262890688 0.0
endloop
endfacet
facet normal -2.85155516660701e-16 -1.0 0.0
outer loop
vertex -320.868332 -10.000000000000004 0.0
vertex -318.28014154897477 -9.659258262890688 0.49999999999999994
vertex -320.868332 -10.000000000000004 0.49999999999999994
endloop
endfacet
facet normal -0.707106781186546 0.707106781186549 0.0
outer loop
vertex -327.9393998118654 87.07106781186548 0.49999999999999994
vertex -329.5285860378444 85.0 0.0
vertex -329.5285860378444 85.0 0.49999999999999994
endloop
endfacet
facet normal -0.8660254037844389 0.49999999999999967 0.0
outer loop
vertex -329.5285860378444 85.0 0.0
vertex -327.9393998118654 87.07106781186548 0.49999999999999994
vertex -327.9393998118654 87.07106781186548 0.0
endloop
endfacet
facet normal -0.8660254037844389 0.49999999999999967 0.0
outer loop
vertex -329.5285860378444 85.0 0.49999999999999994
vertex -330.5275902628906 82.5881904510252 0.0
vertex -330.5275902628906 82.5881904510252 0.49999999999999994
endloop
endfacet
facet normal -0.965925826289069 0.2588190451025185 0.0
outer loop
vertex -330.5275902628906 82.5881904510252 0.0
vertex -329.5285860378444 85.0 0.49999999999999994
vertex -329.5285860378444 85.0 0.0
endloop
endfacet
facet normal 0.8660254037844392 -0.499999999999999 0.0
outer loop
vertex -312.2080779621556 -5.000000000000005 0.0
vertex -313.7972641881345 -7.071067811865482 0.49999999999999994
vertex -313.7972641881345 -7.071067811865482 0.0
endloop
endfacet
facet normal 0.7071067811865467 -0.7071067811865483 0.0
outer loop
vertex -313.7972641881345 -7.071067811865482 0.49999999999999994
vertex -312.2080779621556 -5.000000000000005 0.0
vertex -312.2080779621556 -5.000000000000005 0.49999999999999994
endloop
endfacet
facet normal -2.85155516660701e-16 -1.0 0.0
outer loop
vertex -320.868332 -10.000000000000004 0.49999999999999994
vertex -323.4565224510252 -9.659258262890686 0.0
vertex -320.868332 -10.000000000000004 0.0
endloop
endfacet
facet normal -0.2588190451025216 -0.9659258262890681 0.0
outer loop
vertex -323.4565224510252 -9.659258262890686 0.0
vertex -320.868332 -10.000000000000004 0.49999999999999994
vertex -323.4565224510252 -9.659258262890686 0.49999999999999994
endloop
endfacet
facet normal -0.5000000000000023 -0.8660254037844373 0.0
outer loop
vertex -325.86833199999995 -8.660254037844389 0.49999999999999994
vertex -327.9393998118654 -7.071067811865479 0.0
vertex -325.86833199999995 -8.660254037844389 0.0
endloop
endfacet
facet normal -0.7071067811865467 -0.7071067811865483 0.0
outer loop
vertex -327.9393998118654 -7.071067811865479 0.0
vertex -325.86833199999995 -8.660254037844389 0.49999999999999994
vertex -327.9393998118654 -7.071067811865479 0.49999999999999994
endloop
endfacet
facet normal 0.5000000000000006 0.8660254037844383 0.0
outer loop
vertex -315.86833199999995 88.6602540378444 0.49999999999999994
vertex -313.7972641881345 87.07106781186548 0.0
vertex -315.86833199999995 88.6602540378444 0.0
endloop
endfacet
facet normal 0.7071067811865472 0.7071067811865478 0.0
outer loop
vertex -313.7972641881345 87.07106781186548 0.0
vertex -315.86833199999995 88.6602540378444 0.49999999999999994
vertex -313.7972641881345 87.07106781186548 0.49999999999999994
endloop
endfacet
facet normal 0.7071067811865472 0.7071067811865478 0.0
outer loop
vertex -313.7972641881345 87.07106781186548 0.0
vertex -312.2080779621556 85.0 0.49999999999999994
vertex -312.2080779621556 85.0 0.0
endloop
endfacet
facet normal 0.8660254037844389 0.49999999999999967 0.0
outer loop
vertex -312.2080779621556 85.0 0.49999999999999994
vertex -313.7972641881345 87.07106781186548 0.0
vertex -313.7972641881345 87.07106781186548 0.49999999999999994
endloop
endfacet
facet normal -0.2588190451025216 -0.9659258262890681 0.0
outer loop
vertex -323.4565224510252 -9.659258262890686 0.49999999999999994
vertex -325.86833199999995 -8.660254037844389 0.0
vertex -323.4565224510252 -9.659258262890686 0.0
endloop
endfacet
facet normal -0.5000000000000023 -0.8660254037844373 0.0
outer loop
vertex -325.86833199999995 -8.660254037844389 0.0
vertex -323.4565224510252 -9.659258262890686 0.49999999999999994
vertex -325.86833199999995 -8.660254037844389 0.49999999999999994
endloop
endfacet
facet normal -0.8660254037844392 -0.49999999999999906 0.0
outer loop
vertex -329.5285860378444 -5.000000000000003 0.49999999999999994
vertex -327.9393998118654 -7.071067811865479 0.0
vertex -327.9393998118654 -7.071067811865479 0.49999999999999994
endloop
endfacet
facet normal -0.7071067811865467 -0.7071067811865483 0.0
outer loop
vertex -327.9393998118654 -7.071067811865479 0.0
vertex -329.5285860378444 -5.000000000000003 0.49999999999999994
vertex -329.5285860378444 -5.000000000000003 0.0
endloop
endfacet
facet normal 0.7071067811865467 -0.7071067811865483 0.0
outer loop
vertex -313.7972641881345 -7.071067811865482 0.49999999999999994
vertex -315.86833199999995 -8.66025403784439 0.0
vertex -313.7972641881345 -7.071067811865482 0.0
endloop
endfacet
facet normal 0.4999999999999992 -0.8660254037844392 0.0
outer loop
vertex -315.86833199999995 -8.66025403784439 0.0
vertex -313.7972641881345 -7.071067811865482 0.49999999999999994
vertex -315.86833199999995 -8.66025403784439 0.49999999999999994
endloop
endfacet
facet normal -0.9914448613738099 -0.13052619222005604 -0.0
outer loop
vertex -330.86833199999995 -4.229949723821846e-15 0.49999999999999994
vertex -330.5275902628906 -2.588190451025211 0.0
vertex -330.5275902628906 -2.588190451025211 0.49999999999999994
endloop
endfacet
facet normal -0.9659258262890688 -0.2588190451025188 0.0
outer loop
vertex -330.5275902628906 -2.588190451025211 0.0
vertex -330.86833199999995 -4.229949723821846e-15 0.49999999999999994
vertex -330.86833199999995 -4.229949723821846e-15 0.0
endloop
endfacet
facet normal -1.0 0.0 0.0
outer loop
vertex -330.86833199999995 50.0 0.49999999999999994
vertex -330.86833199999995 29.999999999999996 0.0
vertex -330.86833199999995 29.999999999999996 0.49999999999999994
endloop
endfacet
facet normal -1.0 0.0 0.0
outer loop
vertex -330.86833199999995 29.999999999999996 0.0
vertex -330.86833199999995 50.0 0.49999999999999994
vertex -330.86833199999995 50.0 0.0
endloop
endfacet
facet normal 0.4999999999999992 -0.8660254037844392 0.0
outer loop
vertex -315.86833199999995 -8.66025403784439 0.49999999999999994
vertex -318.28014154897477 -9.659258262890688 0.0
vertex -315.86833199999995 -8.66025403784439 0.0
endloop
endfacet
facet normal 0.2588190451025179 -0.9659258262890691 0.0
outer loop
vertex -318.28014154897477 -9.659258262890688 0.0
vertex -315.86833199999995 -8.66025403784439 0.49999999999999994
vertex -318.28014154897477 -9.659258262890688 0.49999999999999994
endloop
endfacet
facet normal -1.0 0.0 0.0
outer loop
vertex -330.86833199999995 29.999999999999996 0.49999999999999994
vertex -330.86833199999995 -4.229949723821846e-15 0.0
vertex -330.86833199999995 -4.229949723821846e-15 0.49999999999999994
endloop
endfacet
facet normal -1.0 0.0 0.0
outer loop
vertex -330.86833199999995 -4.229949723821846e-15 0.0
vertex -330.86833199999995 29.999999999999996 0.49999999999999994
vertex -330.86833199999995 29.999999999999996 0.0
endloop
endfacet
facet normal 1.0 0.0 0.0
outer loop
vertex -310.86833199999995 29.999999999999996 0.0
vertex -310.86833199999995 -4.229949723821846e-15 0.49999999999999994
vertex -310.86833199999995 -4.229949723821846e-15 0.0
endloop
endfacet
facet normal 1.0 0.0 0.0
outer loop
vertex -310.86833199999995 -4.229949723821846e-15 0.49999999999999994
vertex -310.86833199999995 29.999999999999996 0.0
vertex -310.86833199999995 29.999999999999996 0.49999999999999994
endloop
endfacet
facet normal -1.0 0.0 0.0
outer loop
vertex -330.86833199999995 80.0 0.49999999999999994
vertex -330.86833199999995 50.0 0.0
vertex -330.86833199999995 50.0 0.49999999999999994
endloop
endfacet
facet normal -1.0 0.0 0.0
outer loop
vertex -330.86833199999995 50.0 0.0
vertex -330.86833199999995 80.0 0.49999999999999994
vertex -330.86833199999995 80.0 0.0
endloop
endfacet
facet normal -0.9659258262890688 -0.2588190451025188 0.0
outer loop
vertex -330.5275902628906 -2.588190451025211 0.49999999999999994
vertex -329.5285860378444 -5.000000000000003 0.0
vertex -329.5285860378444 -5.000000000000003 0.49999999999999994
endloop
endfacet
facet normal -0.8660254037844392 -0.49999999999999906 0.0
outer loop
vertex -329.5285860378444 -5.000000000000003 0.0
vertex -330.5275902628906 -2.588190451025211 0.49999999999999994
vertex -330.5275902628906 -2.588190451025211 0.0
endloop
endfacet
endsolid model
