solid model
facet normal -0.0 -0.0 1.0
outer loop
vertex -149.91191899999993 30.0 0.49999999999999994
vertex -179.91191899999993 50.00000000000001 0.49999999999999994
vertex -179.91191899999993 30.0 0.49999999999999994
endloop
endfacet
facet normal -0.0 -0.0 1.0
outer loop
vertex -179.91191899999993 50.00000000000001 0.49999999999999994
vertex -149.91191899999993 30.0 0.49999999999999994
vertex -149.91191899999993 50.00000000000001 0.49999999999999994
endloop
endfacet
facet normal -0.0 -0.0 1.0
outer loop
vertex -149.91191899999993 50.00000000000001 0.49999999999999994
vertex -149.91191899999993 30.0 0.49999999999999994
vertex -147.32372841703508 30.340741772462444 0.49999999999999994
endloop
endfacet
facet normal -0.0 -0.0 1.0
outer loop
vertex -149.91191899999993 50.00000000000001 0.49999999999999994
vertex -147.32372841703508 30.340741772462444 0.49999999999999994
vertex -147.32372856096924 49.6592582661046 0.49999999999999994
endloop
endfacet
facet normal -0.0 -0.0 1.0
outer loop
vertex -147.32372856096924 49.6592582661046 0.49999999999999994
vertex -147.32372841703508 30.340741772462444 0.49999999999999994
vertex -144.9119190215079 48.660254050262026 0.49999999999999994
endloop
endfacet
facet normal -0.0 -0.0 1.0
outer loop
vertex -144.9119190215079 48.660254050262026 0.49999999999999994
vertex -147.32372841703508 30.340741772462444 0.49999999999999994
vertex -144.91191889246005 31.339746024243787 0.49999999999999994
endloop
endfacet
facet normal -0.0 -0.0 1.0
outer loop
vertex -144.9119190215079 48.660254050262026 0.49999999999999994
vertex -144.91191889246005 31.339746024243787 0.49999999999999994
vertex -142.84085121447623 47.07106783820726 0.49999999999999994
endloop
endfacet
facet normal -0.0 -0.0 1.0
outer loop
vertex -142.84085121447623 47.07106783820726 0.49999999999999994
vertex -144.91191889246005 31.339746024243787 0.49999999999999994
vertex -142.84085110910914 32.92893226715987 0.49999999999999994
endloop
endfacet
facet normal -0.0 -0.0 1.0
outer loop
vertex -142.84085121447623 47.07106783820726 0.49999999999999994
vertex -142.84085110910914 32.92893226715987 0.49999999999999994
vertex -141.25166498699082 45.00000004301595 0.49999999999999994
endloop
endfacet
facet normal -0.0 -0.0 1.0
outer loop
vertex -141.25166498699082 45.00000004301595 0.49999999999999994
vertex -142.84085110910914 32.92893226715987 0.49999999999999994
vertex -141.251664912485 35.000000086031896 0.49999999999999994
endloop
endfacet
facet normal -0.0 -0.0 1.0
outer loop
vertex -141.25166498699082 45.00000004301595 0.49999999999999994
vertex -141.251664912485 35.000000086031896 0.49999999999999994
vertex -140.25266075317887 42.588190510997784 0.49999999999999994
endloop
endfacet
facet normal -0.0 -0.0 1.0
outer loop
vertex -140.25266075317887 42.588190510997784 0.49999999999999994
vertex -141.251664912485 35.000000086031896 0.49999999999999994
vertex -140.2526607146118 37.41180963293639 0.49999999999999994
endloop
endfacet
facet normal -0.0 -0.0 1.0
outer loop
vertex -140.25266075317887 42.588190510997784 0.49999999999999994
vertex -140.2526607146118 37.41180963293639 0.49999999999999994
vertex -139.91191899999993 40.000000074505806 0.49999999999999994
endloop
endfacet
facet normal -0.0 -0.0 1.0
outer loop
vertex -199.57117726289061 -2.588190451025205 0.49999999999999994
vertex -199.91191899999993 30.0 0.49999999999999994
vertex -199.91191899999993 1.4099832412739487e-15 0.49999999999999994
endloop
endfacet
facet normal -0.0 -0.0 1.0
outer loop
vertex -199.91191899999993 30.0 0.49999999999999994
vertex -199.57117726289061 -2.588190451025205 0.49999999999999994
vertex -199.91191899999993 50.00000000000001 0.49999999999999994
endloop
endfacet
facet normal -0.0 -0.0 1.0
outer loop
vertex -199.91191899999993 50.00000000000001 0.49999999999999994
vertex -199.57117726289061 -2.588190451025205 0.49999999999999994
vertex -199.91191899999993 80.00000000000001 0.49999999999999994
endloop
endfacet
facet normal -0.0 -0.0 1.0
outer loop
vertex -199.91191899999993 80.00000000000001 0.49999999999999994
vertex -199.57117726289061 -2.588190451025205 0.49999999999999994
vertex -199.57117726289061 82.58819045102521 0.49999999999999994
endloop
endfacet
facet normal -0.0 -0.0 1.0
outer loop
vertex -199.57117726289061 82.58819045102521 0.49999999999999994
vertex -199.57117726289061 -2.588190451025205 0.49999999999999994
vertex -198.57217303784432 -4.999999999999997 0.49999999999999994
endloop
endfacet
facet normal -0.0 -0.0 1.0
outer loop
vertex -199.57117726289061 82.58819045102521 0.49999999999999994
vertex -198.57217303784432 -4.999999999999997 0.49999999999999994
vertex -198.57217303784432 85.0 0.49999999999999994
endloop
endfacet
facet normal -0.0 -0.0 1.0
outer loop
vertex -198.57217303784432 85.0 0.49999999999999994
vertex -198.57217303784432 -4.999999999999997 0.49999999999999994
vertex -196.9829868118654 -7.071067811865473 0.49999999999999994
endloop
endfacet
facet normal -0.0 -0.0 1.0
outer loop
vertex -198.57217303784432 85.0 0.49999999999999994
vertex -196.9829868118654 -7.071067811865473 0.49999999999999994
vertex -196.9829868118654 87.07106781186548 0.49999999999999994
endloop
endfacet
facet normal -0.0 -0.0 1.0
outer loop
vertex -196.9829868118654 87.07106781186548 0.49999999999999994
vertex -196.9829868118654 -7.071067811865473 0.49999999999999994
vertex -194.91191899999993 -8.660254037844384 0.49999999999999994
endloop
endfacet
facet normal -0.0 -0.0 1.0
outer loop
vertex -196.9829868118654 87.07106781186548 0.49999999999999994
vertex -194.91191899999993 -8.660254037844384 0.49999999999999994
vertex -194.91191899999993 88.6602540378444 0.49999999999999994
endloop
endfacet
facet normal -0.0 -0.0 1.0
outer loop
vertex -194.91191899999993 88.6602540378444 0.49999999999999994
vertex -194.91191899999993 -8.660254037844384 0.49999999999999994
vertex -192.50010945102514 -9.659258262890681 0.49999999999999994
endloop
endfacet
facet normal -0.0 -0.0 1.0
outer loop
vertex -194.91191899999993 88.6602540378444 0.49999999999999994
vertex -192.50010945102514 -9.659258262890681 0.49999999999999994
vertex -192.50010945102514 89.65925826289069 0.49999999999999994
endloop
endfacet
facet normal -0.0 -0.0 1.0
outer loop
vertex -192.50010945102514 89.65925826289069 0.49999999999999994
vertex -192.50010945102514 -9.659258262890681 0.49999999999999994
vertex -189.91191899999993 -9.999999999999998 0.49999999999999994
endloop
endfacet
facet normal -0.0 -0.0 1.0
outer loop
vertex -192.50010945102514 89.65925826289069 0.49999999999999994
vertex -189.91191899999993 -9.999999999999998 0.49999999999999994
vertex -189.91191899999993 90.0 0.49999999999999994
endloop
endfacet
facet normal -0.0 -0.0 1.0
outer loop
vertex -189.91191899999993 90.0 0.49999999999999994
vertex -189.91191899999993 -9.999999999999998 0.49999999999999994
vertex -187.32372854897474 -9.659258262890683 0.49999999999999994
endloop
endfacet
facet normal -0.0 -0.0 1.0
outer loop
vertex -189.91191899999993 90.0 0.49999999999999994
vertex -187.32372854897474 -9.659258262890683 0.49999999999999994
vertex -187.32372854897474 89.65925826289069 0.49999999999999994
endloop
endfacet
facet normal -0.0 -0.0 1.0
outer loop
vertex -187.32372854897474 89.65925826289069 0.49999999999999994
vertex -187.32372854897474 -9.659258262890683 0.49999999999999994
vertex -184.91191899999995 -8.660254037844386 0.49999999999999994
endloop
endfacet
facet normal -0.0 -0.0 1.0
outer loop
vertex -187.32372854897474 89.65925826289069 0.49999999999999994
vertex -184.91191899999995 -8.660254037844386 0.49999999999999994
vertex -184.91191899999995 88.6602540378444 0.49999999999999994
endloop
endfacet
facet normal -0.0 -0.0 1.0
outer loop
vertex -184.91191899999995 88.6602540378444 0.49999999999999994
vertex -184.91191899999995 -8.660254037844386 0.49999999999999994
vertex -182.84085118813448 -7.071067811865476 0.49999999999999994
endloop
endfacet
facet normal -0.0 -0.0 1.0
outer loop
vertex -184.91191899999995 88.6602540378444 0.49999999999999994
vertex -182.84085118813448 -7.071067811865476 0.49999999999999994
vertex -182.84085118813445 87.07106781186548 0.49999999999999994
endloop
endfacet
facet normal -0.0 -0.0 1.0
outer loop
vertex -182.84085118813445 87.07106781186548 0.49999999999999994
vertex -182.84085118813448 -7.071067811865476 0.49999999999999994
vertex -181.25166496215556 -5.0 0.49999999999999994
endloop
endfacet
facet normal -0.0 -0.0 1.0
outer loop
vertex -182.84085118813445 87.07106781186548 0.49999999999999994
vertex -181.25166496215556 -5.0 0.49999999999999994
vertex -181.25166496215556 85.0 0.49999999999999994
endloop
endfacet
facet normal -0.0 -0.0 1.0
outer loop
vertex -181.25166496215556 85.0 0.49999999999999994
vertex -181.25166496215556 -5.0 0.49999999999999994
vertex -180.25266073710924 -2.5881904510252065 0.49999999999999994
endloop
endfacet
facet normal -0.0 -0.0 1.0
outer loop
vertex -181.25166496215556 85.0 0.49999999999999994
vertex -180.25266073710924 -2.5881904510252065 0.49999999999999994
vertex -180.25266073710924 82.58819045102521 0.49999999999999994
endloop
endfacet
facet normal -0.0 -0.0 1.0
outer loop
vertex -180.25266073710924 82.58819045102521 0.49999999999999994
vertex -180.25266073710924 -2.5881904510252065 0.49999999999999994
vertex -179.91191899999993 1.4099832412739487e-15 0.49999999999999994
endloop
endfacet
facet normal -0.0 -0.0 1.0
outer loop
vertex -180.25266073710924 82.58819045102521 0.49999999999999994
vertex -179.91191899999993 1.4099832412739487e-15 0.49999999999999994
vertex -179.91191899999993 80.00000000000001 0.49999999999999994
endloop
endfacet
facet normal -0.0 -0.0 1.0
outer loop
vertex -179.91191899999993 80.00000000000001 0.49999999999999994
vertex -179.91191899999993 1.4099832412739487e-15 0.49999999999999994
vertex -179.91191899999993 30.0 0.49999999999999994
endloop
endfacet
facet normal -0.0 -0.0 1.0
outer loop
vertex -179.91191899999993 80.00000000000001 0.49999999999999994
vertex -179.91191899999993 30.0 0.49999999999999994
vertex -179.91191899999993 50.00000000000001 0.49999999999999994
endloop
endfacet
facet normal -0.0 -0.0 1.0
outer loop
vertex -239.57117724682104 37.41180948900222 0.49999999999999994
vertex -239.57117728538807 42.58819036706361 0.49999999999999994
vertex -239.91191899999993 39.999999925494194 0.49999999999999994
endloop
endfacet
facet normal -0.0 -0.0 1.0
outer loop
vertex -239.57117728538807 42.58819036706361 0.49999999999999994
vertex -239.57117724682104 37.41180948900222 0.49999999999999994
vertex -238.57217308751487 44.999999913968104 0.49999999999999994
endloop
endfacet
facet normal -0.0 -0.0 1.0
outer loop
vertex -238.57217308751487 44.999999913968104 0.49999999999999994
vertex -239.57117724682104 37.41180948900222 0.49999999999999994
vertex -238.57217301300904 34.999999956984055 0.49999999999999994
endloop
endfacet
facet normal -0.0 -0.0 1.0
outer loop
vertex -238.57217308751487 44.999999913968104 0.49999999999999994
vertex -238.57217301300904 34.999999956984055 0.49999999999999994
vertex -236.98298689089074 47.07106773284013 0.49999999999999994
endloop
endfacet
facet normal -0.0 -0.0 1.0
outer loop
vertex -236.98298689089074 47.07106773284013 0.49999999999999994
vertex -238.57217301300904 34.999999956984055 0.49999999999999994
vertex -236.98298678552362 32.928932161792744 0.49999999999999994
endloop
endfacet
facet normal -0.0 -0.0 1.0
outer loop
vertex -236.98298689089074 47.07106773284013 0.49999999999999994
vertex -236.98298678552362 32.928932161792744 0.49999999999999994
vertex -234.9119191075398 48.66025397575622 0.49999999999999994
endloop
endfacet
facet normal -0.0 -0.0 1.0
outer loop
vertex -234.9119191075398 48.66025397575622 0.49999999999999994
vertex -236.98298678552362 32.928932161792744 0.49999999999999994
vertex -234.91191897849194 31.33974594973798 0.49999999999999994
endloop
endfacet
facet normal -0.0 -0.0 1.0
outer loop
vertex -234.9119191075398 48.66025397575622 0.49999999999999994
vertex -234.91191897849194 31.33974594973798 0.49999999999999994
vertex -232.5001095829648 49.659258227537556 0.49999999999999994
endloop
endfacet
facet normal -0.0 -0.0 1.0
outer loop
vertex -232.5001095829648 49.659258227537556 0.49999999999999994
vertex -234.91191897849194 31.33974594973798 0.49999999999999994
vertex -232.50010943903064 30.3407417338954 0.49999999999999994
endloop
endfacet
facet normal -0.0 -0.0 1.0
outer loop
vertex -232.5001095829648 49.659258227537556 0.49999999999999994
vertex -232.50010943903064 30.3407417338954 0.49999999999999994
vertex -229.91191899999995 50.00000000000001 0.49999999999999994
endloop
endfacet
facet normal -0.0 -0.0 1.0
outer loop
vertex -229.91191899999995 50.00000000000001 0.49999999999999994
vertex -232.50010943903064 30.3407417338954 0.49999999999999994
vertex -229.91191899999995 30.0 0.49999999999999994
endloop
endfacet
facet normal -0.0 -0.0 1.0
outer loop
vertex -229.91191899999995 50.00000000000001 0.49999999999999994
vertex -229.91191899999995 30.0 0.49999999999999994
vertex -199.91191899999993 30.0 0.49999999999999994
endloop
endfacet
facet normal -0.0 -0.0 1.0
outer loop
vertex -229.91191899999995 50.00000000000001 0.49999999999999994
vertex -199.91191899999993 30.0 0.49999999999999994
vertex -199.91191899999993 50.00000000000001 0.49999999999999994
endloop
endfacet
facet normal 1.0 0.0 0.0
outer loop
vertex -179.91191899999993 30.0 0.0
vertex -179.91191899999993 1.4099832412739487e-15 0.49999999999999994
vertex -179.91191899999993 1.4099832412739487e-15 0.0
endloop
endfacet
facet normal 1.0 0.0 0.0
outer loop
vertex -179.91191899999993 1.4099832412739487e-15 0.49999999999999994
vertex -179.91191899999993 30.0 0.0
vertex -179.91191899999993 30.0 0.49999999999999994
endloop
endfacet
facet normal -2.85155516660701e-16 -1.0 0.0
outer loop
vertex -189.91191899999993 -9.999999999999998 0.49999999999999994
vertex -192.50010945102514 -9.659258262890681 0.0
vertex -189.91191899999993 -9.999999999999998 0.0
endloop
endfacet
facet normal -0.2588190451025216 -0.9659258262890681 0.0
outer loop
vertex -192.50010945102514 -9.659258262890681 0.0
vertex -189.91191899999993 -9.999999999999998 0.49999999999999994
vertex -192.50010945102514 -9.659258262890681 0.49999999999999994
endloop
endfacet
facet normal -0.2588190451025216 -0.9659258262890681 0.0
outer loop
vertex -192.50010945102514 -9.659258262890681 0.49999999999999994
vertex -194.91191899999993 -8.660254037844384 0.0
vertex -192.50010945102514 -9.659258262890681 0.0
endloop
endfacet
facet normal -0.5 -0.8660254037844386 0.0
outer loop
vertex -194.91191899999993 -8.660254037844384 0.0
vertex -192.50010945102514 -9.659258262890681 0.49999999999999994
vertex -194.91191899999993 -8.660254037844384 0.49999999999999994
endloop
endfacet
facet normal -0.8660254037844389 -0.49999999999999956 0.0
outer loop
vertex -198.57217303784432 -4.999999999999997 0.49999999999999994
vertex -196.9829868118654 -7.071067811865473 0.0
vertex -196.9829868118654 -7.071067811865473 0.49999999999999994
endloop
endfacet
facet normal -0.7071067811865474 -0.7071067811865479 0.0
outer loop
vertex -196.9829868118654 -7.071067811865473 0.0
vertex -198.57217303784432 -4.999999999999997 0.49999999999999994
vertex -198.57217303784432 -4.999999999999997 0.0
endloop
endfacet
facet normal -0.965925826289069 -0.2588190451025186 0.0
outer loop
vertex -199.57117726289061 -2.588190451025205 0.49999999999999994
vertex -198.57217303784432 -4.999999999999997 0.0
vertex -198.57217303784432 -4.999999999999997 0.49999999999999994
endloop
endfacet
facet normal -0.8660254037844389 -0.49999999999999956 0.0
outer loop
vertex -198.57217303784432 -4.999999999999997 0.0
vertex -199.57117726289061 -2.588190451025205 0.49999999999999994
vertex -199.57117726289061 -2.588190451025205 0.0
endloop
endfacet
facet normal -0.0 -1.0 -0.0
outer loop
vertex -199.91191899999993 30.0 0.49999999999999994
vertex -229.91191899999995 30.0 0.0
vertex -199.91191899999993 30.0 0.0
endloop
endfacet
facet normal -0.0 -1.0 -0.0
outer loop
vertex -229.91191899999995 30.0 0.0
vertex -199.91191899999993 30.0 0.49999999999999994
vertex -229.91191899999995 30.0 0.49999999999999994
endloop
endfacet
facet normal 0.4999999999999999 -0.8660254037844388 0.0
outer loop
vertex -184.91191899999995 -8.660254037844386 0.49999999999999994
vertex -187.32372854897474 -9.659258262890683 0.0
vertex -184.91191899999995 -8.660254037844386 0.0
endloop
endfacet
facet normal 0.2588190451025211 -0.9659258262890682 0.0
outer loop
vertex -187.32372854897474 -9.659258262890683 0.0
vertex -184.91191899999995 -8.660254037844386 0.49999999999999994
vertex -187.32372854897474 -9.659258262890683 0.49999999999999994
endloop
endfacet
facet normal -1.0 0.0 0.0
outer loop
vertex -199.91191899999993 30.0 0.49999999999999994
vertex -199.91191899999993 1.4099832412739487e-15 0.0
vertex -199.91191899999993 1.4099832412739487e-15 0.49999999999999994
endloop
endfacet
facet normal -1.0 0.0 0.0
outer loop
vertex -199.91191899999993 1.4099832412739487e-15 0.0
vertex -199.91191899999993 30.0 0.49999999999999994
vertex -199.91191899999993 30.0 0.0
endloop
endfacet
facet normal -0.1305261916044814 -0.9914448614548517 -0.0
outer loop
vertex -229.91191899999995 30.0 0.49999999999999994
vertex -232.50010943903064 30.3407417338954 0.0
vertex -229.91191899999995 30.0 0.0
endloop
endfacet
facet normal -0.2588190439030718 -0.9659258266104597 0.0
outer loop
vertex -232.50010943903064 30.3407417338954 0.0
vertex -229.91191899999995 30.0 0.49999999999999994
vertex -232.50010943903064 30.3407417338954 0.49999999999999994
endloop
endfacet
facet normal -0.9914448613738109 -0.13052619222004755 -0.0
outer loop
vertex -199.91191899999993 1.4099832412739487e-15 0.49999999999999994
vertex -199.57117726289061 -2.588190451025205 0.0
vertex -199.57117726289061 -2.588190451025205 0.49999999999999994
endloop
endfacet
facet normal -0.965925826289069 -0.2588190451025186 0.0
outer loop
vertex -199.57117726289061 -2.588190451025205 0.0
vertex -199.91191899999993 1.4099832412739487e-15 0.49999999999999994
vertex -199.91191899999993 1.4099832412739487e-15 0.0
endloop
endfacet
facet normal 0.9914448613738109 -0.13052619222004747 0.0
outer loop
vertex -179.91191899999993 1.4099832412739487e-15 0.0
vertex -180.25266073710924 -2.5881904510252065 0.49999999999999994
vertex -180.25266073710924 -2.5881904510252065 0.0
endloop
endfacet
facet normal 0.9659258262890679 -0.2588190451025223 0.0
outer loop
vertex -180.25266073710924 -2.5881904510252065 0.49999999999999994
vertex -179.91191899999993 1.4099832412739487e-15 0.0
vertex -179.91191899999993 1.4099832412739487e-15 0.49999999999999994
endloop
endfacet
facet normal 0.7071067811865474 -0.7071067811865479 0.0
outer loop
vertex -182.84085118813448 -7.071067811865476 0.49999999999999994
vertex -184.91191899999995 -8.660254037844386 0.0
vertex -182.84085118813448 -7.071067811865476 0.0
endloop
endfacet
facet normal 0.4999999999999999 -0.8660254037844388 0.0
outer loop
vertex -184.91191899999995 -8.660254037844386 0.0
vertex -182.84085118813448 -7.071067811865476 0.49999999999999994
vertex -184.91191899999995 -8.660254037844386 0.49999999999999994
endloop
endfacet
facet normal 0.9659258262890679 -0.2588190451025223 0.0
outer loop
vertex -180.25266073710924 -2.5881904510252065 0.0
vertex -181.25166496215556 -5.0 0.49999999999999994
vertex -181.25166496215556 -5.0 0.0
endloop
endfacet
facet normal 0.866025403784437 -0.500000000000003 0.0
outer loop
vertex -181.25166496215556 -5.0 0.49999999999999994
vertex -180.25266073710924 -2.5881904510252065 0.0
vertex -180.25266073710924 -2.5881904510252065 0.49999999999999994
endloop
endfacet
facet normal 0.866025403784437 -0.500000000000003 0.0
outer loop
vertex -181.25166496215556 -5.0 0.0
vertex -182.84085118813448 -7.071067811865476 0.49999999999999994
vertex -182.84085118813448 -7.071067811865476 0.0
endloop
endfacet
facet normal 0.7071067811865474 -0.7071067811865479 0.0
outer loop
vertex -182.84085118813448 -7.071067811865476 0.49999999999999994
vertex -181.25166496215556 -5.0 0.0
vertex -181.25166496215556 -5.0 0.49999999999999994
endloop
endfacet
facet normal -0.2588190439030718 -0.9659258266104597 0.0
outer loop
vertex -232.50010943903064 30.3407417338954 0.49999999999999994
vertex -234.91191897849194 31.33974594973798 0.0
vertex -232.50010943903064 30.3407417338954 0.0
endloop
endfacet
facet normal -0.49999999784920385 -0.8660254050262014 0.0
outer loop
vertex -234.91191897849194 31.33974594973798 0.0
vertex -232.50010943903064 30.3407417338954 0.49999999999999994
vertex -234.91191897849194 31.33974594973798 0.49999999999999994
endloop
endfacet
facet normal -0.8660254013009091 -0.5000000043015993 0.0
outer loop
vertex -238.57217301300904 34.999999956984055 0.49999999999999994
vertex -236.98298678552362 32.928932161792744 0.0
vertex -236.98298678552362 32.928932161792744 0.49999999999999994
endloop
endfacet
facet normal -0.7071067785523686 -0.7071067838207267 0.0
outer loop
vertex -236.98298678552362 32.928932161792744 0.0
vertex -238.57217301300904 34.999999956984055 0.49999999999999994
vertex -238.57217301300904 34.999999956984055 0.0
endloop
endfacet
facet normal -0.5 -0.8660254037844386 0.0
outer loop
vertex -194.91191899999993 -8.660254037844384 0.49999999999999994
vertex -196.9829868118654 -7.071067811865473 0.0
vertex -194.91191899999993 -8.660254037844384 0.0
endloop
endfacet
facet normal -0.7071067811865474 -0.7071067811865479 0.0
outer loop
vertex -196.9829868118654 -7.071067811865473 0.0
vertex -194.91191899999993 -8.660254037844384 0.49999999999999994
vertex -196.9829868118654 -7.071067811865473 0.49999999999999994
endloop
endfacet
facet normal -0.49999999784920385 -0.8660254050262014 0.0
outer loop
vertex -234.91191897849194 31.33974594973798 0.49999999999999994
vertex -236.98298678552362 32.928932161792744 0.0
vertex -234.91191897849194 31.33974594973798 0.0
endloop
endfacet
facet normal -0.7071067785523686 -0.7071067838207267 0.0
outer loop
vertex -236.98298678552362 32.928932161792744 0.0
vertex -234.91191897849194 31.33974594973798 0.49999999999999994
vertex -236.98298678552362 32.928932161792744 0.49999999999999994
endloop
endfacet
facet normal -0.9659258246821079 -0.25881905109977843 0.0
outer loop
vertex -239.57117724682104 37.41180948900222 0.49999999999999994
vertex -238.57217301300904 34.999999956984055 0.0
vertex -238.57217301300904 34.999999956984055 0.49999999999999994
endloop
endfacet
facet normal -0.8660254013009091 -0.5000000043015993 0.0
outer loop
vertex -238.57217301300904 34.999999956984055 0.0
vertex -239.57117724682104 37.41180948900222 0.49999999999999994
vertex -239.57117724682104 37.41180948900222 0.0
endloop
endfacet
facet normal 0.2588190451025211 -0.9659258262890682 0.0
outer loop
vertex -187.32372854897474 -9.659258262890683 0.49999999999999994
vertex -189.91191899999993 -9.999999999999998 0.0
vertex -187.32372854897474 -9.659258262890683 0.0
endloop
endfacet
facet normal -2.85155516660701e-16 -1.0 0.0
outer loop
vertex -189.91191899999993 -9.999999999999998 0.0
vertex -187.32372854897474 -9.659258262890683 0.49999999999999994
vertex -189.91191899999993 -9.999999999999998 0.49999999999999994
endloop
endfacet
facet normal -0.0 1.0 0.0
outer loop
vertex -229.91191899999995 50.00000000000001 0.49999999999999994
vertex -199.91191899999993 50.00000000000001 0.0
vertex -229.91191899999995 50.00000000000001 0.0
endloop
endfacet
facet normal -0.0 1.0 0.0
outer loop
vertex -199.91191899999993 50.00000000000001 0.0
vertex -229.91191899999995 50.00000000000001 0.49999999999999994
vertex -199.91191899999993 50.00000000000001 0.49999999999999994
endloop
endfacet
facet normal -0.8660254037844389 0.4999999999999997 0.0
outer loop
vertex -198.57217303784432 85.0 0.49999999999999994
vertex -199.57117726289061 82.58819045102521 0.0
vertex -199.57117726289061 82.58819045102521 0.49999999999999994
endloop
endfacet
facet normal -0.9659258262890689 0.2588190451025191 0.0
outer loop
vertex -199.57117726289061 82.58819045102521 0.0
vertex -198.57217303784432 85.0 0.49999999999999994
vertex -198.57217303784432 85.0 0.0
endloop
endfacet
facet normal -1.0 -7.450578983141356e-09 0.0
outer loop
vertex -239.91191899999993 39.999999925494194 0.49999999999999994
vertex -239.57117724682104 37.41180948900222 0.0
vertex -239.57117724682104 37.41180948900222 0.49999999999999994
endloop
endfacet
facet normal -0.9659258246821079 -0.25881905109977843 0.0
outer loop
vertex -239.57117724682104 37.41180948900222 0.0
vertex -239.91191899999993 39.999999925494194 0.49999999999999994
vertex -239.91191899999993 39.999999925494194 0.0
endloop
endfacet
facet normal -1.0 0.0 0.0
outer loop
vertex -199.91191899999993 80.00000000000001 0.49999999999999994
vertex -199.91191899999993 50.00000000000001 0.0
vertex -199.91191899999993 50.00000000000001 0.49999999999999994
endloop
endfacet
facet normal -1.0 0.0 0.0
outer loop
vertex -199.91191899999993 50.00000000000001 0.0
vertex -199.91191899999993 80.00000000000001 0.49999999999999994
vertex -199.91191899999993 80.00000000000001 0.0
endloop
endfacet
facet normal -0.2588190451025191 0.9659258262890689 0.0
outer loop
vertex -192.50010945102514 89.65925826289069 0.49999999999999994
vertex -189.91191899999993 90.0 0.0
vertex -192.50010945102514 89.65925826289069 0.0
endloop
endfacet
facet normal 0.0 1.0 0.0
outer loop
vertex -189.91191899999993 90.0 0.0
vertex -192.50010945102514 89.65925826289069 0.49999999999999994
vertex -189.91191899999993 90.0 0.49999999999999994
endloop
endfacet
facet normal 0.0 1.0 0.0
outer loop
vertex -189.91191899999993 90.0 0.49999999999999994
vertex -187.32372854897474 89.65925826289069 0.0
vertex -189.91191899999993 90.0 0.0
endloop
endfacet
facet normal 0.2588190451025191 0.9659258262890689 0.0
outer loop
vertex -187.32372854897474 89.65925826289069 0.0
vertex -189.91191899999993 90.0 0.49999999999999994
vertex -187.32372854897474 89.65925826289069 0.49999999999999994
endloop
endfacet
facet normal 0.2588190451025191 0.9659258262890689 0.0
outer loop
vertex -187.32372854897474 89.65925826289069 0.49999999999999994
vertex -184.91191899999995 88.6602540378444 0.0
vertex -187.32372854897474 89.65925826289069 0.0
endloop
endfacet
facet normal 0.49999999999999734 0.86602540378444 0.0
outer loop
vertex -184.91191899999995 88.6602540378444 0.0
vertex -187.32372854897474 89.65925826289069 0.49999999999999994
vertex -184.91191899999995 88.6602540378444 0.49999999999999994
endloop
endfacet
facet normal -0.7071067890890813 0.7071067732840137 0.0
outer loop
vertex -236.98298689089074 47.07106773284013 0.49999999999999994
vertex -238.57217308751487 44.999999913968104 0.0
vertex -238.57217308751487 44.999999913968104 0.49999999999999994
endloop
endfacet
facet normal -0.8660254087514903 0.4999999913968143 0.0
outer loop
vertex -238.57217308751487 44.999999913968104 0.0
vertex -236.98298689089074 47.07106773284013 0.49999999999999994
vertex -236.98298689089074 47.07106773284013 0.0
endloop
endfacet
facet normal -0.7071067811865475 0.7071067811865475 0.0
outer loop
vertex -196.9829868118654 87.07106781186548 0.49999999999999994
vertex -198.57217303784432 85.0 0.0
vertex -198.57217303784432 85.0 0.49999999999999994
endloop
endfacet
facet normal -0.8660254037844389 0.4999999999999997 0.0
outer loop
vertex -198.57217303784432 85.0 0.0
vertex -196.9829868118654 87.07106781186548 0.49999999999999994
vertex -196.9829868118654 87.07106781186548 0.0
endloop
endfacet
facet normal 0.707106781186548 0.7071067811865469 0.0
outer loop
vertex -182.84085118813445 87.07106781186548 0.0
vertex -181.25166496215556 85.0 0.49999999999999994
vertex -181.25166496215556 85.0 0.0
endloop
endfacet
facet normal 0.8660254037844386 0.5 0.0
outer loop
vertex -181.25166496215556 85.0 0.49999999999999994
vertex -182.84085118813445 87.07106781186548 0.0
vertex -182.84085118813445 87.07106781186548 0.49999999999999994
endloop
endfacet
facet normal -0.9659258285388127 0.25881903670636064 0.0
outer loop
vertex -239.57117728538807 42.58819036706361 0.49999999999999994
vertex -239.91191899999993 39.999999925494194 0.0
vertex -239.91191899999993 39.999999925494194 0.49999999999999994
endloop
endfacet
facet normal -1.0 -7.450578983141356e-09 0.0
outer loop
vertex -239.91191899999993 39.999999925494194 0.0
vertex -239.57117728538807 42.58819036706361 0.49999999999999994
vertex -239.57117728538807 42.58819036706361 0.0
endloop
endfacet
facet normal -0.9659258262890689 0.2588190451025191 0.0
outer loop
vertex -199.57117726289061 82.58819045102521 0.49999999999999994
vertex -199.91191899999993 80.00000000000001 0.0
vertex -199.91191899999993 80.00000000000001 0.49999999999999994
endloop
endfacet
facet normal -0.9914448613738109 0.13052619222004763 0.0
outer loop
vertex -199.91191899999993 80.00000000000001 0.0
vertex -199.57117726289061 82.58819045102521 0.49999999999999994
vertex -199.57117726289061 82.58819045102521 0.0
endloop
endfacet
facet normal -0.5000000107539879 0.8660253975756207 0.0
outer loop
vertex -234.9119191075398 48.66025397575622 0.49999999999999994
vertex -232.5001095829648 49.659258227537556 0.0
vertex -234.9119191075398 48.66025397575622 0.0
endloop
endfacet
facet normal -0.25881905469813304 0.9659258237179317 0.0
outer loop
vertex -232.5001095829648 49.659258227537556 0.0
vertex -234.9119191075398 48.66025397575622 0.49999999999999994
vertex -232.5001095829648 49.659258227537556 0.49999999999999994
endloop
endfacet
facet normal -0.4999999999999997 0.8660254037844389 0.0
outer loop
vertex -194.91191899999993 88.6602540378444 0.49999999999999994
vertex -192.50010945102514 89.65925826289069 0.0
vertex -194.91191899999993 88.6602540378444 0.0
endloop
endfacet
facet normal -0.2588190451025191 0.9659258262890689 0.0
outer loop
vertex -192.50010945102514 89.65925826289069 0.0
vertex -194.91191899999993 88.6602540378444 0.49999999999999994
vertex -192.50010945102514 89.65925826289069 0.49999999999999994
endloop
endfacet
facet normal 0.49999999999999734 0.86602540378444 0.0
outer loop
vertex -184.91191899999995 88.6602540378444 0.49999999999999994
vertex -182.84085118813445 87.07106781186548 0.0
vertex -184.91191899999995 88.6602540378444 0.0
endloop
endfacet
facet normal 0.707106781186548 0.7071067811865469 0.0
outer loop
vertex -182.84085118813445 87.07106781186548 0.0
vertex -184.91191899999995 88.6602540378444 0.49999999999999994
vertex -182.84085118813445 87.07106781186548 0.49999999999999994
endloop
endfacet
facet normal 0.8660254037844386 0.5 0.0
outer loop
vertex -181.25166496215556 85.0 0.0
vertex -180.25266073710924 82.58819045102521 0.49999999999999994
vertex -180.25266073710924 82.58819045102521 0.0
endloop
endfacet
facet normal 0.9659258262890678 0.25881904510252296 0.0
outer loop
vertex -180.25266073710924 82.58819045102521 0.49999999999999994
vertex -181.25166496215556 85.0 0.0
vertex -181.25166496215556 85.0 0.49999999999999994
endloop
endfacet
facet normal 1.0 0.0 0.0
outer loop
vertex -179.91191899999993 80.00000000000001 0.0
vertex -179.91191899999993 50.00000000000001 0.49999999999999994
vertex -179.91191899999993 50.00000000000001 0.0
endloop
endfacet
facet normal 1.0 0.0 0.0
outer loop
vertex -179.91191899999993 50.00000000000001 0.49999999999999994
vertex -179.91191899999993 80.00000000000001 0.0
vertex -179.91191899999993 80.00000000000001 0.49999999999999994
endloop
endfacet
facet normal 0.1305261916044835 0.9914448614548514 0.0
outer loop
vertex -149.91191899999993 50.00000000000001 0.49999999999999994
vertex -147.32372856096924 49.6592582661046 0.0
vertex -149.91191899999993 50.00000000000001 0.0
endloop
endfacet
facet normal 0.2588190439030703 0.9659258266104601 0.0
outer loop
vertex -147.32372856096924 49.6592582661046 0.0
vertex -149.91191899999993 50.00000000000001 0.49999999999999994
vertex -147.32372856096924 49.6592582661046 0.49999999999999994
endloop
endfacet
facet normal 0.2588190439030703 0.9659258266104601 0.0
outer loop
vertex -147.32372856096924 49.6592582661046 0.49999999999999994
vertex -144.9119190215079 48.660254050262026 0.0
vertex -147.32372856096924 49.6592582661046 0.0
endloop
endfacet
facet normal 0.49999999784920157 0.8660254050262027 0.0
outer loop
vertex -144.9119190215079 48.660254050262026 0.0
vertex -147.32372856096924 49.6592582661046 0.49999999999999994
vertex -144.9119190215079 48.660254050262026 0.49999999999999994
endloop
endfacet
facet normal 0.49999999784920157 0.8660254050262027 0.0
outer loop
vertex -144.9119190215079 48.660254050262026 0.49999999999999994
vertex -142.84085121447623 47.07106783820726 0.0
vertex -144.9119190215079 48.660254050262026 0.0
endloop
endfacet
facet normal 0.707106778552371 0.7071067838207242 0.0
outer loop
vertex -142.84085121447623 47.07106783820726 0.0
vertex -144.9119190215079 48.660254050262026 0.49999999999999994
vertex -142.84085121447623 47.07106783820726 0.49999999999999994
endloop
endfacet
facet normal 0.707106778552371 0.7071067838207242 0.0
outer loop
vertex -142.84085121447623 47.07106783820726 0.0
vertex -141.25166498699082 45.00000004301595 0.49999999999999994
vertex -141.25166498699082 45.00000004301595 0.0
endloop
endfacet
facet normal 0.8660254013009129 0.500000004301593 0.0
outer loop
vertex -141.25166498699082 45.00000004301595 0.49999999999999994
vertex -142.84085121447623 47.07106783820726 0.0
vertex -142.84085121447623 47.07106783820726 0.49999999999999994
endloop
endfacet
facet normal -0.7071067890890813 0.7071067732840137 0.0
outer loop
vertex -236.98298689089074 47.07106773284013 0.49999999999999994
vertex -234.9119191075398 48.66025397575622 0.0
vertex -236.98298689089074 47.07106773284013 0.0
endloop
endfacet
facet normal -0.5000000107539879 0.8660253975756207 0.0
outer loop
vertex -234.9119191075398 48.66025397575622 0.0
vertex -236.98298689089074 47.07106773284013 0.49999999999999994
vertex -234.9119191075398 48.66025397575622 0.49999999999999994
endloop
endfacet
facet normal -0.7071067811865475 0.7071067811865475 0.0
outer loop
vertex -196.9829868118654 87.07106781186548 0.49999999999999994
vertex -194.91191899999993 88.6602540378444 0.0
vertex -196.9829868118654 87.07106781186548 0.0
endloop
endfacet
facet normal -0.4999999999999997 0.8660254037844389 0.0
outer loop
vertex -194.91191899999993 88.6602540378444 0.0
vertex -196.9829868118654 87.07106781186548 0.49999999999999994
vertex -194.91191899999993 88.6602540378444 0.49999999999999994
endloop
endfacet
facet normal 0.9659258262890678 0.25881904510252296 0.0
outer loop
vertex -180.25266073710924 82.58819045102521 0.0
vertex -179.91191899999993 80.00000000000001 0.49999999999999994
vertex -179.91191899999993 80.00000000000001 0.0
endloop
endfacet
facet normal 0.9914448613738109 0.13052619222004763 0.0
outer loop
vertex -179.91191899999993 80.00000000000001 0.49999999999999994
vertex -180.25266073710924 82.58819045102521 0.0
vertex -180.25266073710924 82.58819045102521 0.49999999999999994
endloop
endfacet
facet normal 0.8660254013009129 0.500000004301593 0.0
outer loop
vertex -141.25166498699082 45.00000004301595 0.0
vertex -140.25266075317887 42.588190510997784 0.49999999999999994
vertex -140.25266075317887 42.588190510997784 0.0
endloop
endfacet
facet normal 0.965925824682108 0.25881905109977865 0.0
outer loop
vertex -140.25266075317887 42.588190510997784 0.49999999999999994
vertex -141.25166498699082 45.00000004301595 0.0
vertex -141.25166498699082 45.00000004301595 0.49999999999999994
endloop
endfacet
facet normal 0.965925824682108 0.25881905109977865 0.0
outer loop
vertex -140.25266075317887 42.588190510997784 0.0
vertex -139.91191899999993 40.000000074505806 0.49999999999999994
vertex -139.91191899999993 40.000000074505806 0.0
endloop
endfacet
facet normal 1.0 7.450582984229703e-09 0.0
outer loop
vertex -139.91191899999993 40.000000074505806 0.49999999999999994
vertex -140.25266075317887 42.588190510997784 0.0
vertex -140.25266075317887 42.588190510997784 0.49999999999999994
endloop
endfacet
facet normal 1.0 7.450582984229703e-09 0.0
outer loop
vertex -139.91191899999993 40.000000074505806 0.0
vertex -140.2526607146118 37.41180963293639 0.49999999999999994
vertex -140.2526607146118 37.41180963293639 0.0
endloop
endfacet
facet normal 0.9659258285388127 -0.2588190367063603 0.0
outer loop
vertex -140.2526607146118 37.41180963293639 0.49999999999999994
vertex -139.91191899999993 40.000000074505806 0.0
vertex -139.91191899999993 40.000000074505806 0.49999999999999994
endloop
endfacet
facet normal 0.9659258285388127 -0.2588190367063603 0.0
outer loop
vertex -140.2526607146118 37.41180963293639 0.0
vertex -141.251664912485 35.000000086031896 0.49999999999999994
vertex -141.251664912485 35.000000086031896 0.0
endloop
endfacet
facet normal 0.8660254087514904 -0.4999999913968137 0.0
outer loop
vertex -141.251664912485 35.000000086031896 0.49999999999999994
vertex -140.2526607146118 37.41180963293639 0.0
vertex -140.2526607146118 37.41180963293639 0.49999999999999994
endloop
endfacet
facet normal 0.8660254087514904 -0.4999999913968137 0.0
outer loop
vertex -141.251664912485 35.000000086031896 0.0
vertex -142.84085110910914 32.92893226715987 0.49999999999999994
vertex -142.84085110910914 32.92893226715987 0.0
endloop
endfacet
facet normal 0.7071067890890824 -0.7071067732840125 0.0
outer loop
vertex -142.84085110910914 32.92893226715987 0.49999999999999994
vertex -141.251664912485 35.000000086031896 0.0
vertex -141.251664912485 35.000000086031896 0.49999999999999994
endloop
endfacet
facet normal -0.0 1.0 0.0
outer loop
vertex -179.91191899999993 50.00000000000001 0.49999999999999994
vertex -149.91191899999993 50.00000000000001 0.0
vertex -179.91191899999993 50.00000000000001 0.0
endloop
endfacet
facet normal -0.0 1.0 0.0
outer loop
vertex -149.91191899999993 50.00000000000001 0.0
vertex -179.91191899999993 50.00000000000001 0.49999999999999994
vertex -149.91191899999993 50.00000000000001 0.49999999999999994
endloop
endfacet
facet normal -0.8660254087514903 0.4999999913968143 0.0
outer loop
vertex -238.57217308751487 44.999999913968104 0.49999999999999994
vertex -239.57117728538807 42.58819036706361 0.0
vertex -239.57117728538807 42.58819036706361 0.49999999999999994
endloop
endfacet
facet normal -0.9659258285388127 0.25881903670636064 0.0
outer loop
vertex -239.57117728538807 42.58819036706361 0.0
vertex -238.57217308751487 44.999999913968104 0.49999999999999994
vertex -238.57217308751487 44.999999913968104 0.0
endloop
endfacet
facet normal -0.25881905469813304 0.9659258237179317 0.0
outer loop
vertex -232.5001095829648 49.659258227537556 0.49999999999999994
vertex -229.91191899999995 50.00000000000001 0.0
vertex -232.5001095829648 49.659258227537556 0.0
endloop
endfacet
facet normal -0.13052619899132448 0.9914448604823555 0.0
outer loop
vertex -229.91191899999995 50.00000000000001 0.0
vertex -232.5001095829648 49.659258227537556 0.49999999999999994
vertex -229.91191899999995 50.00000000000001 0.49999999999999994
endloop
endfacet
facet normal 0.7071067890890824 -0.7071067732840125 0.0
outer loop
vertex -142.84085110910914 32.92893226715987 0.49999999999999994
vertex -144.91191889246005 31.339746024243787 0.0
vertex -142.84085110910914 32.92893226715987 0.0
endloop
endfacet
facet normal 0.500000010753989 -0.8660253975756202 0.0
outer loop
vertex -144.91191889246005 31.339746024243787 0.0
vertex -142.84085110910914 32.92893226715987 0.49999999999999994
vertex -144.91191889246005 31.339746024243787 0.49999999999999994
endloop
endfacet
facet normal 0.25881905469813143 -0.9659258237179321 0.0
outer loop
vertex -147.32372841703508 30.340741772462444 0.49999999999999994
vertex -149.91191899999993 30.0 0.0
vertex -147.32372841703508 30.340741772462444 0.0
endloop
endfacet
facet normal 0.13052619899132234 -0.9914448604823557 0.0
outer loop
vertex -149.91191899999993 30.0 0.0
vertex -147.32372841703508 30.340741772462444 0.49999999999999994
vertex -149.91191899999993 30.0 0.49999999999999994
endloop
endfacet
facet normal -0.0 -1.0 -0.0
outer loop
vertex -149.91191899999993 30.0 0.49999999999999994
vertex -179.91191899999993 30.0 0.0
vertex -149.91191899999993 30.0 0.0
endloop
endfacet
facet normal -0.0 -1.0 -0.0
outer loop
vertex -179.91191899999993 30.0 0.0
vertex -149.91191899999993 30.0 0.49999999999999994
vertex -179.91191899999993 30.0 0.49999999999999994
endloop
endfacet
facet normal 0.500000010753989 -0.8660253975756202 0.0
outer loop
vertex -144.91191889246005 31.339746024243787 0.49999999999999994
vertex -147.32372841703508 30.340741772462444 0.0
vertex -144.91191889246005 31.339746024243787 0.0
endloop
endfacet
facet normal 0.25881905469813143 -0.9659258237179321 0.0
outer loop
vertex -147.32372841703508 30.340741772462444 0.0
vertex -144.91191889246005 31.339746024243787 0.49999999999999994
vertex -147.32372841703508 30.340741772462444 0.49999999999999994
endloop
endfacet
facet normal 0.0 0.0 -1.0
outer loop
vertex -149.91191899999993 50.00000000000001 0.0
vertex -179.91191899999993 30.0 0.0
vertex -179.91191899999993 50.00000000000001 0.0
endloop
endfacet
facet normal 0.0 0.0 -1.0
outer loop
vertex -179.91191899999993 30.0 0.0
vertex -149.91191899999993 50.00000000000001 0.0
vertex -149.91191899999993 30.0 0.0
endloop
endfacet
facet normal 0.0 0.0 -1.0
outer loop
vertex -149.91191899999993 30.0 0.0
vertex -149.91191899999993 50.00000000000001 0.0
vertex -147.32372856096924 49.6592582661046 0.0
endloop
endfacet
facet normal 0.0 0.0 -1.0
outer loop
vertex -149.91191899999993 30.0 0.0
vertex -147.32372856096924 49.6592582661046 0.0
vertex -147.32372841703508 30.340741772462444 0.0
endloop
endfacet
facet normal 0.0 0.0 -1.0
outer loop
vertex -147.32372841703508 30.340741772462444 0.0
vertex -147.32372856096924 49.6592582661046 0.0
vertex -144.9119190215079 48.660254050262026 0.0
endloop
endfacet
facet normal 0.0 0.0 -1.0
outer loop
vertex -147.32372841703508 30.340741772462444 0.0
vertex -144.9119190215079 48.660254050262026 0.0
vertex -144.91191889246005 31.339746024243787 0.0
endloop
endfacet
facet normal 0.0 0.0 -1.0
outer loop
vertex -144.91191889246005 31.339746024243787 0.0
vertex -144.9119190215079 48.660254050262026 0.0
vertex -142.84085121447623 47.07106783820726 0.0
endloop
endfacet
facet normal 0.0 0.0 -1.0
outer loop
vertex -144.91191889246005 31.339746024243787 0.0
vertex -142.84085121447623 47.07106783820726 0.0
vertex -142.84085110910914 32.92893226715987 0.0
endloop
endfacet
facet normal 0.0 0.0 -1.0
outer loop
vertex -142.84085110910914 32.92893226715987 0.0
vertex -142.84085121447623 47.07106783820726 0.0
vertex -141.25166498699082 45.00000004301595 0.0
endloop
endfacet
facet normal 0.0 0.0 -1.0
outer loop
vertex -142.84085110910914 32.92893226715987 0.0
vertex -141.25166498699082 45.00000004301595 0.0
vertex -141.251664912485 35.000000086031896 0.0
endloop
endfacet
facet normal 0.0 0.0 -1.0
outer loop
vertex -141.251664912485 35.000000086031896 0.0
vertex -141.25166498699082 45.00000004301595 0.0
vertex -140.25266075317887 42.588190510997784 0.0
endloop
endfacet
facet normal 0.0 0.0 -1.0
outer loop
vertex -141.251664912485 35.000000086031896 0.0
vertex -140.25266075317887 42.588190510997784 0.0
vertex -140.2526607146118 37.41180963293639 0.0
endloop
endfacet
facet normal 0.0 0.0 -1.0
outer loop
vertex -140.2526607146118 37.41180963293639 0.0
vertex -140.25266075317887 42.588190510997784 0.0
vertex -139.91191899999993 40.000000074505806 0.0
endloop
endfacet
facet normal 0.0 0.0 -1.0
outer loop
vertex -199.57117726289061 82.58819045102521 0.0
vertex -199.91191899999993 50.00000000000001 0.0
vertex -199.91191899999993 80.00000000000001 0.0
endloop
endfacet
facet normal 0.0 0.0 -1.0
outer loop
vertex -199.91191899999993 50.00000000000001 0.0
vertex -199.57117726289061 82.58819045102521 0.0
vertex -199.91191899999993 30.0 0.0
endloop
endfacet
facet normal 0.0 0.0 -1.0
outer loop
vertex -199.91191899999993 30.0 0.0
vertex -199.57117726289061 82.58819045102521 0.0
vertex -199.91191899999993 1.4099832412739487e-15 0.0
endloop
endfacet
facet normal 0.0 0.0 -1.0
outer loop
vertex -199.91191899999993 1.4099832412739487e-15 0.0
vertex -199.57117726289061 82.58819045102521 0.0
vertex -199.57117726289061 -2.588190451025205 0.0
endloop
endfacet
facet normal 0.0 0.0 -1.0
outer loop
vertex -199.57117726289061 -2.588190451025205 0.0
vertex -199.57117726289061 82.58819045102521 0.0
vertex -198.57217303784432 85.0 0.0
endloop
endfacet
facet normal 0.0 0.0 -1.0
outer loop
vertex -199.57117726289061 -2.588190451025205 0.0
vertex -198.57217303784432 85.0 0.0
vertex -198.57217303784432 -4.999999999999997 0.0
endloop
endfacet
facet normal 0.0 0.0 -1.0
outer loop
vertex -198.57217303784432 -4.999999999999997 0.0
vertex -198.57217303784432 85.0 0.0
vertex -196.9829868118654 87.07106781186548 0.0
endloop
endfacet
facet normal 0.0 0.0 -1.0
outer loop
vertex -198.57217303784432 -4.999999999999997 0.0
vertex -196.9829868118654 87.07106781186548 0.0
vertex -196.9829868118654 -7.071067811865473 0.0
endloop
endfacet
facet normal 0.0 0.0 -1.0
outer loop
vertex -196.9829868118654 -7.071067811865473 0.0
vertex -196.9829868118654 87.07106781186548 0.0
vertex -194.91191899999993 88.6602540378444 0.0
endloop
endfacet
facet normal 0.0 0.0 -1.0
outer loop
vertex -196.9829868118654 -7.071067811865473 0.0
vertex -194.91191899999993 88.6602540378444 0.0
vertex -194.91191899999993 -8.660254037844384 0.0
endloop
endfacet
facet normal 0.0 0.0 -1.0
outer loop
vertex -194.91191899999993 -8.660254037844384 0.0
vertex -194.91191899999993 88.6602540378444 0.0
vertex -192.50010945102514 89.65925826289069 0.0
endloop
endfacet
facet normal 0.0 0.0 -1.0
outer loop
vertex -194.91191899999993 -8.660254037844384 0.0
vertex -192.50010945102514 89.65925826289069 0.0
vertex -192.50010945102514 -9.659258262890681 0.0
endloop
endfacet
facet normal 0.0 0.0 -1.0
outer loop
vertex -192.50010945102514 -9.659258262890681 0.0
vertex -192.50010945102514 89.65925826289069 0.0
vertex -189.91191899999993 90.0 0.0
endloop
endfacet
facet normal 0.0 0.0 -1.0
outer loop
vertex -192.50010945102514 -9.659258262890681 0.0
vertex -189.91191899999993 90.0 0.0
vertex -189.91191899999993 -9.999999999999998 0.0
endloop
endfacet
facet normal 0.0 0.0 -1.0
outer loop
vertex -189.91191899999993 -9.999999999999998 0.0
vertex -189.91191899999993 90.0 0.0
vertex -187.32372854897474 89.65925826289069 0.0
endloop
endfacet
facet normal 0.0 0.0 -1.0
outer loop
vertex -189.91191899999993 -9.999999999999998 0.0
vertex -187.32372854897474 89.65925826289069 0.0
vertex -187.32372854897474 -9.659258262890683 0.0
endloop
endfacet
facet normal 0.0 0.0 -1.0
outer loop
vertex -187.32372854897474 -9.659258262890683 0.0
vertex -187.32372854897474 89.65925826289069 0.0
vertex -184.91191899999995 88.6602540378444 0.0
endloop
endfacet
facet normal 0.0 0.0 -1.0
outer loop
vertex -187.32372854897474 -9.659258262890683 0.0
vertex -184.91191899999995 88.6602540378444 0.0
vertex -184.91191899999995 -8.660254037844386 0.0
endloop
endfacet
facet normal 0.0 0.0 -1.0
outer loop
vertex -184.91191899999995 -8.660254037844386 0.0
vertex -184.91191899999995 88.6602540378444 0.0
vertex -182.84085118813445 87.07106781186548 0.0
endloop
endfacet
facet normal 0.0 0.0 -1.0
outer loop
vertex -184.91191899999995 -8.660254037844386 0.0
vertex -182.84085118813445 87.07106781186548 0.0
vertex -182.84085118813448 -7.071067811865476 0.0
endloop
endfacet
facet normal 0.0 0.0 -1.0
outer loop
vertex -182.84085118813448 -7.071067811865476 0.0
vertex -182.84085118813445 87.07106781186548 0.0
vertex -181.25166496215556 -5.0 0.0
endloop
endfacet
facet normal 0.0 0.0 -1.0
outer loop
vertex -181.25166496215556 -5.0 0.0
vertex -182.84085118813445 87.07106781186548 0.0
vertex -181.25166496215556 85.0 0.0
endloop
endfacet
facet normal 0.0 0.0 -1.0
outer loop
vertex -181.25166496215556 -5.0 0.0
vertex -181.25166496215556 85.0 0.0
vertex -180.25266073710924 82.58819045102521 0.0
endloop
endfacet
facet normal 0.0 0.0 -1.0
outer loop
vertex -181.25166496215556 -5.0 0.0
vertex -180.25266073710924 82.58819045102521 0.0
vertex -180.25266073710924 -2.5881904510252065 0.0
endloop
endfacet
facet normal 0.0 0.0 -1.0
outer loop
vertex -180.25266073710924 -2.5881904510252065 0.0
vertex -180.25266073710924 82.58819045102521 0.0
vertex -179.91191899999993 80.00000000000001 0.0
endloop
endfacet
facet normal 0.0 0.0 -1.0
outer loop
vertex -180.25266073710924 -2.5881904510252065 0.0
vertex -179.91191899999993 80.00000000000001 0.0
vertex -179.91191899999993 1.4099832412739487e-15 0.0
endloop
endfacet
facet normal 0.0 0.0 -1.0
outer loop
vertex -179.91191899999993 1.4099832412739487e-15 0.0
vertex -179.91191899999993 80.00000000000001 0.0
vertex -179.91191899999993 50.00000000000001 0.0
endloop
endfacet
facet normal 0.0 0.0 -1.0
outer loop
vertex -179.91191899999993 1.4099832412739487e-15 0.0
vertex -179.91191899999993 50.00000000000001 0.0
vertex -179.91191899999993 30.0 0.0
endloop
endfacet
facet normal 0.0 0.0 -1.0
outer loop
vertex -239.57117728538807 42.58819036706361 0.0
vertex -239.57117724682104 37.41180948900222 0.0
vertex -239.91191899999993 39.999999925494194 0.0
endloop
endfacet
facet normal 0.0 0.0 -1.0
outer loop
vertex -239.57117724682104 37.41180948900222 0.0
vertex -239.57117728538807 42.58819036706361 0.0
vertex -238.57217308751487 44.999999913968104 0.0
endloop
endfacet
facet normal 0.0 0.0 -1.0
outer loop
vertex -239.57117724682104 37.41180948900222 0.0
vertex -238.57217308751487 44.999999913968104 0.0
vertex -238.57217301300904 34.999999956984055 0.0
endloop
endfacet
facet normal 0.0 0.0 -1.0
outer loop
vertex -238.57217301300904 34.999999956984055 0.0
vertex -238.57217308751487 44.999999913968104 0.0
vertex -236.98298689089074 47.07106773284013 0.0
endloop
endfacet
facet normal 0.0 0.0 -1.0
outer loop
vertex -238.57217301300904 34.999999956984055 0.0
vertex -236.98298689089074 47.07106773284013 0.0
vertex -236.98298678552362 32.928932161792744 0.0
endloop
endfacet
facet normal 0.0 0.0 -1.0
outer loop
vertex -236.98298678552362 32.928932161792744 0.0
vertex -236.98298689089074 47.07106773284013 0.0
vertex -234.9119191075398 48.66025397575622 0.0
endloop
endfacet
facet normal 0.0 0.0 -1.0
outer loop
vertex -236.98298678552362 32.928932161792744 0.0
vertex -234.9119191075398 48.66025397575622 0.0
vertex -234.91191897849194 31.33974594973798 0.0
endloop
endfacet
facet normal 0.0 0.0 -1.0
outer loop
vertex -234.91191897849194 31.33974594973798 0.0
vertex -234.9119191075398 48.66025397575622 0.0
vertex -232.5001095829648 49.659258227537556 0.0
endloop
endfacet
facet normal 0.0 0.0 -1.0
outer loop
vertex -234.91191897849194 31.33974594973798 0.0
vertex -232.5001095829648 49.659258227537556 0.0
vertex -232.50010943903064 30.3407417338954 0.0
endloop
endfacet
facet normal 0.0 0.0 -1.0
outer loop
vertex -232.50010943903064 30.3407417338954 0.0
vertex -232.5001095829648 49.659258227537556 0.0
vertex -229.91191899999995 50.00000000000001 0.0
endloop
endfacet
facet normal 0.0 0.0 -1.0
outer loop
vertex -232.50010943903064 30.3407417338954 0.0
vertex -229.91191899999995 50.00000000000001 0.0
vertex -229.91191899999995 30.0 0.0
endloop
endfacet
facet normal 0.0 0.0 -1.0
outer loop
vertex -229.91191899999995 30.0 0.0
vertex -229.91191899999995 50.00000000000001 0.0
vertex -199.91191899999993 50.00000000000001 0.0
endloop
endfacet
facet normal 0.0 0.0 -1.0
outer loop
vertex -229.91191899999995 30.0 0.0
vertex -199.91191899999993 50.00000000000001 0.0
vertex -199.91191899999993 30.0 0.0
endloop
endfacet
endsolid model
