solid Joysticks
facet normal -0.9999999999999999 0.0 0.0
outer loop
vertex 137.73953363569584 79.99999999999999 0.49999999999999994
vertex 137.73953363569584 -5.639932965095795e-15 0.0
vertex 137.73953363569584 -5.639932965095795e-15 0.49999999999999994
endloop
endfacet
facet normal -0.9999999999999999 0.0 0.0
outer loop
vertex 137.73953363569584 -5.639932965095795e-15 0.0
vertex 137.73953363569584 79.99999999999999 0.49999999999999994
vertex 137.73953363569584 79.99999999999999 0.0
endloop
endfacet
facet normal -0.9914448613738098 0.1305261922200563 0.0
outer loop
vertex 137.82508502195773 81.3052619222005 0.49999999999999994
vertex 137.73953363569584 79.99999999999999 0.0
vertex 137.73953363569584 79.99999999999999 0.49999999999999994
endloop
endfacet
facet normal -0.9978589232386033 0.06540312923014732 0.0
outer loop
vertex 137.73953363569584 79.99999999999999 0.0
vertex 137.82508502195773 81.3052619222005 0.49999999999999994
vertex 137.82508502195773 81.3052619222005 0.0
endloop
endfacet
facet normal 0.6087614290087242 0.7933533402912325 0.0
outer loop
vertex 233.82714792578307 87.93353340291233 0.49999999999999994
vertex 234.8106014475613 87.07106781186546 0.0
vertex 233.82714792578307 87.93353340291233 0.0
endloop
endfacet
facet normal 0.7071067811865469 0.707106781186548 0.0
outer loop
vertex 234.8106014475613 87.07106781186546 0.0
vertex 233.82714792578307 87.93353340291233 0.49999999999999994
vertex 234.8106014475613 87.07106781186546 0.49999999999999994
endloop
endfacet
facet normal 0.9659258262890674 0.25881904510252396 0.0
outer loop
vertex 237.39879189858655 82.58819045102518 0.0
vertex 237.653982249434 81.30526192220049 0.49999999999999994
vertex 237.653982249434 81.30526192220049 0.0
endloop
endfacet
facet normal 0.9914448613738099 0.13052619222005543 0.0
outer loop
vertex 237.653982249434 81.30526192220049 0.49999999999999994
vertex 237.39879189858655 82.58819045102518 0.0
vertex 237.39879189858655 82.58819045102518 0.49999999999999994
endloop
endfacet
facet normal 0.8660254037844373 0.5000000000000023 0.0
outer loop
vertex 236.39978767354023 84.99999999999999 0.0
vertex 236.97832896080874 83.82683432365087 0.49999999999999994
vertex 236.97832896080874 83.82683432365087 0.0
endloop
endfacet
facet normal 0.9238795325112842 0.3826834323650959 0.0
outer loop
vertex 236.97832896080874 83.82683432365087 0.49999999999999994
vertex 236.39978767354023 84.99999999999999 0.0
vertex 236.39978767354023 84.99999999999999 0.49999999999999994
endloop
endfacet
facet normal 0.793353340291232 0.6087614290087249 0.0
outer loop
vertex 235.6730670386082 86.08761429008719 0.0
vertex 236.39978767354023 84.99999999999999 0.49999999999999994
vertex 236.39978767354023 84.99999999999999 0.0
endloop
endfacet
facet normal 0.8660254037844373 0.5000000000000023 0.0
outer loop
vertex 236.39978767354023 84.99999999999999 0.49999999999999994
vertex 235.6730670386082 86.08761429008719 0.0
vertex 235.6730670386082 86.08761429008719 0.49999999999999994
endloop
endfacet
facet normal 0.2588190451025188 0.9659258262890689 0.0
outer loop
vertex 230.32772408672102 89.65925826289067 0.49999999999999994
vertex 231.56636795934674 89.23879532511286 0.0
vertex 230.32772408672102 89.65925826289067 0.0
endloop
endfacet
facet normal 0.38268343236508806 0.9238795325112875 0.0
outer loop
vertex 231.56636795934674 89.23879532511286 0.0
vertex 230.32772408672102 89.65925826289067 0.49999999999999994
vertex 231.56636795934674 89.23879532511286 0.49999999999999994
endloop
endfacet
facet normal 0.38268343236508806 0.9238795325112875 0.0
outer loop
vertex 231.56636795934674 89.23879532511286 0.49999999999999994
vertex 232.73953363569584 88.66025403784437 0.0
vertex 231.56636795934674 89.23879532511286 0.0
endloop
endfacet
facet normal 0.4999999999999974 0.8660254037844402 0.0
outer loop
vertex 232.73953363569584 88.66025403784437 0.0
vertex 231.56636795934674 89.23879532511286 0.49999999999999994
vertex 232.73953363569584 88.66025403784437 0.49999999999999994
endloop
endfacet
facet normal 0.9914448613738099 0.13052619222005543 0.0
outer loop
vertex 237.653982249434 81.30526192220049 0.0
vertex 237.7395336356959 79.99999999999997 0.49999999999999994
vertex 237.7395336356959 79.99999999999997 0.0
endloop
endfacet
facet normal 0.9978589232386033 0.06540312923014732 0.0
outer loop
vertex 237.7395336356959 79.99999999999997 0.49999999999999994
vertex 237.653982249434 81.30526192220049 0.0
vertex 237.653982249434 81.30526192220049 0.49999999999999994
endloop
endfacet
facet normal 0.7071067811865469 0.707106781186548 0.0
outer loop
vertex 234.8106014475613 87.07106781186546 0.0
vertex 235.6730670386082 86.08761429008719 0.49999999999999994
vertex 235.6730670386082 86.08761429008719 0.0
endloop
endfacet
facet normal 0.793353340291232 0.6087614290087249 0.0
outer loop
vertex 235.6730670386082 86.08761429008719 0.49999999999999994
vertex 234.8106014475613 87.07106781186546 0.0
vertex 234.8106014475613 87.07106781186546 0.49999999999999994
endloop
endfacet
facet normal 0.4999999999999974 0.8660254037844402 0.0
outer loop
vertex 232.73953363569584 88.66025403784437 0.49999999999999994
vertex 233.82714792578307 87.93353340291233 0.0
vertex 232.73953363569584 88.66025403784437 0.0
endloop
endfacet
facet normal 0.6087614290087242 0.7933533402912325 0.0
outer loop
vertex 233.82714792578307 87.93353340291233 0.0
vertex 232.73953363569584 88.66025403784437 0.49999999999999994
vertex 233.82714792578307 87.93353340291233 0.49999999999999994
endloop
endfacet
facet normal 0.9238795325112842 0.3826834323650959 0.0
outer loop
vertex 236.97832896080874 83.82683432365087 0.0
vertex 237.39879189858655 82.58819045102518 0.49999999999999994
vertex 237.39879189858655 82.58819045102518 0.0
endloop
endfacet
facet normal 0.9659258262890674 0.25881904510252396 0.0
outer loop
vertex 237.39879189858655 82.58819045102518 0.49999999999999994
vertex 236.97832896080874 83.82683432365087 0.0
vertex 236.97832896080874 83.82683432365087 0.49999999999999994
endloop
endfacet
facet normal -0.7071067811865476 0.7071067811865476 0.0
outer loop
vertex 140.6684658238304 87.07106781186546 0.49999999999999994
vertex 139.8060002327835 86.08761429008719 0.0
vertex 139.8060002327835 86.08761429008719 0.49999999999999994
endloop
endfacet
facet normal -0.7933533402912345 0.6087614290087217 0.0
outer loop
vertex 139.8060002327835 86.08761429008719 0.0
vertex 140.6684658238304 87.07106781186546 0.49999999999999994
vertex 140.6684658238304 87.07106781186546 0.0
endloop
endfacet
facet normal -0.3826834323650905 0.9238795325112864 0.0
outer loop
vertex 143.91269931204494 89.23879532511285 0.49999999999999994
vertex 145.15134318467065 89.65925826289066 0.0
vertex 143.91269931204494 89.23879532511285 0.0
endloop
endfacet
facet normal -0.2588190451025199 0.9659258262890684 0.0
outer loop
vertex 145.15134318467065 89.65925826289066 0.0
vertex 143.91269931204494 89.23879532511285 0.49999999999999994
vertex 145.15134318467065 89.65925826289066 0.49999999999999994
endloop
endfacet
facet normal -0.866025403784436 0.5000000000000044 0.0
outer loop
vertex 139.07927959785147 84.99999999999999 0.49999999999999994
vertex 138.50073831058296 83.82683432365089 0.0
vertex 138.50073831058296 83.82683432365089 0.49999999999999994
endloop
endfacet
facet normal -0.9238795325112873 0.38268343236508834 0.0
outer loop
vertex 138.50073831058296 83.82683432365089 0.0
vertex 139.07927959785147 84.99999999999999 0.49999999999999994
vertex 139.07927959785147 84.99999999999999 0.0
endloop
endfacet
facet normal -0.9238795325112873 0.38268343236508834 0.0
outer loop
vertex 138.50073831058296 83.82683432365089 0.49999999999999994
vertex 138.08027537280518 82.5881904510252 0.0
vertex 138.08027537280518 82.5881904510252 0.49999999999999994
endloop
endfacet
facet normal -0.9659258262890693 0.25881904510251685 0.0
outer loop
vertex 138.08027537280518 82.5881904510252 0.0
vertex 138.50073831058296 83.82683432365089 0.49999999999999994
vertex 138.50073831058296 83.82683432365089 0.0
endloop
endfacet
facet normal -2.8199664825478986e-16 1.0 0.0
outer loop
vertex 147.73953363569584 89.99999999999997 0.49999999999999994
vertex 227.7395336356958 90.0 0.0
vertex 147.73953363569584 89.99999999999997 0.0
endloop
endfacet
facet normal -2.8199664825478986e-16 1.0 0.0
outer loop
vertex 227.7395336356958 90.0 0.0
vertex 147.73953363569584 89.99999999999997 0.49999999999999994
vertex 227.7395336356958 90.0 0.49999999999999994
endloop
endfacet
facet normal -0.2588190451025199 0.9659258262890684 0.0
outer loop
vertex 145.15134318467065 89.65925826289066 0.49999999999999994
vertex 146.43427171349535 89.91444861373807 0.0
vertex 145.15134318467065 89.65925826289066 0.0
endloop
endfacet
facet normal -0.13052619222004727 0.991444861373811 0.0
outer loop
vertex 146.43427171349535 89.91444861373807 0.0
vertex 145.15134318467065 89.65925826289066 0.49999999999999994
vertex 146.43427171349535 89.91444861373807 0.49999999999999994
endloop
endfacet
facet normal -0.6087614290087197 0.7933533402912358 0.0
outer loop
vertex 141.65191934560863 87.93353340291233 0.49999999999999994
vertex 142.73953363569586 88.66025403784437 0.0
vertex 141.65191934560863 87.93353340291233 0.0
endloop
endfacet
facet normal -0.49999999999999734 0.8660254037844402 0.0
outer loop
vertex 142.73953363569586 88.66025403784437 0.0
vertex 141.65191934560863 87.93353340291233 0.49999999999999994
vertex 142.73953363569586 88.66025403784437 0.49999999999999994
endloop
endfacet
facet normal -0.13052619222004727 0.991444861373811 0.0
outer loop
vertex 146.43427171349535 89.91444861373807 0.49999999999999994
vertex 147.73953363569584 89.99999999999997 0.0
vertex 146.43427171349535 89.91444861373807 0.0
endloop
endfacet
facet normal -0.06540312923013929 0.9978589232386037 0.0
outer loop
vertex 147.73953363569584 89.99999999999997 0.0
vertex 146.43427171349535 89.91444861373807 0.49999999999999994
vertex 147.73953363569584 89.99999999999997 0.49999999999999994
endloop
endfacet
facet normal -0.49999999999999734 0.8660254037844402 0.0
outer loop
vertex 142.73953363569586 88.66025403784437 0.49999999999999994
vertex 143.91269931204494 89.23879532511285 0.0
vertex 142.73953363569586 88.66025403784437 0.0
endloop
endfacet
facet normal -0.3826834323650905 0.9238795325112864 0.0
outer loop
vertex 143.91269931204494 89.23879532511285 0.0
vertex 142.73953363569586 88.66025403784437 0.49999999999999994
vertex 143.91269931204494 89.23879532511285 0.49999999999999994
endloop
endfacet
facet normal 0.06540312923014675 0.9978589232386033 0.0
outer loop
vertex 227.7395336356958 90.0 0.49999999999999994
vertex 229.04479555789635 89.91444861373809 0.0
vertex 227.7395336356958 90.0 0.0
endloop
endfacet
facet normal 0.13052619222005266 0.9914448613738104 0.0
outer loop
vertex 229.04479555789635 89.91444861373809 0.0
vertex 227.7395336356958 90.0 0.49999999999999994
vertex 229.04479555789635 89.91444861373809 0.49999999999999994
endloop
endfacet
facet normal -0.7071067811865476 0.7071067811865476 0.0
outer loop
vertex 140.6684658238304 87.07106781186546 0.49999999999999994
vertex 141.65191934560863 87.93353340291233 0.0
vertex 140.6684658238304 87.07106781186546 0.0
endloop
endfacet
facet normal -0.6087614290087197 0.7933533402912358 0.0
outer loop
vertex 141.65191934560863 87.93353340291233 0.0
vertex 140.6684658238304 87.07106781186546 0.49999999999999994
vertex 141.65191934560863 87.93353340291233 0.49999999999999994
endloop
endfacet
facet normal 0.13052619222005266 0.9914448613738104 0.0
outer loop
vertex 229.04479555789635 89.91444861373809 0.49999999999999994
vertex 230.32772408672102 89.65925826289067 0.0
vertex 229.04479555789635 89.91444861373809 0.0
endloop
endfacet
facet normal 0.2588190451025188 0.9659258262890689 0.0
outer loop
vertex 230.32772408672102 89.65925826289067 0.0
vertex 229.04479555789635 89.91444861373809 0.49999999999999994
vertex 230.32772408672102 89.65925826289067 0.49999999999999994
endloop
endfacet
facet normal -0.7933533402912345 0.6087614290087217 0.0
outer loop
vertex 139.8060002327835 86.08761429008719 0.49999999999999994
vertex 139.07927959785147 84.99999999999999 0.0
vertex 139.07927959785147 84.99999999999999 0.49999999999999994
endloop
endfacet
facet normal -0.866025403784436 0.5000000000000044 0.0
outer loop
vertex 139.07927959785147 84.99999999999999 0.0
vertex 139.8060002327835 86.08761429008719 0.49999999999999994
vertex 139.8060002327835 86.08761429008719 0.0
endloop
endfacet
facet normal -0.9659258262890693 0.25881904510251685 0.0
outer loop
vertex 138.08027537280518 82.5881904510252 0.49999999999999994
vertex 137.82508502195773 81.3052619222005 0.0
vertex 137.82508502195773 81.3052619222005 0.49999999999999994
endloop
endfacet
facet normal -0.9914448613738098 0.1305261922200563 0.0
outer loop
vertex 137.82508502195773 81.3052619222005 0.0
vertex 138.08027537280518 82.5881904510252 0.49999999999999994
vertex 138.08027537280518 82.5881904510252 0.0
endloop
endfacet
facet normal 0.0 0.0 -1.0
outer loop
vertex 137.82508502195773 81.3052619222005 0.0
vertex 137.73953363569584 -5.639932965095795e-15 0.0
vertex 137.73953363569584 79.99999999999999 0.0
endloop
endfacet
facet normal 0.0 0.0 -1.0
outer loop
vertex 137.73953363569584 -5.639932965095795e-15 0.0
vertex 137.82508502195773 81.3052619222005 0.0
vertex 137.82508502195773 -1.3052619222005208 0.0
endloop
endfacet
facet normal 0.0 0.0 -1.0
outer loop
vertex 137.82508502195773 -1.3052619222005208 0.0
vertex 137.82508502195773 81.3052619222005 0.0
vertex 138.08027537280518 82.5881904510252 0.0
endloop
endfacet
facet normal 0.0 0.0 -1.0
outer loop
vertex 137.82508502195773 -1.3052619222005208 0.0
vertex 138.08027537280518 82.5881904510252 0.0
vertex 138.08027537280518 -2.5881904510252123 0.0
endloop
endfacet
facet normal 0.0 0.0 -1.0
outer loop
vertex 138.08027537280518 -2.5881904510252123 0.0
vertex 138.08027537280518 82.5881904510252 0.0
vertex 138.50073831058296 83.82683432365089 0.0
endloop
endfacet
facet normal 0.0 0.0 -1.0
outer loop
vertex 138.08027537280518 -2.5881904510252123 0.0
vertex 138.50073831058296 83.82683432365089 0.0
vertex 138.50073831058296 -3.826834323650902 0.0
endloop
endfacet
facet normal 0.0 0.0 -1.0
outer loop
vertex 138.50073831058296 -3.826834323650902 0.0
vertex 138.50073831058296 83.82683432365089 0.0
vertex 139.07927959785147 84.99999999999999 0.0
endloop
endfacet
facet normal 0.0 0.0 -1.0
outer loop
vertex 138.50073831058296 -3.826834323650902 0.0
vertex 139.07927959785147 84.99999999999999 0.0
vertex 139.07927959785147 -5.000000000000003 0.0
endloop
endfacet
facet normal 0.0 0.0 -1.0
outer loop
vertex 139.07927959785147 -5.000000000000003 0.0
vertex 139.07927959785147 84.99999999999999 0.0
vertex 139.8060002327835 86.08761429008719 0.0
endloop
endfacet
facet normal 0.0 0.0 -1.0
outer loop
vertex 139.07927959785147 -5.000000000000003 0.0
vertex 139.8060002327835 86.08761429008719 0.0
vertex 139.8060002327835 -6.087614290087208 0.0
endloop
endfacet
facet normal 0.0 0.0 -1.0
outer loop
vertex 139.8060002327835 -6.087614290087208 0.0
vertex 139.8060002327835 86.08761429008719 0.0
vertex 140.6684658238304 87.07106781186546 0.0
endloop
endfacet
facet normal 0.0 0.0 -1.0
outer loop
vertex 139.8060002327835 -6.087614290087208 0.0
vertex 140.6684658238304 87.07106781186546 0.0
vertex 140.6684658238304 -7.071067811865475 0.0
endloop
endfacet
facet normal 0.0 0.0 -1.0
outer loop
vertex 140.6684658238304 -7.071067811865475 0.0
vertex 140.6684658238304 87.07106781186546 0.0
vertex 141.65191934560863 87.93353340291233 0.0
endloop
endfacet
facet normal 0.0 0.0 -1.0
outer loop
vertex 140.6684658238304 -7.071067811865475 0.0
vertex 141.65191934560863 87.93353340291233 0.0
vertex 141.65191934560863 -7.93353340291235 0.0
endloop
endfacet
facet normal 0.0 0.0 -1.0
outer loop
vertex 141.65191934560863 -7.93353340291235 0.0
vertex 141.65191934560863 87.93353340291233 0.0
vertex 142.73953363569586 88.66025403784437 0.0
endloop
endfacet
facet normal 0.0 0.0 -1.0
outer loop
vertex 141.65191934560863 -7.93353340291235 0.0
vertex 142.73953363569586 88.66025403784437 0.0
vertex 142.73953363569586 -8.660254037844384 0.0
endloop
endfacet
facet normal 0.0 0.0 -1.0
outer loop
vertex 142.73953363569586 -8.660254037844384 0.0
vertex 142.73953363569586 88.66025403784437 0.0
vertex 143.91269931204494 89.23879532511285 0.0
endloop
endfacet
facet normal 0.0 0.0 -1.0
outer loop
vertex 142.73953363569586 -8.660254037844384 0.0
vertex 143.91269931204494 89.23879532511285 0.0
vertex 143.91269931204494 -9.238795325112862 0.0
endloop
endfacet
facet normal 0.0 0.0 -1.0
outer loop
vertex 143.91269931204494 -9.238795325112862 0.0
vertex 143.91269931204494 89.23879532511285 0.0
vertex 145.15134318467065 89.65925826289066 0.0
endloop
endfacet
facet normal 0.0 0.0 -1.0
outer loop
vertex 143.91269931204494 -9.238795325112862 0.0
vertex 145.15134318467065 89.65925826289066 0.0
vertex 145.15134318467065 -9.659258262890676 0.0
endloop
endfacet
facet normal 0.0 0.0 -1.0
outer loop
vertex 145.15134318467065 -9.659258262890676 0.0
vertex 145.15134318467065 89.65925826289066 0.0
vertex 146.43427171349535 89.91444861373807 0.0
endloop
endfacet
facet normal 0.0 0.0 -1.0
outer loop
vertex 145.15134318467065 -9.659258262890676 0.0
vertex 146.43427171349535 89.91444861373807 0.0
vertex 146.43427171349535 -9.914448613738093 0.0
endloop
endfacet
facet normal 0.0 0.0 -1.0
outer loop
vertex 146.43427171349535 -9.914448613738093 0.0
vertex 146.43427171349535 89.91444861373807 0.0
vertex 147.73953363569584 89.99999999999997 0.0
endloop
endfacet
facet normal 0.0 0.0 -1.0
outer loop
vertex 146.43427171349535 -9.914448613738093 0.0
vertex 147.73953363569584 89.99999999999997 0.0
vertex 147.73953363569584 -9.999999999999988 0.0
endloop
endfacet
facet normal 0.0 0.0 -1.0
outer loop
vertex 147.73953363569584 -9.999999999999988 0.0
vertex 147.73953363569584 89.99999999999997 0.0
vertex 227.7395336356958 90.0 0.0
endloop
endfacet
facet normal 0.0 0.0 -1.0
outer loop
vertex 147.73953363569584 -9.999999999999988 0.0
vertex 227.7395336356958 90.0 0.0
vertex 227.73953363569586 -10.000000000000002 0.0
endloop
endfacet
facet normal 0.0 0.0 -1.0
outer loop
vertex 227.73953363569586 -10.000000000000002 0.0
vertex 227.7395336356958 90.0 0.0
vertex 229.04479555789635 89.91444861373809 0.0
endloop
endfacet
facet normal 0.0 0.0 -1.0
outer loop
vertex 227.73953363569586 -10.000000000000002 0.0
vertex 229.04479555789635 89.91444861373809 0.0
vertex 229.04479555789638 -9.914448613738106 0.0
endloop
endfacet
facet normal 0.0 0.0 -1.0
outer loop
vertex 229.04479555789638 -9.914448613738106 0.0
vertex 229.04479555789635 89.91444861373809 0.0
vertex 230.32772408672102 89.65925826289067 0.0
endloop
endfacet
facet normal 0.0 0.0 -1.0
outer loop
vertex 229.04479555789638 -9.914448613738106 0.0
vertex 230.32772408672102 89.65925826289067 0.0
vertex 230.32772408672105 -9.659258262890685 0.0
endloop
endfacet
facet normal 0.0 0.0 -1.0
outer loop
vertex 230.32772408672105 -9.659258262890685 0.0
vertex 230.32772408672102 89.65925826289067 0.0
vertex 231.56636795934674 89.23879532511286 0.0
endloop
endfacet
facet normal 0.0 0.0 -1.0
outer loop
vertex 230.32772408672105 -9.659258262890685 0.0
vertex 231.56636795934674 89.23879532511286 0.0
vertex 231.56636795934674 -9.23879532511287 0.0
endloop
endfacet
facet normal 0.0 0.0 -1.0
outer loop
vertex 231.56636795934674 -9.23879532511287 0.0
vertex 231.56636795934674 89.23879532511286 0.0
vertex 232.73953363569584 88.66025403784437 0.0
endloop
endfacet
facet normal 0.0 0.0 -1.0
outer loop
vertex 231.56636795934674 -9.23879532511287 0.0
vertex 232.73953363569584 88.66025403784437 0.0
vertex 232.73953363569584 -8.660254037844389 0.0
endloop
endfacet
facet normal 0.0 0.0 -1.0
outer loop
vertex 232.73953363569584 -8.660254037844389 0.0
vertex 232.73953363569584 88.66025403784437 0.0
vertex 233.82714792578307 87.93353340291233 0.0
endloop
endfacet
facet normal 0.0 0.0 -1.0
outer loop
vertex 232.73953363569584 -8.660254037844389 0.0
vertex 233.82714792578307 87.93353340291233 0.0
vertex 233.82714792578307 -7.9335334029123565 0.0
endloop
endfacet
facet normal 0.0 0.0 -1.0
outer loop
vertex 233.82714792578307 -7.9335334029123565 0.0
vertex 233.82714792578307 87.93353340291233 0.0
vertex 234.8106014475613 87.07106781186546 0.0
endloop
endfacet
facet normal 0.0 0.0 -1.0
outer loop
vertex 233.82714792578307 -7.9335334029123565 0.0
vertex 234.8106014475613 87.07106781186546 0.0
vertex 234.8106014475613 -7.071067811865482 0.0
endloop
endfacet
facet normal 0.0 0.0 -1.0
outer loop
vertex 234.8106014475613 -7.071067811865482 0.0
vertex 234.8106014475613 87.07106781186546 0.0
vertex 235.6730670386082 86.08761429008719 0.0
endloop
endfacet
facet normal 0.0 0.0 -1.0
outer loop
vertex 234.8106014475613 -7.071067811865482 0.0
vertex 235.6730670386082 86.08761429008719 0.0
vertex 235.6730670386082 -6.087614290087216 0.0
endloop
endfacet
facet normal 0.0 0.0 -1.0
outer loop
vertex 235.6730670386082 -6.087614290087216 0.0
vertex 235.6730670386082 86.08761429008719 0.0
vertex 236.39978767354023 84.99999999999999 0.0
endloop
endfacet
facet normal 0.0 0.0 -1.0
outer loop
vertex 235.6730670386082 -6.087614290087216 0.0
vertex 236.39978767354023 84.99999999999999 0.0
vertex 236.39978767354023 -5.0000000000000115 0.0
endloop
endfacet
facet normal 0.0 0.0 -1.0
outer loop
vertex 236.39978767354023 -5.0000000000000115 0.0
vertex 236.39978767354023 84.99999999999999 0.0
vertex 236.97832896080874 83.82683432365087 0.0
endloop
endfacet
facet normal 0.0 0.0 -1.0
outer loop
vertex 236.39978767354023 -5.0000000000000115 0.0
vertex 236.97832896080874 83.82683432365087 0.0
vertex 236.97832896080868 -3.8268343236509104 0.0
endloop
endfacet
facet normal 0.0 0.0 -1.0
outer loop
vertex 236.97832896080868 -3.8268343236509104 0.0
vertex 236.97832896080874 83.82683432365087 0.0
vertex 237.3987918985865 -2.5881904510252216 0.0
endloop
endfacet
facet normal 0.0 0.0 -1.0
outer loop
vertex 237.3987918985865 -2.5881904510252216 0.0
vertex 236.97832896080874 83.82683432365087 0.0
vertex 237.39879189858655 82.58819045102518 0.0
endloop
endfacet
facet normal 0.0 0.0 -1.0
outer loop
vertex 237.3987918985865 -2.5881904510252216 0.0
vertex 237.39879189858655 82.58819045102518 0.0
vertex 237.65398224943394 -1.3052619222005315 0.0
endloop
endfacet
facet normal 0.0 0.0 -1.0
outer loop
vertex 237.65398224943394 -1.3052619222005315 0.0
vertex 237.39879189858655 82.58819045102518 0.0
vertex 237.653982249434 81.30526192220049 0.0
endloop
endfacet
facet normal 0.0 0.0 -1.0
outer loop
vertex 237.65398224943394 -1.3052619222005315 0.0
vertex 237.653982249434 81.30526192220049 0.0
vertex 237.73953363569584 -1.7426651107521673e-14 0.0
endloop
endfacet
facet normal 0.0 0.0 -1.0
outer loop
vertex 237.73953363569584 -1.7426651107521673e-14 0.0
vertex 237.653982249434 81.30526192220049 0.0
vertex 237.7395336356959 79.99999999999997 0.0
endloop
endfacet
facet normal -0.7933533402912348 -0.608761429008721 0.0
outer loop
vertex 139.8060002327835 -6.087614290087208 0.49999999999999994
vertex 140.6684658238304 -7.071067811865475 0.0
vertex 140.6684658238304 -7.071067811865475 0.49999999999999994
endloop
endfacet
facet normal -0.7071067811865476 -0.7071067811865476 0.0
outer loop
vertex 140.6684658238304 -7.071067811865475 0.0
vertex 139.8060002327835 -6.087614290087208 0.49999999999999994
vertex 139.8060002327835 -6.087614290087208 0.0
endloop
endfacet
facet normal -0.1305261922200494 -0.9914448613738108 0.0
outer loop
vertex 146.43427171349535 -9.914448613738093 0.49999999999999994
vertex 145.15134318467065 -9.659258262890676 0.0
vertex 146.43427171349535 -9.914448613738093 0.0
endloop
endfacet
facet normal -0.25881904510251835 -0.965925826289069 0.0
outer loop
vertex 145.15134318467065 -9.659258262890676 0.0
vertex 146.43427171349535 -9.914448613738093 0.49999999999999994
vertex 145.15134318467065 -9.659258262890676 0.49999999999999994
endloop
endfacet
facet normal -0.9914448613738098 -0.13052619222005601 0.0
outer loop
vertex 137.82508502195773 -1.3052619222005208 0.49999999999999994
vertex 138.08027537280518 -2.5881904510252123 0.0
vertex 138.08027537280518 -2.5881904510252123 0.49999999999999994
endloop
endfacet
facet normal -0.9659258262890693 -0.25881904510251685 0.0
outer loop
vertex 138.08027537280518 -2.5881904510252123 0.0
vertex 137.82508502195773 -1.3052619222005208 0.49999999999999994
vertex 137.82508502195773 -1.3052619222005208 0.0
endloop
endfacet
facet normal -0.6087614290087193 -0.7933533402912362 0.0
outer loop
vertex 141.65191934560863 -7.93353340291235 0.49999999999999994
vertex 140.6684658238304 -7.071067811865475 0.0
vertex 141.65191934560863 -7.93353340291235 0.0
endloop
endfacet
facet normal -0.7071067811865476 -0.7071067811865476 0.0
outer loop
vertex 140.6684658238304 -7.071067811865475 0.0
vertex 141.65191934560863 -7.93353340291235 0.49999999999999994
vertex 140.6684658238304 -7.071067811865475 0.49999999999999994
endloop
endfacet
facet normal -0.9238795325112868 -0.3826834323650893 0.0
outer loop
vertex 138.50073831058296 -3.826834323650902 0.49999999999999994
vertex 139.07927959785147 -5.000000000000003 0.0
vertex 139.07927959785147 -5.000000000000003 0.49999999999999994
endloop
endfacet
facet normal -0.8660254037844359 -0.5000000000000046 0.0
outer loop
vertex 139.07927959785147 -5.000000000000003 0.0
vertex 138.50073831058296 -3.826834323650902 0.49999999999999994
vertex 138.50073831058296 -3.826834323650902 0.0
endloop
endfacet
facet normal -0.49999999999999856 -0.8660254037844395 0.0
outer loop
vertex 142.73953363569586 -8.660254037844384 0.49999999999999994
vertex 141.65191934560863 -7.93353340291235 0.0
vertex 142.73953363569586 -8.660254037844384 0.0
endloop
endfacet
facet normal -0.6087614290087193 -0.7933533402912362 0.0
outer loop
vertex 141.65191934560863 -7.93353340291235 0.0
vertex 142.73953363569586 -8.660254037844384 0.49999999999999994
vertex 141.65191934560863 -7.93353340291235 0.49999999999999994
endloop
endfacet
facet normal -0.25881904510251835 -0.965925826289069 0.0
outer loop
vertex 145.15134318467065 -9.659258262890676 0.49999999999999994
vertex 143.91269931204494 -9.238795325112862 0.0
vertex 145.15134318467065 -9.659258262890676 0.0
endloop
endfacet
facet normal -0.3826834323650895 -0.923879532511287 0.0
outer loop
vertex 143.91269931204494 -9.238795325112862 0.0
vertex 145.15134318467065 -9.659258262890676 0.49999999999999994
vertex 143.91269931204494 -9.238795325112862 0.49999999999999994
endloop
endfacet
facet normal -0.8660254037844359 -0.5000000000000046 0.0
outer loop
vertex 139.07927959785147 -5.000000000000003 0.49999999999999994
vertex 139.8060002327835 -6.087614290087208 0.0
vertex 139.8060002327835 -6.087614290087208 0.49999999999999994
endloop
endfacet
facet normal -0.7933533402912348 -0.608761429008721 0.0
outer loop
vertex 139.8060002327835 -6.087614290087208 0.0
vertex 139.07927959785147 -5.000000000000003 0.49999999999999994
vertex 139.07927959785147 -5.000000000000003 0.0
endloop
endfacet
facet normal -0.9659258262890693 -0.25881904510251685 0.0
outer loop
vertex 138.08027537280518 -2.5881904510252123 0.49999999999999994
vertex 138.50073831058296 -3.826834323650902 0.0
vertex 138.50073831058296 -3.826834323650902 0.49999999999999994
endloop
endfacet
facet normal -0.9238795325112868 -0.3826834323650893 0.0
outer loop
vertex 138.50073831058296 -3.826834323650902 0.0
vertex 138.08027537280518 -2.5881904510252123 0.49999999999999994
vertex 138.08027537280518 -2.5881904510252123 0.0
endloop
endfacet
facet normal -0.3826834323650895 -0.923879532511287 0.0
outer loop
vertex 143.91269931204494 -9.238795325112862 0.49999999999999994
vertex 142.73953363569586 -8.660254037844384 0.0
vertex 143.91269931204494 -9.238795325112862 0.0
endloop
endfacet
facet normal -0.49999999999999856 -0.8660254037844395 0.0
outer loop
vertex 142.73953363569586 -8.660254037844384 0.0
vertex 143.91269931204494 -9.238795325112862 0.49999999999999994
vertex 142.73953363569586 -8.660254037844384 0.49999999999999994
endloop
endfacet
facet normal -0.06540312923014145 -0.9978589232386037 -0.0
outer loop
vertex 147.73953363569584 -9.999999999999988 0.49999999999999994
vertex 146.43427171349535 -9.914448613738093 0.0
vertex 147.73953363569584 -9.999999999999988 0.0
endloop
endfacet
facet normal -0.1305261922200494 -0.9914448613738108 0.0
outer loop
vertex 146.43427171349535 -9.914448613738093 0.0
vertex 147.73953363569584 -9.999999999999988 0.49999999999999994
vertex 146.43427171349535 -9.914448613738093 0.49999999999999994
endloop
endfacet
facet normal -0.9978589232386031 -0.06540312923014747 -0.0
outer loop
vertex 137.73953363569584 -5.639932965095795e-15 0.49999999999999994
vertex 137.82508502195773 -1.3052619222005208 0.0
vertex 137.82508502195773 -1.3052619222005208 0.49999999999999994
endloop
endfacet
facet normal -0.9914448613738098 -0.13052619222005601 0.0
outer loop
vertex 137.82508502195773 -1.3052619222005208 0.0
vertex 137.73953363569584 -5.639932965095795e-15 0.49999999999999994
vertex 137.73953363569584 -5.639932965095795e-15 0.0
endloop
endfacet
facet normal 0.13052619222005254 -0.9914448613738103 0.0
outer loop
vertex 229.04479555789638 -9.914448613738106 0.49999999999999994
vertex 227.73953363569586 -10.000000000000002 0.0
vertex 229.04479555789638 -9.914448613738106 0.0
endloop
endfacet
facet normal 0.06540312923014246 -0.9978589232386036 0.0
outer loop
vertex 227.73953363569586 -10.000000000000002 0.0
vertex 229.04479555789638 -9.914448613738106 0.49999999999999994
vertex 227.73953363569586 -10.000000000000002 0.49999999999999994
endloop
endfacet
facet normal -1.7624790515924357e-16 -1.0 -0.0
outer loop
vertex 227.73953363569586 -10.000000000000002 0.49999999999999994
vertex 147.73953363569584 -9.999999999999988 0.0
vertex 227.73953363569586 -10.000000000000002 0.0
endloop
endfacet
facet normal -1.7624790515924357e-16 -1.0 -0.0
outer loop
vertex 147.73953363569584 -9.999999999999988 0.0
vertex 227.73953363569586 -10.000000000000002 0.49999999999999994
vertex 147.73953363569584 -9.999999999999988 0.49999999999999994
endloop
endfacet
facet normal 0.3826834323650895 -0.9238795325112868 0.0
outer loop
vertex 231.56636795934674 -9.23879532511287 0.49999999999999994
vertex 230.32772408672105 -9.659258262890685 0.0
vertex 231.56636795934674 -9.23879532511287 0.0
endloop
endfacet
facet normal 0.25881904510252424 -0.9659258262890673 0.0
outer loop
vertex 230.32772408672105 -9.659258262890685 0.0
vertex 231.56636795934674 -9.23879532511287 0.49999999999999994
vertex 230.32772408672105 -9.659258262890685 0.49999999999999994
endloop
endfacet
facet normal 0.7071067811865464 -0.7071067811865486 0.0
outer loop
vertex 234.8106014475613 -7.071067811865482 0.49999999999999994
vertex 233.82714792578307 -7.9335334029123565 0.0
vertex 234.8106014475613 -7.071067811865482 0.0
endloop
endfacet
facet normal 0.6087614290087235 -0.7933533402912328 0.0
outer loop
vertex 233.82714792578307 -7.9335334029123565 0.0
vertex 234.8106014475613 -7.071067811865482 0.49999999999999994
vertex 233.82714792578307 -7.9335334029123565 0.49999999999999994
endloop
endfacet
facet normal 0.9659258262890671 -0.25881904510252496 0.0
outer loop
vertex 237.3987918985865 -2.5881904510252216 0.0
vertex 236.97832896080868 -3.8268343236509104 0.49999999999999994
vertex 236.97832896080868 -3.8268343236509104 0.0
endloop
endfacet
facet normal 0.9238795325112897 -0.3826834323650827 0.0
outer loop
vertex 236.97832896080868 -3.8268343236509104 0.49999999999999994
vertex 237.3987918985865 -2.5881904510252216 0.0
vertex 237.3987918985865 -2.5881904510252216 0.49999999999999994
endloop
endfacet
facet normal 0.9238795325112897 -0.3826834323650827 0.0
outer loop
vertex 236.97832896080868 -3.8268343236509104 0.0
vertex 236.39978767354023 -5.0000000000000115 0.49999999999999994
vertex 236.39978767354023 -5.0000000000000115 0.0
endloop
endfacet
facet normal 0.8660254037844437 -0.4999999999999913 0.0
outer loop
vertex 236.39978767354023 -5.0000000000000115 0.49999999999999994
vertex 236.97832896080868 -3.8268343236509104 0.0
vertex 236.97832896080868 -3.8268343236509104 0.49999999999999994
endloop
endfacet
facet normal 0.7933533402912308 -0.6087614290087264 0.0
outer loop
vertex 235.6730670386082 -6.087614290087216 0.0
vertex 234.8106014475613 -7.071067811865482 0.49999999999999994
vertex 234.8106014475613 -7.071067811865482 0.0
endloop
endfacet
facet normal 0.7071067811865464 -0.7071067811865486 0.0
outer loop
vertex 234.8106014475613 -7.071067811865482 0.49999999999999994
vertex 235.6730670386082 -6.087614290087216 0.0
vertex 235.6730670386082 -6.087614290087216 0.49999999999999994
endloop
endfacet
facet normal 0.9978589232386031 -0.06540312923014753 0.0
outer loop
vertex 237.73953363569584 -1.7426651107521673e-14 0.0
vertex 237.65398224943394 -1.3052619222005315 0.49999999999999994
vertex 237.65398224943394 -1.3052619222005315 0.0
endloop
endfacet
facet normal 0.9914448613738099 -0.13052619222005615 0.0
outer loop
vertex 237.65398224943394 -1.3052619222005315 0.49999999999999994
vertex 237.73953363569584 -1.7426651107521673e-14 0.0
vertex 237.73953363569584 -1.7426651107521673e-14 0.49999999999999994
endloop
endfacet
facet normal 0.25881904510252424 -0.9659258262890673 0.0
outer loop
vertex 230.32772408672105 -9.659258262890685 0.49999999999999994
vertex 229.04479555789638 -9.914448613738106 0.0
vertex 230.32772408672105 -9.659258262890685 0.0
endloop
endfacet
facet normal 0.13052619222005254 -0.9914448613738103 0.0
outer loop
vertex 229.04479555789638 -9.914448613738106 0.0
vertex 230.32772408672105 -9.659258262890685 0.49999999999999994
vertex 229.04479555789638 -9.914448613738106 0.49999999999999994
endloop
endfacet
facet normal 0.9999999999999999 -5.639932965095795e-16 0.0
outer loop
vertex 237.7395336356959 79.99999999999997 0.0
vertex 237.73953363569584 -1.7426651107521673e-14 0.49999999999999994
vertex 237.73953363569584 -1.7426651107521673e-14 0.0
endloop
endfacet
facet normal 0.9999999999999999 -5.639932965095795e-16 0.0
outer loop
vertex 237.73953363569584 -1.7426651107521673e-14 0.49999999999999994
vertex 237.7395336356959 79.99999999999997 0.0
vertex 237.7395336356959 79.99999999999997 0.49999999999999994
endloop
endfacet
facet normal 0.8660254037844437 -0.4999999999999913 0.0
outer loop
vertex 236.39978767354023 -5.0000000000000115 0.0
vertex 235.6730670386082 -6.087614290087216 0.49999999999999994
vertex 235.6730670386082 -6.087614290087216 0.0
endloop
endfacet
facet normal 0.7933533402912308 -0.6087614290087264 0.0
outer loop
vertex 235.6730670386082 -6.087614290087216 0.49999999999999994
vertex 236.39978767354023 -5.0000000000000115 0.0
vertex 236.39978767354023 -5.0000000000000115 0.49999999999999994
endloop
endfacet
facet normal 0.4999999999999956 -0.866025403784441 0.0
outer loop
vertex 232.73953363569584 -8.660254037844389 0.49999999999999994
vertex 231.56636795934674 -9.23879532511287 0.0
vertex 232.73953363569584 -8.660254037844389 0.0
endloop
endfacet
facet normal 0.3826834323650895 -0.9238795325112868 0.0
outer loop
vertex 231.56636795934674 -9.23879532511287 0.0
vertex 232.73953363569584 -8.660254037844389 0.49999999999999994
vertex 231.56636795934674 -9.23879532511287 0.49999999999999994
endloop
endfacet
facet normal 0.6087614290087235 -0.7933533402912328 0.0
outer loop
vertex 233.82714792578307 -7.9335334029123565 0.49999999999999994
vertex 232.73953363569584 -8.660254037844389 0.0
vertex 233.82714792578307 -7.9335334029123565 0.0
endloop
endfacet
facet normal 0.4999999999999956 -0.866025403784441 0.0
outer loop
vertex 232.73953363569584 -8.660254037844389 0.0
vertex 233.82714792578307 -7.9335334029123565 0.49999999999999994
vertex 232.73953363569584 -8.660254037844389 0.49999999999999994
endloop
endfacet
facet normal 0.9914448613738099 -0.13052619222005615 0.0
outer loop
vertex 237.65398224943394 -1.3052619222005315 0.0
vertex 237.3987918985865 -2.5881904510252216 0.49999999999999994
vertex 237.3987918985865 -2.5881904510252216 0.0
endloop
endfacet
facet normal 0.9659258262890671 -0.25881904510252496 0.0
outer loop
vertex 237.3987918985865 -2.5881904510252216 0.49999999999999994
vertex 237.65398224943394 -1.3052619222005315 0.0
vertex 237.65398224943394 -1.3052619222005315 0.49999999999999994
endloop
endfacet
facet normal -0.0 -0.0 1.0
outer loop
vertex 137.82508502195773 -1.3052619222005208 0.49999999999999994
vertex 137.73953363569584 79.99999999999999 0.49999999999999994
vertex 137.73953363569584 -5.639932965095795e-15 0.49999999999999994
endloop
endfacet
facet normal -0.0 -0.0 1.0
outer loop
vertex 137.73953363569584 79.99999999999999 0.49999999999999994
vertex 137.82508502195773 -1.3052619222005208 0.49999999999999994
vertex 137.82508502195773 81.3052619222005 0.49999999999999994
endloop
endfacet
facet normal -0.0 -0.0 1.0
outer loop
vertex 137.82508502195773 81.3052619222005 0.49999999999999994
vertex 137.82508502195773 -1.3052619222005208 0.49999999999999994
vertex 138.08027537280518 -2.5881904510252123 0.49999999999999994
endloop
endfacet
facet normal -0.0 -0.0 1.0
outer loop
vertex 137.82508502195773 81.3052619222005 0.49999999999999994
vertex 138.08027537280518 -2.5881904510252123 0.49999999999999994
vertex 138.08027537280518 82.5881904510252 0.49999999999999994
endloop
endfacet
facet normal -0.0 -0.0 1.0
outer loop
vertex 138.08027537280518 82.5881904510252 0.49999999999999994
vertex 138.08027537280518 -2.5881904510252123 0.49999999999999994
vertex 138.50073831058296 -3.826834323650902 0.49999999999999994
endloop
endfacet
facet normal -0.0 -0.0 1.0
outer loop
vertex 138.08027537280518 82.5881904510252 0.49999999999999994
vertex 138.50073831058296 -3.826834323650902 0.49999999999999994
vertex 138.50073831058296 83.82683432365089 0.49999999999999994
endloop
endfacet
facet normal -0.0 -0.0 1.0
outer loop
vertex 138.50073831058296 83.82683432365089 0.49999999999999994
vertex 138.50073831058296 -3.826834323650902 0.49999999999999994
vertex 139.07927959785147 -5.000000000000003 0.49999999999999994
endloop
endfacet
facet normal -0.0 -0.0 1.0
outer loop
vertex 138.50073831058296 83.82683432365089 0.49999999999999994
vertex 139.07927959785147 -5.000000000000003 0.49999999999999994
vertex 139.07927959785147 84.99999999999999 0.49999999999999994
endloop
endfacet
facet normal -0.0 -0.0 1.0
outer loop
vertex 139.07927959785147 84.99999999999999 0.49999999999999994
vertex 139.07927959785147 -5.000000000000003 0.49999999999999994
vertex 139.8060002327835 -6.087614290087208 0.49999999999999994
endloop
endfacet
facet normal -0.0 -0.0 1.0
outer loop
vertex 139.07927959785147 84.99999999999999 0.49999999999999994
vertex 139.8060002327835 -6.087614290087208 0.49999999999999994
vertex 139.8060002327835 86.08761429008719 0.49999999999999994
endloop
endfacet
facet normal -0.0 -0.0 1.0
outer loop
vertex 139.8060002327835 86.08761429008719 0.49999999999999994
vertex 139.8060002327835 -6.087614290087208 0.49999999999999994
vertex 140.6684658238304 -7.071067811865475 0.49999999999999994
endloop
endfacet
facet normal -0.0 -0.0 1.0
outer loop
vertex 139.8060002327835 86.08761429008719 0.49999999999999994
vertex 140.6684658238304 -7.071067811865475 0.49999999999999994
vertex 140.6684658238304 87.07106781186546 0.49999999999999994
endloop
endfacet
facet normal -0.0 -0.0 1.0
outer loop
vertex 140.6684658238304 87.07106781186546 0.49999999999999994
vertex 140.6684658238304 -7.071067811865475 0.49999999999999994
vertex 141.65191934560863 -7.93353340291235 0.49999999999999994
endloop
endfacet
facet normal -0.0 -0.0 1.0
outer loop
vertex 140.6684658238304 87.07106781186546 0.49999999999999994
vertex 141.65191934560863 -7.93353340291235 0.49999999999999994
vertex 141.65191934560863 87.93353340291233 0.49999999999999994
endloop
endfacet
facet normal -0.0 -0.0 1.0
outer loop
vertex 141.65191934560863 87.93353340291233 0.49999999999999994
vertex 141.65191934560863 -7.93353340291235 0.49999999999999994
vertex 142.73953363569586 -8.660254037844384 0.49999999999999994
endloop
endfacet
facet normal -0.0 -0.0 1.0
outer loop
vertex 141.65191934560863 87.93353340291233 0.49999999999999994
vertex 142.73953363569586 -8.660254037844384 0.49999999999999994
vertex 142.73953363569586 88.66025403784437 0.49999999999999994
endloop
endfacet
facet normal -0.0 -0.0 1.0
outer loop
vertex 142.73953363569586 88.66025403784437 0.49999999999999994
vertex 142.73953363569586 -8.660254037844384 0.49999999999999994
vertex 143.91269931204494 -9.238795325112862 0.49999999999999994
endloop
endfacet
facet normal -0.0 -0.0 1.0
outer loop
vertex 142.73953363569586 88.66025403784437 0.49999999999999994
vertex 143.91269931204494 -9.238795325112862 0.49999999999999994
vertex 143.91269931204494 89.23879532511285 0.49999999999999994
endloop
endfacet
facet normal -0.0 -0.0 1.0
outer loop
vertex 143.91269931204494 89.23879532511285 0.49999999999999994
vertex 143.91269931204494 -9.238795325112862 0.49999999999999994
vertex 145.15134318467065 -9.659258262890676 0.49999999999999994
endloop
endfacet
facet normal -0.0 -0.0 1.0
outer loop
vertex 143.91269931204494 89.23879532511285 0.49999999999999994
vertex 145.15134318467065 -9.659258262890676 0.49999999999999994
vertex 145.15134318467065 89.65925826289066 0.49999999999999994
endloop
endfacet
facet normal -0.0 -0.0 1.0
outer loop
vertex 145.15134318467065 89.65925826289066 0.49999999999999994
vertex 145.15134318467065 -9.659258262890676 0.49999999999999994
vertex 146.43427171349535 -9.914448613738093 0.49999999999999994
endloop
endfacet
facet normal -0.0 -0.0 1.0
outer loop
vertex 145.15134318467065 89.65925826289066 0.49999999999999994
vertex 146.43427171349535 -9.914448613738093 0.49999999999999994
vertex 146.43427171349535 89.91444861373807 0.49999999999999994
endloop
endfacet
facet normal -0.0 -0.0 1.0
outer loop
vertex 146.43427171349535 89.91444861373807 0.49999999999999994
vertex 146.43427171349535 -9.914448613738093 0.49999999999999994
vertex 147.73953363569584 -9.999999999999988 0.49999999999999994
endloop
endfacet
facet normal -0.0 -0.0 1.0
outer loop
vertex 146.43427171349535 89.91444861373807 0.49999999999999994
vertex 147.73953363569584 -9.999999999999988 0.49999999999999994
vertex 147.73953363569584 89.99999999999997 0.49999999999999994
endloop
endfacet
facet normal -0.0 -0.0 1.0
outer loop
vertex 147.73953363569584 89.99999999999997 0.49999999999999994
vertex 147.73953363569584 -9.999999999999988 0.49999999999999994
vertex 227.73953363569586 -10.000000000000002 0.49999999999999994
endloop
endfacet
facet normal -0.0 -0.0 1.0
outer loop
vertex 147.73953363569584 89.99999999999997 0.49999999999999994
vertex 227.73953363569586 -10.000000000000002 0.49999999999999994
vertex 227.7395336356958 90.0 0.49999999999999994
endloop
endfacet
facet normal -0.0 -0.0 1.0
outer loop
vertex 227.7395336356958 90.0 0.49999999999999994
vertex 227.73953363569586 -10.000000000000002 0.49999999999999994
vertex 229.04479555789635 89.91444861373809 0.49999999999999994
endloop
endfacet
facet normal -0.0 -0.0 1.0
outer loop
vertex 229.04479555789635 89.91444861373809 0.49999999999999994
vertex 227.73953363569586 -10.000000000000002 0.49999999999999994
vertex 229.04479555789638 -9.914448613738106 0.49999999999999994
endloop
endfacet
facet normal -0.0 -0.0 1.0
outer loop
vertex 229.04479555789635 89.91444861373809 0.49999999999999994
vertex 229.04479555789638 -9.914448613738106 0.49999999999999994
vertex 230.32772408672102 89.65925826289067 0.49999999999999994
endloop
endfacet
facet normal -0.0 -0.0 1.0
outer loop
vertex 230.32772408672102 89.65925826289067 0.49999999999999994
vertex 229.04479555789638 -9.914448613738106 0.49999999999999994
vertex 230.32772408672105 -9.659258262890685 0.49999999999999994
endloop
endfacet
facet normal -0.0 -0.0 1.0
outer loop
vertex 230.32772408672102 89.65925826289067 0.49999999999999994
vertex 230.32772408672105 -9.659258262890685 0.49999999999999994
vertex 231.56636795934674 89.23879532511286 0.49999999999999994
endloop
endfacet
facet normal -0.0 -0.0 1.0
outer loop
vertex 231.56636795934674 89.23879532511286 0.49999999999999994
vertex 230.32772408672105 -9.659258262890685 0.49999999999999994
vertex 231.56636795934674 -9.23879532511287 0.49999999999999994
endloop
endfacet
facet normal -0.0 -0.0 1.0
outer loop
vertex 231.56636795934674 89.23879532511286 0.49999999999999994
vertex 231.56636795934674 -9.23879532511287 0.49999999999999994
vertex 232.73953363569584 -8.660254037844389 0.49999999999999994
endloop
endfacet
facet normal -0.0 -0.0 1.0
outer loop
vertex 231.56636795934674 89.23879532511286 0.49999999999999994
vertex 232.73953363569584 -8.660254037844389 0.49999999999999994
vertex 232.73953363569584 88.66025403784437 0.49999999999999994
endloop
endfacet
facet normal -0.0 -0.0 1.0
outer loop
vertex 232.73953363569584 88.66025403784437 0.49999999999999994
vertex 232.73953363569584 -8.660254037844389 0.49999999999999994
vertex 233.82714792578307 -7.9335334029123565 0.49999999999999994
endloop
endfacet
facet normal -0.0 -0.0 1.0
outer loop
vertex 232.73953363569584 88.66025403784437 0.49999999999999994
vertex 233.82714792578307 -7.9335334029123565 0.49999999999999994
vertex 233.82714792578307 87.93353340291233 0.49999999999999994
endloop
endfacet
facet normal -0.0 -0.0 1.0
outer loop
vertex 233.82714792578307 87.93353340291233 0.49999999999999994
vertex 233.82714792578307 -7.9335334029123565 0.49999999999999994
vertex 234.8106014475613 -7.071067811865482 0.49999999999999994
endloop
endfacet
facet normal -0.0 -0.0 1.0
outer loop
vertex 233.82714792578307 87.93353340291233 0.49999999999999994
vertex 234.8106014475613 -7.071067811865482 0.49999999999999994
vertex 234.8106014475613 87.07106781186546 0.49999999999999994
endloop
endfacet
facet normal -0.0 -0.0 1.0
outer loop
vertex 234.8106014475613 87.07106781186546 0.49999999999999994
vertex 234.8106014475613 -7.071067811865482 0.49999999999999994
vertex 235.6730670386082 -6.087614290087216 0.49999999999999994
endloop
endfacet
facet normal -0.0 -0.0 1.0
outer loop
vertex 234.8106014475613 87.07106781186546 0.49999999999999994
vertex 235.6730670386082 -6.087614290087216 0.49999999999999994
vertex 235.6730670386082 86.08761429008719 0.49999999999999994
endloop
endfacet
facet normal -0.0 -0.0 1.0
outer loop
vertex 235.6730670386082 86.08761429008719 0.49999999999999994
vertex 235.6730670386082 -6.087614290087216 0.49999999999999994
vertex 236.39978767354023 -5.0000000000000115 0.49999999999999994
endloop
endfacet
facet normal -0.0 -0.0 1.0
outer loop
vertex 235.6730670386082 86.08761429008719 0.49999999999999994
vertex 236.39978767354023 -5.0000000000000115 0.49999999999999994
vertex 236.39978767354023 84.99999999999999 0.49999999999999994
endloop
endfacet
facet normal -0.0 -0.0 1.0
outer loop
vertex 236.39978767354023 84.99999999999999 0.49999999999999994
vertex 236.39978767354023 -5.0000000000000115 0.49999999999999994
vertex 236.97832896080868 -3.8268343236509104 0.49999999999999994
endloop
endfacet
facet normal -0.0 -0.0 1.0
outer loop
vertex 236.39978767354023 84.99999999999999 0.49999999999999994
vertex 236.97832896080868 -3.8268343236509104 0.49999999999999994
vertex 236.97832896080874 83.82683432365087 0.49999999999999994
endloop
endfacet
facet normal -0.0 -0.0 1.0
outer loop
vertex 236.97832896080874 83.82683432365087 0.49999999999999994
vertex 236.97832896080868 -3.8268343236509104 0.49999999999999994
vertex 237.3987918985865 -2.5881904510252216 0.49999999999999994
endloop
endfacet
facet normal -0.0 -0.0 1.0
outer loop
vertex 236.97832896080874 83.82683432365087 0.49999999999999994
vertex 237.3987918985865 -2.5881904510252216 0.49999999999999994
vertex 237.39879189858655 82.58819045102518 0.49999999999999994
endloop
endfacet
facet normal -0.0 -0.0 1.0
outer loop
vertex 237.39879189858655 82.58819045102518 0.49999999999999994
vertex 237.3987918985865 -2.5881904510252216 0.49999999999999994
vertex 237.65398224943394 -1.3052619222005315 0.49999999999999994
endloop
endfacet
facet normal -0.0 -0.0 1.0
outer loop
vertex 237.39879189858655 82.58819045102518 0.49999999999999994
vertex 237.65398224943394 -1.3052619222005315 0.49999999999999994
vertex 237.653982249434 81.30526192220049 0.49999999999999994
endloop
endfacet
facet normal -0.0 -0.0 1.0
outer loop
vertex 237.653982249434 81.30526192220049 0.49999999999999994
vertex 237.65398224943394 -1.3052619222005315 0.49999999999999994
vertex 237.73953363569584 -1.7426651107521673e-14 0.49999999999999994
endloop
endfacet
facet normal -0.0 -0.0 1.0
outer loop
vertex 237.653982249434 81.30526192220049 0.49999999999999994
vertex 237.73953363569584 -1.7426651107521673e-14 0.49999999999999994
vertex 237.7395336356959 79.99999999999997 0.49999999999999994
endloop
endfacet
endsolid Joysticks
