solid Gate
facet normal -0.7071067811865475 5.551115123125783e-17 0.7071067811865476
outer loop
vertex 225.0 -15.999999999999902 499.99999999999983
vertex 200.0 2.255973186038318e-14 475.00000000000006
vertex 200.0 -15.999999999999948 475.0
endloop
endfacet
facet normal -0.7071067811865475 5.551115123125783e-17 0.7071067811865476
outer loop
vertex 200.0 2.255973186038318e-14 475.00000000000006
vertex 225.0 -15.999999999999902 499.99999999999983
vertex 225.0 4.511946372076636e-14 499.9999999999999
endloop
endfacet
facet normal 0.0 5.551115123125784e-17 -1.0
outer loop
vertex 0.0 -15.999999999999982 95.82819595801247
vertex -25.0 -31.999999999999996 95.82819595801249
vertex -25.0 -15.999999999999982 95.82819595801247
endloop
endfacet
facet normal 0.0 5.551115123125784e-17 -1.0
outer loop
vertex -25.0 -31.999999999999996 95.82819595801249
vertex 0.0 -15.999999999999982 95.82819595801247
vertex 0.0 -31.999999999999996 95.82819595801249
endloop
endfacet
facet normal 0.0 -5.551115123125784e-17 1.0
outer loop
vertex 0.0 -31.999999999999996 125.82819595801244
vertex -25.0 -15.999999999999964 125.82819595801249
vertex -25.0 -31.999999999999996 125.82819595801244
endloop
endfacet
facet normal 0.0 -5.551115123125784e-17 1.0
outer loop
vertex -25.0 -15.999999999999964 125.82819595801249
vertex 0.0 -31.999999999999996 125.82819595801244
vertex 0.0 -15.999999999999964 125.82819595801249
endloop
endfacet
facet normal -1.0 0.0 0.0
outer loop
vertex -25.0 -15.999999999999964 125.82819595801249
vertex -25.0 -31.999999999999996 95.82819595801249
vertex -25.0 -31.999999999999996 125.82819595801244
endloop
endfacet
facet normal -1.0 0.0 0.0
outer loop
vertex -25.0 -31.999999999999996 95.82819595801249
vertex -25.0 -15.999999999999964 125.82819595801249
vertex -25.0 -15.999999999999982 95.82819595801247
endloop
endfacet
facet normal -1.0 0.0 0.0
outer loop
vertex 100.0 -15.999999999999948 475.0
vertex 100.0 -15.999999999999936 345.82819595801254
vertex 100.0 -15.999999999999982 375.82819595801254
endloop
endfacet
facet normal -1.0 0.0 0.0
outer loop
vertex 100.0 -15.999999999999936 345.82819595801254
vertex 100.0 -15.999999999999948 475.0
vertex 100.0 2.255973186038318e-14 475.00000000000006
endloop
endfacet
facet normal -1.0 0.0 0.0
outer loop
vertex 100.0 -15.999999999999936 345.82819595801254
vertex 100.0 2.255973186038318e-14 475.00000000000006
vertex 100.0 0.0 0.0
endloop
endfacet
facet normal -1.0 0.0 0.0
outer loop
vertex 100.0 -15.999999999999982 95.82819595801247
vertex 100.0 0.0 0.0
vertex 100.0 -15.999999999999998 7.049916206369744e-16
endloop
endfacet
facet normal -1.0 0.0 0.0
outer loop
vertex 100.0 0.0 0.0
vertex 100.0 -15.999999999999982 95.82819595801247
vertex 100.0 -15.999999999999964 125.82819595801249
endloop
endfacet
facet normal -1.0 0.0 0.0
outer loop
vertex 100.0 0.0 0.0
vertex 100.0 -15.999999999999964 125.82819595801249
vertex 100.0 -15.999999999999936 345.82819595801254
endloop
endfacet
facet normal 1.0 -4.701514668174058e-16 2.2546143755357545e-18
outer loop
vertex 150.0 0.0 0.0
vertex 150.0 -15.999999999999982 95.82819595801247
vertex 150.0 -15.999999999999998 7.049916206369744e-16
endloop
endfacet
facet normal 1.0 -4.701514668174058e-16 2.2546143755357545e-18
outer loop
vertex 150.0 -15.999999999999982 95.82819595801247
vertex 150.0 0.0 0.0
vertex 149.99999999999997 -15.999999999999964 125.82819595801249
endloop
endfacet
facet normal 1.0 -4.701514668174058e-16 2.2546143755357545e-18
outer loop
vertex 149.99999999999997 -15.999999999999964 125.82819595801249
vertex 150.0 0.0 0.0
vertex 150.0 -15.999999999999936 345.82819595801254
endloop
endfacet
facet normal 1.0 -4.701514668174058e-16 2.2546143755357545e-18
outer loop
vertex 150.0 -15.999999999999936 345.82819595801254
vertex 150.0 -15.999999999999948 475.0
vertex 149.99999999999997 -15.999999999999982 375.82819595801254
endloop
endfacet
facet normal 1.0 -4.701514668174058e-16 2.2546143755357545e-18
outer loop
vertex 150.0 -15.999999999999948 475.0
vertex 150.0 -15.999999999999936 345.82819595801254
vertex 150.0 2.255973186038318e-14 475.00000000000006
endloop
endfacet
facet normal 1.0 -4.701514668174058e-16 2.2546143755357545e-18
outer loop
vertex 150.0 2.255973186038318e-14 475.00000000000006
vertex 150.0 -15.999999999999936 345.82819595801254
vertex 150.0 0.0 0.0
endloop
endfacet
facet normal 0.0 5.551115123125784e-17 -1.0
outer loop
vertex 400.0 -15.999999999999936 345.82819595801254
vertex 350.0 -31.999999999999964 345.8281959580126
vertex 350.0 -15.999999999999936 345.82819595801254
endloop
endfacet
facet normal 0.0 5.551115123125784e-17 -1.0
outer loop
vertex 350.0 -31.999999999999964 345.8281959580126
vertex 400.0 -15.999999999999936 345.82819595801254
vertex 400.0 -31.999999999999964 345.8281959580126
endloop
endfacet
facet normal 0.0 5.551115123125784e-17 -1.0
outer loop
vertex 475.0 -15.999999999999982 95.82819595801247
vertex 450.0 -31.999999999999996 95.82819595801249
vertex 450.0 -15.999999999999982 95.82819595801247
endloop
endfacet
facet normal 0.0 5.551115123125784e-17 -1.0
outer loop
vertex 450.0 -31.999999999999996 95.82819595801249
vertex 475.0 -15.999999999999982 95.82819595801247
vertex 475.0 -31.999999999999996 95.82819595801249
endloop
endfacet
facet normal 0.0 -5.551115123125784e-17 1.0
outer loop
vertex 50.0 -31.999999999999975 375.8281959580123
vertex 0.0 -15.999999999999982 375.82819595801254
vertex 0.0 -31.999999999999975 375.8281959580123
endloop
endfacet
facet normal 0.0 -5.551115123125784e-17 1.0
outer loop
vertex 0.0 -15.999999999999982 375.82819595801254
vertex 50.0 -31.999999999999975 375.8281959580123
vertex 50.0 -15.999999999999982 375.82819595801254
endloop
endfacet
facet normal -1.0 0.0 0.0
outer loop
vertex -25.0 -15.999999999999982 375.82819595801254
vertex -25.0 -31.999999999999964 345.8281959580126
vertex -25.0 -31.999999999999975 375.8281959580123
endloop
endfacet
facet normal -1.0 0.0 0.0
outer loop
vertex -25.0 -31.999999999999964 345.8281959580126
vertex -25.0 -15.999999999999982 375.82819595801254
vertex -25.0 -15.999999999999936 345.82819595801254
endloop
endfacet
facet normal 0.0 5.551115123125784e-17 -1.0
outer loop
vertex 0.0 -15.999999999999936 345.82819595801254
vertex -25.0 -31.999999999999964 345.8281959580126
vertex -25.0 -15.999999999999936 345.82819595801254
endloop
endfacet
facet normal 0.0 5.551115123125784e-17 -1.0
outer loop
vertex -25.0 -31.999999999999964 345.8281959580126
vertex 0.0 -15.999999999999936 345.82819595801254
vertex 0.0 -31.999999999999964 345.8281959580126
endloop
endfacet
facet normal 0.0 -5.551115123125784e-17 1.0
outer loop
vertex 0.0 -31.999999999999975 375.8281959580123
vertex -25.0 -15.999999999999982 375.82819595801254
vertex -25.0 -31.999999999999975 375.8281959580123
endloop
endfacet
facet normal 0.0 -5.551115123125784e-17 1.0
outer loop
vertex -25.0 -15.999999999999982 375.82819595801254
vertex 0.0 -31.999999999999975 375.8281959580123
vertex 0.0 -15.999999999999982 375.82819595801254
endloop
endfacet
facet normal 0.0 -5.551115123125784e-17 1.0
outer loop
vertex 250.0 -31.999999999999975 375.8281959580123
vertex 199.99999999999997 -15.999999999999982 375.82819595801254
vertex 199.99999999999997 -31.999999999999975 375.8281959580123
endloop
endfacet
facet normal 0.0 -5.551115123125784e-17 1.0
outer loop
vertex 199.99999999999997 -15.999999999999982 375.82819595801254
vertex 250.0 -31.999999999999975 375.8281959580123
vertex 250.0 -15.999999999999982 375.82819595801254
endloop
endfacet
facet normal 0.0 5.551115123125784e-17 -1.0
outer loop
vertex 250.0 -15.999999999999936 345.82819595801254
vertex 200.0 -31.999999999999964 345.8281959580126
vertex 200.0 -15.999999999999936 345.82819595801254
endloop
endfacet
facet normal 0.0 5.551115123125784e-17 -1.0
outer loop
vertex 200.0 -31.999999999999964 345.8281959580126
vertex 250.0 -15.999999999999936 345.82819595801254
vertex 250.0 -31.999999999999964 345.8281959580126
endloop
endfacet
facet normal 0.0 -5.551115123125784e-17 1.0
outer loop
vertex 450.0 -31.999999999999975 375.8281959580123
vertex 400.0 -15.999999999999982 375.82819595801254
vertex 400.0 -31.999999999999975 375.8281959580123
endloop
endfacet
facet normal 0.0 -5.551115123125784e-17 1.0
outer loop
vertex 400.0 -15.999999999999982 375.82819595801254
vertex 450.0 -31.999999999999975 375.8281959580123
vertex 450.0 -15.999999999999982 375.82819595801254
endloop
endfacet
facet normal 0.0 5.551115123125784e-17 -1.0
outer loop
vertex 150.0 0.0 0.0
vertex 100.0 -15.999999999999998 7.049916206369744e-16
vertex 100.0 0.0 0.0
endloop
endfacet
facet normal 0.0 5.551115123125784e-17 -1.0
outer loop
vertex 100.0 -15.999999999999998 7.049916206369744e-16
vertex 150.0 0.0 0.0
vertex 150.0 -15.999999999999998 7.049916206369744e-16
endloop
endfacet
facet normal -0.7071067811865475 5.551115123125783e-17 0.7071067811865476
outer loop
vertex 125.0 -15.999999999999902 499.99999999999983
vertex 100.0 2.255973186038318e-14 475.00000000000006
vertex 100.0 -15.999999999999948 475.0
endloop
endfacet
facet normal -0.7071067811865475 5.551115123125783e-17 0.7071067811865476
outer loop
vertex 100.0 2.255973186038318e-14 475.00000000000006
vertex 125.0 -15.999999999999902 499.99999999999983
vertex 125.0 4.511946372076636e-14 499.9999999999999
endloop
endfacet
facet normal 0.7071067811865475 5.551115123125783e-17 0.7071067811865476
outer loop
vertex 150.0 -15.999999999999948 475.0
vertex 125.0 4.511946372076636e-14 499.9999999999999
vertex 125.0 -15.999999999999902 499.99999999999983
endloop
endfacet
facet normal 0.7071067811865475 5.551115123125783e-17 0.7071067811865476
outer loop
vertex 125.0 4.511946372076636e-14 499.9999999999999
vertex 150.0 -15.999999999999948 475.0
vertex 150.0 2.255973186038318e-14 475.00000000000006
endloop
endfacet
facet normal 9.18526704719699e-46 1.0 -5.639932965095791e-16
outer loop
vertex 450.0 -15.999999999999964 125.82819595801249
vertex 475.0 -15.999999999999982 95.82819595801247
vertex 450.0 -15.999999999999982 95.82819595801247
endloop
endfacet
facet normal 9.18526704719699e-46 1.0 -5.639932965095791e-16
outer loop
vertex 475.0 -15.999999999999982 95.82819595801247
vertex 450.0 -15.999999999999964 125.82819595801249
vertex 475.0 -15.999999999999964 125.82819595801249
endloop
endfacet
facet normal 0.0 -1.0 -5.551115123125784e-17
outer loop
vertex 150.0 -15.999999999999936 345.82819595801254
vertex 100.0 -15.999999999999964 125.82819595801249
vertex 149.99999999999997 -15.999999999999964 125.82819595801249
endloop
endfacet
facet normal 0.0 -1.0 -5.551115123125784e-17
outer loop
vertex 100.0 -15.999999999999964 125.82819595801249
vertex 150.0 -15.999999999999936 345.82819595801254
vertex 100.0 -15.999999999999936 345.82819595801254
endloop
endfacet
facet normal 0.0 -1.0 -5.551115123125784e-17
outer loop
vertex 350.0 -15.999999999999982 95.82819595801247
vertex 300.0 -15.999999999999998 7.049916206369744e-16
vertex 350.0 -15.999999999999998 7.049916206369744e-16
endloop
endfacet
facet normal 0.0 -1.0 -5.551115123125784e-17
outer loop
vertex 300.0 -15.999999999999998 7.049916206369744e-16
vertex 350.0 -15.999999999999982 95.82819595801247
vertex 300.0 -15.999999999999982 95.82819595801247
endloop
endfacet
facet normal 0.0 -1.0 -5.551115123125784e-17
outer loop
vertex 350.0 -15.999999999999936 345.82819595801254
vertex 300.0 -15.999999999999964 125.82819595801249
vertex 350.0 -15.999999999999964 125.82819595801249
endloop
endfacet
facet normal 0.0 -1.0 -5.551115123125784e-17
outer loop
vertex 300.0 -15.999999999999964 125.82819595801249
vertex 350.0 -15.999999999999936 345.82819595801254
vertex 300.0 -15.999999999999936 345.82819595801254
endloop
endfacet
facet normal 0.0 -1.0 -5.551115123125784e-17
outer loop
vertex 50.0 -15.999999999999982 95.82819595801247
vertex 0.0 -15.999999999999998 7.049916206369744e-16
vertex 50.0 -15.999999999999998 7.049916206369744e-16
endloop
endfacet
facet normal 0.0 -1.0 -5.551115123125784e-17
outer loop
vertex 0.0 -15.999999999999998 7.049916206369744e-16
vertex 50.0 -15.999999999999982 95.82819595801247
vertex 0.0 -15.999999999999982 95.82819595801247
endloop
endfacet
facet normal 0.0 -1.0 -5.551115123125784e-17
outer loop
vertex 150.0 -15.999999999999982 95.82819595801247
vertex 100.0 -15.999999999999998 7.049916206369744e-16
vertex 150.0 -15.999999999999998 7.049916206369744e-16
endloop
endfacet
facet normal 0.0 -1.0 -5.551115123125784e-17
outer loop
vertex 100.0 -15.999999999999998 7.049916206369744e-16
vertex 150.0 -15.999999999999982 95.82819595801247
vertex 100.0 -15.999999999999982 95.82819595801247
endloop
endfacet
facet normal 0.0 -1.0 -5.551115123125784e-17
outer loop
vertex 50.0 -15.999999999999936 345.82819595801254
vertex 0.0 -15.999999999999964 125.82819595801249
vertex 50.0 -15.999999999999964 125.82819595801249
endloop
endfacet
facet normal 0.0 -1.0 -5.551115123125784e-17
outer loop
vertex 0.0 -15.999999999999964 125.82819595801249
vertex 50.0 -15.999999999999936 345.82819595801254
vertex 0.0 -15.999999999999936 345.82819595801254
endloop
endfacet
facet normal 0.0 -1.0 -5.551115123125784e-17
outer loop
vertex 250.0 -15.999999999999982 95.82819595801247
vertex 200.0 -15.999999999999998 7.049916206369744e-16
vertex 250.0 -15.999999999999998 7.049916206369744e-16
endloop
endfacet
facet normal 0.0 -1.0 -5.551115123125784e-17
outer loop
vertex 200.0 -15.999999999999998 7.049916206369744e-16
vertex 250.0 -15.999999999999982 95.82819595801247
vertex 200.0 -15.999999999999982 95.82819595801247
endloop
endfacet
facet normal 0.0 -1.0 -5.551115123125784e-17
outer loop
vertex 450.0 -15.999999999999982 95.82819595801247
vertex 400.0 -15.999999999999998 7.049916206369744e-16
vertex 450.0 -15.999999999999998 7.049916206369744e-16
endloop
endfacet
facet normal 0.0 -1.0 -5.551115123125784e-17
outer loop
vertex 400.0 -15.999999999999998 7.049916206369744e-16
vertex 450.0 -15.999999999999982 95.82819595801247
vertex 400.0 -15.999999999999982 95.82819595801247
endloop
endfacet
facet normal 0.0 -1.0 -5.551115123125784e-17
outer loop
vertex 450.0 -15.999999999999936 345.82819595801254
vertex 400.0 -15.999999999999964 125.82819595801249
vertex 450.0 -15.999999999999964 125.82819595801249
endloop
endfacet
facet normal 0.0 -1.0 -5.551115123125784e-17
outer loop
vertex 400.0 -15.999999999999964 125.82819595801249
vertex 450.0 -15.999999999999936 345.82819595801254
vertex 400.0 -15.999999999999936 345.82819595801254
endloop
endfacet
facet normal 0.0 -1.0 -5.551115123125784e-17
outer loop
vertex 250.0 -15.999999999999936 345.82819595801254
vertex 200.0 -15.999999999999964 125.82819595801249
vertex 250.0 -15.999999999999964 125.82819595801249
endloop
endfacet
facet normal 0.0 -1.0 -5.551115123125784e-17
outer loop
vertex 200.0 -15.999999999999964 125.82819595801249
vertex 250.0 -15.999999999999936 345.82819595801254
vertex 200.0 -15.999999999999936 345.82819595801254
endloop
endfacet
facet normal 0.0 -5.551115123125784e-17 1.0
outer loop
vertex 149.99999999999997 -31.999999999999996 125.82819595801244
vertex 100.0 -15.999999999999964 125.82819595801249
vertex 100.0 -31.999999999999996 125.82819595801244
endloop
endfacet
facet normal 0.0 -5.551115123125784e-17 1.0
outer loop
vertex 100.0 -15.999999999999964 125.82819595801249
vertex 149.99999999999997 -31.999999999999996 125.82819595801244
vertex 149.99999999999997 -15.999999999999964 125.82819595801249
endloop
endfacet
facet normal 0.0 5.551115123125784e-17 -1.0
outer loop
vertex 150.0 -15.999999999999982 95.82819595801247
vertex 100.0 -31.999999999999996 95.82819595801249
vertex 100.0 -15.999999999999982 95.82819595801247
endloop
endfacet
facet normal 0.0 5.551115123125784e-17 -1.0
outer loop
vertex 100.0 -31.999999999999996 95.82819595801249
vertex 150.0 -15.999999999999982 95.82819595801247
vertex 150.0 -31.999999999999996 95.82819595801249
endloop
endfacet
facet normal 0.0 -5.551115123125784e-17 1.0
outer loop
vertex 100.0 -31.999999999999996 125.82819595801244
vertex 50.0 -15.999999999999964 125.82819595801249
vertex 50.0 -31.999999999999996 125.82819595801244
endloop
endfacet
facet normal 0.0 -5.551115123125784e-17 1.0
outer loop
vertex 50.0 -15.999999999999964 125.82819595801249
vertex 100.0 -31.999999999999996 125.82819595801244
vertex 100.0 -15.999999999999964 125.82819595801249
endloop
endfacet
facet normal 0.0 -5.551115123125784e-17 1.0
outer loop
vertex 300.0 -31.999999999999996 125.82819595801244
vertex 250.0 -15.999999999999964 125.82819595801249
vertex 250.0 -31.999999999999996 125.82819595801244
endloop
endfacet
facet normal 0.0 -5.551115123125784e-17 1.0
outer loop
vertex 250.0 -15.999999999999964 125.82819595801249
vertex 300.0 -31.999999999999996 125.82819595801244
vertex 300.0 -15.999999999999964 125.82819595801249
endloop
endfacet
facet normal 0.0 5.551115123125784e-17 -1.0
outer loop
vertex 450.0 -15.999999999999982 95.82819595801247
vertex 400.0 -31.999999999999996 95.82819595801249
vertex 400.0 -15.999999999999982 95.82819595801247
endloop
endfacet
facet normal 0.0 5.551115123125784e-17 -1.0
outer loop
vertex 400.0 -31.999999999999996 95.82819595801249
vertex 450.0 -15.999999999999982 95.82819595801247
vertex 450.0 -31.999999999999996 95.82819595801249
endloop
endfacet
facet normal 0.0 5.551115123125784e-17 -1.0
outer loop
vertex 200.0 -15.999999999999982 95.82819595801247
vertex 150.0 -31.999999999999996 95.82819595801249
vertex 150.0 -15.999999999999982 95.82819595801247
endloop
endfacet
facet normal 0.0 5.551115123125784e-17 -1.0
outer loop
vertex 150.0 -31.999999999999996 95.82819595801249
vertex 200.0 -15.999999999999982 95.82819595801247
vertex 200.0 -31.999999999999996 95.82819595801249
endloop
endfacet
facet normal 0.0 5.551115123125784e-17 -1.0
outer loop
vertex 100.0 -15.999999999999982 95.82819595801247
vertex 50.0 -31.999999999999996 95.82819595801249
vertex 50.0 -15.999999999999982 95.82819595801247
endloop
endfacet
facet normal 0.0 5.551115123125784e-17 -1.0
outer loop
vertex 50.0 -31.999999999999996 95.82819595801249
vertex 100.0 -15.999999999999982 95.82819595801247
vertex 100.0 -31.999999999999996 95.82819595801249
endloop
endfacet
facet normal 0.0 -5.551115123125784e-17 1.0
outer loop
vertex 200.0 -31.999999999999996 125.82819595801244
vertex 149.99999999999997 -15.999999999999964 125.82819595801249
vertex 149.99999999999997 -31.999999999999996 125.82819595801244
endloop
endfacet
facet normal 0.0 -5.551115123125784e-17 1.0
outer loop
vertex 149.99999999999997 -15.999999999999964 125.82819595801249
vertex 200.0 -31.999999999999996 125.82819595801244
vertex 200.0 -15.999999999999964 125.82819595801249
endloop
endfacet
facet normal 0.0 -5.551115123125784e-17 1.0
outer loop
vertex 400.0 -31.999999999999996 125.82819595801244
vertex 350.0 -15.999999999999964 125.82819595801249
vertex 350.0 -31.999999999999996 125.82819595801244
endloop
endfacet
facet normal 0.0 -5.551115123125784e-17 1.0
outer loop
vertex 350.0 -15.999999999999964 125.82819595801249
vertex 400.0 -31.999999999999996 125.82819595801244
vertex 400.0 -15.999999999999964 125.82819595801249
endloop
endfacet
facet normal 0.0 5.551115123125784e-17 -1.0
outer loop
vertex 300.0 -15.999999999999982 95.82819595801247
vertex 250.0 -31.999999999999996 95.82819595801249
vertex 250.0 -15.999999999999982 95.82819595801247
endloop
endfacet
facet normal 0.0 5.551115123125784e-17 -1.0
outer loop
vertex 250.0 -31.999999999999996 95.82819595801249
vertex 300.0 -15.999999999999982 95.82819595801247
vertex 300.0 -31.999999999999996 95.82819595801249
endloop
endfacet
facet normal 1.0 0.0 0.0
outer loop
vertex 475.0 -15.999999999999982 95.82819595801247
vertex 475.0 -31.999999999999996 125.82819595801244
vertex 475.0 -31.999999999999996 95.82819595801249
endloop
endfacet
facet normal 1.0 0.0 0.0
outer loop
vertex 475.0 -31.999999999999996 125.82819595801244
vertex 475.0 -15.999999999999982 95.82819595801247
vertex 475.0 -15.999999999999964 125.82819595801249
endloop
endfacet
facet normal 0.0 5.551115123125784e-17 -1.0
outer loop
vertex 350.0 -15.999999999999982 95.82819595801247
vertex 300.0 -31.999999999999996 95.82819595801249
vertex 300.0 -15.999999999999982 95.82819595801247
endloop
endfacet
facet normal 0.0 5.551115123125784e-17 -1.0
outer loop
vertex 300.0 -31.999999999999996 95.82819595801249
vertex 350.0 -15.999999999999982 95.82819595801247
vertex 350.0 -31.999999999999996 95.82819595801249
endloop
endfacet
facet normal 0.0 -5.551115123125784e-17 1.0
outer loop
vertex 350.0 -31.999999999999996 125.82819595801244
vertex 300.0 -15.999999999999964 125.82819595801249
vertex 300.0 -31.999999999999996 125.82819595801244
endloop
endfacet
facet normal 0.0 -5.551115123125784e-17 1.0
outer loop
vertex 300.0 -15.999999999999964 125.82819595801249
vertex 350.0 -31.999999999999996 125.82819595801244
vertex 350.0 -15.999999999999964 125.82819595801249
endloop
endfacet
facet normal 0.0 5.551115123125784e-17 -1.0
outer loop
vertex 50.0 -15.999999999999982 95.82819595801247
vertex 0.0 -31.999999999999996 95.82819595801249
vertex 0.0 -15.999999999999982 95.82819595801247
endloop
endfacet
facet normal 0.0 5.551115123125784e-17 -1.0
outer loop
vertex 0.0 -31.999999999999996 95.82819595801249
vertex 50.0 -15.999999999999982 95.82819595801247
vertex 50.0 -31.999999999999996 95.82819595801249
endloop
endfacet
facet normal 0.0 -1.0 -5.551115123125784e-17
outer loop
vertex 475.0 -31.999999999999996 125.82819595801244
vertex 450.0 -31.999999999999996 95.82819595801249
vertex 475.0 -31.999999999999996 95.82819595801249
endloop
endfacet
facet normal 0.0 -1.0 -5.551115123125784e-17
outer loop
vertex 450.0 -31.999999999999996 95.82819595801249
vertex 475.0 -31.999999999999996 125.82819595801244
vertex 400.0 -31.999999999999996 95.82819595801249
endloop
endfacet
facet normal 0.0 -1.0 -5.551115123125784e-17
outer loop
vertex 400.0 -31.999999999999996 95.82819595801249
vertex 475.0 -31.999999999999996 125.82819595801244
vertex 350.0 -31.999999999999996 95.82819595801249
endloop
endfacet
facet normal 0.0 -1.0 -5.551115123125784e-17
outer loop
vertex 350.0 -31.999999999999996 95.82819595801249
vertex 475.0 -31.999999999999996 125.82819595801244
vertex 300.0 -31.999999999999996 95.82819595801249
endloop
endfacet
facet normal 0.0 -1.0 -5.551115123125784e-17
outer loop
vertex 300.0 -31.999999999999996 95.82819595801249
vertex 475.0 -31.999999999999996 125.82819595801244
vertex 250.0 -31.999999999999996 95.82819595801249
endloop
endfacet
facet normal 0.0 -1.0 -5.551115123125784e-17
outer loop
vertex 250.0 -31.999999999999996 95.82819595801249
vertex 475.0 -31.999999999999996 125.82819595801244
vertex 200.0 -31.999999999999996 95.82819595801249
endloop
endfacet
facet normal 0.0 -1.0 -5.551115123125784e-17
outer loop
vertex 200.0 -31.999999999999996 95.82819595801249
vertex 475.0 -31.999999999999996 125.82819595801244
vertex 150.0 -31.999999999999996 95.82819595801249
endloop
endfacet
facet normal 0.0 -1.0 -5.551115123125784e-17
outer loop
vertex 150.0 -31.999999999999996 95.82819595801249
vertex 475.0 -31.999999999999996 125.82819595801244
vertex 100.0 -31.999999999999996 95.82819595801249
endloop
endfacet
facet normal 0.0 -1.0 -5.551115123125784e-17
outer loop
vertex 100.0 -31.999999999999996 95.82819595801249
vertex 475.0 -31.999999999999996 125.82819595801244
vertex 50.0 -31.999999999999996 95.82819595801249
endloop
endfacet
facet normal 0.0 -1.0 -5.551115123125784e-17
outer loop
vertex 50.0 -31.999999999999996 95.82819595801249
vertex 475.0 -31.999999999999996 125.82819595801244
vertex 0.0 -31.999999999999996 95.82819595801249
endloop
endfacet
facet normal 0.0 -1.0 -5.551115123125784e-17
outer loop
vertex 0.0 -31.999999999999996 95.82819595801249
vertex 475.0 -31.999999999999996 125.82819595801244
vertex -25.0 -31.999999999999996 95.82819595801249
endloop
endfacet
facet normal 0.0 -1.0 -5.551115123125784e-17
outer loop
vertex -25.0 -31.999999999999996 95.82819595801249
vertex 475.0 -31.999999999999996 125.82819595801244
vertex -25.0 -31.999999999999996 125.82819595801244
endloop
endfacet
facet normal 0.0 -1.0 -5.551115123125784e-17
outer loop
vertex -25.0 -31.999999999999996 125.82819595801244
vertex 475.0 -31.999999999999996 125.82819595801244
vertex 450.0 -31.999999999999996 125.82819595801244
endloop
endfacet
facet normal 0.0 -1.0 -5.551115123125784e-17
outer loop
vertex -25.0 -31.999999999999996 125.82819595801244
vertex 450.0 -31.999999999999996 125.82819595801244
vertex 400.0 -31.999999999999996 125.82819595801244
endloop
endfacet
facet normal 0.0 -1.0 -5.551115123125784e-17
outer loop
vertex -25.0 -31.999999999999996 125.82819595801244
vertex 400.0 -31.999999999999996 125.82819595801244
vertex 350.0 -31.999999999999996 125.82819595801244
endloop
endfacet
facet normal 0.0 -1.0 -5.551115123125784e-17
outer loop
vertex -25.0 -31.999999999999996 125.82819595801244
vertex 350.0 -31.999999999999996 125.82819595801244
vertex 300.0 -31.999999999999996 125.82819595801244
endloop
endfacet
facet normal 0.0 -1.0 -5.551115123125784e-17
outer loop
vertex -25.0 -31.999999999999996 125.82819595801244
vertex 300.0 -31.999999999999996 125.82819595801244
vertex 250.0 -31.999999999999996 125.82819595801244
endloop
endfacet
facet normal 0.0 -1.0 -5.551115123125784e-17
outer loop
vertex -25.0 -31.999999999999996 125.82819595801244
vertex 250.0 -31.999999999999996 125.82819595801244
vertex 200.0 -31.999999999999996 125.82819595801244
endloop
endfacet
facet normal 0.0 -1.0 -5.551115123125784e-17
outer loop
vertex -25.0 -31.999999999999996 125.82819595801244
vertex 200.0 -31.999999999999996 125.82819595801244
vertex 149.99999999999997 -31.999999999999996 125.82819595801244
endloop
endfacet
facet normal 0.0 -1.0 -5.551115123125784e-17
outer loop
vertex -25.0 -31.999999999999996 125.82819595801244
vertex 149.99999999999997 -31.999999999999996 125.82819595801244
vertex 100.0 -31.999999999999996 125.82819595801244
endloop
endfacet
facet normal 0.0 -1.0 -5.551115123125784e-17
outer loop
vertex -25.0 -31.999999999999996 125.82819595801244
vertex 100.0 -31.999999999999996 125.82819595801244
vertex 50.0 -31.999999999999996 125.82819595801244
endloop
endfacet
facet normal 0.0 -1.0 -5.551115123125784e-17
outer loop
vertex -25.0 -31.999999999999996 125.82819595801244
vertex 50.0 -31.999999999999996 125.82819595801244
vertex 0.0 -31.999999999999996 125.82819595801244
endloop
endfacet
facet normal 0.7071067811865475 5.551115123125783e-17 0.7071067811865476
outer loop
vertex 350.0 -15.999999999999948 475.0
vertex 325.0 4.511946372076636e-14 499.9999999999999
vertex 325.0 -15.999999999999902 499.99999999999983
endloop
endfacet
facet normal 0.7071067811865475 5.551115123125783e-17 0.7071067811865476
outer loop
vertex 325.0 4.511946372076636e-14 499.9999999999999
vertex 350.0 -15.999999999999948 475.0
vertex 350.0 2.255973186038318e-14 475.00000000000006
endloop
endfacet
facet normal 0.0 1.0 5.551115123125784e-17
outer loop
vertex 100.0 2.255973186038318e-14 475.00000000000006
vertex 150.0 0.0 0.0
vertex 100.0 0.0 0.0
endloop
endfacet
facet normal 0.0 1.0 5.551115123125784e-17
outer loop
vertex 150.0 0.0 0.0
vertex 100.0 2.255973186038318e-14 475.00000000000006
vertex 150.0 2.255973186038318e-14 475.00000000000006
endloop
endfacet
facet normal 0.0 1.0 5.551115123125784e-17
outer loop
vertex 150.0 2.255973186038318e-14 475.00000000000006
vertex 100.0 2.255973186038318e-14 475.00000000000006
vertex 125.0 4.511946372076636e-14 499.9999999999999
endloop
endfacet
facet normal 0.0 -1.0 -5.551115123125784e-17
outer loop
vertex 450.0 -15.999999999999964 125.82819595801249
vertex 400.0 -15.999999999999982 95.82819595801247
vertex 450.0 -15.999999999999982 95.82819595801247
endloop
endfacet
facet normal 0.0 -1.0 -5.551115123125784e-17
outer loop
vertex 400.0 -15.999999999999982 95.82819595801247
vertex 450.0 -15.999999999999964 125.82819595801249
vertex 400.0 -15.999999999999964 125.82819595801249
endloop
endfacet
facet normal 0.0 -1.0 -5.551115123125784e-17
outer loop
vertex 50.0 -15.999999999999964 125.82819595801249
vertex 0.0 -15.999999999999982 95.82819595801247
vertex 50.0 -15.999999999999982 95.82819595801247
endloop
endfacet
facet normal 0.0 -1.0 -5.551115123125784e-17
outer loop
vertex 0.0 -15.999999999999982 95.82819595801247
vertex 50.0 -15.999999999999964 125.82819595801249
vertex 0.0 -15.999999999999964 125.82819595801249
endloop
endfacet
facet normal -0.0 1.0 1.5039821240255434e-15
outer loop
vertex 450.0 -15.999999999999982 375.82819595801254
vertex 475.0 -15.999999999999936 345.82819595801254
vertex 450.0 -15.999999999999936 345.82819595801254
endloop
endfacet
facet normal -0.0 1.0 1.5039821240255434e-15
outer loop
vertex 475.0 -15.999999999999936 345.82819595801254
vertex 450.0 -15.999999999999982 375.82819595801254
vertex 475.0 -15.999999999999982 375.82819595801254
endloop
endfacet
facet normal -0.0 1.0 5.551115123125784e-17
outer loop
vertex 350.0 -15.999999999999982 375.82819595801254
vertex 400.0 -15.999999999999936 345.82819595801254
vertex 350.0 -15.999999999999936 345.82819595801254
endloop
endfacet
facet normal -0.0 1.0 5.551115123125784e-17
outer loop
vertex 400.0 -15.999999999999936 345.82819595801254
vertex 350.0 -15.999999999999982 375.82819595801254
vertex 400.0 -15.999999999999982 375.82819595801254
endloop
endfacet
facet normal 0.0 -5.551115123125784e-17 1.0
outer loop
vertex 475.0 -31.999999999999975 375.8281959580123
vertex 450.0 -15.999999999999982 375.82819595801254
vertex 450.0 -31.999999999999975 375.8281959580123
endloop
endfacet
facet normal 0.0 -5.551115123125784e-17 1.0
outer loop
vertex 450.0 -15.999999999999982 375.82819595801254
vertex 475.0 -31.999999999999975 375.8281959580123
vertex 475.0 -15.999999999999982 375.82819595801254
endloop
endfacet
facet normal 0.0 5.551115123125784e-17 -1.0
outer loop
vertex 475.0 -15.999999999999936 345.82819595801254
vertex 450.0 -31.999999999999964 345.8281959580126
vertex 450.0 -15.999999999999936 345.82819595801254
endloop
endfacet
facet normal 0.0 5.551115123125784e-17 -1.0
outer loop
vertex 450.0 -31.999999999999964 345.8281959580126
vertex 475.0 -15.999999999999936 345.82819595801254
vertex 475.0 -31.999999999999964 345.8281959580126
endloop
endfacet
facet normal 0.0 -5.551115123125784e-17 1.0
outer loop
vertex 50.0 -31.999999999999996 125.82819595801244
vertex 0.0 -15.999999999999964 125.82819595801249
vertex 0.0 -31.999999999999996 125.82819595801244
endloop
endfacet
facet normal 0.0 -5.551115123125784e-17 1.0
outer loop
vertex 0.0 -15.999999999999964 125.82819595801249
vertex 50.0 -31.999999999999996 125.82819595801244
vertex 50.0 -15.999999999999964 125.82819595801249
endloop
endfacet
facet normal 0.0 -5.551115123125784e-17 1.0
outer loop
vertex 475.0 -31.999999999999996 125.82819595801244
vertex 450.0 -15.999999999999964 125.82819595801249
vertex 450.0 -31.999999999999996 125.82819595801244
endloop
endfacet
facet normal 0.0 -5.551115123125784e-17 1.0
outer loop
vertex 450.0 -15.999999999999964 125.82819595801249
vertex 475.0 -31.999999999999996 125.82819595801244
vertex 475.0 -15.999999999999964 125.82819595801249
endloop
endfacet
facet normal 0.0 5.551115123125784e-17 -1.0
outer loop
vertex 50.0 -15.999999999999936 345.82819595801254
vertex 0.0 -31.999999999999964 345.8281959580126
vertex 0.0 -15.999999999999936 345.82819595801254
endloop
endfacet
facet normal 0.0 5.551115123125784e-17 -1.0
outer loop
vertex 0.0 -31.999999999999964 345.8281959580126
vertex 50.0 -15.999999999999936 345.82819595801254
vertex 50.0 -31.999999999999964 345.8281959580126
endloop
endfacet
facet normal 0.0 5.551115123125784e-17 -1.0
outer loop
vertex 350.0 -15.999999999999936 345.82819595801254
vertex 300.0 -31.999999999999964 345.8281959580126
vertex 300.0 -15.999999999999936 345.82819595801254
endloop
endfacet
facet normal 0.0 5.551115123125784e-17 -1.0
outer loop
vertex 300.0 -31.999999999999964 345.8281959580126
vertex 350.0 -15.999999999999936 345.82819595801254
vertex 350.0 -31.999999999999964 345.8281959580126
endloop
endfacet
facet normal 0.0 -5.551115123125784e-17 1.0
outer loop
vertex 350.0 -31.999999999999975 375.8281959580123
vertex 300.0 -15.999999999999982 375.82819595801254
vertex 300.0 -31.999999999999975 375.8281959580123
endloop
endfacet
facet normal 0.0 -5.551115123125784e-17 1.0
outer loop
vertex 300.0 -15.999999999999982 375.82819595801254
vertex 350.0 -31.999999999999975 375.8281959580123
vertex 350.0 -15.999999999999982 375.82819595801254
endloop
endfacet
facet normal 0.0 5.551115123125784e-17 -1.0
outer loop
vertex 50.0 0.0 0.0
vertex 0.0 -15.999999999999998 7.049916206369744e-16
vertex 0.0 0.0 0.0
endloop
endfacet
facet normal 0.0 5.551115123125784e-17 -1.0
outer loop
vertex 0.0 -15.999999999999998 7.049916206369744e-16
vertex 50.0 0.0 0.0
vertex 50.0 -15.999999999999998 7.049916206369744e-16
endloop
endfacet
facet normal 0.7071067811865475 5.551115123125783e-17 0.7071067811865476
outer loop
vertex 50.0 -15.999999999999948 475.0
vertex 25.0 4.511946372076636e-14 499.9999999999999
vertex 25.0 -15.999999999999902 499.99999999999983
endloop
endfacet
facet normal 0.7071067811865475 5.551115123125783e-17 0.7071067811865476
outer loop
vertex 25.0 4.511946372076636e-14 499.9999999999999
vertex 50.0 -15.999999999999948 475.0
vertex 50.0 2.255973186038318e-14 475.00000000000006
endloop
endfacet
facet normal -0.7071067811865475 5.551115123125783e-17 0.7071067811865476
outer loop
vertex 25.0 -15.999999999999902 499.99999999999983
vertex 0.0 2.255973186038318e-14 475.00000000000006
vertex 0.0 -15.999999999999948 475.0
endloop
endfacet
facet normal -0.7071067811865475 5.551115123125783e-17 0.7071067811865476
outer loop
vertex 0.0 2.255973186038318e-14 475.00000000000006
vertex 25.0 -15.999999999999902 499.99999999999983
vertex 25.0 4.511946372076636e-14 499.9999999999999
endloop
endfacet
facet normal 0.0 1.0 5.551115123125784e-17
outer loop
vertex 300.0 2.255973186038318e-14 475.00000000000006
vertex 350.0 0.0 0.0
vertex 300.0 0.0 0.0
endloop
endfacet
facet normal 0.0 1.0 5.551115123125784e-17
outer loop
vertex 350.0 0.0 0.0
vertex 300.0 2.255973186038318e-14 475.00000000000006
vertex 350.0 2.255973186038318e-14 475.00000000000006
endloop
endfacet
facet normal 0.0 1.0 5.551115123125784e-17
outer loop
vertex 350.0 2.255973186038318e-14 475.00000000000006
vertex 300.0 2.255973186038318e-14 475.00000000000006
vertex 325.0 4.511946372076636e-14 499.9999999999999
endloop
endfacet
facet normal 0.7071067811865475 5.551115123125783e-17 0.7071067811865476
outer loop
vertex 250.0 -15.999999999999948 475.0
vertex 225.0 4.511946372076636e-14 499.9999999999999
vertex 225.0 -15.999999999999902 499.99999999999983
endloop
endfacet
facet normal 0.7071067811865475 5.551115123125783e-17 0.7071067811865476
outer loop
vertex 225.0 4.511946372076636e-14 499.9999999999999
vertex 250.0 -15.999999999999948 475.0
vertex 250.0 2.255973186038318e-14 475.00000000000006
endloop
endfacet
facet normal 0.0 1.0 5.551115123125784e-17
outer loop
vertex 400.0 2.255973186038318e-14 475.00000000000006
vertex 450.0 0.0 0.0
vertex 400.0 0.0 0.0
endloop
endfacet
facet normal 0.0 1.0 5.551115123125784e-17
outer loop
vertex 450.0 0.0 0.0
vertex 400.0 2.255973186038318e-14 475.00000000000006
vertex 450.0 2.255973186038318e-14 475.00000000000006
endloop
endfacet
facet normal 0.0 1.0 5.551115123125784e-17
outer loop
vertex 450.0 2.255973186038318e-14 475.00000000000006
vertex 400.0 2.255973186038318e-14 475.00000000000006
vertex 425.0 4.511946372076636e-14 499.9999999999999
endloop
endfacet
facet normal -0.0 1.0 5.551115123125784e-17
outer loop
vertex 50.0 -15.999999999999982 375.82819595801254
vertex 100.0 -15.999999999999936 345.82819595801254
vertex 50.0 -15.999999999999936 345.82819595801254
endloop
endfacet
facet normal -0.0 1.0 5.551115123125784e-17
outer loop
vertex 100.0 -15.999999999999936 345.82819595801254
vertex 50.0 -15.999999999999982 375.82819595801254
vertex 100.0 -15.999999999999982 375.82819595801254
endloop
endfacet
facet normal 0.0 -1.0 -5.551115123125784e-17
outer loop
vertex 149.99999999999997 -15.999999999999964 125.82819595801249
vertex 100.0 -15.999999999999982 95.82819595801247
vertex 150.0 -15.999999999999982 95.82819595801247
endloop
endfacet
facet normal 0.0 -1.0 -5.551115123125784e-17
outer loop
vertex 100.0 -15.999999999999982 95.82819595801247
vertex 149.99999999999997 -15.999999999999964 125.82819595801249
vertex 100.0 -15.999999999999964 125.82819595801249
endloop
endfacet
facet normal 0.0 -1.0 -5.551115123125784e-17
outer loop
vertex 150.0 -15.999999999999948 475.0
vertex 100.0 -15.999999999999982 375.82819595801254
vertex 149.99999999999997 -15.999999999999982 375.82819595801254
endloop
endfacet
facet normal 0.0 -1.0 -5.551115123125784e-17
outer loop
vertex 100.0 -15.999999999999982 375.82819595801254
vertex 150.0 -15.999999999999948 475.0
vertex 100.0 -15.999999999999948 475.0
endloop
endfacet
facet normal 0.0 -1.0 -5.551115123125784e-17
outer loop
vertex 100.0 -15.999999999999948 475.0
vertex 150.0 -15.999999999999948 475.0
vertex 125.0 -15.999999999999902 499.99999999999983
endloop
endfacet
facet normal 0.0 -1.0 -5.551115123125784e-17
outer loop
vertex 250.0 -15.999999999999948 475.0
vertex 199.99999999999997 -15.999999999999982 375.82819595801254
vertex 250.0 -15.999999999999982 375.82819595801254
endloop
endfacet
facet normal 0.0 -1.0 -5.551115123125784e-17
outer loop
vertex 199.99999999999997 -15.999999999999982 375.82819595801254
vertex 250.0 -15.999999999999948 475.0
vertex 200.0 -15.999999999999948 475.0
endloop
endfacet
facet normal 0.0 -1.0 -5.551115123125784e-17
outer loop
vertex 200.0 -15.999999999999948 475.0
vertex 250.0 -15.999999999999948 475.0
vertex 225.0 -15.999999999999902 499.99999999999983
endloop
endfacet
facet normal 0.0 5.551115123125784e-17 -1.0
outer loop
vertex 350.0 0.0 0.0
vertex 300.0 -15.999999999999998 7.049916206369744e-16
vertex 300.0 0.0 0.0
endloop
endfacet
facet normal 0.0 5.551115123125784e-17 -1.0
outer loop
vertex 300.0 -15.999999999999998 7.049916206369744e-16
vertex 350.0 0.0 0.0
vertex 350.0 -15.999999999999998 7.049916206369744e-16
endloop
endfacet
facet normal 1.0 0.0 0.0
outer loop
vertex 250.0 0.0 0.0
vertex 250.0 -15.999999999999982 95.82819595801247
vertex 250.0 -15.999999999999998 7.049916206369744e-16
endloop
endfacet
facet normal 1.0 0.0 0.0
outer loop
vertex 250.0 -15.999999999999982 95.82819595801247
vertex 250.0 0.0 0.0
vertex 250.0 -15.999999999999964 125.82819595801249
endloop
endfacet
facet normal 1.0 0.0 0.0
outer loop
vertex 250.0 -15.999999999999964 125.82819595801249
vertex 250.0 0.0 0.0
vertex 250.0 -15.999999999999936 345.82819595801254
endloop
endfacet
facet normal 1.0 0.0 0.0
outer loop
vertex 250.0 -15.999999999999936 345.82819595801254
vertex 250.0 -15.999999999999948 475.0
vertex 250.0 -15.999999999999982 375.82819595801254
endloop
endfacet
facet normal 1.0 0.0 0.0
outer loop
vertex 250.0 -15.999999999999948 475.0
vertex 250.0 -15.999999999999936 345.82819595801254
vertex 250.0 2.255973186038318e-14 475.00000000000006
endloop
endfacet
facet normal 1.0 0.0 0.0
outer loop
vertex 250.0 2.255973186038318e-14 475.00000000000006
vertex 250.0 -15.999999999999936 345.82819595801254
vertex 250.0 0.0 0.0
endloop
endfacet
facet normal -1.0 2.3575537049006865e-16 -1.0884006862561608e-17
outer loop
vertex 200.0 -15.999999999999948 475.0
vertex 200.0 -15.999999999999936 345.82819595801254
vertex 199.99999999999997 -15.999999999999982 375.82819595801254
endloop
endfacet
facet normal -1.0 2.3575537049006865e-16 -1.0884006862561608e-17
outer loop
vertex 200.0 -15.999999999999936 345.82819595801254
vertex 200.0 -15.999999999999948 475.0
vertex 200.0 2.255973186038318e-14 475.00000000000006
endloop
endfacet
facet normal -1.0 2.3575537049006865e-16 -1.0884006862561608e-17
outer loop
vertex 200.0 -15.999999999999936 345.82819595801254
vertex 200.0 2.255973186038318e-14 475.00000000000006
vertex 200.0 0.0 0.0
endloop
endfacet
facet normal -1.0 2.3575537049006865e-16 -1.0884006862561608e-17
outer loop
vertex 200.0 -15.999999999999982 95.82819595801247
vertex 200.0 0.0 0.0
vertex 200.0 -15.999999999999998 7.049916206369744e-16
endloop
endfacet
facet normal -1.0 2.3575537049006865e-16 -1.0884006862561608e-17
outer loop
vertex 200.0 0.0 0.0
vertex 200.0 -15.999999999999982 95.82819595801247
vertex 200.0 -15.999999999999964 125.82819595801249
endloop
endfacet
facet normal -1.0 2.3575537049006865e-16 -1.0884006862561608e-17
outer loop
vertex 200.0 0.0 0.0
vertex 200.0 -15.999999999999964 125.82819595801249
vertex 200.0 -15.999999999999936 345.82819595801254
endloop
endfacet
facet normal 0.0 -1.0 -5.551115123125784e-17
outer loop
vertex 350.0 -15.999999999999964 125.82819595801249
vertex 300.0 -15.999999999999982 95.82819595801247
vertex 350.0 -15.999999999999982 95.82819595801247
endloop
endfacet
facet normal 0.0 -1.0 -5.551115123125784e-17
outer loop
vertex 300.0 -15.999999999999982 95.82819595801247
vertex 350.0 -15.999999999999964 125.82819595801249
vertex 300.0 -15.999999999999964 125.82819595801249
endloop
endfacet
facet normal 0.0 -1.0 -5.551115123125784e-17
outer loop
vertex 450.0 -15.999999999999948 475.0
vertex 400.0 -15.999999999999982 375.82819595801254
vertex 450.0 -15.999999999999982 375.82819595801254
endloop
endfacet
facet normal 0.0 -1.0 -5.551115123125784e-17
outer loop
vertex 400.0 -15.999999999999982 375.82819595801254
vertex 450.0 -15.999999999999948 475.0
vertex 400.0 -15.999999999999948 475.0
endloop
endfacet
facet normal 0.0 -1.0 -5.551115123125784e-17
outer loop
vertex 400.0 -15.999999999999948 475.0
vertex 450.0 -15.999999999999948 475.0
vertex 425.0 -15.999999999999902 499.99999999999983
endloop
endfacet
facet normal -1.0 0.0 0.0
outer loop
vertex 400.0 -15.999999999999948 475.0
vertex 400.0 -15.999999999999936 345.82819595801254
vertex 400.0 -15.999999999999982 375.82819595801254
endloop
endfacet
facet normal -1.0 0.0 0.0
outer loop
vertex 400.0 -15.999999999999936 345.82819595801254
vertex 400.0 -15.999999999999948 475.0
vertex 400.0 2.255973186038318e-14 475.00000000000006
endloop
endfacet
facet normal -1.0 0.0 0.0
outer loop
vertex 400.0 -15.999999999999936 345.82819595801254
vertex 400.0 2.255973186038318e-14 475.00000000000006
vertex 400.0 0.0 0.0
endloop
endfacet
facet normal -1.0 0.0 0.0
outer loop
vertex 400.0 -15.999999999999982 95.82819595801247
vertex 400.0 0.0 0.0
vertex 400.0 -15.999999999999998 7.049916206369744e-16
endloop
endfacet
facet normal -1.0 0.0 0.0
outer loop
vertex 400.0 0.0 0.0
vertex 400.0 -15.999999999999982 95.82819595801247
vertex 400.0 -15.999999999999964 125.82819595801249
endloop
endfacet
facet normal -1.0 0.0 0.0
outer loop
vertex 400.0 0.0 0.0
vertex 400.0 -15.999999999999964 125.82819595801249
vertex 400.0 -15.999999999999936 345.82819595801254
endloop
endfacet
facet normal 1.0 0.0 0.0
outer loop
vertex 450.0 0.0 0.0
vertex 450.0 -15.999999999999982 95.82819595801247
vertex 450.0 -15.999999999999998 7.049916206369744e-16
endloop
endfacet
facet normal 1.0 0.0 0.0
outer loop
vertex 450.0 -15.999999999999982 95.82819595801247
vertex 450.0 0.0 0.0
vertex 450.0 -15.999999999999964 125.82819595801249
endloop
endfacet
facet normal 1.0 0.0 0.0
outer loop
vertex 450.0 -15.999999999999964 125.82819595801249
vertex 450.0 0.0 0.0
vertex 450.0 -15.999999999999936 345.82819595801254
endloop
endfacet
facet normal 1.0 0.0 0.0
outer loop
vertex 450.0 -15.999999999999936 345.82819595801254
vertex 450.0 -15.999999999999948 475.0
vertex 450.0 -15.999999999999982 375.82819595801254
endloop
endfacet
facet normal 1.0 0.0 0.0
outer loop
vertex 450.0 -15.999999999999948 475.0
vertex 450.0 -15.999999999999936 345.82819595801254
vertex 450.0 2.255973186038318e-14 475.00000000000006
endloop
endfacet
facet normal 1.0 0.0 0.0
outer loop
vertex 450.0 2.255973186038318e-14 475.00000000000006
vertex 450.0 -15.999999999999936 345.82819595801254
vertex 450.0 0.0 0.0
endloop
endfacet
facet normal -0.0 1.0 5.551115123125784e-17
outer loop
vertex 250.0 -15.999999999999982 375.82819595801254
vertex 300.0 -15.999999999999936 345.82819595801254
vertex 250.0 -15.999999999999936 345.82819595801254
endloop
endfacet
facet normal -0.0 1.0 5.551115123125784e-17
outer loop
vertex 300.0 -15.999999999999936 345.82819595801254
vertex 250.0 -15.999999999999982 375.82819595801254
vertex 300.0 -15.999999999999982 375.82819595801254
endloop
endfacet
facet normal -0.0 1.0 5.551115123125784e-17
outer loop
vertex -25.0 -15.999999999999982 375.82819595801254
vertex 0.0 -15.999999999999936 345.82819595801254
vertex -25.0 -15.999999999999936 345.82819595801254
endloop
endfacet
facet normal -0.0 1.0 5.551115123125784e-17
outer loop
vertex 0.0 -15.999999999999936 345.82819595801254
vertex -25.0 -15.999999999999982 375.82819595801254
vertex 0.0 -15.999999999999982 375.82819595801254
endloop
endfacet
facet normal 0.0 -5.551115123125784e-17 1.0
outer loop
vertex 450.0 -31.999999999999996 125.82819595801244
vertex 400.0 -15.999999999999964 125.82819595801249
vertex 400.0 -31.999999999999996 125.82819595801244
endloop
endfacet
facet normal 0.0 -5.551115123125784e-17 1.0
outer loop
vertex 400.0 -15.999999999999964 125.82819595801249
vertex 450.0 -31.999999999999996 125.82819595801244
vertex 450.0 -15.999999999999964 125.82819595801249
endloop
endfacet
facet normal 0.0 -5.551115123125784e-17 1.0
outer loop
vertex 250.0 -31.999999999999996 125.82819595801244
vertex 200.0 -15.999999999999964 125.82819595801249
vertex 200.0 -31.999999999999996 125.82819595801244
endloop
endfacet
facet normal 0.0 -5.551115123125784e-17 1.0
outer loop
vertex 200.0 -15.999999999999964 125.82819595801249
vertex 250.0 -31.999999999999996 125.82819595801244
vertex 250.0 -15.999999999999964 125.82819595801249
endloop
endfacet
facet normal -0.0 1.0 5.551115123125784e-17
outer loop
vertex 149.99999999999997 -15.999999999999982 375.82819595801254
vertex 200.0 -15.999999999999936 345.82819595801254
vertex 150.0 -15.999999999999936 345.82819595801254
endloop
endfacet
facet normal -0.0 1.0 5.551115123125784e-17
outer loop
vertex 200.0 -15.999999999999936 345.82819595801254
vertex 149.99999999999997 -15.999999999999982 375.82819595801254
vertex 199.99999999999997 -15.999999999999982 375.82819595801254
endloop
endfacet
facet normal -1.0 0.0 0.0
outer loop
vertex 300.0 -15.999999999999948 475.0
vertex 300.0 -15.999999999999936 345.82819595801254
vertex 300.0 -15.999999999999982 375.82819595801254
endloop
endfacet
facet normal -1.0 0.0 0.0
outer loop
vertex 300.0 -15.999999999999936 345.82819595801254
vertex 300.0 -15.999999999999948 475.0
vertex 300.0 2.255973186038318e-14 475.00000000000006
endloop
endfacet
facet normal -1.0 0.0 0.0
outer loop
vertex 300.0 -15.999999999999936 345.82819595801254
vertex 300.0 2.255973186038318e-14 475.00000000000006
vertex 300.0 0.0 0.0
endloop
endfacet
facet normal -1.0 0.0 0.0
outer loop
vertex 300.0 -15.999999999999982 95.82819595801247
vertex 300.0 0.0 0.0
vertex 300.0 -15.999999999999998 7.049916206369744e-16
endloop
endfacet
facet normal -1.0 0.0 0.0
outer loop
vertex 300.0 0.0 0.0
vertex 300.0 -15.999999999999982 95.82819595801247
vertex 300.0 -15.999999999999964 125.82819595801249
endloop
endfacet
facet normal -1.0 0.0 0.0
outer loop
vertex 300.0 0.0 0.0
vertex 300.0 -15.999999999999964 125.82819595801249
vertex 300.0 -15.999999999999936 345.82819595801254
endloop
endfacet
facet normal 0.0 -1.0 -5.551115123125784e-17
outer loop
vertex 50.0 -15.999999999999948 475.0
vertex 0.0 -15.999999999999982 375.82819595801254
vertex 50.0 -15.999999999999982 375.82819595801254
endloop
endfacet
facet normal 0.0 -1.0 -5.551115123125784e-17
outer loop
vertex 0.0 -15.999999999999982 375.82819595801254
vertex 50.0 -15.999999999999948 475.0
vertex 0.0 -15.999999999999948 475.0
endloop
endfacet
facet normal 0.0 -1.0 -5.551115123125784e-17
outer loop
vertex 0.0 -15.999999999999948 475.0
vertex 50.0 -15.999999999999948 475.0
vertex 25.0 -15.999999999999902 499.99999999999983
endloop
endfacet
facet normal 0.0 -1.0 -5.551115123125784e-17
outer loop
vertex 475.0 -31.999999999999975 375.8281959580123
vertex 450.0 -31.999999999999964 345.8281959580126
vertex 475.0 -31.999999999999964 345.8281959580126
endloop
endfacet
facet normal 0.0 -1.0 -5.551115123125784e-17
outer loop
vertex 450.0 -31.999999999999964 345.8281959580126
vertex 475.0 -31.999999999999975 375.8281959580123
vertex 400.0 -31.999999999999964 345.8281959580126
endloop
endfacet
facet normal 0.0 -1.0 -5.551115123125784e-17
outer loop
vertex 400.0 -31.999999999999964 345.8281959580126
vertex 475.0 -31.999999999999975 375.8281959580123
vertex 350.0 -31.999999999999964 345.8281959580126
endloop
endfacet
facet normal 0.0 -1.0 -5.551115123125784e-17
outer loop
vertex 350.0 -31.999999999999964 345.8281959580126
vertex 475.0 -31.999999999999975 375.8281959580123
vertex 300.0 -31.999999999999964 345.8281959580126
endloop
endfacet
facet normal 0.0 -1.0 -5.551115123125784e-17
outer loop
vertex 300.0 -31.999999999999964 345.8281959580126
vertex 475.0 -31.999999999999975 375.8281959580123
vertex 250.0 -31.999999999999964 345.8281959580126
endloop
endfacet
facet normal 0.0 -1.0 -5.551115123125784e-17
outer loop
vertex 250.0 -31.999999999999964 345.8281959580126
vertex 475.0 -31.999999999999975 375.8281959580123
vertex 200.0 -31.999999999999964 345.8281959580126
endloop
endfacet
facet normal 0.0 -1.0 -5.551115123125784e-17
outer loop
vertex 200.0 -31.999999999999964 345.8281959580126
vertex 475.0 -31.999999999999975 375.8281959580123
vertex 150.0 -31.999999999999964 345.8281959580126
endloop
endfacet
facet normal 0.0 -1.0 -5.551115123125784e-17
outer loop
vertex 150.0 -31.999999999999964 345.8281959580126
vertex 475.0 -31.999999999999975 375.8281959580123
vertex 100.0 -31.999999999999964 345.8281959580126
endloop
endfacet
facet normal 0.0 -1.0 -5.551115123125784e-17
outer loop
vertex 100.0 -31.999999999999964 345.8281959580126
vertex 475.0 -31.999999999999975 375.8281959580123
vertex 50.0 -31.999999999999964 345.8281959580126
endloop
endfacet
facet normal 0.0 -1.0 -5.551115123125784e-17
outer loop
vertex 50.0 -31.999999999999964 345.8281959580126
vertex 475.0 -31.999999999999975 375.8281959580123
vertex 0.0 -31.999999999999964 345.8281959580126
endloop
endfacet
facet normal 0.0 -1.0 -5.551115123125784e-17
outer loop
vertex 0.0 -31.999999999999964 345.8281959580126
vertex 475.0 -31.999999999999975 375.8281959580123
vertex -25.0 -31.999999999999964 345.8281959580126
endloop
endfacet
facet normal 0.0 -1.0 -5.551115123125784e-17
outer loop
vertex -25.0 -31.999999999999964 345.8281959580126
vertex 475.0 -31.999999999999975 375.8281959580123
vertex -25.0 -31.999999999999975 375.8281959580123
endloop
endfacet
facet normal 0.0 -1.0 -5.551115123125784e-17
outer loop
vertex -25.0 -31.999999999999975 375.8281959580123
vertex 475.0 -31.999999999999975 375.8281959580123
vertex 450.0 -31.999999999999975 375.8281959580123
endloop
endfacet
facet normal 0.0 -1.0 -5.551115123125784e-17
outer loop
vertex -25.0 -31.999999999999975 375.8281959580123
vertex 450.0 -31.999999999999975 375.8281959580123
vertex 400.0 -31.999999999999975 375.8281959580123
endloop
endfacet
facet normal 0.0 -1.0 -5.551115123125784e-17
outer loop
vertex -25.0 -31.999999999999975 375.8281959580123
vertex 400.0 -31.999999999999975 375.8281959580123
vertex 350.0 -31.999999999999975 375.8281959580123
endloop
endfacet
facet normal 0.0 -1.0 -5.551115123125784e-17
outer loop
vertex -25.0 -31.999999999999975 375.8281959580123
vertex 350.0 -31.999999999999975 375.8281959580123
vertex 300.0 -31.999999999999975 375.8281959580123
endloop
endfacet
facet normal 0.0 -1.0 -5.551115123125784e-17
outer loop
vertex -25.0 -31.999999999999975 375.8281959580123
vertex 300.0 -31.999999999999975 375.8281959580123
vertex 250.0 -31.999999999999975 375.8281959580123
endloop
endfacet
facet normal 0.0 -1.0 -5.551115123125784e-17
outer loop
vertex -25.0 -31.999999999999975 375.8281959580123
vertex 250.0 -31.999999999999975 375.8281959580123
vertex 199.99999999999997 -31.999999999999975 375.8281959580123
endloop
endfacet
facet normal 0.0 -1.0 -5.551115123125784e-17
outer loop
vertex -25.0 -31.999999999999975 375.8281959580123
vertex 199.99999999999997 -31.999999999999975 375.8281959580123
vertex 149.99999999999997 -31.999999999999975 375.8281959580123
endloop
endfacet
facet normal 0.0 -1.0 -5.551115123125784e-17
outer loop
vertex -25.0 -31.999999999999975 375.8281959580123
vertex 149.99999999999997 -31.999999999999975 375.8281959580123
vertex 100.0 -31.999999999999975 375.8281959580123
endloop
endfacet
facet normal 0.0 -1.0 -5.551115123125784e-17
outer loop
vertex -25.0 -31.999999999999975 375.8281959580123
vertex 100.0 -31.999999999999975 375.8281959580123
vertex 50.0 -31.999999999999975 375.8281959580123
endloop
endfacet
facet normal 0.0 -1.0 -5.551115123125784e-17
outer loop
vertex -25.0 -31.999999999999975 375.8281959580123
vertex 50.0 -31.999999999999975 375.8281959580123
vertex 0.0 -31.999999999999975 375.8281959580123
endloop
endfacet
facet normal 0.0 5.551115123125784e-17 -1.0
outer loop
vertex 300.0 -15.999999999999936 345.82819595801254
vertex 250.0 -31.999999999999964 345.8281959580126
vertex 250.0 -15.999999999999936 345.82819595801254
endloop
endfacet
facet normal 0.0 5.551115123125784e-17 -1.0
outer loop
vertex 250.0 -31.999999999999964 345.8281959580126
vertex 300.0 -15.999999999999936 345.82819595801254
vertex 300.0 -31.999999999999964 345.8281959580126
endloop
endfacet
facet normal 1.0 0.0 0.0
outer loop
vertex 350.0 0.0 0.0
vertex 350.0 -15.999999999999982 95.82819595801247
vertex 350.0 -15.999999999999998 7.049916206369744e-16
endloop
endfacet
facet normal 1.0 0.0 0.0
outer loop
vertex 350.0 -15.999999999999982 95.82819595801247
vertex 350.0 0.0 0.0
vertex 350.0 -15.999999999999964 125.82819595801249
endloop
endfacet
facet normal 1.0 0.0 0.0
outer loop
vertex 350.0 -15.999999999999964 125.82819595801249
vertex 350.0 0.0 0.0
vertex 350.0 -15.999999999999936 345.82819595801254
endloop
endfacet
facet normal 1.0 0.0 0.0
outer loop
vertex 350.0 -15.999999999999936 345.82819595801254
vertex 350.0 -15.999999999999948 475.0
vertex 350.0 -15.999999999999982 375.82819595801254
endloop
endfacet
facet normal 1.0 0.0 0.0
outer loop
vertex 350.0 -15.999999999999948 475.0
vertex 350.0 -15.999999999999936 345.82819595801254
vertex 350.0 2.255973186038318e-14 475.00000000000006
endloop
endfacet
facet normal 1.0 0.0 0.0
outer loop
vertex 350.0 2.255973186038318e-14 475.00000000000006
vertex 350.0 -15.999999999999936 345.82819595801254
vertex 350.0 0.0 0.0
endloop
endfacet
facet normal 0.0 1.0 5.551115123125784e-17
outer loop
vertex 200.0 2.255973186038318e-14 475.00000000000006
vertex 250.0 0.0 0.0
vertex 200.0 0.0 0.0
endloop
endfacet
facet normal 0.0 1.0 5.551115123125784e-17
outer loop
vertex 250.0 0.0 0.0
vertex 200.0 2.255973186038318e-14 475.00000000000006
vertex 250.0 2.255973186038318e-14 475.00000000000006
endloop
endfacet
facet normal 0.0 1.0 5.551115123125784e-17
outer loop
vertex 250.0 2.255973186038318e-14 475.00000000000006
vertex 200.0 2.255973186038318e-14 475.00000000000006
vertex 225.0 4.511946372076636e-14 499.9999999999999
endloop
endfacet
facet normal 1.0 0.0 0.0
outer loop
vertex 475.0 -31.999999999999964 345.8281959580126
vertex 475.0 -15.999999999999982 375.82819595801254
vertex 475.0 -31.999999999999975 375.8281959580123
endloop
endfacet
facet normal 1.0 0.0 0.0
outer loop
vertex 475.0 -15.999999999999982 375.82819595801254
vertex 475.0 -31.999999999999964 345.8281959580126
vertex 475.0 -15.999999999999936 345.82819595801254
endloop
endfacet
facet normal 0.0 5.551115123125784e-17 -1.0
outer loop
vertex 200.0 -15.999999999999936 345.82819595801254
vertex 150.0 -31.999999999999964 345.8281959580126
vertex 150.0 -15.999999999999936 345.82819595801254
endloop
endfacet
facet normal 0.0 5.551115123125784e-17 -1.0
outer loop
vertex 150.0 -31.999999999999964 345.8281959580126
vertex 200.0 -15.999999999999936 345.82819595801254
vertex 200.0 -31.999999999999964 345.8281959580126
endloop
endfacet
facet normal 0.0 -5.551115123125784e-17 1.0
outer loop
vertex 300.0 -31.999999999999975 375.8281959580123
vertex 250.0 -15.999999999999982 375.82819595801254
vertex 250.0 -31.999999999999975 375.8281959580123
endloop
endfacet
facet normal 0.0 -5.551115123125784e-17 1.0
outer loop
vertex 250.0 -15.999999999999982 375.82819595801254
vertex 300.0 -31.999999999999975 375.8281959580123
vertex 300.0 -15.999999999999982 375.82819595801254
endloop
endfacet
facet normal 1.0 0.0 0.0
outer loop
vertex 50.0 0.0 0.0
vertex 50.0 -15.999999999999982 95.82819595801247
vertex 50.0 -15.999999999999998 7.049916206369744e-16
endloop
endfacet
facet normal 1.0 0.0 0.0
outer loop
vertex 50.0 -15.999999999999982 95.82819595801247
vertex 50.0 0.0 0.0
vertex 50.0 -15.999999999999964 125.82819595801249
endloop
endfacet
facet normal 1.0 0.0 0.0
outer loop
vertex 50.0 -15.999999999999964 125.82819595801249
vertex 50.0 0.0 0.0
vertex 50.0 -15.999999999999936 345.82819595801254
endloop
endfacet
facet normal 1.0 0.0 0.0
outer loop
vertex 50.0 -15.999999999999936 345.82819595801254
vertex 50.0 -15.999999999999948 475.0
vertex 50.0 -15.999999999999982 375.82819595801254
endloop
endfacet
facet normal 1.0 0.0 0.0
outer loop
vertex 50.0 -15.999999999999948 475.0
vertex 50.0 -15.999999999999936 345.82819595801254
vertex 50.0 2.255973186038318e-14 475.00000000000006
endloop
endfacet
facet normal 1.0 0.0 0.0
outer loop
vertex 50.0 2.255973186038318e-14 475.00000000000006
vertex 50.0 -15.999999999999936 345.82819595801254
vertex 50.0 0.0 0.0
endloop
endfacet
facet normal -1.0 0.0 0.0
outer loop
vertex 0.0 -15.999999999999948 475.0
vertex 0.0 -15.999999999999936 345.82819595801254
vertex 0.0 -15.999999999999982 375.82819595801254
endloop
endfacet
facet normal -1.0 0.0 0.0
outer loop
vertex 0.0 -15.999999999999936 345.82819595801254
vertex 0.0 -15.999999999999948 475.0
vertex 0.0 2.255973186038318e-14 475.00000000000006
endloop
endfacet
facet normal -1.0 0.0 0.0
outer loop
vertex 0.0 -15.999999999999936 345.82819595801254
vertex 0.0 2.255973186038318e-14 475.00000000000006
vertex 0.0 0.0 0.0
endloop
endfacet
facet normal -1.0 0.0 0.0
outer loop
vertex 0.0 -15.999999999999982 95.82819595801247
vertex 0.0 0.0 0.0
vertex 0.0 -15.999999999999998 7.049916206369744e-16
endloop
endfacet
facet normal -1.0 0.0 0.0
outer loop
vertex 0.0 0.0 0.0
vertex 0.0 -15.999999999999982 95.82819595801247
vertex 0.0 -15.999999999999964 125.82819595801249
endloop
endfacet
facet normal -1.0 0.0 0.0
outer loop
vertex 0.0 0.0 0.0
vertex 0.0 -15.999999999999964 125.82819595801249
vertex 0.0 -15.999999999999936 345.82819595801254
endloop
endfacet
facet normal 0.7071067811865475 5.551115123125783e-17 0.7071067811865476
outer loop
vertex 450.0 -15.999999999999948 475.0
vertex 425.0 4.511946372076636e-14 499.9999999999999
vertex 425.0 -15.999999999999902 499.99999999999983
endloop
endfacet
facet normal 0.7071067811865475 5.551115123125783e-17 0.7071067811865476
outer loop
vertex 425.0 4.511946372076636e-14 499.9999999999999
vertex 450.0 -15.999999999999948 475.0
vertex 450.0 2.255973186038318e-14 475.00000000000006
endloop
endfacet
facet normal -0.7071067811865475 5.551115123125783e-17 0.7071067811865476
outer loop
vertex 425.0 -15.999999999999902 499.99999999999983
vertex 400.0 2.255973186038318e-14 475.00000000000006
vertex 400.0 -15.999999999999948 475.0
endloop
endfacet
facet normal -0.7071067811865475 5.551115123125783e-17 0.7071067811865476
outer loop
vertex 400.0 2.255973186038318e-14 475.00000000000006
vertex 425.0 -15.999999999999902 499.99999999999983
vertex 425.0 4.511946372076636e-14 499.9999999999999
endloop
endfacet
facet normal 0.0 -5.551115123125784e-17 1.0
outer loop
vertex 149.99999999999997 -31.999999999999975 375.8281959580123
vertex 100.0 -15.999999999999982 375.82819595801254
vertex 100.0 -31.999999999999975 375.8281959580123
endloop
endfacet
facet normal 0.0 -5.551115123125784e-17 1.0
outer loop
vertex 100.0 -15.999999999999982 375.82819595801254
vertex 149.99999999999997 -31.999999999999975 375.8281959580123
vertex 149.99999999999997 -15.999999999999982 375.82819595801254
endloop
endfacet
facet normal 0.0 5.551115123125784e-17 -1.0
outer loop
vertex 150.0 -15.999999999999936 345.82819595801254
vertex 100.0 -31.999999999999964 345.8281959580126
vertex 100.0 -15.999999999999936 345.82819595801254
endloop
endfacet
facet normal 0.0 5.551115123125784e-17 -1.0
outer loop
vertex 100.0 -31.999999999999964 345.8281959580126
vertex 150.0 -15.999999999999936 345.82819595801254
vertex 150.0 -31.999999999999964 345.8281959580126
endloop
endfacet
facet normal 0.0 5.551115123125784e-17 -1.0
outer loop
vertex 450.0 -15.999999999999936 345.82819595801254
vertex 400.0 -31.999999999999964 345.8281959580126
vertex 400.0 -15.999999999999936 345.82819595801254
endloop
endfacet
facet normal 0.0 5.551115123125784e-17 -1.0
outer loop
vertex 400.0 -31.999999999999964 345.8281959580126
vertex 450.0 -15.999999999999936 345.82819595801254
vertex 450.0 -31.999999999999964 345.8281959580126
endloop
endfacet
facet normal 0.0 -5.551115123125784e-17 1.0
outer loop
vertex 400.0 -31.999999999999975 375.8281959580123
vertex 350.0 -15.999999999999982 375.82819595801254
vertex 350.0 -31.999999999999975 375.8281959580123
endloop
endfacet
facet normal 0.0 -5.551115123125784e-17 1.0
outer loop
vertex 350.0 -15.999999999999982 375.82819595801254
vertex 400.0 -31.999999999999975 375.8281959580123
vertex 400.0 -15.999999999999982 375.82819595801254
endloop
endfacet
facet normal 0.0 -5.551115123125784e-17 1.0
outer loop
vertex 199.99999999999997 -31.999999999999975 375.8281959580123
vertex 149.99999999999997 -15.999999999999982 375.82819595801254
vertex 149.99999999999997 -31.999999999999975 375.8281959580123
endloop
endfacet
facet normal 0.0 -5.551115123125784e-17 1.0
outer loop
vertex 149.99999999999997 -15.999999999999982 375.82819595801254
vertex 199.99999999999997 -31.999999999999975 375.8281959580123
vertex 199.99999999999997 -15.999999999999982 375.82819595801254
endloop
endfacet
facet normal 0.0 5.551115123125784e-17 -1.0
outer loop
vertex 450.0 0.0 0.0
vertex 400.0 -15.999999999999998 7.049916206369744e-16
vertex 400.0 0.0 0.0
endloop
endfacet
facet normal 0.0 5.551115123125784e-17 -1.0
outer loop
vertex 400.0 -15.999999999999998 7.049916206369744e-16
vertex 450.0 0.0 0.0
vertex 450.0 -15.999999999999998 7.049916206369744e-16
endloop
endfacet
facet normal 0.0 5.551115123125784e-17 -1.0
outer loop
vertex 250.0 0.0 0.0
vertex 200.0 -15.999999999999998 7.049916206369744e-16
vertex 200.0 0.0 0.0
endloop
endfacet
facet normal 0.0 5.551115123125784e-17 -1.0
outer loop
vertex 200.0 -15.999999999999998 7.049916206369744e-16
vertex 250.0 0.0 0.0
vertex 250.0 -15.999999999999998 7.049916206369744e-16
endloop
endfacet
facet normal 0.0 5.551115123125784e-17 -1.0
outer loop
vertex 400.0 -15.999999999999982 95.82819595801247
vertex 350.0 -31.999999999999996 95.82819595801249
vertex 350.0 -15.999999999999982 95.82819595801247
endloop
endfacet
facet normal 0.0 5.551115123125784e-17 -1.0
outer loop
vertex 350.0 -31.999999999999996 95.82819595801249
vertex 400.0 -15.999999999999982 95.82819595801247
vertex 400.0 -31.999999999999996 95.82819595801249
endloop
endfacet
facet normal -0.0 1.0 -5.63993296509579e-16
outer loop
vertex -25.0 -15.999999999999964 125.82819595801249
vertex 0.0 -15.999999999999982 95.82819595801247
vertex -25.0 -15.999999999999982 95.82819595801247
endloop
endfacet
facet normal -0.0 1.0 -5.63993296509579e-16
outer loop
vertex 0.0 -15.999999999999982 95.82819595801247
vertex -25.0 -15.999999999999964 125.82819595801249
vertex 0.0 -15.999999999999964 125.82819595801249
endloop
endfacet
facet normal -0.0 1.0 -5.639932965095791e-16
outer loop
vertex 250.0 -15.999999999999964 125.82819595801249
vertex 300.0 -15.999999999999982 95.82819595801247
vertex 250.0 -15.999999999999982 95.82819595801247
endloop
endfacet
facet normal -0.0 1.0 -5.639932965095791e-16
outer loop
vertex 300.0 -15.999999999999982 95.82819595801247
vertex 250.0 -15.999999999999964 125.82819595801249
vertex 300.0 -15.999999999999964 125.82819595801249
endloop
endfacet
facet normal -0.0 1.0 -5.639932965095791e-16
outer loop
vertex 350.0 -15.999999999999964 125.82819595801249
vertex 400.0 -15.999999999999982 95.82819595801247
vertex 350.0 -15.999999999999982 95.82819595801247
endloop
endfacet
facet normal -0.0 1.0 -5.639932965095791e-16
outer loop
vertex 400.0 -15.999999999999982 95.82819595801247
vertex 350.0 -15.999999999999964 125.82819595801249
vertex 400.0 -15.999999999999964 125.82819595801249
endloop
endfacet
facet normal 0.0 5.551115123125784e-17 -1.0
outer loop
vertex 250.0 -15.999999999999982 95.82819595801247
vertex 200.0 -31.999999999999996 95.82819595801249
vertex 200.0 -15.999999999999982 95.82819595801247
endloop
endfacet
facet normal 0.0 5.551115123125784e-17 -1.0
outer loop
vertex 200.0 -31.999999999999996 95.82819595801249
vertex 250.0 -15.999999999999982 95.82819595801247
vertex 250.0 -31.999999999999996 95.82819595801249
endloop
endfacet
facet normal -0.7071067811865475 5.551115123125783e-17 0.7071067811865476
outer loop
vertex 325.0 -15.999999999999902 499.99999999999983
vertex 300.0 2.255973186038318e-14 475.00000000000006
vertex 300.0 -15.999999999999948 475.0
endloop
endfacet
facet normal -0.7071067811865475 5.551115123125783e-17 0.7071067811865476
outer loop
vertex 300.0 2.255973186038318e-14 475.00000000000006
vertex 325.0 -15.999999999999902 499.99999999999983
vertex 325.0 4.511946372076636e-14 499.9999999999999
endloop
endfacet
facet normal 0.0 5.551115123125784e-17 -1.0
outer loop
vertex 100.0 -15.999999999999936 345.82819595801254
vertex 50.0 -31.999999999999964 345.8281959580126
vertex 50.0 -15.999999999999936 345.82819595801254
endloop
endfacet
facet normal 0.0 5.551115123125784e-17 -1.0
outer loop
vertex 50.0 -31.999999999999964 345.8281959580126
vertex 100.0 -15.999999999999936 345.82819595801254
vertex 100.0 -31.999999999999964 345.8281959580126
endloop
endfacet
facet normal 0.0 1.0 5.551115123125784e-17
outer loop
vertex 0.0 2.255973186038318e-14 475.00000000000006
vertex 50.0 0.0 0.0
vertex 0.0 0.0 0.0
endloop
endfacet
facet normal 0.0 1.0 5.551115123125784e-17
outer loop
vertex 50.0 0.0 0.0
vertex 0.0 2.255973186038318e-14 475.00000000000006
vertex 50.0 2.255973186038318e-14 475.00000000000006
endloop
endfacet
facet normal 0.0 1.0 5.551115123125784e-17
outer loop
vertex 50.0 2.255973186038318e-14 475.00000000000006
vertex 0.0 2.255973186038318e-14 475.00000000000006
vertex 25.0 4.511946372076636e-14 499.9999999999999
endloop
endfacet
facet normal 0.0 -5.551115123125784e-17 1.0
outer loop
vertex 100.0 -31.999999999999975 375.8281959580123
vertex 50.0 -15.999999999999982 375.82819595801254
vertex 50.0 -31.999999999999975 375.8281959580123
endloop
endfacet
facet normal 0.0 -5.551115123125784e-17 1.0
outer loop
vertex 50.0 -15.999999999999982 375.82819595801254
vertex 100.0 -31.999999999999975 375.8281959580123
vertex 100.0 -15.999999999999982 375.82819595801254
endloop
endfacet
facet normal 0.0 -1.0 -5.551115123125784e-17
outer loop
vertex 250.0 -15.999999999999964 125.82819595801249
vertex 200.0 -15.999999999999982 95.82819595801247
vertex 250.0 -15.999999999999982 95.82819595801247
endloop
endfacet
facet normal 0.0 -1.0 -5.551115123125784e-17
outer loop
vertex 200.0 -15.999999999999982 95.82819595801247
vertex 250.0 -15.999999999999964 125.82819595801249
vertex 200.0 -15.999999999999964 125.82819595801249
endloop
endfacet
facet normal 0.0 -1.0 -5.551115123125784e-17
outer loop
vertex 350.0 -15.999999999999948 475.0
vertex 300.0 -15.999999999999982 375.82819595801254
vertex 350.0 -15.999999999999982 375.82819595801254
endloop
endfacet
facet normal 0.0 -1.0 -5.551115123125784e-17
outer loop
vertex 300.0 -15.999999999999982 375.82819595801254
vertex 350.0 -15.999999999999948 475.0
vertex 300.0 -15.999999999999948 475.0
endloop
endfacet
facet normal 0.0 -1.0 -5.551115123125784e-17
outer loop
vertex 300.0 -15.999999999999948 475.0
vertex 350.0 -15.999999999999948 475.0
vertex 325.0 -15.999999999999902 499.99999999999983
endloop
endfacet
facet normal 1.1705654537084999e-32 1.0 -5.639932965095791e-16
outer loop
vertex 149.99999999999997 -15.999999999999964 125.82819595801249
vertex 200.0 -15.999999999999982 95.82819595801247
vertex 150.0 -15.999999999999982 95.82819595801247
endloop
endfacet
facet normal 1.1705654537084999e-32 1.0 -5.639932965095791e-16
outer loop
vertex 200.0 -15.999999999999982 95.82819595801247
vertex 149.99999999999997 -15.999999999999964 125.82819595801249
vertex 200.0 -15.999999999999964 125.82819595801249
endloop
endfacet
facet normal -0.0 1.0 -5.639932965095791e-16
outer loop
vertex 50.0 -15.999999999999964 125.82819595801249
vertex 100.0 -15.999999999999982 95.82819595801247
vertex 50.0 -15.999999999999982 95.82819595801247
endloop
endfacet
facet normal -0.0 1.0 -5.639932965095791e-16
outer loop
vertex 100.0 -15.999999999999982 95.82819595801247
vertex 50.0 -15.999999999999964 125.82819595801249
vertex 100.0 -15.999999999999964 125.82819595801249
endloop
endfacet
endsolid Gate
