solid Arrow
facet normal 0.0 0.0 -1.0
  outer loop
    vertex -54.38569544238206 8.197324639689583 0.0
    vertex -54.38569544238206 -8.197324639689594 0.0
    vertex -54.99999999999999 6.735557395310442e-15 0.0
  endloop
endfacet
facet normal 0.0 0.0 -1.0
  outer loop
    vertex -54.38569544238206 -8.197324639689594 0.0
    vertex -54.38569544238206 8.197324639689583 0.0
    vertex -52.556504318237735 16.21153459259973 0.0
  endloop
endfacet
facet normal 0.0 0.0 -1.0
  outer loop
    vertex -54.38569544238206 -8.197324639689594 0.0
    vertex -52.556504318237735 16.21153459259973 0.0
    vertex -52.55650431823772 -16.211534592599737 0.0
  endloop
endfacet
facet normal 0.0 0.0 -1.0
  outer loop
    vertex -52.55650431823772 -16.211534592599737 0.0
    vertex -52.556504318237735 16.21153459259973 0.0
    vertex -49.55328773463304 23.863605651465697 0.0
  endloop
endfacet
facet normal 0.0 0.0 -1.0
  outer loop
    vertex -52.55650431823772 -16.211534592599737 0.0
    vertex -49.55328773463304 23.863605651465697 0.0
    vertex -50.0 6.123233995736766e-15 0.0
  endloop
endfacet
facet normal 0.0 0.0 -1.0
  outer loop
    vertex -50.0 6.123233995736766e-15 0.0
    vertex -49.55328773463304 23.863605651465697 0.0
    vertex -49.44154131125642 7.4521133088087135 0.0
  endloop
endfacet
facet normal 0.0 0.0 -1.0
  outer loop
    vertex -49.44154131125642 7.4521133088087135 0.0
    vertex -49.55328773463304 23.863605651465697 0.0
    vertex -45.443132587379715 30.982603193499195 0.0
  endloop
endfacet
facet normal 0.0 0.0 -1.0
  outer loop
    vertex -49.44154131125642 7.4521133088087135 0.0
    vertex -45.443132587379715 30.982603193499195 0.0
    vertex -47.778640289307035 14.737758720545209 0.0
  endloop
endfacet
facet normal 0.0 0.0 -1.0
  outer loop
    vertex -47.778640289307035 14.737758720545209 0.0
    vertex -45.443132587379715 30.982603193499195 0.0
    vertex -45.04844339512095 21.694186955877914 0.0
  endloop
endfacet
facet normal 0.0 0.0 -1.0
  outer loop
    vertex -45.04844339512095 21.694186955877914 0.0
    vertex -45.443132587379715 30.982603193499195 0.0
    vertex -40.317852950640436 37.40950057740056 0.0
  endloop
endfacet
facet normal 0.0 0.0 -1.0
  outer loop
    vertex -45.04844339512095 21.694186955877914 0.0
    vertex -40.317852950640436 37.40950057740056 0.0
    vertex -41.31193871579975 28.166002903181088 0.0
  endloop
endfacet
facet normal 0.0 0.0 -1.0
  outer loop
    vertex -41.31193871579975 28.166002903181088 0.0
    vertex -40.317852950640436 37.40950057740056 0.0
    vertex -36.65259359149132 34.00863688854597 0.0
  endloop
endfacet
facet normal 0.0 0.0 -1.0
  outer loop
    vertex -36.65259359149132 34.00863688854597 0.0
    vertex -40.317852950640436 37.40950057740056 0.0
    vertex -34.29193910223034 43.000731535741636 0.0
  endloop
endfacet
facet normal 0.0 0.0 -1.0
  outer loop
    vertex -36.65259359149132 34.00863688854597 0.0
    vertex -34.29193910223034 43.000731535741636 0.0
    vertex -31.174490092936672 39.0915741234015 0.0
  endloop
endfacet
facet normal 0.0 0.0 -1.0
  outer loop
    vertex -31.174490092936672 39.0915741234015 0.0
    vertex -34.29193910223034 43.000731535741636 0.0
    vertex -27.500000000000007 47.631397208144115 0.0
  endloop
endfacet
facet normal 0.0 0.0 -1.0
  outer loop
    vertex -31.174490092936672 39.0915741234015 0.0
    vertex -27.500000000000007 47.631397208144115 0.0
    vertex -25.00000000000001 43.30127018922193 0.0
  endloop
endfacet
facet normal 0.0 0.0 -1.0
  outer loop
    vertex -25.00000000000001 43.30127018922193 0.0
    vertex -27.500000000000007 47.631397208144115 0.0
    vertex -20.093756340151725 51.19805617543122 0.0
  endloop
endfacet
facet normal 0.0 0.0 -1.0
  outer loop
    vertex -25.00000000000001 43.30127018922193 0.0
    vertex -20.093756340151725 51.19805617543122 0.0
    vertex -18.267051218319754 46.543687432210206 0.0
  endloop
endfacet
facet normal 0.0 0.0 -1.0
  outer loop
    vertex -18.267051218319754 46.543687432210206 0.0
    vertex -20.093756340151725 51.19805617543122 0.0
    vertex -12.238651367597287 53.6210351700003 0.0
  endloop
endfacet
facet normal 0.0 0.0 -1.0
  outer loop
    vertex -18.267051218319754 46.543687432210206 0.0
    vertex -12.238651367597287 53.6210351700003 0.0
    vertex -11.126046697815717 48.74639560909118 0.0
  endloop
endfacet
facet normal 0.0 0.0 -1.0
  outer loop
    vertex -11.126046697815717 48.74639560909118 0.0
    vertex -12.238651367597287 53.6210351700003 0.0
    vertex -4.110155147253334 54.84620884496489 0.0
  endloop
endfacet
facet normal 0.0 0.0 -1.0
  outer loop
    vertex -11.126046697815717 48.74639560909118 0.0
    vertex -4.110155147253334 54.84620884496489 0.0
    vertex -3.736504679321213 49.860189859059005 0.0
  endloop
endfacet
facet normal 0.0 0.0 -1.0
  outer loop
    vertex -3.736504679321213 49.860189859059005 0.0
    vertex -4.110155147253334 54.84620884496489 0.0
    vertex 4.110155147253328 54.84620884496489 0.0
  endloop
endfacet
facet normal 0.0 0.0 -1.0
  outer loop
    vertex -3.736504679321213 49.860189859059005 0.0
    vertex 4.110155147253328 54.84620884496489 0.0
    vertex 3.7365046793212082 49.860189859059005 0.0
  endloop
endfacet
facet normal 0.0 0.0 -1.0
  outer loop
    vertex 3.7365046793212082 49.860189859059005 0.0
    vertex 4.110155147253328 54.84620884496489 0.0
    vertex 11.126046697815722 48.74639560909118 0.0
  endloop
endfacet
facet normal 0.0 0.0 -1.0
  outer loop
    vertex 11.126046697815722 48.74639560909118 0.0
    vertex 4.110155147253328 54.84620884496489 0.0
    vertex 12.238651367597292 53.6210351700003 0.0
  endloop
endfacet
facet normal 0.0 0.0 -1.0
  outer loop
    vertex 11.126046697815722 48.74639560909118 0.0
    vertex 12.238651367597292 53.6210351700003 0.0
    vertex 18.267051218319747 46.543687432210206 0.0
  endloop
endfacet
facet normal 0.0 0.0 -1.0
  outer loop
    vertex 18.267051218319747 46.543687432210206 0.0
    vertex 12.238651367597292 53.6210351700003 0.0
    vertex 20.09375634015172 51.19805617543122 0.0
  endloop
endfacet
facet normal 0.0 0.0 -1.0
  outer loop
    vertex 18.267051218319747 46.543687432210206 0.0
    vertex 20.09375634015172 51.19805617543122 0.0
    vertex 24.999999999999993 43.30127018922194 0.0
  endloop
endfacet
facet normal 0.0 0.0 -1.0
  outer loop
    vertex 24.999999999999993 43.30127018922194 0.0
    vertex 20.09375634015172 51.19805617543122 0.0
    vertex 27.49999999999999 47.63139720814412 0.0
  endloop
endfacet
facet normal 0.0 0.0 -1.0
  outer loop
    vertex 24.999999999999993 43.30127018922194 0.0
    vertex 27.49999999999999 47.63139720814412 0.0
    vertex 31.17449009293668 39.09157412340149 0.0
  endloop
endfacet
facet normal 0.0 0.0 -1.0
  outer loop
    vertex 31.17449009293668 39.09157412340149 0.0
    vertex 27.49999999999999 47.63139720814412 0.0
    vertex 34.29193910223034 43.000731535741636 0.0
  endloop
endfacet
facet normal 0.0 0.0 -1.0
  outer loop
    vertex 31.17449009293668 39.09157412340149 0.0
    vertex 34.29193910223034 43.000731535741636 0.0
    vertex 36.65259359149132 34.00863688854597 0.0
  endloop
endfacet
facet normal 0.0 0.0 -1.0
  outer loop
    vertex 36.65259359149132 34.00863688854597 0.0
    vertex 34.29193910223034 43.000731535741636 0.0
    vertex 40.317852950640436 37.40950057740056 0.0
  endloop
endfacet
facet normal 0.0 0.0 -1.0
  outer loop
    vertex 36.65259359149132 34.00863688854597 0.0
    vertex 40.317852950640436 37.40950057740056 0.0
    vertex 41.31193871579974 28.166002903181102 0.0
  endloop
endfacet
facet normal 0.0 0.0 -1.0
  outer loop
    vertex 41.31193871579974 28.166002903181102 0.0
    vertex 40.317852950640436 37.40950057740056 0.0
    vertex 45.44313258737971 30.98260319349921 0.0
  endloop
endfacet
facet normal 0.0 0.0 -1.0
  outer loop
    vertex 41.31193871579974 28.166002903181102 0.0
    vertex 45.44313258737971 30.98260319349921 0.0
    vertex 45.048443395120955 21.694186955877907 0.0
  endloop
endfacet
facet normal 0.0 0.0 -1.0
  outer loop
    vertex 45.048443395120955 21.694186955877907 0.0
    vertex 45.44313258737971 30.98260319349921 0.0
    vertex 47.778640289307035 14.737758720545209 0.0
  endloop
endfacet
facet normal 0.0 0.0 -1.0
  outer loop
    vertex 47.778640289307035 14.737758720545209 0.0
    vertex 45.44313258737971 30.98260319349921 0.0
    vertex 49.553287734633045 23.863605651465694 0.0
  endloop
endfacet
facet normal 0.0 0.0 -1.0
  outer loop
    vertex 47.778640289307035 14.737758720545209 0.0
    vertex 49.553287734633045 23.863605651465694 0.0
    vertex 49.44154131125642 7.4521133088087215 0.0
  endloop
endfacet
facet normal 0.0 0.0 -1.0
  outer loop
    vertex 49.44154131125642 7.4521133088087215 0.0
    vertex 49.553287734633045 23.863605651465694 0.0
    vertex 50.0 0.0 0.0
  endloop
endfacet
facet normal 0.0 0.0 -1.0
  outer loop
    vertex 50.0 0.0 0.0
    vertex 49.553287734633045 23.863605651465694 0.0
    vertex 52.55650431823772 16.21153459259973 0.0
  endloop
endfacet
facet normal 0.0 0.0 -1.0
  outer loop
    vertex 50.0 0.0 0.0
    vertex 52.55650431823772 16.21153459259973 0.0
    vertex 52.49999999999999 -10.570262242526123 0.0
  endloop
endfacet
facet normal 0.0 0.0 -1.0
  outer loop
    vertex 52.49999999999999 -10.570262242526123 0.0
    vertex 52.55650431823772 16.21153459259973 0.0
    vertex 54.99999999999999 0.0 0.0
  endloop
endfacet
facet normal 0.0 0.0 -1.0
  outer loop
    vertex 52.49999999999999 -10.570262242526123 0.0
    vertex 54.99999999999999 0.0 0.0
    vertex 59.99999999999999 0.0 0.0
  endloop
endfacet
facet normal 0.0 0.0 -1.0
  outer loop
    vertex 54.99999999999999 0.0 0.0
    vertex 52.55650431823772 16.21153459259973 0.0
    vertex 54.38569544238206 8.197324639689594 0.0
  endloop
endfacet
facet normal 0.0 0.0 -1.0
  outer loop
    vertex 52.49999999999999 -10.570262242526123 0.0
    vertex 45.0 0.0 0.0
    vertex 50.0 0.0 0.0
  endloop
endfacet
facet normal 0.0 0.0 -1.0
  outer loop
    vertex -50.0 6.123233995736766e-15 0.0
    vertex -49.553287734633045 -23.863605651465686 0.0
    vertex -52.55650431823772 -16.211534592599737 0.0
  endloop
endfacet
facet normal 0.0 0.0 -1.0
  outer loop
    vertex -49.553287734633045 -23.863605651465686 0.0
    vertex -50.0 6.123233995736766e-15 0.0
    vertex -49.44154131125642 -7.452113308808723 0.0
  endloop
endfacet
facet normal 0.0 0.0 -1.0
  outer loop
    vertex -49.553287734633045 -23.863605651465686 0.0
    vertex -49.44154131125642 -7.452113308808723 0.0
    vertex -45.44313258737971 -30.98260319349921 0.0
  endloop
endfacet
facet normal 0.0 0.0 -1.0
  outer loop
    vertex -45.44313258737971 -30.98260319349921 0.0
    vertex -49.44154131125642 -7.452113308808723 0.0
    vertex -47.778640289307035 -14.737758720545218 0.0
  endloop
endfacet
facet normal 0.0 0.0 -1.0
  outer loop
    vertex -45.44313258737971 -30.98260319349921 0.0
    vertex -47.778640289307035 -14.737758720545218 0.0
    vertex -45.048443395120955 -21.6941869558779 0.0
  endloop
endfacet
facet normal 0.0 0.0 -1.0
  outer loop
    vertex -45.44313258737971 -30.98260319349921 0.0
    vertex -45.048443395120955 -21.6941869558779 0.0
    vertex -40.317852950640436 -37.409500577400564 0.0
  endloop
endfacet
facet normal 0.0 0.0 -1.0
  outer loop
    vertex -40.317852950640436 -37.409500577400564 0.0
    vertex -45.048443395120955 -21.6941869558779 0.0
    vertex -41.31193871579974 -28.166002903181102 0.0
  endloop
endfacet
facet normal 0.0 0.0 -1.0
  outer loop
    vertex -40.317852950640436 -37.409500577400564 0.0
    vertex -41.31193871579974 -28.166002903181102 0.0
    vertex -36.65259359149131 -34.00863688854597 0.0
  endloop
endfacet
facet normal 0.0 0.0 -1.0
  outer loop
    vertex -40.317852950640436 -37.409500577400564 0.0
    vertex -36.65259359149131 -34.00863688854597 0.0
    vertex -34.291939102230344 -43.00073153574163 0.0
  endloop
endfacet
facet normal 0.0 0.0 -1.0
  outer loop
    vertex -34.291939102230344 -43.00073153574163 0.0
    vertex -36.65259359149131 -34.00863688854597 0.0
    vertex -31.174490092936683 -39.091574123401486 0.0
  endloop
endfacet
facet normal 0.0 0.0 -1.0
  outer loop
    vertex -34.291939102230344 -43.00073153574163 0.0
    vertex -31.174490092936683 -39.091574123401486 0.0
    vertex -27.49999999999997 -47.63139720814413 0.0
  endloop
endfacet
facet normal 0.0 0.0 -1.0
  outer loop
    vertex -27.49999999999997 -47.63139720814413 0.0
    vertex -31.174490092936683 -39.091574123401486 0.0
    vertex -24.99999999999998 -43.30127018922194 0.0
  endloop
endfacet
facet normal 0.0 0.0 -1.0
  outer loop
    vertex -27.49999999999997 -47.63139720814413 0.0
    vertex -24.99999999999998 -43.30127018922194 0.0
    vertex -20.093756340151714 -51.19805617543122 0.0
  endloop
endfacet
facet normal 0.0 0.0 -1.0
  outer loop
    vertex -20.093756340151714 -51.19805617543122 0.0
    vertex -24.99999999999998 -43.30127018922194 0.0
    vertex -18.267051218319743 -46.543687432210206 0.0
  endloop
endfacet
facet normal 0.0 0.0 -1.0
  outer loop
    vertex -20.093756340151714 -51.19805617543122 0.0
    vertex -18.267051218319743 -46.543687432210206 0.0
    vertex -12.2386513675973 -53.6210351700003 0.0
  endloop
endfacet
facet normal 0.0 0.0 -1.0
  outer loop
    vertex -12.2386513675973 -53.6210351700003 0.0
    vertex -18.267051218319743 -46.543687432210206 0.0
    vertex -11.12604669781573 -48.74639560909118 0.0
  endloop
endfacet
facet normal 0.0 0.0 -1.0
  outer loop
    vertex -12.2386513675973 -53.6210351700003 0.0
    vertex -11.12604669781573 -48.74639560909118 0.0
    vertex -4.110155147253311 -54.84620884496489 0.0
  endloop
endfacet
facet normal 0.0 0.0 -1.0
  outer loop
    vertex -4.110155147253311 -54.84620884496489 0.0
    vertex -11.12604669781573 -48.74639560909118 0.0
    vertex -3.7365046793211922 -49.860189859059005 0.0
  endloop
endfacet
facet normal 0.0 0.0 -1.0
  outer loop
    vertex -4.110155147253311 -54.84620884496489 0.0
    vertex -3.7365046793211922 -49.860189859059005 0.0
    vertex 2.301937796911153 -54.84620884496489 0.0
  endloop
endfacet
facet normal 0.0 0.0 -1.0
  outer loop
    vertex 2.301937796911153 -54.84620884496489 0.0
    vertex -3.7365046793211922 -49.860189859059005 0.0
    vertex 2.3019377969111545 -49.860189859059005 0.0
  endloop
endfacet
facet normal -0.0 -0.0 1.0
  outer loop
    vertex -49.553287734633045 -23.863605651465686 3.0
    vertex -50.0 6.123233995736766e-15 3.0
    vertex -52.55650431823772 -16.211534592599737 3.0
  endloop
endfacet
facet normal -0.0 -0.0 1.0
  outer loop
    vertex -50.0 6.123233995736766e-15 3.0
    vertex -49.553287734633045 -23.863605651465686 3.0
    vertex -49.44154131125642 -7.452113308808723 3.0
  endloop
endfacet
facet normal -0.0 -0.0 1.0
  outer loop
    vertex -49.44154131125642 -7.452113308808723 3.0
    vertex -49.553287734633045 -23.863605651465686 3.0
    vertex -45.44313258737971 -30.98260319349921 3.0
  endloop
endfacet
facet normal -0.0 -0.0 1.0
  outer loop
    vertex -49.44154131125642 -7.452113308808723 3.0
    vertex -45.44313258737971 -30.98260319349921 3.0
    vertex -47.778640289307035 -14.737758720545218 3.0
  endloop
endfacet
facet normal -0.0 -0.0 1.0
  outer loop
    vertex -47.778640289307035 -14.737758720545218 3.0
    vertex -45.44313258737971 -30.98260319349921 3.0
    vertex -45.048443395120955 -21.6941869558779 3.0
  endloop
endfacet
facet normal -0.0 -0.0 1.0
  outer loop
    vertex -45.048443395120955 -21.6941869558779 3.0
    vertex -45.44313258737971 -30.98260319349921 3.0
    vertex -40.317852950640436 -37.409500577400564 3.0
  endloop
endfacet
facet normal -0.0 -0.0 1.0
  outer loop
    vertex -45.048443395120955 -21.6941869558779 3.0
    vertex -40.317852950640436 -37.409500577400564 3.0
    vertex -41.31193871579974 -28.166002903181102 3.0
  endloop
endfacet
facet normal -0.0 -0.0 1.0
  outer loop
    vertex -41.31193871579974 -28.166002903181102 3.0
    vertex -40.317852950640436 -37.409500577400564 3.0
    vertex -36.65259359149131 -34.00863688854597 3.0
  endloop
endfacet
facet normal -0.0 -0.0 1.0
  outer loop
    vertex -36.65259359149131 -34.00863688854597 3.0
    vertex -40.317852950640436 -37.409500577400564 3.0
    vertex -34.291939102230344 -43.00073153574163 3.0
  endloop
endfacet
facet normal -0.0 -0.0 1.0
  outer loop
    vertex -36.65259359149131 -34.00863688854597 3.0
    vertex -34.291939102230344 -43.00073153574163 3.0
    vertex -31.174490092936683 -39.091574123401486 3.0
  endloop
endfacet
facet normal -0.0 -0.0 1.0
  outer loop
    vertex -31.174490092936683 -39.091574123401486 3.0
    vertex -34.291939102230344 -43.00073153574163 3.0
    vertex -27.49999999999997 -47.63139720814413 3.0
  endloop
endfacet
facet normal -0.0 -0.0 1.0
  outer loop
    vertex -31.174490092936683 -39.091574123401486 3.0
    vertex -27.49999999999997 -47.63139720814413 3.0
    vertex -24.99999999999998 -43.30127018922194 3.0
  endloop
endfacet
facet normal -0.0 -0.0 1.0
  outer loop
    vertex -24.99999999999998 -43.30127018922194 3.0
    vertex -27.49999999999997 -47.63139720814413 3.0
    vertex -20.093756340151714 -51.19805617543122 3.0
  endloop
endfacet
facet normal -0.0 -0.0 1.0
  outer loop
    vertex -24.99999999999998 -43.30127018922194 3.0
    vertex -20.093756340151714 -51.19805617543122 3.0
    vertex -18.267051218319743 -46.543687432210206 3.0
  endloop
endfacet
facet normal -0.0 -0.0 1.0
  outer loop
    vertex -18.267051218319743 -46.543687432210206 3.0
    vertex -20.093756340151714 -51.19805617543122 3.0
    vertex -12.2386513675973 -53.6210351700003 3.0
  endloop
endfacet
facet normal -0.0 -0.0 1.0
  outer loop
    vertex -18.267051218319743 -46.543687432210206 3.0
    vertex -12.2386513675973 -53.6210351700003 3.0
    vertex -11.12604669781573 -48.74639560909118 3.0
  endloop
endfacet
facet normal -0.0 -0.0 1.0
  outer loop
    vertex -11.12604669781573 -48.74639560909118 3.0
    vertex -12.2386513675973 -53.6210351700003 3.0
    vertex -4.110155147253311 -54.84620884496489 3.0
  endloop
endfacet
facet normal -0.0 -0.0 1.0
  outer loop
    vertex -11.12604669781573 -48.74639560909118 3.0
    vertex -4.110155147253311 -54.84620884496489 3.0
    vertex -3.7365046793211922 -49.860189859059005 3.0
  endloop
endfacet
facet normal -0.0 -0.0 1.0
  outer loop
    vertex -3.7365046793211922 -49.860189859059005 3.0
    vertex -4.110155147253311 -54.84620884496489 3.0
    vertex 2.301937796911153 -54.84620884496489 3.0
  endloop
endfacet
facet normal -0.0 -0.0 1.0
  outer loop
    vertex -3.7365046793211922 -49.860189859059005 3.0
    vertex 2.301937796911153 -54.84620884496489 3.0
    vertex 2.3019377969111545 -49.860189859059005 3.0
  endloop
endfacet
facet normal -0.0 -0.0 1.0
  outer loop
    vertex 52.49999999999999 -10.570262242526123 3.0
    vertex 50.0 0.0 3.0
    vertex 45.0 0.0 3.0
  endloop
endfacet
facet normal -0.0 -0.0 1.0
  outer loop
    vertex -54.38569544238206 -8.197324639689594 3.0
    vertex -54.38569544238206 8.197324639689583 3.0
    vertex -54.99999999999999 6.735557395310442e-15 3.0
  endloop
endfacet
facet normal -0.0 -0.0 1.0
  outer loop
    vertex -54.38569544238206 8.197324639689583 3.0
    vertex -54.38569544238206 -8.197324639689594 3.0
    vertex -52.55650431823772 -16.211534592599737 3.0
  endloop
endfacet
facet normal -0.0 -0.0 1.0
  outer loop
    vertex -54.38569544238206 8.197324639689583 3.0
    vertex -52.55650431823772 -16.211534592599737 3.0
    vertex -52.556504318237735 16.21153459259973 3.0
  endloop
endfacet
facet normal -0.0 -0.0 1.0
  outer loop
    vertex -52.556504318237735 16.21153459259973 3.0
    vertex -52.55650431823772 -16.211534592599737 3.0
    vertex -49.55328773463304 23.863605651465697 3.0
  endloop
endfacet
facet normal -0.0 -0.0 1.0
  outer loop
    vertex -49.55328773463304 23.863605651465697 3.0
    vertex -52.55650431823772 -16.211534592599737 3.0
    vertex -50.0 6.123233995736766e-15 3.0
  endloop
endfacet
facet normal -0.0 -0.0 1.0
  outer loop
    vertex -49.55328773463304 23.863605651465697 3.0
    vertex -50.0 6.123233995736766e-15 3.0
    vertex -49.44154131125642 7.4521133088087135 3.0
  endloop
endfacet
facet normal -0.0 -0.0 1.0
  outer loop
    vertex -49.55328773463304 23.863605651465697 3.0
    vertex -49.44154131125642 7.4521133088087135 3.0
    vertex -45.443132587379715 30.982603193499195 3.0
  endloop
endfacet
facet normal -0.0 -0.0 1.0
  outer loop
    vertex -45.443132587379715 30.982603193499195 3.0
    vertex -49.44154131125642 7.4521133088087135 3.0
    vertex -47.778640289307035 14.737758720545209 3.0
  endloop
endfacet
facet normal -0.0 -0.0 1.0
  outer loop
    vertex -45.443132587379715 30.982603193499195 3.0
    vertex -47.778640289307035 14.737758720545209 3.0
    vertex -45.04844339512095 21.694186955877914 3.0
  endloop
endfacet
facet normal -0.0 -0.0 1.0
  outer loop
    vertex -45.443132587379715 30.982603193499195 3.0
    vertex -45.04844339512095 21.694186955877914 3.0
    vertex -40.317852950640436 37.40950057740056 3.0
  endloop
endfacet
facet normal -0.0 -0.0 1.0
  outer loop
    vertex -40.317852950640436 37.40950057740056 3.0
    vertex -45.04844339512095 21.694186955877914 3.0
    vertex -41.31193871579975 28.166002903181088 3.0
  endloop
endfacet
facet normal -0.0 -0.0 1.0
  outer loop
    vertex -40.317852950640436 37.40950057740056 3.0
    vertex -41.31193871579975 28.166002903181088 3.0
    vertex -36.65259359149132 34.00863688854597 3.0
  endloop
endfacet
facet normal -0.0 -0.0 1.0
  outer loop
    vertex -40.317852950640436 37.40950057740056 3.0
    vertex -36.65259359149132 34.00863688854597 3.0
    vertex -34.29193910223034 43.000731535741636 3.0
  endloop
endfacet
facet normal -0.0 -0.0 1.0
  outer loop
    vertex -34.29193910223034 43.000731535741636 3.0
    vertex -36.65259359149132 34.00863688854597 3.0
    vertex -31.174490092936672 39.0915741234015 3.0
  endloop
endfacet
facet normal -0.0 -0.0 1.0
  outer loop
    vertex -34.29193910223034 43.000731535741636 3.0
    vertex -31.174490092936672 39.0915741234015 3.0
    vertex -27.500000000000007 47.631397208144115 3.0
  endloop
endfacet
facet normal -0.0 -0.0 1.0
  outer loop
    vertex -27.500000000000007 47.631397208144115 3.0
    vertex -31.174490092936672 39.0915741234015 3.0
    vertex -25.00000000000001 43.30127018922193 3.0
  endloop
endfacet
facet normal -0.0 -0.0 1.0
  outer loop
    vertex -27.500000000000007 47.631397208144115 3.0
    vertex -25.00000000000001 43.30127018922193 3.0
    vertex -20.093756340151725 51.19805617543122 3.0
  endloop
endfacet
facet normal -0.0 -0.0 1.0
  outer loop
    vertex -20.093756340151725 51.19805617543122 3.0
    vertex -25.00000000000001 43.30127018922193 3.0
    vertex -18.267051218319754 46.543687432210206 3.0
  endloop
endfacet
facet normal -0.0 -0.0 1.0
  outer loop
    vertex -20.093756340151725 51.19805617543122 3.0
    vertex -18.267051218319754 46.543687432210206 3.0
    vertex -12.238651367597287 53.6210351700003 3.0
  endloop
endfacet
facet normal -0.0 -0.0 1.0
  outer loop
    vertex -12.238651367597287 53.6210351700003 3.0
    vertex -18.267051218319754 46.543687432210206 3.0
    vertex -11.126046697815717 48.74639560909118 3.0
  endloop
endfacet
facet normal -0.0 -0.0 1.0
  outer loop
    vertex -12.238651367597287 53.6210351700003 3.0
    vertex -11.126046697815717 48.74639560909118 3.0
    vertex -4.110155147253334 54.84620884496489 3.0
  endloop
endfacet
facet normal -0.0 -0.0 1.0
  outer loop
    vertex -4.110155147253334 54.84620884496489 3.0
    vertex -11.126046697815717 48.74639560909118 3.0
    vertex -3.736504679321213 49.860189859059005 3.0
  endloop
endfacet
facet normal -0.0 -0.0 1.0
  outer loop
    vertex -4.110155147253334 54.84620884496489 3.0
    vertex -3.736504679321213 49.860189859059005 3.0
    vertex 4.110155147253328 54.84620884496489 3.0
  endloop
endfacet
facet normal -0.0 -0.0 1.0
  outer loop
    vertex 4.110155147253328 54.84620884496489 3.0
    vertex -3.736504679321213 49.860189859059005 3.0
    vertex 3.7365046793212082 49.860189859059005 3.0
  endloop
endfacet
facet normal -0.0 -0.0 1.0
  outer loop
    vertex 4.110155147253328 54.84620884496489 3.0
    vertex 3.7365046793212082 49.860189859059005 3.0
    vertex 11.126046697815722 48.74639560909118 3.0
  endloop
endfacet
facet normal -0.0 -0.0 1.0
  outer loop
    vertex 4.110155147253328 54.84620884496489 3.0
    vertex 11.126046697815722 48.74639560909118 3.0
    vertex 12.238651367597292 53.6210351700003 3.0
  endloop
endfacet
facet normal -0.0 -0.0 1.0
  outer loop
    vertex 12.238651367597292 53.6210351700003 3.0
    vertex 11.126046697815722 48.74639560909118 3.0
    vertex 18.267051218319747 46.543687432210206 3.0
  endloop
endfacet
facet normal -0.0 -0.0 1.0
  outer loop
    vertex 12.238651367597292 53.6210351700003 3.0
    vertex 18.267051218319747 46.543687432210206 3.0
    vertex 20.09375634015172 51.19805617543122 3.0
  endloop
endfacet
facet normal -0.0 -0.0 1.0
  outer loop
    vertex 20.09375634015172 51.19805617543122 3.0
    vertex 18.267051218319747 46.543687432210206 3.0
    vertex 24.999999999999993 43.30127018922194 3.0
  endloop
endfacet
facet normal -0.0 -0.0 1.0
  outer loop
    vertex 20.09375634015172 51.19805617543122 3.0
    vertex 24.999999999999993 43.30127018922194 3.0
    vertex 27.49999999999999 47.63139720814412 3.0
  endloop
endfacet
facet normal -0.0 -0.0 1.0
  outer loop
    vertex 27.49999999999999 47.63139720814412 3.0
    vertex 24.999999999999993 43.30127018922194 3.0
    vertex 31.17449009293668 39.09157412340149 3.0
  endloop
endfacet
facet normal -0.0 -0.0 1.0
  outer loop
    vertex 27.49999999999999 47.63139720814412 3.0
    vertex 31.17449009293668 39.09157412340149 3.0
    vertex 34.29193910223034 43.000731535741636 3.0
  endloop
endfacet
facet normal -0.0 -0.0 1.0
  outer loop
    vertex 34.29193910223034 43.000731535741636 3.0
    vertex 31.17449009293668 39.09157412340149 3.0
    vertex 36.65259359149132 34.00863688854597 3.0
  endloop
endfacet
facet normal -0.0 -0.0 1.0
  outer loop
    vertex 34.29193910223034 43.000731535741636 3.0
    vertex 36.65259359149132 34.00863688854597 3.0
    vertex 40.317852950640436 37.40950057740056 3.0
  endloop
endfacet
facet normal -0.0 -0.0 1.0
  outer loop
    vertex 40.317852950640436 37.40950057740056 3.0
    vertex 36.65259359149132 34.00863688854597 3.0
    vertex 41.31193871579974 28.166002903181102 3.0
  endloop
endfacet
facet normal -0.0 -0.0 1.0
  outer loop
    vertex 40.317852950640436 37.40950057740056 3.0
    vertex 41.31193871579974 28.166002903181102 3.0
    vertex 45.44313258737971 30.98260319349921 3.0
  endloop
endfacet
facet normal -0.0 -0.0 1.0
  outer loop
    vertex 45.44313258737971 30.98260319349921 3.0
    vertex 41.31193871579974 28.166002903181102 3.0
    vertex 45.048443395120955 21.694186955877907 3.0
  endloop
endfacet
facet normal -0.0 -0.0 1.0
  outer loop
    vertex 45.44313258737971 30.98260319349921 3.0
    vertex 45.048443395120955 21.694186955877907 3.0
    vertex 47.778640289307035 14.737758720545209 3.0
  endloop
endfacet
facet normal -0.0 -0.0 1.0
  outer loop
    vertex 45.44313258737971 30.98260319349921 3.0
    vertex 47.778640289307035 14.737758720545209 3.0
    vertex 49.553287734633045 23.863605651465694 3.0
  endloop
endfacet
facet normal -0.0 -0.0 1.0
  outer loop
    vertex 49.553287734633045 23.863605651465694 3.0
    vertex 47.778640289307035 14.737758720545209 3.0
    vertex 49.44154131125642 7.4521133088087215 3.0
  endloop
endfacet
facet normal -0.0 -0.0 1.0
  outer loop
    vertex 49.553287734633045 23.863605651465694 3.0
    vertex 49.44154131125642 7.4521133088087215 3.0
    vertex 50.0 0.0 3.0
  endloop
endfacet
facet normal -0.0 -0.0 1.0
  outer loop
    vertex 49.553287734633045 23.863605651465694 3.0
    vertex 50.0 0.0 3.0
    vertex 52.55650431823772 16.21153459259973 3.0
  endloop
endfacet
facet normal -0.0 -0.0 1.0
  outer loop
    vertex 52.55650431823772 16.21153459259973 3.0
    vertex 50.0 0.0 3.0
    vertex 52.49999999999999 -10.570262242526123 3.0
  endloop
endfacet
facet normal -0.0 -0.0 1.0
  outer loop
    vertex 52.55650431823772 16.21153459259973 3.0
    vertex 52.49999999999999 -10.570262242526123 3.0
    vertex 54.99999999999999 0.0 3.0
  endloop
endfacet
facet normal -0.0 -0.0 1.0
  outer loop
    vertex 54.99999999999999 0.0 3.0
    vertex 52.49999999999999 -10.570262242526123 3.0
    vertex 59.99999999999999 0.0 3.0
  endloop
endfacet
facet normal -0.0 -0.0 1.0
  outer loop
    vertex 52.55650431823772 16.21153459259973 3.0
    vertex 54.99999999999999 0.0 3.0
    vertex 54.38569544238206 8.197324639689594 3.0
  endloop
endfacet
facet normal -0.8155609062693463 -0.578671243596157 -0.0
  outer loop
    vertex 45.0 0.0 3.0
    vertex 52.49999999999999 -10.570262242526123 0.0
    vertex 52.49999999999999 -10.570262242526123 3.0
  endloop
endfacet
facet normal -0.8155609062693463 -0.578671243596157 -0.0
  outer loop
    vertex 52.49999999999999 -10.570262242526123 0.0
    vertex 45.0 0.0 3.0
    vertex 45.0 0.0 0.0
  endloop
endfacet
facet normal 0.8155609062693463 -0.578671243596157 0.0
  outer loop
    vertex 59.99999999999999 0.0 0.0
    vertex 52.49999999999999 -10.570262242526123 3.0
    vertex 52.49999999999999 -10.570262242526123 0.0
  endloop
endfacet
facet normal 0.8155609062693463 -0.578671243596157 0.0
  outer loop
    vertex 52.49999999999999 -10.570262242526123 3.0
    vertex 59.99999999999999 0.0 0.0
    vertex 59.99999999999999 0.0 3.0
  endloop
endfacet
facet normal -0.0 1.0 0.0
  outer loop
    vertex 45.0 0.0 3.0
    vertex 50.0 0.0 0.0
    vertex 45.0 0.0 0.0
  endloop
endfacet
facet normal -0.0 1.0 0.0
  outer loop
    vertex 50.0 0.0 0.0
    vertex 45.0 0.0 3.0
    vertex 50.0 0.0 3.0
  endloop
endfacet
facet normal 0.43388373911755757 -0.9009688679024196 0.0
  outer loop
    vertex -18.267051218319754 46.543687432210206 3.0
    vertex -25.00000000000001 43.30127018922193 0.0
    vertex -18.267051218319754 46.543687432210206 0.0
  endloop
endfacet
facet normal 0.43388373911755757 -0.9009688679024196 0.0
  outer loop
    vertex -25.00000000000001 43.30127018922193 0.0
    vertex -18.267051218319754 46.543687432210206 3.0
    vertex -25.00000000000001 43.30127018922193 3.0
  endloop
endfacet
facet normal 0.2947551744109042 -0.9555728057861409 0.0
  outer loop
    vertex -11.126046697815717 48.74639560909118 3.0
    vertex -18.267051218319754 46.543687432210206 0.0
    vertex -11.126046697815717 48.74639560909118 0.0
  endloop
endfacet
facet normal 0.2947551744109042 -0.9555728057861409 0.0
  outer loop
    vertex -18.267051218319754 46.543687432210206 0.0
    vertex -11.126046697815717 48.74639560909118 3.0
    vertex -18.267051218319754 46.543687432210206 3.0
  endloop
endfacet
facet normal -0.6801727377709198 -0.733051871829826 -0.0
  outer loop
    vertex 36.65259359149132 34.00863688854597 3.0
    vertex 31.17449009293668 39.09157412340149 0.0
    vertex 36.65259359149132 34.00863688854597 0.0
  endloop
endfacet
facet normal -0.6801727377709198 -0.733051871829826 -0.0
  outer loop
    vertex 31.17449009293668 39.09157412340149 0.0
    vertex 36.65259359149132 34.00863688854597 3.0
    vertex 31.17449009293668 39.09157412340149 3.0
  endloop
endfacet
facet normal -0.0 -1.0 -0.0
  outer loop
    vertex 3.7365046793212082 49.860189859059005 3.0
    vertex -3.736504679321213 49.860189859059005 0.0
    vertex 3.7365046793212082 49.860189859059005 0.0
  endloop
endfacet
facet normal -0.0 -1.0 -0.0
  outer loop
    vertex -3.736504679321213 49.860189859059005 0.0
    vertex 3.7365046793212082 49.860189859059005 3.0
    vertex -3.736504679321213 49.860189859059005 3.0
  endloop
endfacet
facet normal 0.1490422661761749 -0.9888308262251286 0.0
  outer loop
    vertex -3.736504679321213 49.860189859059005 3.0
    vertex -11.126046697815717 48.74639560909118 0.0
    vertex -3.736504679321213 49.860189859059005 0.0
  endloop
endfacet
facet normal 0.1490422661761749 -0.9888308262251286 0.0
  outer loop
    vertex -11.126046697815717 48.74639560909118 0.0
    vertex -3.736504679321213 49.860189859059005 3.0
    vertex -11.126046697815717 48.74639560909118 3.0
  endloop
endfacet
facet normal 0.9308737486442044 -0.36534102436639526 0.0
  outer loop
    vertex -45.04844339512095 21.694186955877914 0.0
    vertex -47.778640289307035 14.737758720545209 3.0
    vertex -47.778640289307035 14.737758720545209 0.0
  endloop
endfacet
facet normal 0.9308737486442044 -0.36534102436639526 0.0
  outer loop
    vertex -47.778640289307035 14.737758720545209 3.0
    vertex -45.04844339512095 21.694186955877914 0.0
    vertex -45.04844339512095 21.694186955877914 3.0
  endloop
endfacet
facet normal 0.9749279121818237 -0.22252093395631373 0.0
  outer loop
    vertex -47.778640289307035 14.737758720545209 0.0
    vertex -49.44154131125642 7.4521133088087135 3.0
    vertex -49.44154131125642 7.4521133088087135 0.0
  endloop
endfacet
facet normal 0.9749279121818237 -0.22252093395631373 0.0
  outer loop
    vertex -49.44154131125642 7.4521133088087135 3.0
    vertex -47.778640289307035 14.737758720545209 0.0
    vertex -47.778640289307035 14.737758720545209 3.0
  endloop
endfacet
facet normal -0.8660254037844386 -0.5000000000000001 -0.0
  outer loop
    vertex 41.31193871579974 28.166002903181102 3.0
    vertex 45.048443395120955 21.694186955877907 0.0
    vertex 45.048443395120955 21.694186955877907 3.0
  endloop
endfacet
facet normal -0.8660254037844386 -0.5000000000000001 -0.0
  outer loop
    vertex 45.048443395120955 21.694186955877907 0.0
    vertex 41.31193871579974 28.166002903181102 3.0
    vertex 41.31193871579974 28.166002903181102 0.0
  endloop
endfacet
facet normal -0.0 1.0 0.0
  outer loop
    vertex 54.99999999999999 0.0 3.0
    vertex 59.99999999999999 0.0 0.0
    vertex 54.99999999999999 0.0 0.0
  endloop
endfacet
facet normal -0.0 1.0 0.0
  outer loop
    vertex 59.99999999999999 0.0 0.0
    vertex 54.99999999999999 0.0 3.0
    vertex 59.99999999999999 0.0 3.0
  endloop
endfacet
facet normal 0.9972037971811802 0.07473009358642455 0.0
  outer loop
    vertex 54.38569544238206 8.197324639689594 0.0
    vertex 54.99999999999999 0.0 3.0
    vertex 54.99999999999999 0.0 0.0
  endloop
endfacet
facet normal 0.9972037971811802 0.07473009358642455 0.0
  outer loop
    vertex 54.99999999999999 0.0 3.0
    vertex 54.38569544238206 8.197324639689594 0.0
    vertex 54.38569544238206 8.197324639689594 3.0
  endloop
endfacet
facet normal -0.7818314824680297 -0.6234898018587336 -0.0
  outer loop
    vertex 36.65259359149132 34.00863688854597 3.0
    vertex 41.31193871579974 28.166002903181102 0.0
    vertex 41.31193871579974 28.166002903181102 3.0
  endloop
endfacet
facet normal -0.7818314824680297 -0.6234898018587336 -0.0
  outer loop
    vertex 41.31193871579974 28.166002903181102 0.0
    vertex 36.65259359149132 34.00863688854597 3.0
    vertex 36.65259359149132 34.00863688854597 0.0
  endloop
endfacet
facet normal -0.9972037971811801 -0.07473009358642474 -0.0
  outer loop
    vertex 49.44154131125642 7.4521133088087215 3.0
    vertex 50.0 0.0 0.0
    vertex 50.0 0.0 3.0
  endloop
endfacet
facet normal -0.9972037971811801 -0.07473009358642474 -0.0
  outer loop
    vertex 50.0 0.0 0.0
    vertex 49.44154131125642 7.4521133088087215 3.0
    vertex 49.44154131125642 7.4521133088087215 0.0
  endloop
endfacet
facet normal -0.5633200580636218 -0.8262387743159951 -0.0
  outer loop
    vertex 31.17449009293668 39.09157412340149 3.0
    vertex 24.999999999999993 43.30127018922194 0.0
    vertex 31.17449009293668 39.09157412340149 0.0
  endloop
endfacet
facet normal -0.5633200580636218 -0.8262387743159951 -0.0
  outer loop
    vertex 24.999999999999993 43.30127018922194 0.0
    vertex 31.17449009293668 39.09157412340149 3.0
    vertex 24.999999999999993 43.30127018922194 3.0
  endloop
endfacet
facet normal -0.9308737486442045 -0.3653410243663948 -0.0
  outer loop
    vertex 45.048443395120955 21.694186955877907 3.0
    vertex 47.778640289307035 14.737758720545209 0.0
    vertex 47.778640289307035 14.737758720545209 3.0
  endloop
endfacet
facet normal -0.9308737486442045 -0.3653410243663948 -0.0
  outer loop
    vertex 47.778640289307035 14.737758720545209 0.0
    vertex 45.048443395120955 21.694186955877907 3.0
    vertex 45.048443395120955 21.694186955877907 0.0
  endloop
endfacet
facet normal -0.9749279121818237 -0.22252093395631398 -0.0
  outer loop
    vertex 47.778640289307035 14.737758720545209 3.0
    vertex 49.44154131125642 7.4521133088087215 0.0
    vertex 49.44154131125642 7.4521133088087215 3.0
  endloop
endfacet
facet normal -0.9749279121818237 -0.22252093395631398 -0.0
  outer loop
    vertex 49.44154131125642 7.4521133088087215 0.0
    vertex 47.778640289307035 14.737758720545209 3.0
    vertex 47.778640289307035 14.737758720545209 0.0
  endloop
endfacet
facet normal -0.43388373911755745 -0.9009688679024195 -0.0
  outer loop
    vertex 24.999999999999993 43.30127018922194 3.0
    vertex 18.267051218319747 46.543687432210206 0.0
    vertex 24.999999999999993 43.30127018922194 0.0
  endloop
endfacet
facet normal -0.43388373911755745 -0.9009688679024195 -0.0
  outer loop
    vertex 18.267051218319747 46.543687432210206 0.0
    vertex 24.999999999999993 43.30127018922194 3.0
    vertex 18.267051218319747 46.543687432210206 3.0
  endloop
endfacet
facet normal 0.7818314824680299 -0.6234898018587334 0.0
  outer loop
    vertex -36.65259359149132 34.00863688854597 0.0
    vertex -41.31193871579975 28.166002903181088 3.0
    vertex -41.31193871579975 28.166002903181088 0.0
  endloop
endfacet
facet normal 0.7818314824680299 -0.6234898018587334 0.0
  outer loop
    vertex -41.31193871579975 28.166002903181088 3.0
    vertex -36.65259359149132 34.00863688854597 0.0
    vertex -36.65259359149132 34.00863688854597 3.0
  endloop
endfacet
facet normal 0.5633200580636223 -0.8262387743159949 0.0
  outer loop
    vertex -25.00000000000001 43.30127018922193 3.0
    vertex -31.174490092936672 39.0915741234015 0.0
    vertex -25.00000000000001 43.30127018922193 0.0
  endloop
endfacet
facet normal 0.5633200580636223 -0.8262387743159949 0.0
  outer loop
    vertex -31.174490092936672 39.0915741234015 0.0
    vertex -25.00000000000001 43.30127018922193 3.0
    vertex -31.174490092936672 39.0915741234015 3.0
  endloop
endfacet
facet normal 0.6801727377709198 -0.733051871829826 0.0
  outer loop
    vertex -31.174490092936672 39.0915741234015 3.0
    vertex -36.65259359149132 34.00863688854597 0.0
    vertex -31.174490092936672 39.0915741234015 0.0
  endloop
endfacet
facet normal 0.6801727377709198 -0.733051871829826 0.0
  outer loop
    vertex -36.65259359149132 34.00863688854597 0.0
    vertex -31.174490092936672 39.0915741234015 3.0
    vertex -36.65259359149132 34.00863688854597 3.0
  endloop
endfacet
facet normal 0.8660254037844386 -0.4999999999999999 0.0
  outer loop
    vertex -41.31193871579975 28.166002903181088 0.0
    vertex -45.04844339512095 21.694186955877914 3.0
    vertex -45.04844339512095 21.694186955877914 0.0
  endloop
endfacet
facet normal 0.8660254037844386 -0.4999999999999999 0.0
  outer loop
    vertex -45.04844339512095 21.694186955877914 3.0
    vertex -41.31193871579975 28.166002903181088 0.0
    vertex -41.31193871579975 28.166002903181088 3.0
  endloop
endfacet
facet normal -0.2947551744109046 -0.9555728057861408 -0.0
  outer loop
    vertex 18.267051218319747 46.543687432210206 3.0
    vertex 11.126046697815722 48.74639560909118 0.0
    vertex 18.267051218319747 46.543687432210206 0.0
  endloop
endfacet
facet normal -0.2947551744109046 -0.9555728057861408 -0.0
  outer loop
    vertex 11.126046697815722 48.74639560909118 0.0
    vertex 18.267051218319747 46.543687432210206 3.0
    vertex 11.126046697815722 48.74639560909118 3.0
  endloop
endfacet
facet normal -0.1490422661761747 -0.9888308262251286 -0.0
  outer loop
    vertex 11.126046697815722 48.74639560909118 3.0
    vertex 3.7365046793212082 49.860189859059005 0.0
    vertex 11.126046697815722 48.74639560909118 0.0
  endloop
endfacet
facet normal -0.1490422661761747 -0.9888308262251286 -0.0
  outer loop
    vertex 3.7365046793212082 49.860189859059005 0.0
    vertex 11.126046697815722 48.74639560909118 3.0
    vertex 3.7365046793212082 49.860189859059005 3.0
  endloop
endfacet
facet normal -0.0 1.0 0.0
  outer loop
    vertex -3.7365046793211922 -49.860189859059005 3.0
    vertex 2.3019377969111545 -49.860189859059005 0.0
    vertex -3.7365046793211922 -49.860189859059005 0.0
  endloop
endfacet
facet normal -0.0 1.0 0.0
  outer loop
    vertex 2.3019377969111545 -49.860189859059005 0.0
    vertex -3.7365046793211922 -49.860189859059005 3.0
    vertex 2.3019377969111545 -49.860189859059005 3.0
  endloop
endfacet
facet normal 1.0 -2.827873791214167e-16 0.0
  outer loop
    vertex 2.3019377969111545 -49.860189859059005 0.0
    vertex 2.301937796911153 -54.84620884496489 3.0
    vertex 2.301937796911153 -54.84620884496489 0.0
  endloop
endfacet
facet normal 1.0 -2.827873791214167e-16 0.0
  outer loop
    vertex 2.301937796911153 -54.84620884496489 3.0
    vertex 2.3019377969111545 -49.860189859059005 0.0
    vertex 2.3019377969111545 -49.860189859059005 3.0
  endloop
endfacet
facet normal -0.6801727377709197 -0.7330518718298261 -0.0
  outer loop
    vertex -34.291939102230344 -43.00073153574163 3.0
    vertex -40.317852950640436 -37.409500577400564 0.0
    vertex -34.291939102230344 -43.00073153574163 0.0
  endloop
endfacet
facet normal -0.6801727377709197 -0.7330518718298261 -0.0
  outer loop
    vertex -40.317852950640436 -37.409500577400564 0.0
    vertex -34.291939102230344 -43.00073153574163 3.0
    vertex -40.317852950640436 -37.409500577400564 3.0
  endloop
endfacet
facet normal -0.9749279121818238 0.2225209339563133 0.0
  outer loop
    vertex -52.556504318237735 16.21153459259973 3.0
    vertex -54.38569544238206 8.197324639689583 0.0
    vertex -54.38569544238206 8.197324639689583 3.0
  endloop
endfacet
facet normal -0.9749279121818238 0.2225209339563133 0.0
  outer loop
    vertex -54.38569544238206 8.197324639689583 0.0
    vertex -52.556504318237735 16.21153459259973 3.0
    vertex -52.556504318237735 16.21153459259973 0.0
  endloop
endfacet
facet normal 0.8660254037844388 0.49999999999999983 0.0
  outer loop
    vertex -45.048443395120955 -21.6941869558779 0.0
    vertex -41.31193871579974 -28.166002903181102 3.0
    vertex -41.31193871579974 -28.166002903181102 0.0
  endloop
endfacet
facet normal 0.8660254037844388 0.49999999999999983 0.0
  outer loop
    vertex -41.31193871579974 -28.166002903181102 3.0
    vertex -45.048443395120955 -21.6941869558779 0.0
    vertex -45.048443395120955 -21.6941869558779 3.0
  endloop
endfacet
facet normal 0.5633200580636217 0.8262387743159952 0.0
  outer loop
    vertex -31.174490092936683 -39.091574123401486 3.0
    vertex -24.99999999999998 -43.30127018922194 0.0
    vertex -31.174490092936683 -39.091574123401486 0.0
  endloop
endfacet
facet normal 0.5633200580636217 0.8262387743159952 0.0
  outer loop
    vertex -24.99999999999998 -43.30127018922194 0.0
    vertex -31.174490092936683 -39.091574123401486 3.0
    vertex -24.99999999999998 -43.30127018922194 3.0
  endloop
endfacet
facet normal -0.0 -1.0 -0.0
  outer loop
    vertex 2.301937796911153 -54.84620884496489 3.0
    vertex -4.110155147253311 -54.84620884496489 0.0
    vertex 2.301937796911153 -54.84620884496489 0.0
  endloop
endfacet
facet normal -0.0 -1.0 -0.0
  outer loop
    vertex -4.110155147253311 -54.84620884496489 0.0
    vertex 2.301937796911153 -54.84620884496489 3.0
    vertex -4.110155147253311 -54.84620884496489 3.0
  endloop
endfacet
facet normal -0.9749279121818235 -0.2225209339563147 -0.0
  outer loop
    vertex -54.38569544238206 -8.197324639689594 3.0
    vertex -52.55650431823772 -16.211534592599737 0.0
    vertex -52.55650431823772 -16.211534592599737 3.0
  endloop
endfacet
facet normal -0.9749279121818235 -0.2225209339563147 -0.0
  outer loop
    vertex -52.55650431823772 -16.211534592599737 0.0
    vertex -54.38569544238206 -8.197324639689594 3.0
    vertex -54.38569544238206 -8.197324639689594 0.0
  endloop
endfacet
facet normal 0.9972037971811801 0.07473009358642467 0.0
  outer loop
    vertex -50.0 6.123233995736766e-15 0.0
    vertex -49.44154131125642 -7.452113308808723 3.0
    vertex -49.44154131125642 -7.452113308808723 0.0
  endloop
endfacet
facet normal 0.9972037971811801 0.07473009358642467 0.0
  outer loop
    vertex -49.44154131125642 -7.452113308808723 3.0
    vertex -50.0 6.123233995736766e-15 0.0
    vertex -50.0 6.123233995736766e-15 3.0
  endloop
endfacet
facet normal -0.4338837391175575 -0.9009688679024195 -0.0
  outer loop
    vertex -20.093756340151714 -51.19805617543122 3.0
    vertex -27.49999999999997 -47.63139720814413 0.0
    vertex -20.093756340151714 -51.19805617543122 0.0
  endloop
endfacet
facet normal -0.4338837391175575 -0.9009688679024195 -0.0
  outer loop
    vertex -27.49999999999997 -47.63139720814413 0.0
    vertex -20.093756340151714 -51.19805617543122 3.0
    vertex -27.49999999999997 -47.63139720814413 3.0
  endloop
endfacet
facet normal -0.8660254037844389 -0.4999999999999996 -0.0
  outer loop
    vertex -49.553287734633045 -23.863605651465686 3.0
    vertex -45.44313258737971 -30.98260319349921 0.0
    vertex -45.44313258737971 -30.98260319349921 3.0
  endloop
endfacet
facet normal -0.8660254037844389 -0.4999999999999996 -0.0
  outer loop
    vertex -45.44313258737971 -30.98260319349921 0.0
    vertex -49.553287734633045 -23.863605651465686 3.0
    vertex -49.553287734633045 -23.863605651465686 0.0
  endloop
endfacet
facet normal -0.9972037971811802 0.0747300935864247 0.0
  outer loop
    vertex -54.38569544238206 8.197324639689583 3.0
    vertex -54.99999999999999 6.735557395310442e-15 0.0
    vertex -54.99999999999999 6.735557395310442e-15 3.0
  endloop
endfacet
facet normal -0.9972037971811802 0.0747300935864247 0.0
  outer loop
    vertex -54.99999999999999 6.735557395310442e-15 0.0
    vertex -54.38569544238206 8.197324639689583 3.0
    vertex -54.38569544238206 8.197324639689583 0.0
  endloop
endfacet
facet normal -0.930873748644204 0.36534102436639576 0.0
  outer loop
    vertex -49.55328773463304 23.863605651465697 3.0
    vertex -52.556504318237735 16.21153459259973 0.0
    vertex -52.556504318237735 16.21153459259973 3.0
  endloop
endfacet
facet normal -0.930873748644204 0.36534102436639576 0.0
  outer loop
    vertex -52.556504318237735 16.21153459259973 0.0
    vertex -49.55328773463304 23.863605651465697 3.0
    vertex -49.55328773463304 23.863605651465697 0.0
  endloop
endfacet
facet normal -0.7818314824680296 -0.623489801858734 -0.0
  outer loop
    vertex -45.44313258737971 -30.98260319349921 3.0
    vertex -40.317852950640436 -37.409500577400564 0.0
    vertex -40.317852950640436 -37.409500577400564 3.0
  endloop
endfacet
facet normal -0.7818314824680296 -0.623489801858734 -0.0
  outer loop
    vertex -40.317852950640436 -37.409500577400564 0.0
    vertex -45.44313258737971 -30.98260319349921 3.0
    vertex -45.44313258737971 -30.98260319349921 0.0
  endloop
endfacet
facet normal 0.9749279121818238 0.2225209339563138 0.0
  outer loop
    vertex -49.44154131125642 -7.452113308808723 0.0
    vertex -47.778640289307035 -14.737758720545218 3.0
    vertex -47.778640289307035 -14.737758720545218 0.0
  endloop
endfacet
facet normal 0.9749279121818238 0.2225209339563138 0.0
  outer loop
    vertex -47.778640289307035 -14.737758720545218 3.0
    vertex -49.44154131125642 -7.452113308808723 0.0
    vertex -49.44154131125642 -7.452113308808723 3.0
  endloop
endfacet
facet normal -0.8660254037844388 0.4999999999999997 0.0
  outer loop
    vertex -45.443132587379715 30.982603193499195 3.0
    vertex -49.55328773463304 23.863605651465697 0.0
    vertex -49.55328773463304 23.863605651465697 3.0
  endloop
endfacet
facet normal -0.8660254037844388 0.4999999999999997 0.0
  outer loop
    vertex -49.55328773463304 23.863605651465697 0.0
    vertex -45.443132587379715 30.982603193499195 3.0
    vertex -45.443132587379715 30.982603193499195 0.0
  endloop
endfacet
facet normal -0.7818314824680297 0.6234898018587336 0.0
  outer loop
    vertex -40.317852950640436 37.40950057740056 3.0
    vertex -45.443132587379715 30.982603193499195 0.0
    vertex -45.443132587379715 30.982603193499195 3.0
  endloop
endfacet
facet normal -0.7818314824680297 0.6234898018587336 0.0
  outer loop
    vertex -45.443132587379715 30.982603193499195 0.0
    vertex -40.317852950640436 37.40950057740056 3.0
    vertex -40.317852950640436 37.40950057740056 0.0
  endloop
endfacet
facet normal -0.5633200580636215 -0.8262387743159954 -0.0
  outer loop
    vertex -27.49999999999997 -47.63139720814413 3.0
    vertex -34.291939102230344 -43.00073153574163 0.0
    vertex -27.49999999999997 -47.63139720814413 0.0
  endloop
endfacet
facet normal -0.5633200580636215 -0.8262387743159954 -0.0
  outer loop
    vertex -34.291939102230344 -43.00073153574163 0.0
    vertex -27.49999999999997 -47.63139720814413 3.0
    vertex -34.291939102230344 -43.00073153574163 3.0
  endloop
endfacet
facet normal -0.14904226617617236 -0.9888308262251289 -0.0
  outer loop
    vertex -4.110155147253311 -54.84620884496489 3.0
    vertex -12.2386513675973 -53.6210351700003 0.0
    vertex -4.110155147253311 -54.84620884496489 0.0
  endloop
endfacet
facet normal -0.14904226617617236 -0.9888308262251289 -0.0
  outer loop
    vertex -12.2386513675973 -53.6210351700003 0.0
    vertex -4.110155147253311 -54.84620884496489 3.0
    vertex -12.2386513675973 -53.6210351700003 3.0
  endloop
endfacet
facet normal 0.9972037971811801 -0.07473009358642488 0.0
  outer loop
    vertex -49.44154131125642 7.4521133088087135 0.0
    vertex -50.0 6.123233995736766e-15 3.0
    vertex -50.0 6.123233995736766e-15 0.0
  endloop
endfacet
facet normal 0.9972037971811801 -0.07473009358642488 0.0
  outer loop
    vertex -50.0 6.123233995736766e-15 3.0
    vertex -49.44154131125642 7.4521133088087135 0.0
    vertex -49.44154131125642 7.4521133088087135 3.0
  endloop
endfacet
facet normal -0.29475517441090593 -0.9555728057861402 -0.0
  outer loop
    vertex -12.2386513675973 -53.6210351700003 3.0
    vertex -20.093756340151714 -51.19805617543122 0.0
    vertex -12.2386513675973 -53.6210351700003 0.0
  endloop
endfacet
facet normal -0.29475517441090593 -0.9555728057861402 -0.0
  outer loop
    vertex -20.093756340151714 -51.19805617543122 0.0
    vertex -12.2386513675973 -53.6210351700003 3.0
    vertex -20.093756340151714 -51.19805617543122 3.0
  endloop
endfacet
facet normal 0.14904226617617422 0.9888308262251287 0.0
  outer loop
    vertex -11.12604669781573 -48.74639560909118 3.0
    vertex -3.7365046793211922 -49.860189859059005 0.0
    vertex -11.12604669781573 -48.74639560909118 0.0
  endloop
endfacet
facet normal 0.14904226617617422 0.9888308262251287 0.0
  outer loop
    vertex -3.7365046793211922 -49.860189859059005 0.0
    vertex -11.12604669781573 -48.74639560909118 3.0
    vertex -3.7365046793211922 -49.860189859059005 3.0
  endloop
endfacet
facet normal -0.6801727377709198 0.7330518718298261 0.0
  outer loop
    vertex -40.317852950640436 37.40950057740056 3.0
    vertex -34.29193910223034 43.000731535741636 0.0
    vertex -40.317852950640436 37.40950057740056 0.0
  endloop
endfacet
facet normal -0.6801727377709198 0.7330518718298261 0.0
  outer loop
    vertex -34.29193910223034 43.000731535741636 0.0
    vertex -40.317852950640436 37.40950057740056 3.0
    vertex -34.29193910223034 43.000731535741636 3.0
  endloop
endfacet
facet normal -0.5633200580636222 0.8262387743159948 0.0
  outer loop
    vertex -34.29193910223034 43.000731535741636 3.0
    vertex -27.500000000000007 47.631397208144115 0.0
    vertex -34.29193910223034 43.000731535741636 0.0
  endloop
endfacet
facet normal -0.5633200580636222 0.8262387743159948 0.0
  outer loop
    vertex -27.500000000000007 47.631397208144115 0.0
    vertex -34.29193910223034 43.000731535741636 3.0
    vertex -27.500000000000007 47.631397208144115 3.0
  endloop
endfacet
facet normal -0.43388373911755757 0.9009688679024195 0.0
  outer loop
    vertex -27.500000000000007 47.631397208144115 3.0
    vertex -20.093756340151725 51.19805617543122 0.0
    vertex -27.500000000000007 47.631397208144115 0.0
  endloop
endfacet
facet normal -0.43388373911755757 0.9009688679024195 0.0
  outer loop
    vertex -20.093756340151725 51.19805617543122 0.0
    vertex -27.500000000000007 47.631397208144115 3.0
    vertex -20.093756340151725 51.19805617543122 3.0
  endloop
endfacet
facet normal 0.9308737486442041 0.3653410243663955 0.0
  outer loop
    vertex -47.778640289307035 -14.737758720545218 0.0
    vertex -45.048443395120955 -21.6941869558779 3.0
    vertex -45.048443395120955 -21.6941869558779 0.0
  endloop
endfacet
facet normal 0.9308737486442041 0.3653410243663955 0.0
  outer loop
    vertex -45.048443395120955 -21.6941869558779 3.0
    vertex -47.778640289307035 -14.737758720545218 0.0
    vertex -47.778640289307035 -14.737758720545218 3.0
  endloop
endfacet
facet normal -0.9972037971811802 -0.07473009358642446 -0.0
  outer loop
    vertex -54.99999999999999 6.735557395310442e-15 3.0
    vertex -54.38569544238206 -8.197324639689594 0.0
    vertex -54.38569544238206 -8.197324639689594 3.0
  endloop
endfacet
facet normal -0.9972037971811802 -0.07473009358642446 -0.0
  outer loop
    vertex -54.38569544238206 -8.197324639689594 0.0
    vertex -54.99999999999999 6.735557395310442e-15 3.0
    vertex -54.99999999999999 6.735557395310442e-15 0.0
  endloop
endfacet
facet normal 0.4338837391175574 0.9009688679024197 0.0
  outer loop
    vertex -24.99999999999998 -43.30127018922194 3.0
    vertex -18.267051218319743 -46.543687432210206 0.0
    vertex -24.99999999999998 -43.30127018922194 0.0
  endloop
endfacet
facet normal 0.4338837391175574 0.9009688679024197 0.0
  outer loop
    vertex -18.267051218319743 -46.543687432210206 0.0
    vertex -24.99999999999998 -43.30127018922194 3.0
    vertex -18.267051218319743 -46.543687432210206 3.0
  endloop
endfacet
facet normal -0.9308737486442045 -0.3653410243663948 -0.0
  outer loop
    vertex -52.55650431823772 -16.211534592599737 3.0
    vertex -49.553287734633045 -23.863605651465686 0.0
    vertex -49.553287734633045 -23.863605651465686 3.0
  endloop
endfacet
facet normal -0.9308737486442045 -0.3653410243663948 -0.0
  outer loop
    vertex -49.553287734633045 -23.863605651465686 0.0
    vertex -52.55650431823772 -16.211534592599737 3.0
    vertex -52.55650431823772 -16.211534592599737 0.0
  endloop
endfacet
facet normal 0.6801727377709198 0.7330518718298261 0.0
  outer loop
    vertex -36.65259359149131 -34.00863688854597 3.0
    vertex -31.174490092936683 -39.091574123401486 0.0
    vertex -36.65259359149131 -34.00863688854597 0.0
  endloop
endfacet
facet normal 0.6801727377709198 0.7330518718298261 0.0
  outer loop
    vertex -31.174490092936683 -39.091574123401486 0.0
    vertex -36.65259359149131 -34.00863688854597 3.0
    vertex -31.174490092936683 -39.091574123401486 3.0
  endloop
endfacet
facet normal 0.29475517441090504 0.9555728057861405 0.0
  outer loop
    vertex -18.267051218319743 -46.543687432210206 3.0
    vertex -11.12604669781573 -48.74639560909118 0.0
    vertex -18.267051218319743 -46.543687432210206 0.0
  endloop
endfacet
facet normal 0.29475517441090504 0.9555728057861405 0.0
  outer loop
    vertex -11.12604669781573 -48.74639560909118 0.0
    vertex -18.267051218319743 -46.543687432210206 3.0
    vertex -11.12604669781573 -48.74639560909118 3.0
  endloop
endfacet
facet normal 0.7818314824680298 0.6234898018587338 0.0
  outer loop
    vertex -41.31193871579974 -28.166002903181102 0.0
    vertex -36.65259359149131 -34.00863688854597 3.0
    vertex -36.65259359149131 -34.00863688854597 0.0
  endloop
endfacet
facet normal 0.7818314824680298 0.6234898018587338 0.0
  outer loop
    vertex -36.65259359149131 -34.00863688854597 3.0
    vertex -41.31193871579974 -28.166002903181102 0.0
    vertex -41.31193871579974 -28.166002903181102 3.0
  endloop
endfacet
facet normal -0.14904226617617305 0.988830826225129 0.0
  outer loop
    vertex -12.238651367597287 53.6210351700003 3.0
    vertex -4.110155147253334 54.84620884496489 0.0
    vertex -12.238651367597287 53.6210351700003 0.0
  endloop
endfacet
facet normal -0.14904226617617305 0.988830826225129 0.0
  outer loop
    vertex -4.110155147253334 54.84620884496489 0.0
    vertex -12.238651367597287 53.6210351700003 3.0
    vertex -4.110155147253334 54.84620884496489 3.0
  endloop
endfacet
facet normal 0.7818314824680295 0.6234898018587339 0.0
  outer loop
    vertex 40.317852950640436 37.40950057740056 0.0
    vertex 45.44313258737971 30.98260319349921 3.0
    vertex 45.44313258737971 30.98260319349921 0.0
  endloop
endfacet
facet normal 0.7818314824680295 0.6234898018587339 0.0
  outer loop
    vertex 45.44313258737971 30.98260319349921 3.0
    vertex 40.317852950640436 37.40950057740056 0.0
    vertex 40.317852950640436 37.40950057740056 3.0
  endloop
endfacet
facet normal 0.9308737486442047 0.36534102436639426 0.0
  outer loop
    vertex 49.553287734633045 23.863605651465694 0.0
    vertex 52.55650431823772 16.21153459259973 3.0
    vertex 52.55650431823772 16.21153459259973 0.0
  endloop
endfacet
facet normal 0.9308737486442047 0.36534102436639426 0.0
  outer loop
    vertex 52.55650431823772 16.21153459259973 3.0
    vertex 49.553287734633045 23.863605651465694 0.0
    vertex 49.553287734633045 23.863605651465694 3.0
  endloop
endfacet
facet normal 0.29475517441090554 0.9555728057861405 0.0
  outer loop
    vertex 12.238651367597292 53.6210351700003 3.0
    vertex 20.09375634015172 51.19805617543122 0.0
    vertex 12.238651367597292 53.6210351700003 0.0
  endloop
endfacet
facet normal 0.29475517441090554 0.9555728057861405 0.0
  outer loop
    vertex 20.09375634015172 51.19805617543122 0.0
    vertex 12.238651367597292 53.6210351700003 3.0
    vertex 20.09375634015172 51.19805617543122 3.0
  endloop
endfacet
facet normal 0.14904226617617283 0.9888308262251289 0.0
  outer loop
    vertex 4.110155147253328 54.84620884496489 3.0
    vertex 12.238651367597292 53.6210351700003 0.0
    vertex 4.110155147253328 54.84620884496489 0.0
  endloop
endfacet
facet normal 0.14904226617617283 0.9888308262251289 0.0
  outer loop
    vertex 12.238651367597292 53.6210351700003 0.0
    vertex 4.110155147253328 54.84620884496489 3.0
    vertex 12.238651367597292 53.6210351700003 3.0
  endloop
endfacet
facet normal -0.0 1.0 0.0
  outer loop
    vertex -4.110155147253334 54.84620884496489 3.0
    vertex 4.110155147253328 54.84620884496489 0.0
    vertex -4.110155147253334 54.84620884496489 0.0
  endloop
endfacet
facet normal -0.0 1.0 0.0
  outer loop
    vertex 4.110155147253328 54.84620884496489 0.0
    vertex -4.110155147253334 54.84620884496489 3.0
    vertex 4.110155147253328 54.84620884496489 3.0
  endloop
endfacet
facet normal -0.29475517441090515 0.9555728057861406 0.0
  outer loop
    vertex -20.093756340151725 51.19805617543122 3.0
    vertex -12.238651367597287 53.6210351700003 0.0
    vertex -20.093756340151725 51.19805617543122 0.0
  endloop
endfacet
facet normal -0.29475517441090515 0.9555728057861406 0.0
  outer loop
    vertex -12.238651367597287 53.6210351700003 0.0
    vertex -20.093756340151725 51.19805617543122 3.0
    vertex -12.238651367597287 53.6210351700003 3.0
  endloop
endfacet
facet normal 0.6801727377709198 0.7330518718298261 0.0
  outer loop
    vertex 34.29193910223034 43.000731535741636 3.0
    vertex 40.317852950640436 37.40950057740056 0.0
    vertex 34.29193910223034 43.000731535741636 0.0
  endloop
endfacet
facet normal 0.6801727377709198 0.7330518718298261 0.0
  outer loop
    vertex 40.317852950640436 37.40950057740056 0.0
    vertex 34.29193910223034 43.000731535741636 3.0
    vertex 40.317852950640436 37.40950057740056 3.0
  endloop
endfacet
facet normal 0.9749279121818235 0.2225209339563149 0.0
  outer loop
    vertex 52.55650431823772 16.21153459259973 0.0
    vertex 54.38569544238206 8.197324639689594 3.0
    vertex 54.38569544238206 8.197324639689594 0.0
  endloop
endfacet
facet normal 0.9749279121818235 0.2225209339563149 0.0
  outer loop
    vertex 54.38569544238206 8.197324639689594 3.0
    vertex 52.55650431823772 16.21153459259973 0.0
    vertex 52.55650431823772 16.21153459259973 3.0
  endloop
endfacet
facet normal 0.8660254037844388 0.49999999999999994 0.0
  outer loop
    vertex 45.44313258737971 30.98260319349921 0.0
    vertex 49.553287734633045 23.863605651465694 3.0
    vertex 49.553287734633045 23.863605651465694 0.0
  endloop
endfacet
facet normal 0.8660254037844388 0.49999999999999994 0.0
  outer loop
    vertex 49.553287734633045 23.863605651465694 3.0
    vertex 45.44313258737971 30.98260319349921 0.0
    vertex 45.44313258737971 30.98260319349921 3.0
  endloop
endfacet
facet normal 0.4338837391175575 0.9009688679024194 0.0
  outer loop
    vertex 20.09375634015172 51.19805617543122 3.0
    vertex 27.49999999999999 47.63139720814412 0.0
    vertex 20.09375634015172 51.19805617543122 0.0
  endloop
endfacet
facet normal 0.4338837391175575 0.9009688679024194 0.0
  outer loop
    vertex 27.49999999999999 47.63139720814412 0.0
    vertex 20.09375634015172 51.19805617543122 3.0
    vertex 27.49999999999999 47.63139720814412 3.0
  endloop
endfacet
facet normal 0.5633200580636218 0.826238774315995 0.0
  outer loop
    vertex 27.49999999999999 47.63139720814412 3.0
    vertex 34.29193910223034 43.000731535741636 0.0
    vertex 27.49999999999999 47.63139720814412 0.0
  endloop
endfacet
facet normal 0.5633200580636218 0.826238774315995 0.0
  outer loop
    vertex 34.29193910223034 43.000731535741636 0.0
    vertex 27.49999999999999 47.63139720814412 3.0
    vertex 34.29193910223034 43.000731535741636 3.0
  endloop
endfacet
endsolid Arrow
