solid Untitled-6019dcea
facet normal -0.7071067811865476 -0.7071067811865476 0.0
  outer loop
    vertex 4072.6000976562495 -3292.25 9.999999999999998
    vertex 4140.25 -3359.89990234375 0.0
    vertex 4140.25 -3359.89990234375 9.999999999999998
  endloop
endfacet
facet normal -0.7071067811865476 -0.7071067811865476 0.0
  outer loop
    vertex 4140.25 -3359.89990234375 0.0
    vertex 4072.6000976562495 -3292.25 9.999999999999998
    vertex 4072.6000976562495 -3292.25 0.0
  endloop
endfacet
facet normal -1.0 0.0 0.0
  outer loop
    vertex 4072.6000976562495 -3222.75 9.999999999999998
    vertex 4072.6000976562495 -3292.25 0.0
    vertex 4072.6000976562495 -3292.25 9.999999999999998
  endloop
endfacet
facet normal -1.0 0.0 0.0
  outer loop
    vertex 4072.6000976562495 -3292.25 0.0
    vertex 4072.6000976562495 -3222.75 9.999999999999998
    vertex 4072.6000976562495 -3222.75 0.0
  endloop
endfacet
facet normal -0.7071067811865476 0.7071067811865476 -0.0
  outer loop
    vertex 4112.25 -3183.10009765625 9.999999999999998
    vertex 4072.6000976562495 -3222.75 0.0
    vertex 4072.6000976562495 -3222.75 9.999999999999998
  endloop
endfacet
facet normal -0.7071067811865476 0.7071067811865476 -0.0
  outer loop
    vertex 4072.6000976562495 -3222.75 0.0
    vertex 4112.25 -3183.10009765625 9.999999999999998
    vertex 4112.25 -3183.10009765625 0.0
  endloop
endfacet
facet normal -0.0 1.0 -0.0
  outer loop
    vertex 4112.25 -3183.10009765625 9.999999999999998
    vertex 4182.0 -3183.10009765625 0.0
    vertex 4112.25 -3183.10009765625 0.0
  endloop
endfacet
facet normal -0.0 1.0 -0.0
  outer loop
    vertex 4182.0 -3183.10009765625 0.0
    vertex 4112.25 -3183.10009765625 9.999999999999998
    vertex 4182.0 -3183.10009765625 9.999999999999998
  endloop
endfacet
facet normal 0.5772358177525638 -0.816577498283861 1.1684638599281328e-18
  outer loop
    vertex 4182.419921875 -3182.9199218749995 9.999999999999998
    vertex 4182.25 -3183.0400390624995 0.0
    vertex 4182.419921875 -3182.9199218749995 0.0
  endloop
endfacet
facet normal 0.577235817752564 -0.816577498283861 -1.1684638599281328e-18
  outer loop
    vertex 4182.25 -3183.0400390624995 9.999999999999998
    vertex 4182.25 -3183.0400390624995 0.0
    vertex 4182.419921875 -3182.9199218749995 9.999999999999998
  endloop
endfacet
facet normal -0.7071067811865476 0.7071067811865476 -0.0
  outer loop
    vertex 4202.419921874999 -3162.919921875 9.999999999999998
    vertex 4182.419921875 -3182.9199218749995 0.0
    vertex 4182.419921875 -3182.9199218749995 9.999999999999998
  endloop
endfacet
facet normal -0.7071067811865476 0.7071067811865476 -0.0
  outer loop
    vertex 4182.419921875 -3182.9199218749995 0.0
    vertex 4202.419921874999 -3162.919921875 9.999999999999998
    vertex 4202.419921874999 -3162.919921875 0.0
  endloop
endfacet
facet normal 0.8317525887019087 -0.5551464952493832 1.5590628019787508e-18
  outer loop
    vertex 4202.560058593749 -3162.7099609375 9.999999999999998
    vertex 4202.419921874999 -3162.919921875 0.0
    vertex 4202.560058593749 -3162.7099609375 0.0
  endloop
endfacet
facet normal 0.8317525887019087 -0.5551464952493832 1.5590628019787508e-18
  outer loop
    vertex 4202.560058593749 -3162.7099609375 9.999999999999998
    vertex 4202.419921874999 -3162.919921875 9.999999999999998
    vertex 4202.419921874999 -3162.919921875 0.0
  endloop
endfacet
facet normal 0.9822985542237471 -0.18732204987650652 4.603127051031674e-19
  outer loop
    vertex 4202.60009765625 -3162.5 9.999999999999998
    vertex 4202.560058593749 -3162.7099609375 0.0
    vertex 4202.60009765625 -3162.5 0.0
  endloop
endfacet
facet normal 0.9822985542237471 -0.18732204987650652 9.206254102063348e-19
  outer loop
    vertex 4202.60009765625 -3162.5 9.999999999999998
    vertex 4202.560058593749 -3162.7099609375 9.999999999999998
    vertex 4202.560058593749 -3162.7099609375 0.0
  endloop
endfacet
facet normal 1.0 -0.0 -0.0
  outer loop
    vertex 4202.60009765625 -3156.9199218749995 9.999999999999998
    vertex 4202.60009765625 -3162.5 0.0
    vertex 4202.60009765625 -3156.9199218749995 0.0
  endloop
endfacet
facet normal 1.0 -0.0 -0.0
  outer loop
    vertex 4202.60009765625 -3156.9199218749995 9.999999999999998
    vertex 4202.60009765625 -3162.5 9.999999999999998
    vertex 4202.60009765625 -3162.5 0.0
  endloop
endfacet
facet normal 0.10456284285466422 -0.994518281327272 0.0
  outer loop
    vertex 4203.740234375 -3156.800048828125 9.999999999999998
    vertex 4202.60009765625 -3156.9199218749995 0.0
    vertex 4203.740234375 -3156.800048828125 0.0
  endloop
endfacet
facet normal 0.10456284285466422 -0.994518281327272 1.0114987334559563e-18
  outer loop
    vertex 4202.60009765625 -3156.9199218749995 9.999999999999998
    vertex 4202.60009765625 -3156.9199218749995 0.0
    vertex 4203.740234375 -3156.800048828125 9.999999999999998
  endloop
endfacet
facet normal 0.4994223364187048 -0.8663586612275144 -1.4667508929286687e-06
  outer loop
    vertex 4205.18017578125 -3155.969970703125 9.999999999999998
    vertex 4203.740234375 -3156.800048828125 0.0
    vertex 4205.18017578125 -3155.969970703125 0.0
  endloop
endfacet
facet normal 0.49942233641812617 -0.8663586612265104 2.1139182985063613e-06
  outer loop
    vertex 4203.740234375 -3156.800048828125 9.999999999999998
    vertex 4203.740234375 -3156.800048828125 0.0
    vertex 4205.18017578125 -3155.969970703125 9.999999999999998
  endloop
endfacet
facet normal 0.8101379076522119 -0.586239345817812 -9.54286563065111e-18
  outer loop
    vertex 4206.14990234375 -3154.6298828124995 9.999999999999998
    vertex 4205.18017578125 -3155.969970703125 0.0
    vertex 4206.14990234375 -3154.6298828124995 0.0
  endloop
endfacet
facet normal 0.8101379076522119 -0.586239345817812 -9.54286563065111e-18
  outer loop
    vertex 4206.14990234375 -3154.6298828124995 9.999999999999998
    vertex 4205.18017578125 -3155.969970703125 9.999999999999998
    vertex 4205.18017578125 -3155.969970703125 0.0
  endloop
endfacet
facet normal 0.9776994241143684 -0.2100091333405107 3.892682870568996e-18
  outer loop
    vertex 4206.5 -3152.9999999999995 9.999999999999998
    vertex 4206.14990234375 -3154.6298828124995 0.0
    vertex 4206.5 -3152.9999999999995 0.0
  endloop
endfacet
facet normal 0.9776994241143684 -0.2100091333405107 3.892682870568996e-18
  outer loop
    vertex 4206.5 -3152.9999999999995 9.999999999999998
    vertex 4206.14990234375 -3154.6298828124995 9.999999999999998
    vertex 4206.14990234375 -3154.6298828124995 0.0
  endloop
endfacet
facet normal 0.9776994241143684 0.2100091333405107 -3.892682870568996e-18
  outer loop
    vertex 4206.14990234375 -3151.3701171875 9.999999999999998
    vertex 4206.5 -3152.9999999999995 0.0
    vertex 4206.14990234375 -3151.3701171875 0.0
  endloop
endfacet
facet normal 0.9776994241143684 0.2100091333405107 -0.0
  outer loop
    vertex 4206.14990234375 -3151.3701171875 9.999999999999998
    vertex 4206.5 -3152.9999999999995 9.999999999999998
    vertex 4206.5 -3152.9999999999995 0.0
  endloop
endfacet
facet normal 0.8101379076522119 0.586239345817812 9.54286563065111e-18
  outer loop
    vertex 4205.18017578125 -3150.0300292968745 9.999999999999998
    vertex 4206.14990234375 -3151.3701171875 0.0
    vertex 4205.18017578125 -3150.0300292968745 0.0
  endloop
endfacet
facet normal 0.8101379076522119 0.5862393458178121 -0.0
  outer loop
    vertex 4205.18017578125 -3150.0300292968745 9.999999999999998
    vertex 4206.14990234375 -3151.3701171875 9.999999999999998
    vertex 4206.14990234375 -3151.3701171875 0.0
  endloop
endfacet
facet normal 0.49942233641812617 0.8663586612265104 -2.1139182985063613e-06
  outer loop
    vertex 4203.740234375 -3149.1999511718745 9.999999999999998
    vertex 4205.18017578125 -3150.0300292968745 0.0
    vertex 4203.740234375 -3149.1999511718745 0.0
  endloop
endfacet
facet normal 0.4994223364187048 0.8663586612275144 1.4667508929286687e-06
  outer loop
    vertex 4205.18017578125 -3150.0300292968745 9.999999999999998
    vertex 4205.18017578125 -3150.0300292968745 0.0
    vertex 4203.740234375 -3149.1999511718745 9.999999999999998
  endloop
endfacet
facet normal 0.10456284285466422 0.994518281327272 -1.0114987334559563e-18
  outer loop
    vertex 4202.60009765625 -3149.080078125 9.999999999999998
    vertex 4203.740234375 -3149.1999511718745 0.0
    vertex 4202.60009765625 -3149.080078125 0.0
  endloop
endfacet
facet normal 0.10456284285466422 0.994518281327272 -1.0114987334559563e-18
  outer loop
    vertex 4203.740234375 -3149.1999511718745 9.999999999999998
    vertex 4203.740234375 -3149.1999511718745 0.0
    vertex 4202.60009765625 -3149.080078125 9.999999999999998
  endloop
endfacet
facet normal -1.0 0.0 0.0
  outer loop
    vertex 4202.60009765625 -3072.7499999999995 9.999999999999998
    vertex 4202.60009765625 -3149.080078125 0.0
    vertex 4202.60009765625 -3149.080078125 9.999999999999998
  endloop
endfacet
facet normal -1.0 0.0 0.0
  outer loop
    vertex 4202.60009765625 -3149.080078125 0.0
    vertex 4202.60009765625 -3072.7499999999995 9.999999999999998
    vertex 4202.60009765625 -3072.7499999999995 0.0
  endloop
endfacet
facet normal -0.7071067811865451 0.70710678118655 -7.326555822190554e-15
  outer loop
    vertex 4202.60009765625 -3072.7499999999995 9.999999999999998
    vertex 4217.18017578125 -3058.169921875 0.0
    vertex 4202.60009765625 -3072.7499999999995 0.0
  endloop
endfacet
facet normal -0.7071067811865451 0.70710678118655 -7.326555822190554e-15
  outer loop
    vertex 4217.18017578125 -3058.169921875 0.0
    vertex 4202.60009765625 -3072.7499999999995 9.999999999999998
    vertex 4217.25 -3058.1000976562495 0.0
  endloop
endfacet
facet normal -0.7071067811865451 0.70710678118655 -7.326555822190554e-15
  outer loop
    vertex 4217.25 -3058.1000976562495 0.0
    vertex 4202.60009765625 -3072.7499999999995 9.999999999999998
    vertex 4217.25 -3058.1000976562495 9.999999999999998
  endloop
endfacet
facet normal 0.0 -1.0 0.0
  outer loop
    vertex 4218.620117187499 -3058.1000976562495 9.999999999999998
    vertex 4217.25 -3058.1000976562495 0.0
    vertex 4218.620117187499 -3058.1000976562495 0.0
  endloop
endfacet
facet normal 0.0 -1.0 0.0
  outer loop
    vertex 4217.25 -3058.1000976562495 9.999999999999998
    vertex 4217.25 -3058.1000976562495 0.0
    vertex 4218.620117187499 -3058.1000976562495 9.999999999999998
  endloop
endfacet
facet normal -0.9174775842087243 0.3977874840596715 0.0
  outer loop
    vertex 4218.620117187499 -3058.1000976562495 0.0
    vertex 4218.58984375 -3058.169921875 0.0
    vertex 4218.58984375 -3058.169921875 9.999999999999998
  endloop
endfacet
facet normal -0.9174775842087243 0.3977874840596715 0.0
  outer loop
    vertex 4218.620117187499 -3058.1000976562495 0.0
    vertex 4218.58984375 -3058.169921875 9.999999999999998
    vertex 4218.620117187499 -3058.1000976562495 9.999999999999998
  endloop
endfacet
facet normal -1.0 0.0 0.0
  outer loop
    vertex 4218.58984375 -3058.169921875 0.0
    vertex 4218.58984375 -3059.830078125 0.0
    vertex 4218.58984375 -3059.830078125 9.999999999999998
  endloop
endfacet
facet normal -1.0 0.0 0.0
  outer loop
    vertex 4218.58984375 -3058.169921875 0.0
    vertex 4218.58984375 -3059.830078125 9.999999999999998
    vertex 4218.58984375 -3058.169921875 9.999999999999998
  endloop
endfacet
facet normal -0.9150677999522842 -0.40330003904101824 0.0
  outer loop
    vertex 4218.58984375 -3059.830078125 0.0
    vertex 4219.259765625 -3061.3500976562495 0.0
    vertex 4219.259765625 -3061.3500976562495 9.999999999999998
  endloop
endfacet
facet normal -0.9150677999522842 -0.4033000390410183 0.0
  outer loop
    vertex 4218.58984375 -3059.830078125 0.0
    vertex 4219.259765625 -3061.3500976562495 9.999999999999998
    vertex 4218.58984375 -3059.830078125 9.999999999999998
  endloop
endfacet
facet normal -0.6668548875614888 -0.745187599826617 -1.0248127294065204e-17
  outer loop
    vertex 4220.5 -3062.4599609375 9.999999999999998
    vertex 4219.259765625 -3061.3500976562495 0.0
    vertex 4220.5 -3062.4599609375 0.0
  endloop
endfacet
facet normal -0.6668548875614888 -0.745187599826617 -1.0248127294065204e-17
  outer loop
    vertex 4219.259765625 -3061.3500976562495 9.999999999999998
    vertex 4219.259765625 -3061.3500976562495 0.0
    vertex 4220.5 -3062.4599609375 9.999999999999998
  endloop
endfacet
facet normal -0.3126149928729365 -0.9498799220064892 0.0
  outer loop
    vertex 4222.080078125 -3062.97998046875 9.999999999999998
    vertex 4220.5 -3062.4599609375 0.0
    vertex 4222.080078125 -3062.97998046875 0.0
  endloop
endfacet
facet normal -0.3126149928729365 -0.9498799220064892 0.0
  outer loop
    vertex 4220.5 -3062.4599609375 9.999999999999998
    vertex 4220.5 -3062.4599609375 0.0
    vertex 4222.080078125 -3062.97998046875 9.999999999999998
  endloop
endfacet
facet normal 0.10775133745109225 -0.994177876075253 0.0
  outer loop
    vertex 4223.740234375 -3062.800048828125 9.999999999999998
    vertex 4222.080078125 -3062.97998046875 0.0
    vertex 4223.740234375 -3062.800048828125 0.0
  endloop
endfacet
facet normal 0.10775133745109228 -0.994177876075253 -1.907623192783217e-18
  outer loop
    vertex 4222.080078125 -3062.97998046875 9.999999999999998
    vertex 4222.080078125 -3062.97998046875 0.0
    vertex 4223.740234375 -3062.800048828125 9.999999999999998
  endloop
endfacet
facet normal 0.49942233641872724 -0.8663586612275013 -1.4667508831981489e-06
  outer loop
    vertex 4225.180175781249 -3061.969970703125 9.999999999999998
    vertex 4223.740234375 -3062.800048828125 0.0
    vertex 4225.180175781249 -3061.969970703125 0.0
  endloop
endfacet
facet normal 0.49942233641814876 -0.8663586612264975 2.1139182844623928e-06
  outer loop
    vertex 4223.740234375 -3062.800048828125 9.999999999999998
    vertex 4223.740234375 -3062.800048828125 0.0
    vertex 4225.180175781249 -3061.969970703125 9.999999999999998
  endloop
endfacet
facet normal 0.8101379076522119 -0.586239345817812 -9.54286563065111e-18
  outer loop
    vertex 4226.149902343749 -3060.6298828124995 9.999999999999998
    vertex 4225.180175781249 -3061.969970703125 0.0
    vertex 4226.149902343749 -3060.6298828124995 0.0
  endloop
endfacet
facet normal 0.8101379076522119 -0.586239345817812 -9.54286563065111e-18
  outer loop
    vertex 4226.149902343749 -3060.6298828124995 9.999999999999998
    vertex 4225.180175781249 -3061.969970703125 9.999999999999998
    vertex 4225.180175781249 -3061.969970703125 0.0
  endloop
endfacet
facet normal 0.9776994241143684 -0.2100091333405107 3.892682870568996e-18
  outer loop
    vertex 4226.5 -3059.0 9.999999999999998
    vertex 4226.149902343749 -3060.6298828124995 0.0
    vertex 4226.5 -3059.0 0.0
  endloop
endfacet
facet normal 0.9776994241143684 -0.2100091333405107 3.892682870568996e-18
  outer loop
    vertex 4226.5 -3059.0 9.999999999999998
    vertex 4226.149902343749 -3060.6298828124995 9.999999999999998
    vertex 4226.149902343749 -3060.6298828124995 0.0
  endloop
endfacet
facet normal -0.0 1.0 -0.0
  outer loop
    vertex 4226.31005859375 -3058.1000976562495 9.999999999999998
    vertex 4317.6201171875 -3058.1000976562495 0.0
    vertex 4226.31005859375 -3058.1000976562495 0.0
  endloop
endfacet
facet normal -0.0 1.0 -0.0
  outer loop
    vertex 4317.6201171875 -3058.1000976562495 0.0
    vertex 4226.31005859375 -3058.1000976562495 9.999999999999998
    vertex 4317.6201171875 -3058.1000976562495 9.999999999999998
  endloop
endfacet
facet normal -0.9174775842052624 0.3977874840676563 0.0
  outer loop
    vertex 4317.6201171875 -3058.1000976562495 0.0
    vertex 4317.589843749999 -3058.169921875 0.0
    vertex 4317.589843749999 -3058.169921875 9.999999999999998
  endloop
endfacet
facet normal -0.9174775842052624 0.3977874840676563 0.0
  outer loop
    vertex 4317.6201171875 -3058.1000976562495 0.0
    vertex 4317.589843749999 -3058.169921875 9.999999999999998
    vertex 4317.6201171875 -3058.1000976562495 9.999999999999998
  endloop
endfacet
facet normal -1.0 0.0 0.0
  outer loop
    vertex 4317.589843749999 -3058.169921875 0.0
    vertex 4317.589843749999 -3059.830078125 0.0
    vertex 4317.589843749999 -3059.830078125 9.999999999999998
  endloop
endfacet
facet normal -1.0 0.0 0.0
  outer loop
    vertex 4317.589843749999 -3058.169921875 0.0
    vertex 4317.589843749999 -3059.830078125 9.999999999999998
    vertex 4317.589843749999 -3058.169921875 9.999999999999998
  endloop
endfacet
facet normal -0.9150677999522842 -0.4033000390410182 8.37801930965616e-18
  outer loop
    vertex 4317.589843749999 -3059.830078125 0.0
    vertex 4318.259765624999 -3061.3500976562495 0.0
    vertex 4318.259765624999 -3061.3500976562495 9.999999999999998
  endloop
endfacet
facet normal -0.9150677999522839 -0.4033000390410183 -8.37801930965616e-18
  outer loop
    vertex 4317.589843749999 -3059.830078125 0.0
    vertex 4318.259765624999 -3061.3500976562495 9.999999999999998
    vertex 4317.589843749999 -3059.830078125 9.999999999999998
  endloop
endfacet
facet normal -0.6668548875614889 -0.7451875998266168 0.0
  outer loop
    vertex 4319.499999999999 -3062.4599609375 9.999999999999998
    vertex 4318.259765624999 -3061.3500976562495 0.0
    vertex 4319.499999999999 -3062.4599609375 0.0
  endloop
endfacet
facet normal -0.6668548875614888 -0.745187599826617 -1.0248127294065204e-17
  outer loop
    vertex 4318.259765624999 -3061.3500976562495 9.999999999999998
    vertex 4318.259765624999 -3061.3500976562495 0.0
    vertex 4319.499999999999 -3062.4599609375 9.999999999999998
  endloop
endfacet
facet normal -0.3126149928729365 -0.9498799220064892 0.0
  outer loop
    vertex 4321.080078125 -3062.97998046875 9.999999999999998
    vertex 4319.499999999999 -3062.4599609375 0.0
    vertex 4321.080078125 -3062.97998046875 0.0
  endloop
endfacet
facet normal -0.3126149928729365 -0.9498799220064892 0.0
  outer loop
    vertex 4319.499999999999 -3062.4599609375 9.999999999999998
    vertex 4319.499999999999 -3062.4599609375 0.0
    vertex 4321.080078125 -3062.97998046875 9.999999999999998
  endloop
endfacet
facet normal 0.10775133745109225 -0.994177876075253 0.0
  outer loop
    vertex 4322.740234375 -3062.800048828125 9.999999999999998
    vertex 4321.080078125 -3062.97998046875 0.0
    vertex 4322.740234375 -3062.800048828125 0.0
  endloop
endfacet
facet normal 0.10775133745109225 -0.994177876075253 0.0
  outer loop
    vertex 4321.080078125 -3062.97998046875 9.999999999999998
    vertex 4321.080078125 -3062.97998046875 0.0
    vertex 4322.740234375 -3062.800048828125 9.999999999999998
  endloop
endfacet
facet normal 0.49942233641852996 -0.866358661227615 -1.4667508871838876e-06
  outer loop
    vertex 4324.18017578125 -3061.969970703125 9.999999999999998
    vertex 4322.740234375 -3062.800048828125 0.0
    vertex 4324.18017578125 -3061.969970703125 0.0
  endloop
endfacet
facet normal 0.4994223364179514 -0.8663586612266112 2.1139182902273473e-06
  outer loop
    vertex 4322.740234375 -3062.800048828125 9.999999999999998
    vertex 4322.740234375 -3062.800048828125 0.0
    vertex 4324.18017578125 -3061.969970703125 9.999999999999998
  endloop
endfacet
facet normal 0.8101379076522119 -0.586239345817812 -9.54286563065111e-18
  outer loop
    vertex 4325.14990234375 -3060.6298828124995 9.999999999999998
    vertex 4324.18017578125 -3061.969970703125 0.0
    vertex 4325.14990234375 -3060.6298828124995 0.0
  endloop
endfacet
facet normal 0.8101379076522119 -0.586239345817812 -9.54286563065111e-18
  outer loop
    vertex 4325.14990234375 -3060.6298828124995 9.999999999999998
    vertex 4324.18017578125 -3061.969970703125 9.999999999999998
    vertex 4324.18017578125 -3061.969970703125 0.0
  endloop
endfacet
facet normal 0.9776994241144573 -0.21000913334009674 -0.0
  outer loop
    vertex 4325.499999999999 -3059.0 9.999999999999998
    vertex 4325.14990234375 -3060.6298828124995 0.0
    vertex 4325.499999999999 -3059.0 0.0
  endloop
endfacet
facet normal 0.9776994241144573 -0.21000913334009674 -0.0
  outer loop
    vertex 4325.499999999999 -3059.0 9.999999999999998
    vertex 4325.14990234375 -3060.6298828124995 9.999999999999998
    vertex 4325.14990234375 -3060.6298828124995 0.0
  endloop
endfacet
facet normal 0.0 -1.0 0.0
  outer loop
    vertex 4326.75 -3058.1000976562495 9.999999999999998
    vertex 4325.31005859375 -3058.1000976562495 0.0
    vertex 4326.75 -3058.1000976562495 0.0
  endloop
endfacet
facet normal 0.0 -1.0 0.0
  outer loop
    vertex 4325.31005859375 -3058.1000976562495 9.999999999999998
    vertex 4325.31005859375 -3058.1000976562495 0.0
    vertex 4326.75 -3058.1000976562495 9.999999999999998
  endloop
endfacet
facet normal 0.7071067811865432 0.7071067811865519 2.110335105509231e-17
  outer loop
    vertex 4326.75 -3058.1000976562495 9.999999999999998
    vertex 4326.81982421875 -3058.169921875 0.0
    vertex 4326.75 -3058.1000976562495 0.0
  endloop
endfacet
facet normal 0.7071067811865432 0.7071067811865519 2.110335105509231e-17
  outer loop
    vertex 4326.81982421875 -3058.169921875 0.0
    vertex 4326.75 -3058.1000976562495 9.999999999999998
    vertex 4341.39990234375 -3072.7499999999995 0.0
  endloop
endfacet
facet normal 0.7071067811865432 0.7071067811865519 2.110335105509231e-17
  outer loop
    vertex 4341.39990234375 -3072.7499999999995 0.0
    vertex 4326.75 -3058.1000976562495 9.999999999999998
    vertex 4341.39990234375 -3072.7499999999995 9.999999999999998
  endloop
endfacet
facet normal 0.7071067811865432 0.7071067811865519 2.110335105509231e-17
  outer loop
    vertex 4341.39990234375 -3072.7499999999995 9.999999999999998
    vertex 4326.75 -3058.1000976562495 9.999999999999998
    vertex 4326.81982421875 -3058.169921875 9.999999999999998
  endloop
endfacet
facet normal 1.0 -0.0 -0.0
  outer loop
    vertex 4341.39990234375 -3149.0200195312495 0.0
    vertex 4341.39990234375 -3149.110107421875 9.999999999999998
    vertex 4341.39990234375 -3149.110107421875 0.0
  endloop
endfacet
facet normal 1.0 -0.0 -0.0
  outer loop
    vertex 4341.39990234375 -3149.110107421875 9.999999999999998
    vertex 4341.39990234375 -3149.0200195312495 0.0
    vertex 4341.39990234375 -3149.0200195312495 9.999999999999998
  endloop
endfacet
facet normal 1.0 -0.0 -0.0
  outer loop
    vertex 4341.39990234375 -3149.0200195312495 9.999999999999998
    vertex 4341.39990234375 -3149.0200195312495 0.0
    vertex 4341.39990234375 -3072.7499999999995 0.0
  endloop
endfacet
facet normal 1.0 -0.0 -0.0
  outer loop
    vertex 4341.39990234375 -3149.0200195312495 9.999999999999998
    vertex 4341.39990234375 -3072.7499999999995 0.0
    vertex 4341.39990234375 -3072.7499999999995 9.999999999999998
  endloop
endfacet
facet normal 0.10922933777499302 0.9940165751984403 -1.9553233041726597e-18
  outer loop
    vertex 4340.580078124999 -3149.0200195312495 9.999999999999998
    vertex 4341.39990234375 -3149.110107421875 0.0
    vertex 4340.580078124999 -3149.0200195312495 0.0
  endloop
endfacet
facet normal 0.10922933777499302 0.9940165751984403 -1.9553233041726597e-18
  outer loop
    vertex 4341.39990234375 -3149.110107421875 9.999999999999998
    vertex 4341.39990234375 -3149.110107421875 0.0
    vertex 4340.580078124999 -3149.0200195312495 9.999999999999998
  endloop
endfacet
facet normal -0.31261499287306527 0.9498799220064469 4.024093021370084e-18
  outer loop
    vertex 4339.0 -3149.5400390624995 9.999999999999998
    vertex 4340.580078124999 -3149.0200195312495 0.0
    vertex 4339.0 -3149.5400390624995 0.0
  endloop
endfacet
facet normal -0.31261499287306527 0.9498799220064469 8.048186042740169e-18
  outer loop
    vertex 4340.580078124999 -3149.0200195312495 9.999999999999998
    vertex 4340.580078124999 -3149.0200195312495 0.0
    vertex 4339.0 -3149.5400390624995 9.999999999999998
  endloop
endfacet
facet normal -0.666854887561489 0.7451875998266169 -0.0
  outer loop
    vertex 4337.759765625 -3150.64990234375 9.999999999999998
    vertex 4339.0 -3149.5400390624995 0.0
    vertex 4337.759765625 -3150.64990234375 0.0
  endloop
endfacet
facet normal -0.666854887561489 0.7451875998266169 -0.0
  outer loop
    vertex 4339.0 -3149.5400390624995 0.0
    vertex 4337.759765625 -3150.64990234375 9.999999999999998
    vertex 4339.0 -3149.5400390624995 9.999999999999998
  endloop
endfacet
facet normal -0.9150677999522839 0.40330003904101824 0.0
  outer loop
    vertex 4337.759765625 -3150.64990234375 9.999999999999998
    vertex 4337.08984375 -3152.1699218749995 0.0
    vertex 4337.08984375 -3152.1699218749995 9.999999999999998
  endloop
endfacet
facet normal -0.9150677999522839 0.40330003904101824 0.0
  outer loop
    vertex 4337.08984375 -3152.1699218749995 0.0
    vertex 4337.759765625 -3150.64990234375 9.999999999999998
    vertex 4337.759765625 -3150.64990234375 0.0
  endloop
endfacet
facet normal -1.0 0.0 0.0
  outer loop
    vertex 4337.08984375 -3152.1699218749995 9.999999999999998
    vertex 4337.08984375 -3153.830078125 0.0
    vertex 4337.08984375 -3153.830078125 9.999999999999998
  endloop
endfacet
facet normal -1.0 0.0 0.0
  outer loop
    vertex 4337.08984375 -3153.830078125 0.0
    vertex 4337.08984375 -3152.1699218749995 9.999999999999998
    vertex 4337.08984375 -3152.1699218749995 0.0
  endloop
endfacet
facet normal -0.9150677999523193 -0.403300039040938 0.0
  outer loop
    vertex 4337.08984375 -3153.830078125 9.999999999999998
    vertex 4337.759765625 -3155.35009765625 0.0
    vertex 4337.759765625 -3155.35009765625 9.999999999999998
  endloop
endfacet
facet normal -0.9150677999523193 -0.403300039040938 0.0
  outer loop
    vertex 4337.759765625 -3155.35009765625 0.0
    vertex 4337.08984375 -3153.830078125 9.999999999999998
    vertex 4337.08984375 -3153.830078125 0.0
  endloop
endfacet
facet normal -0.6668548875613685 -0.7451875998267246 0.0
  outer loop
    vertex 4339.0 -3156.4599609375 9.999999999999998
    vertex 4337.759765625 -3155.35009765625 0.0
    vertex 4339.0 -3156.4599609375 0.0
  endloop
endfacet
facet normal -0.6668548875613685 -0.7451875998267246 0.0
  outer loop
    vertex 4337.759765625 -3155.35009765625 0.0
    vertex 4339.0 -3156.4599609375 9.999999999999998
    vertex 4337.759765625 -3155.35009765625 9.999999999999998
  endloop
endfacet
facet normal -0.3126149928730654 -0.9498799220064469 0.0
  outer loop
    vertex 4340.580078124999 -3156.97998046875 9.999999999999998
    vertex 4339.0 -3156.4599609375 0.0
    vertex 4340.580078124999 -3156.97998046875 0.0
  endloop
endfacet
facet normal -0.3126149928730654 -0.9498799220064469 0.0
  outer loop
    vertex 4339.0 -3156.4599609375 0.0
    vertex 4340.580078124999 -3156.97998046875 9.999999999999998
    vertex 4339.0 -3156.4599609375 9.999999999999998
  endloop
endfacet
facet normal 0.10922933777499302 -0.9940165751984403 1.9553233041726597e-18
  outer loop
    vertex 4341.39990234375 -3156.8898925781245 9.999999999999998
    vertex 4340.580078124999 -3156.97998046875 0.0
    vertex 4341.39990234375 -3156.8898925781245 0.0
  endloop
endfacet
facet normal 0.10922933777499302 -0.9940165751984403 1.9553233041726597e-18
  outer loop
    vertex 4340.580078124999 -3156.97998046875 9.999999999999998
    vertex 4340.580078124999 -3156.97998046875 0.0
    vertex 4341.39990234375 -3156.8898925781245 9.999999999999998
  endloop
endfacet
facet normal 1.0 -0.0 -0.0
  outer loop
    vertex 4341.39990234375 -3156.97998046875 0.0
    vertex 4341.39990234375 -3162.5 9.999999999999998
    vertex 4341.39990234375 -3162.5 0.0
  endloop
endfacet
facet normal 1.0 -0.0 -0.0
  outer loop
    vertex 4341.39990234375 -3162.5 9.999999999999998
    vertex 4341.39990234375 -3156.97998046875 0.0
    vertex 4341.39990234375 -3156.97998046875 9.999999999999998
  endloop
endfacet
facet normal 1.0 -0.0 -0.0
  outer loop
    vertex 4341.39990234375 -3156.97998046875 9.999999999999998
    vertex 4341.39990234375 -3156.97998046875 0.0
    vertex 4341.39990234375 -3156.8898925781245 0.0
  endloop
endfacet
facet normal 1.0 -0.0 -0.0
  outer loop
    vertex 4341.39990234375 -3156.97998046875 9.999999999999998
    vertex 4341.39990234375 -3156.8898925781245 0.0
    vertex 4341.39990234375 -3156.8898925781245 9.999999999999998
  endloop
endfacet
facet normal -0.9723355630190487 -0.23358842627242843 6.427655800729703e-19
  outer loop
    vertex 4341.39990234375 -3162.5 0.0
    vertex 4341.4599609375 -3162.7499999999995 0.0
    vertex 4341.4599609375 -3162.7499999999995 9.999999999999998
  endloop
endfacet
facet normal -0.9723355630190487 -0.23358842627242843 6.427655800729704e-19
  outer loop
    vertex 4341.39990234375 -3162.5 0.0
    vertex 4341.4599609375 -3162.7499999999995 9.999999999999998
    vertex 4341.39990234375 -3162.5 9.999999999999998
  endloop
endfacet
facet normal -0.816577498283861 -0.577235817752564 0.0
  outer loop
    vertex 4341.4599609375 -3162.7499999999995 0.0
    vertex 4341.580078125 -3162.919921875 0.0
    vertex 4341.580078125 -3162.919921875 9.999999999999998
  endloop
endfacet
facet normal -0.816577498283861 -0.577235817752564 -1.1684638599281328e-18
  outer loop
    vertex 4341.4599609375 -3162.7499999999995 0.0
    vertex 4341.580078125 -3162.919921875 9.999999999999998
    vertex 4341.4599609375 -3162.7499999999995 9.999999999999998
  endloop
endfacet
facet normal 0.7071067811865476 0.7071067811865476 -0.0
  outer loop
    vertex 4341.580078125 -3162.919921875 0.0
    vertex 4361.580078125 -3182.9199218749995 9.999999999999998
    vertex 4361.580078125 -3182.9199218749995 0.0
  endloop
endfacet
facet normal 0.7071067811865476 0.7071067811865476 -0.0
  outer loop
    vertex 4361.580078125 -3182.9199218749995 9.999999999999998
    vertex 4341.580078125 -3162.919921875 0.0
    vertex 4341.580078125 -3162.919921875 9.999999999999998
  endloop
endfacet
facet normal -0.5551464952510327 -0.831752588700808 0.0
  outer loop
    vertex 4361.790039062499 -3183.06005859375 9.999999999999998
    vertex 4361.580078125 -3182.9199218749995 0.0
    vertex 4361.790039062499 -3183.06005859375 0.0
  endloop
endfacet
facet normal -0.5551464952510327 -0.8317525887008078 0.0
  outer loop
    vertex 4361.580078125 -3182.9199218749995 9.999999999999998
    vertex 4361.580078125 -3182.9199218749995 0.0
    vertex 4361.790039062499 -3183.06005859375 9.999999999999998
  endloop
endfacet
facet normal -0.18732204987456624 -0.982298554224117 0.0
  outer loop
    vertex 4362.0 -3183.10009765625 9.999999999999998
    vertex 4361.790039062499 -3183.06005859375 0.0
    vertex 4362.0 -3183.10009765625 0.0
  endloop
endfacet
facet normal -0.18732204987456624 -0.982298554224117 0.0
  outer loop
    vertex 4361.790039062499 -3183.06005859375 9.999999999999998
    vertex 4361.790039062499 -3183.06005859375 0.0
    vertex 4362.0 -3183.10009765625 9.999999999999998
  endloop
endfacet
facet normal 0.7071067811865476 0.7071067811865476 -0.0
  outer loop
    vertex 4431.75 -3183.10009765625 0.0
    vertex 4471.39990234375 -3222.75 9.999999999999998
    vertex 4471.39990234375 -3222.75 0.0
  endloop
endfacet
facet normal 0.7071067811865476 0.7071067811865476 -0.0
  outer loop
    vertex 4471.39990234375 -3222.75 9.999999999999998
    vertex 4431.75 -3183.10009765625 0.0
    vertex 4431.75 -3183.10009765625 9.999999999999998
  endloop
endfacet
facet normal 1.0 -0.0 -0.0
  outer loop
    vertex 4471.39990234375 -3222.75 0.0
    vertex 4471.39990234375 -3292.25 9.999999999999998
    vertex 4471.39990234375 -3292.25 0.0
  endloop
endfacet
facet normal 1.0 -0.0 -0.0
  outer loop
    vertex 4471.39990234375 -3292.25 9.999999999999998
    vertex 4471.39990234375 -3222.75 0.0
    vertex 4471.39990234375 -3222.75 9.999999999999998
  endloop
endfacet
facet normal 0.7071067811865476 -0.7071067811865476 0.0
  outer loop
    vertex 4471.39990234375 -3292.25 0.0
    vertex 4403.75 -3359.89990234375 9.999999999999998
    vertex 4403.75 -3359.89990234375 0.0
  endloop
endfacet
facet normal 0.7071067811865476 -0.7071067811865476 0.0
  outer loop
    vertex 4403.75 -3359.89990234375 9.999999999999998
    vertex 4471.39990234375 -3292.25 0.0
    vertex 4471.39990234375 -3292.25 9.999999999999998
  endloop
endfacet
facet normal 0.0 -1.0 0.0
  outer loop
    vertex 4403.75 -3359.89990234375 9.999999999999998
    vertex 4140.25 -3359.89990234375 0.0
    vertex 4403.75 -3359.89990234375 0.0
  endloop
endfacet
facet normal 0.0 -1.0 0.0
  outer loop
    vertex 4140.25 -3359.89990234375 0.0
    vertex 4403.75 -3359.89990234375 9.999999999999998
    vertex 4140.25 -3359.89990234375 9.999999999999998
  endloop
endfacet
facet normal 0.0 0.0 -1.0
  outer loop
    vertex 4218.620117187499 -3058.1000976562495 0.0
    vertex 4218.58984375 -3058.169921875 0.0
    vertex 4217.25 -3058.1000976562495 0.0
  endloop
endfacet
facet normal 0.0 0.0 -1.0
  outer loop
    vertex 4218.620117187499 -3058.1000976562495 9.999999999999998
    vertex 4218.58984375 -3058.169921875 9.999999999999998
    vertex 4217.25 -3058.1000976562495 9.999999999999998
  endloop
endfacet
facet normal 0.0 0.0 -1.0
  outer loop
    vertex 4218.58984375 -3058.169921875 0.0
    vertex 4217.18017578125 -3058.169921875 0.0
    vertex 4217.25 -3058.1000976562495 0.0
  endloop
endfacet
facet normal 0.0 0.0 -1.0
  outer loop
    vertex 4317.6201171875 -3058.1000976562495 0.0
    vertex 4317.589843749999 -3058.169921875 0.0
    vertex 4226.31005859375 -3058.1000976562495 0.0
  endloop
endfacet
facet normal 0.0 0.0 -1.0
  outer loop
    vertex 4317.6201171875 -3058.1000976562495 9.999999999999998
    vertex 4317.589843749999 -3058.169921875 9.999999999999998
    vertex 4226.31005859375 -3058.1000976562495 9.999999999999998
  endloop
endfacet
facet normal 0.0 0.0 -1.0
  outer loop
    vertex 4317.589843749999 -3058.169921875 0.0
    vertex 4226.319824218749 -3058.169921875 0.0
    vertex 4226.31005859375 -3058.1000976562495 0.0
  endloop
endfacet
facet normal 0.0 0.0 -1.0
  outer loop
    vertex 4317.589843749999 -3058.169921875 9.999999999999998
    vertex 4226.319824218749 -3058.169921875 9.999999999999998
    vertex 4226.31005859375 -3058.1000976562495 9.999999999999998
  endloop
endfacet
facet normal 0.0 0.0 -1.0
  outer loop
    vertex 4326.81982421875 -3058.169921875 0.0
    vertex 4325.31005859375 -3058.1000976562495 0.0
    vertex 4326.75 -3058.1000976562495 0.0
  endloop
endfacet
facet normal 0.0 0.0 -1.0
  outer loop
    vertex 4326.81982421875 -3058.169921875 9.999999999999998
    vertex 4325.31005859375 -3058.1000976562495 9.999999999999998
    vertex 4326.75 -3058.1000976562495 9.999999999999998
  endloop
endfacet
facet normal 0.0 0.0 -1.0
  outer loop
    vertex 4326.81982421875 -3058.169921875 0.0
    vertex 4325.31982421875 -3058.169921875 0.0
    vertex 4325.31005859375 -3058.1000976562495 0.0
  endloop
endfacet
facet normal 0.0 0.0 -1.0
  outer loop
    vertex 4326.81982421875 -3058.169921875 9.999999999999998
    vertex 4325.31982421875 -3058.169921875 9.999999999999998
    vertex 4325.31005859375 -3058.1000976562495 9.999999999999998
  endloop
endfacet
facet normal 0.0 0.0 -1.0
  outer loop
    vertex 4203.740234375 -3156.800048828125 0.0
    vertex 4202.60009765625 -3162.5 0.0
    vertex 4202.60009765625 -3156.9199218749995 0.0
  endloop
endfacet
facet normal 0.0 0.0 -1.0
  outer loop
    vertex 4217.18017578125 -3058.169921875 0.0
    vertex 4202.60009765625 -3149.080078125 0.0
    vertex 4202.60009765625 -3072.7499999999995 0.0
  endloop
endfacet
facet normal 0.0 0.0 -1.0
  outer loop
    vertex 4202.60009765625 -3149.080078125 0.0
    vertex 4217.18017578125 -3058.169921875 0.0
    vertex 4203.740234375 -3149.1999511718745 0.0
  endloop
endfacet
facet normal 0.0 0.0 -1.0
  outer loop
    vertex 4203.740234375 -3149.1999511718745 0.0
    vertex 4217.18017578125 -3058.169921875 0.0
    vertex 4205.18017578125 -3150.0300292968745 0.0
  endloop
endfacet
facet normal 0.0 0.0 -1.0
  outer loop
    vertex 4205.18017578125 -3150.0300292968745 0.0
    vertex 4217.18017578125 -3058.169921875 0.0
    vertex 4206.14990234375 -3151.3701171875 0.0
  endloop
endfacet
facet normal 0.0 0.0 -1.0
  outer loop
    vertex 4206.14990234375 -3151.3701171875 0.0
    vertex 4217.18017578125 -3058.169921875 0.0
    vertex 4206.5 -3152.9999999999995 0.0
  endloop
endfacet
facet normal 0.0 0.0 -1.0
  outer loop
    vertex 4317.589843749999 -3058.169921875 0.0
    vertex 4226.5 -3059.0 0.0
    vertex 4226.319824218749 -3058.169921875 0.0
  endloop
endfacet
facet normal 0.0 0.0 -1.0
  outer loop
    vertex 4326.81982421875 -3058.169921875 0.0
    vertex 4325.499999999999 -3059.0 0.0
    vertex 4325.31982421875 -3058.169921875 0.0
  endloop
endfacet
facet normal 0.0 0.0 -1.0
  outer loop
    vertex 4341.39990234375 -3072.7499999999995 0.0
    vertex 4337.08984375 -3152.1699218749995 0.0
    vertex 4326.81982421875 -3058.169921875 0.0
  endloop
endfacet
facet normal 0.0 0.0 -1.0
  outer loop
    vertex 4337.08984375 -3152.1699218749995 0.0
    vertex 4341.39990234375 -3072.7499999999995 0.0
    vertex 4337.759765625 -3150.64990234375 0.0
  endloop
endfacet
facet normal 0.0 0.0 -1.0
  outer loop
    vertex 4337.759765625 -3150.64990234375 0.0
    vertex 4341.39990234375 -3072.7499999999995 0.0
    vertex 4339.0 -3149.5400390624995 0.0
  endloop
endfacet
facet normal 0.0 0.0 -1.0
  outer loop
    vertex 4339.0 -3149.5400390624995 0.0
    vertex 4341.39990234375 -3072.7499999999995 0.0
    vertex 4340.580078124999 -3149.0200195312495 0.0
  endloop
endfacet
facet normal 0.0 0.0 -1.0
  outer loop
    vertex 4340.580078124999 -3149.0200195312495 0.0
    vertex 4341.39990234375 -3072.7499999999995 0.0
    vertex 4341.39990234375 -3149.0200195312495 0.0
  endloop
endfacet
facet normal 0.0 0.0 -1.0
  outer loop
    vertex 4112.25 -3183.10009765625 0.0
    vertex 4072.6000976562495 -3292.25 0.0
    vertex 4072.6000976562495 -3222.75 0.0
  endloop
endfacet
facet normal 0.0 0.0 -1.0
  outer loop
    vertex 4072.6000976562495 -3292.25 0.0
    vertex 4112.25 -3183.10009765625 0.0
    vertex 4140.25 -3359.89990234375 0.0
  endloop
endfacet
facet normal 0.0 0.0 -1.0
  outer loop
    vertex 4140.25 -3359.89990234375 0.0
    vertex 4112.25 -3183.10009765625 0.0
    vertex 4182.0 -3183.10009765625 0.0
  endloop
endfacet
facet normal 0.0 0.0 -1.0
  outer loop
    vertex 4140.25 -3359.89990234375 0.0
    vertex 4182.0 -3183.10009765625 0.0
    vertex 4403.75 -3359.89990234375 0.0
  endloop
endfacet
facet normal 0.0 0.0 -1.0
  outer loop
    vertex 4403.75 -3359.89990234375 0.0
    vertex 4182.0 -3183.10009765625 0.0
    vertex 4182.16015625 -3183.06005859375 0.0
  endloop
endfacet
facet normal 0.0 0.0 -1.0
  outer loop
    vertex 4403.75 -3359.89990234375 0.0
    vertex 4182.16015625 -3183.06005859375 0.0
    vertex 4182.25 -3183.0400390624995 0.0
  endloop
endfacet
facet normal 0.0 0.0 -1.0
  outer loop
    vertex 4403.75 -3359.89990234375 0.0
    vertex 4182.25 -3183.0400390624995 0.0
    vertex 4182.419921875 -3182.9199218749995 0.0
  endloop
endfacet
facet normal 0.0 0.0 -1.0
  outer loop
    vertex 4403.75 -3359.89990234375 0.0
    vertex 4182.419921875 -3182.9199218749995 0.0
    vertex 4202.419921874999 -3162.919921875 0.0
  endloop
endfacet
facet normal 0.0 0.0 -1.0
  outer loop
    vertex 4403.75 -3359.89990234375 0.0
    vertex 4202.419921874999 -3162.919921875 0.0
    vertex 4202.560058593749 -3162.7099609375 0.0
  endloop
endfacet
facet normal 0.0 0.0 -1.0
  outer loop
    vertex 4403.75 -3359.89990234375 0.0
    vertex 4202.560058593749 -3162.7099609375 0.0
    vertex 4202.60009765625 -3162.5 0.0
  endloop
endfacet
facet normal 0.0 0.0 -1.0
  outer loop
    vertex 4403.75 -3359.89990234375 0.0
    vertex 4202.60009765625 -3162.5 0.0
    vertex 4203.740234375 -3156.800048828125 0.0
  endloop
endfacet
facet normal 0.0 0.0 -1.0
  outer loop
    vertex 4403.75 -3359.89990234375 0.0
    vertex 4203.740234375 -3156.800048828125 0.0
    vertex 4205.18017578125 -3155.969970703125 0.0
  endloop
endfacet
facet normal 0.0 0.0 -1.0
  outer loop
    vertex 4403.75 -3359.89990234375 0.0
    vertex 4205.18017578125 -3155.969970703125 0.0
    vertex 4206.14990234375 -3154.6298828124995 0.0
  endloop
endfacet
facet normal 0.0 0.0 -1.0
  outer loop
    vertex 4403.75 -3359.89990234375 0.0
    vertex 4206.14990234375 -3154.6298828124995 0.0
    vertex 4206.5 -3152.9999999999995 0.0
  endloop
endfacet
facet normal 0.0 0.0 -1.0
  outer loop
    vertex 4403.75 -3359.89990234375 0.0
    vertex 4206.5 -3152.9999999999995 0.0
    vertex 4217.18017578125 -3058.169921875 0.0
  endloop
endfacet
facet normal 0.0 0.0 -1.0
  outer loop
    vertex 4403.75 -3359.89990234375 0.0
    vertex 4217.18017578125 -3058.169921875 0.0
    vertex 4219.259765625 -3061.3500976562495 0.0
  endloop
endfacet
facet normal 0.0 0.0 -1.0
  outer loop
    vertex 4219.259765625 -3061.3500976562495 0.0
    vertex 4217.18017578125 -3058.169921875 0.0
    vertex 4218.58984375 -3059.830078125 0.0
  endloop
endfacet
facet normal 0.0 0.0 -1.0
  outer loop
    vertex 4218.58984375 -3059.830078125 0.0
    vertex 4217.18017578125 -3058.169921875 0.0
    vertex 4218.58984375 -3058.169921875 0.0
  endloop
endfacet
facet normal 0.0 0.0 -1.0
  outer loop
    vertex 4403.75 -3359.89990234375 0.0
    vertex 4219.259765625 -3061.3500976562495 0.0
    vertex 4220.5 -3062.4599609375 0.0
  endloop
endfacet
facet normal 0.0 0.0 -1.0
  outer loop
    vertex 4403.75 -3359.89990234375 0.0
    vertex 4220.5 -3062.4599609375 0.0
    vertex 4222.080078125 -3062.97998046875 0.0
  endloop
endfacet
facet normal 0.0 0.0 -1.0
  outer loop
    vertex 4403.75 -3359.89990234375 0.0
    vertex 4222.080078125 -3062.97998046875 0.0
    vertex 4223.740234375 -3062.800048828125 0.0
  endloop
endfacet
facet normal 0.0 0.0 -1.0
  outer loop
    vertex 4403.75 -3359.89990234375 0.0
    vertex 4223.740234375 -3062.800048828125 0.0
    vertex 4225.180175781249 -3061.969970703125 0.0
  endloop
endfacet
facet normal 0.0 0.0 -1.0
  outer loop
    vertex 4403.75 -3359.89990234375 0.0
    vertex 4225.180175781249 -3061.969970703125 0.0
    vertex 4226.149902343749 -3060.6298828124995 0.0
  endloop
endfacet
facet normal 0.0 0.0 -1.0
  outer loop
    vertex 4403.75 -3359.89990234375 0.0
    vertex 4226.149902343749 -3060.6298828124995 0.0
    vertex 4226.5 -3059.0 0.0
  endloop
endfacet
facet normal 0.0 0.0 -1.0
  outer loop
    vertex 4403.75 -3359.89990234375 0.0
    vertex 4226.5 -3059.0 0.0
    vertex 4337.08984375 -3153.830078125 0.0
  endloop
endfacet
facet normal 0.0 0.0 -1.0
  outer loop
    vertex 4337.08984375 -3153.830078125 0.0
    vertex 4226.5 -3059.0 0.0
    vertex 4317.589843749999 -3059.830078125 0.0
  endloop
endfacet
facet normal 0.0 0.0 -1.0
  outer loop
    vertex 4317.589843749999 -3059.830078125 0.0
    vertex 4226.5 -3059.0 0.0
    vertex 4317.589843749999 -3058.169921875 0.0
  endloop
endfacet
facet normal 0.0 0.0 -1.0
  outer loop
    vertex 4337.08984375 -3153.830078125 0.0
    vertex 4317.589843749999 -3059.830078125 0.0
    vertex 4318.259765624999 -3061.3500976562495 0.0
  endloop
endfacet
facet normal 0.0 0.0 -1.0
  outer loop
    vertex 4337.08984375 -3153.830078125 0.0
    vertex 4318.259765624999 -3061.3500976562495 0.0
    vertex 4319.499999999999 -3062.4599609375 0.0
  endloop
endfacet
facet normal 0.0 0.0 -1.0
  outer loop
    vertex 4337.08984375 -3153.830078125 0.0
    vertex 4319.499999999999 -3062.4599609375 0.0
    vertex 4321.080078125 -3062.97998046875 0.0
  endloop
endfacet
facet normal 0.0 0.0 -1.0
  outer loop
    vertex 4337.08984375 -3153.830078125 0.0
    vertex 4321.080078125 -3062.97998046875 0.0
    vertex 4322.740234375 -3062.800048828125 0.0
  endloop
endfacet
facet normal 0.0 0.0 -1.0
  outer loop
    vertex 4337.08984375 -3153.830078125 0.0
    vertex 4322.740234375 -3062.800048828125 0.0
    vertex 4324.18017578125 -3061.969970703125 0.0
  endloop
endfacet
facet normal 0.0 0.0 -1.0
  outer loop
    vertex 4337.08984375 -3153.830078125 0.0
    vertex 4324.18017578125 -3061.969970703125 0.0
    vertex 4325.14990234375 -3060.6298828124995 0.0
  endloop
endfacet
facet normal 0.0 0.0 -1.0
  outer loop
    vertex 4337.08984375 -3153.830078125 0.0
    vertex 4325.14990234375 -3060.6298828124995 0.0
    vertex 4325.499999999999 -3059.0 0.0
  endloop
endfacet
facet normal 0.0 0.0 -1.0
  outer loop
    vertex 4337.08984375 -3153.830078125 0.0
    vertex 4325.499999999999 -3059.0 0.0
    vertex 4326.81982421875 -3058.169921875 0.0
  endloop
endfacet
facet normal 0.0 0.0 -1.0
  outer loop
    vertex 4337.08984375 -3153.830078125 0.0
    vertex 4326.81982421875 -3058.169921875 0.0
    vertex 4337.08984375 -3152.1699218749995 0.0
  endloop
endfacet
facet normal 0.0 0.0 -1.0
  outer loop
    vertex 4403.75 -3359.89990234375 0.0
    vertex 4337.08984375 -3153.830078125 0.0
    vertex 4337.759765625 -3155.35009765625 0.0
  endloop
endfacet
facet normal 0.0 0.0 -1.0
  outer loop
    vertex 4403.75 -3359.89990234375 0.0
    vertex 4337.759765625 -3155.35009765625 0.0
    vertex 4339.0 -3156.4599609375 0.0
  endloop
endfacet
facet normal 0.0 0.0 -1.0
  outer loop
    vertex 4403.75 -3359.89990234375 0.0
    vertex 4339.0 -3156.4599609375 0.0
    vertex 4341.4599609375 -3162.7499999999995 0.0
  endloop
endfacet
facet normal 0.0 0.0 -1.0
  outer loop
    vertex 4341.4599609375 -3162.7499999999995 0.0
    vertex 4339.0 -3156.4599609375 0.0
    vertex 4341.39990234375 -3162.5 0.0
  endloop
endfacet
facet normal 0.0 0.0 -1.0
  outer loop
    vertex 4341.39990234375 -3162.5 0.0
    vertex 4339.0 -3156.4599609375 0.0
    vertex 4340.580078124999 -3156.97998046875 0.0
  endloop
endfacet
facet normal 0.0 0.0 -1.0
  outer loop
    vertex 4341.39990234375 -3162.5 0.0
    vertex 4340.580078124999 -3156.97998046875 0.0
    vertex 4341.39990234375 -3156.97998046875 0.0
  endloop
endfacet
facet normal 0.0 0.0 -1.0
  outer loop
    vertex 4403.75 -3359.89990234375 0.0
    vertex 4341.4599609375 -3162.7499999999995 0.0
    vertex 4341.580078125 -3162.919921875 0.0
  endloop
endfacet
facet normal 0.0 0.0 -1.0
  outer loop
    vertex 4403.75 -3359.89990234375 0.0
    vertex 4341.580078125 -3162.919921875 0.0
    vertex 4361.580078125 -3182.9199218749995 0.0
  endloop
endfacet
facet normal 0.0 0.0 -1.0
  outer loop
    vertex 4403.75 -3359.89990234375 0.0
    vertex 4361.580078125 -3182.9199218749995 0.0
    vertex 4361.790039062499 -3183.06005859375 0.0
  endloop
endfacet
facet normal 0.0 0.0 -1.0
  outer loop
    vertex 4403.75 -3359.89990234375 0.0
    vertex 4361.790039062499 -3183.06005859375 0.0
    vertex 4362.0 -3183.10009765625 0.0
  endloop
endfacet
facet normal 0.0 0.0 -1.0
  outer loop
    vertex 4403.75 -3359.89990234375 0.0
    vertex 4362.0 -3183.10009765625 0.0
    vertex 4431.75 -3183.10009765625 0.0
  endloop
endfacet
facet normal 0.0 0.0 -1.0
  outer loop
    vertex 4403.75 -3359.89990234375 0.0
    vertex 4431.75 -3183.10009765625 0.0
    vertex 4471.39990234375 -3292.25 0.0
  endloop
endfacet
facet normal 0.0 0.0 -1.0
  outer loop
    vertex 4471.39990234375 -3292.25 0.0
    vertex 4431.75 -3183.10009765625 0.0
    vertex 4471.39990234375 -3222.75 0.0
  endloop
endfacet
facet normal 6.321088118918688e-33 3.9304134870432435e-33 1.0
  outer loop
    vertex 4203.740234375 -3149.1999511718745 9.999999999999998
    vertex 4202.60009765625 -3072.7499999999995 9.999999999999998
    vertex 4202.60009765625 -3149.080078125 9.999999999999998
  endloop
endfacet
facet normal 6.321088118918688e-33 3.9304134870432435e-33 1.0
  outer loop
    vertex 4202.60009765625 -3072.7499999999995 9.999999999999998
    vertex 4203.740234375 -3149.1999511718745 9.999999999999998
    vertex 4217.25 -3058.1000976562495 9.999999999999998
  endloop
endfacet
facet normal 6.321088118918688e-33 3.9304134870432435e-33 1.0
  outer loop
    vertex 4217.25 -3058.1000976562495 9.999999999999998
    vertex 4203.740234375 -3149.1999511718745 9.999999999999998
    vertex 4205.18017578125 -3150.0300292968745 9.999999999999998
  endloop
endfacet
facet normal 6.321088118918688e-33 3.9304134870432435e-33 1.0
  outer loop
    vertex 4217.25 -3058.1000976562495 9.999999999999998
    vertex 4205.18017578125 -3150.0300292968745 9.999999999999998
    vertex 4206.14990234375 -3151.3701171875 9.999999999999998
  endloop
endfacet
facet normal 6.321088118918688e-33 3.9304134870432435e-33 1.0
  outer loop
    vertex 4217.25 -3058.1000976562495 9.999999999999998
    vertex 4206.14990234375 -3151.3701171875 9.999999999999998
    vertex 4206.5 -3152.9999999999995 9.999999999999998
  endloop
endfacet
facet normal 6.321088118918688e-33 3.9304134870432435e-33 1.0
  outer loop
    vertex 4326.81982421875 -3058.169921875 9.999999999999998
    vertex 4325.31982421875 -3058.169921875 9.999999999999998
    vertex 4325.499999999999 -3059.0 9.999999999999998
  endloop
endfacet
facet normal 6.321088118918688e-33 3.9304134870432435e-33 1.0
  outer loop
    vertex 4140.25 -3359.89990234375 9.999999999999998
    vertex 4072.6000976562495 -3222.75 9.999999999999998
    vertex 4072.6000976562495 -3292.25 9.999999999999998
  endloop
endfacet
facet normal 6.321088118918688e-33 3.9304134870432435e-33 1.0
  outer loop
    vertex 4072.6000976562495 -3222.75 9.999999999999998
    vertex 4140.25 -3359.89990234375 9.999999999999998
    vertex 4112.25 -3183.10009765625 9.999999999999998
  endloop
endfacet
facet normal 6.321088118918688e-33 3.9304134870432435e-33 1.0
  outer loop
    vertex 4112.25 -3183.10009765625 9.999999999999998
    vertex 4140.25 -3359.89990234375 9.999999999999998
    vertex 4182.0 -3183.10009765625 9.999999999999998
  endloop
endfacet
facet normal 6.321088118918688e-33 3.9304134870432435e-33 1.0
  outer loop
    vertex 4182.0 -3183.10009765625 9.999999999999998
    vertex 4140.25 -3359.89990234375 9.999999999999998
    vertex 4403.75 -3359.89990234375 9.999999999999998
  endloop
endfacet
facet normal 6.321088118918688e-33 3.9304134870432435e-33 1.0
  outer loop
    vertex 4182.0 -3183.10009765625 9.999999999999998
    vertex 4403.75 -3359.89990234375 9.999999999999998
    vertex 4182.16015625 -3183.06005859375 9.999999999999998
  endloop
endfacet
facet normal 6.321088118918688e-33 3.9304134870432435e-33 1.0
  outer loop
    vertex 4182.16015625 -3183.06005859375 9.999999999999998
    vertex 4403.75 -3359.89990234375 9.999999999999998
    vertex 4182.25 -3183.0400390624995 9.999999999999998
  endloop
endfacet
facet normal 6.321088118918688e-33 3.9304134870432435e-33 1.0
  outer loop
    vertex 4182.25 -3183.0400390624995 9.999999999999998
    vertex 4403.75 -3359.89990234375 9.999999999999998
    vertex 4182.419921875 -3182.9199218749995 9.999999999999998
  endloop
endfacet
facet normal 6.321088118918688e-33 3.9304134870432435e-33 1.0
  outer loop
    vertex 4182.419921875 -3182.9199218749995 9.999999999999998
    vertex 4403.75 -3359.89990234375 9.999999999999998
    vertex 4202.419921874999 -3162.919921875 9.999999999999998
  endloop
endfacet
facet normal 6.321088118918688e-33 3.9304134870432435e-33 1.0
  outer loop
    vertex 4202.419921874999 -3162.919921875 9.999999999999998
    vertex 4403.75 -3359.89990234375 9.999999999999998
    vertex 4202.560058593749 -3162.7099609375 9.999999999999998
  endloop
endfacet
facet normal 6.321088118918688e-33 3.9304134870432435e-33 1.0
  outer loop
    vertex 4202.560058593749 -3162.7099609375 9.999999999999998
    vertex 4403.75 -3359.89990234375 9.999999999999998
    vertex 4202.60009765625 -3162.5 9.999999999999998
  endloop
endfacet
facet normal 6.321088118918688e-33 3.9304134870432435e-33 1.0
  outer loop
    vertex 4202.60009765625 -3162.5 9.999999999999998
    vertex 4403.75 -3359.89990234375 9.999999999999998
    vertex 4202.60009765625 -3156.9199218749995 9.999999999999998
  endloop
endfacet
facet normal 6.321088118918688e-33 3.9304134870432435e-33 1.0
  outer loop
    vertex 4202.60009765625 -3156.9199218749995 9.999999999999998
    vertex 4403.75 -3359.89990234375 9.999999999999998
    vertex 4203.740234375 -3156.800048828125 9.999999999999998
  endloop
endfacet
facet normal 6.321088118918688e-33 3.9304134870432435e-33 1.0
  outer loop
    vertex 4203.740234375 -3156.800048828125 9.999999999999998
    vertex 4403.75 -3359.89990234375 9.999999999999998
    vertex 4205.18017578125 -3155.969970703125 9.999999999999998
  endloop
endfacet
facet normal 6.321088118918688e-33 3.9304134870432435e-33 1.0
  outer loop
    vertex 4205.18017578125 -3155.969970703125 9.999999999999998
    vertex 4403.75 -3359.89990234375 9.999999999999998
    vertex 4206.14990234375 -3154.6298828124995 9.999999999999998
  endloop
endfacet
facet normal 6.321088118918688e-33 3.9304134870432435e-33 1.0
  outer loop
    vertex 4206.14990234375 -3154.6298828124995 9.999999999999998
    vertex 4403.75 -3359.89990234375 9.999999999999998
    vertex 4206.5 -3152.9999999999995 9.999999999999998
  endloop
endfacet
facet normal 6.321088118918688e-33 3.9304134870432435e-33 1.0
  outer loop
    vertex 4206.5 -3152.9999999999995 9.999999999999998
    vertex 4403.75 -3359.89990234375 9.999999999999998
    vertex 4217.25 -3058.1000976562495 9.999999999999998
  endloop
endfacet
facet normal 6.321088118918688e-33 3.9304134870432435e-33 1.0
  outer loop
    vertex 4217.25 -3058.1000976562495 9.999999999999998
    vertex 4403.75 -3359.89990234375 9.999999999999998
    vertex 4219.259765625 -3061.3500976562495 9.999999999999998
  endloop
endfacet
facet normal 6.321088118918688e-33 3.9304134870432435e-33 1.0
  outer loop
    vertex 4217.25 -3058.1000976562495 9.999999999999998
    vertex 4219.259765625 -3061.3500976562495 9.999999999999998
    vertex 4218.58984375 -3059.830078125 9.999999999999998
  endloop
endfacet
facet normal 6.321088118918688e-33 3.9304134870432435e-33 1.0
  outer loop
    vertex 4219.259765625 -3061.3500976562495 9.999999999999998
    vertex 4403.75 -3359.89990234375 9.999999999999998
    vertex 4220.5 -3062.4599609375 9.999999999999998
  endloop
endfacet
facet normal 6.321088118918688e-33 3.9304134870432435e-33 1.0
  outer loop
    vertex 4220.5 -3062.4599609375 9.999999999999998
    vertex 4403.75 -3359.89990234375 9.999999999999998
    vertex 4222.080078125 -3062.97998046875 9.999999999999998
  endloop
endfacet
facet normal 6.321088118918688e-33 3.9304134870432435e-33 1.0
  outer loop
    vertex 4222.080078125 -3062.97998046875 9.999999999999998
    vertex 4403.75 -3359.89990234375 9.999999999999998
    vertex 4223.740234375 -3062.800048828125 9.999999999999998
  endloop
endfacet
facet normal 6.321088118918688e-33 3.9304134870432435e-33 1.0
  outer loop
    vertex 4223.740234375 -3062.800048828125 9.999999999999998
    vertex 4403.75 -3359.89990234375 9.999999999999998
    vertex 4225.180175781249 -3061.969970703125 9.999999999999998
  endloop
endfacet
facet normal 6.321088118918688e-33 3.9304134870432435e-33 1.0
  outer loop
    vertex 4225.180175781249 -3061.969970703125 9.999999999999998
    vertex 4403.75 -3359.89990234375 9.999999999999998
    vertex 4226.149902343749 -3060.6298828124995 9.999999999999998
  endloop
endfacet
facet normal 6.321088118918688e-33 3.9304134870432435e-33 1.0
  outer loop
    vertex 4226.149902343749 -3060.6298828124995 9.999999999999998
    vertex 4403.75 -3359.89990234375 9.999999999999998
    vertex 4226.5 -3059.0 9.999999999999998
  endloop
endfacet
facet normal 6.321088118918688e-33 3.9304134870432435e-33 1.0
  outer loop
    vertex 4226.5 -3059.0 9.999999999999998
    vertex 4403.75 -3359.89990234375 9.999999999999998
    vertex 4337.08984375 -3153.830078125 9.999999999999998
  endloop
endfacet
facet normal 6.321088118918688e-33 3.9304134870432435e-33 1.0
  outer loop
    vertex 4226.5 -3059.0 9.999999999999998
    vertex 4337.08984375 -3153.830078125 9.999999999999998
    vertex 4317.589843749999 -3059.830078125 9.999999999999998
  endloop
endfacet
facet normal 6.321088118918688e-33 3.9304134870432435e-33 1.0
  outer loop
    vertex 4317.589843749999 -3059.830078125 9.999999999999998
    vertex 4337.08984375 -3153.830078125 9.999999999999998
    vertex 4318.259765624999 -3061.3500976562495 9.999999999999998
  endloop
endfacet
facet normal 6.321088118918688e-33 3.9304134870432435e-33 1.0
  outer loop
    vertex 4318.259765624999 -3061.3500976562495 9.999999999999998
    vertex 4337.08984375 -3153.830078125 9.999999999999998
    vertex 4319.499999999999 -3062.4599609375 9.999999999999998
  endloop
endfacet
facet normal 6.321088118918688e-33 3.9304134870432435e-33 1.0
  outer loop
    vertex 4319.499999999999 -3062.4599609375 9.999999999999998
    vertex 4337.08984375 -3153.830078125 9.999999999999998
    vertex 4321.080078125 -3062.97998046875 9.999999999999998
  endloop
endfacet
facet normal 6.321088118918688e-33 3.9304134870432435e-33 1.0
  outer loop
    vertex 4321.080078125 -3062.97998046875 9.999999999999998
    vertex 4337.08984375 -3153.830078125 9.999999999999998
    vertex 4322.740234375 -3062.800048828125 9.999999999999998
  endloop
endfacet
facet normal 6.321088118918688e-33 3.9304134870432435e-33 1.0
  outer loop
    vertex 4322.740234375 -3062.800048828125 9.999999999999998
    vertex 4337.08984375 -3153.830078125 9.999999999999998
    vertex 4324.18017578125 -3061.969970703125 9.999999999999998
  endloop
endfacet
facet normal 6.321088118918688e-33 3.9304134870432435e-33 1.0
  outer loop
    vertex 4324.18017578125 -3061.969970703125 9.999999999999998
    vertex 4337.08984375 -3153.830078125 9.999999999999998
    vertex 4325.14990234375 -3060.6298828124995 9.999999999999998
  endloop
endfacet
facet normal 6.321088118918688e-33 3.9304134870432435e-33 1.0
  outer loop
    vertex 4325.14990234375 -3060.6298828124995 9.999999999999998
    vertex 4337.08984375 -3153.830078125 9.999999999999998
    vertex 4325.499999999999 -3059.0 9.999999999999998
  endloop
endfacet
facet normal 6.321088118918688e-33 3.9304134870432435e-33 1.0
  outer loop
    vertex 4325.499999999999 -3059.0 9.999999999999998
    vertex 4337.08984375 -3153.830078125 9.999999999999998
    vertex 4326.81982421875 -3058.169921875 9.999999999999998
  endloop
endfacet
facet normal 6.321088118918688e-33 3.9304134870432435e-33 1.0
  outer loop
    vertex 4337.08984375 -3153.830078125 9.999999999999998
    vertex 4403.75 -3359.89990234375 9.999999999999998
    vertex 4337.759765625 -3155.35009765625 9.999999999999998
  endloop
endfacet
facet normal 6.321088118918688e-33 3.9304134870432435e-33 1.0
  outer loop
    vertex 4337.759765625 -3155.35009765625 9.999999999999998
    vertex 4403.75 -3359.89990234375 9.999999999999998
    vertex 4339.0 -3156.4599609375 9.999999999999998
  endloop
endfacet
facet normal 6.321088118918688e-33 3.9304134870432435e-33 1.0
  outer loop
    vertex 4339.0 -3156.4599609375 9.999999999999998
    vertex 4403.75 -3359.89990234375 9.999999999999998
    vertex 4341.4599609375 -3162.7499999999995 9.999999999999998
  endloop
endfacet
facet normal 6.321088118918688e-33 3.9304134870432435e-33 1.0
  outer loop
    vertex 4339.0 -3156.4599609375 9.999999999999998
    vertex 4341.4599609375 -3162.7499999999995 9.999999999999998
    vertex 4341.39990234375 -3162.5 9.999999999999998
  endloop
endfacet
facet normal 6.321088118918688e-33 3.9304134870432435e-33 1.0
  outer loop
    vertex 4339.0 -3156.4599609375 9.999999999999998
    vertex 4341.39990234375 -3162.5 9.999999999999998
    vertex 4340.580078124999 -3156.97998046875 9.999999999999998
  endloop
endfacet
facet normal 6.321088118918688e-33 3.9304134870432435e-33 1.0
  outer loop
    vertex 4341.4599609375 -3162.7499999999995 9.999999999999998
    vertex 4403.75 -3359.89990234375 9.999999999999998
    vertex 4341.580078125 -3162.919921875 9.999999999999998
  endloop
endfacet
facet normal 6.321088118918688e-33 3.9304134870432435e-33 1.0
  outer loop
    vertex 4341.580078125 -3162.919921875 9.999999999999998
    vertex 4403.75 -3359.89990234375 9.999999999999998
    vertex 4361.580078125 -3182.9199218749995 9.999999999999998
  endloop
endfacet
facet normal 6.321088118918688e-33 3.9304134870432435e-33 1.0
  outer loop
    vertex 4361.580078125 -3182.9199218749995 9.999999999999998
    vertex 4403.75 -3359.89990234375 9.999999999999998
    vertex 4361.790039062499 -3183.06005859375 9.999999999999998
  endloop
endfacet
facet normal 6.321088118918688e-33 3.9304134870432435e-33 1.0
  outer loop
    vertex 4361.790039062499 -3183.06005859375 9.999999999999998
    vertex 4403.75 -3359.89990234375 9.999999999999998
    vertex 4362.0 -3183.10009765625 9.999999999999998
  endloop
endfacet
facet normal 6.321088118918688e-33 3.9304134870432435e-33 1.0
  outer loop
    vertex 4362.0 -3183.10009765625 9.999999999999998
    vertex 4403.75 -3359.89990234375 9.999999999999998
    vertex 4431.75 -3183.10009765625 9.999999999999998
  endloop
endfacet
facet normal 6.321088118918688e-33 3.9304134870432435e-33 1.0
  outer loop
    vertex 4431.75 -3183.10009765625 9.999999999999998
    vertex 4403.75 -3359.89990234375 9.999999999999998
    vertex 4471.39990234375 -3292.25 9.999999999999998
  endloop
endfacet
facet normal 6.321088118918688e-33 3.9304134870432435e-33 1.0
  outer loop
    vertex 4431.75 -3183.10009765625 9.999999999999998
    vertex 4471.39990234375 -3292.25 9.999999999999998
    vertex 4471.39990234375 -3222.75 9.999999999999998
  endloop
endfacet
facet normal 6.321088118918688e-33 3.9304134870432435e-33 1.0
  outer loop
    vertex 4341.39990234375 -3156.97998046875 9.999999999999998
    vertex 4340.580078124999 -3156.97998046875 9.999999999999998
    vertex 4341.39990234375 -3162.5 9.999999999999998
  endloop
endfacet
facet normal 6.321088118918688e-33 3.9304134870432435e-33 1.0
  outer loop
    vertex 4326.81982421875 -3058.169921875 9.999999999999998
    vertex 4337.08984375 -3152.1699218749995 9.999999999999998
    vertex 4341.39990234375 -3072.7499999999995 9.999999999999998
  endloop
endfacet
facet normal 6.321088118918688e-33 3.9304134870432435e-33 1.0
  outer loop
    vertex 4337.08984375 -3152.1699218749995 9.999999999999998
    vertex 4326.81982421875 -3058.169921875 9.999999999999998
    vertex 4337.08984375 -3153.830078125 9.999999999999998
  endloop
endfacet
facet normal 6.321088118918688e-33 3.9304134870432435e-33 1.0
  outer loop
    vertex 4341.39990234375 -3072.7499999999995 9.999999999999998
    vertex 4337.08984375 -3152.1699218749995 9.999999999999998
    vertex 4337.759765625 -3150.64990234375 9.999999999999998
  endloop
endfacet
facet normal 6.321088118918688e-33 3.9304134870432435e-33 1.0
  outer loop
    vertex 4341.39990234375 -3072.7499999999995 9.999999999999998
    vertex 4337.759765625 -3150.64990234375 9.999999999999998
    vertex 4339.0 -3149.5400390624995 9.999999999999998
  endloop
endfacet
facet normal 6.321088118918688e-33 3.9304134870432435e-33 1.0
  outer loop
    vertex 4341.39990234375 -3072.7499999999995 9.999999999999998
    vertex 4339.0 -3149.5400390624995 9.999999999999998
    vertex 4340.580078124999 -3149.0200195312495 9.999999999999998
  endloop
endfacet
facet normal 6.321088118918688e-33 3.9304134870432435e-33 1.0
  outer loop
    vertex 4341.39990234375 -3072.7499999999995 9.999999999999998
    vertex 4340.580078124999 -3149.0200195312495 9.999999999999998
    vertex 4341.39990234375 -3149.0200195312495 9.999999999999998
  endloop
endfacet
facet normal 6.321088118918688e-33 3.9304134870432435e-33 1.0
  outer loop
    vertex 4226.5 -3059.0 9.999999999999998
    vertex 4317.589843749999 -3058.169921875 9.999999999999998
    vertex 4226.319824218749 -3058.169921875 9.999999999999998
  endloop
endfacet
facet normal 6.321088118918688e-33 3.9304134870432435e-33 1.0
  outer loop
    vertex 4317.589843749999 -3058.169921875 9.999999999999998
    vertex 4226.5 -3059.0 9.999999999999998
    vertex 4317.589843749999 -3059.830078125 9.999999999999998
  endloop
endfacet
facet normal 6.321088118918688e-33 3.9304134870432435e-33 1.0
  outer loop
    vertex 4218.58984375 -3058.169921875 9.999999999999998
    vertex 4217.25 -3058.1000976562495 9.999999999999998
    vertex 4218.58984375 -3059.830078125 9.999999999999998
  endloop
endfacet
facet normal 0.97724362529993 0.21211935160856452 -0.0005267673229105593
  outer loop
    vertex 4325.31005859375 -3058.1000976562495 9.999999999999998
    vertex 4325.499999999999 -3059.0 0.0
    vertex 4325.31982421875 -3058.169921875 0.0
  endloop
endfacet
facet normal 0.9903607562645379 0.13851199388909527 -0.0
  outer loop
    vertex 4325.31005859375 -3058.1000976562495 9.999999999999998
    vertex 4325.31982421875 -3058.169921875 0.0
    vertex 4325.31005859375 -3058.1000976562495 0.0
  endloop
endfacet
facet normal 0.9772436252997536 0.21211935160937614 -0.0005267673229869433
  outer loop
    vertex 4226.31005859375 -3058.1000976562495 9.999999999999998
    vertex 4226.5 -3059.0 0.0
    vertex 4226.319824218749 -3058.169921875 0.0
  endloop
endfacet
facet normal 0.9903607562659424 0.13851199387905236 1.3113473347282434e-19
  outer loop
    vertex 4226.31005859375 -3058.1000976562495 9.999999999999998
    vertex 4226.319824218749 -3058.169921875 0.0
    vertex 4226.31005859375 -3058.1000976562495 0.0
  endloop
endfacet
facet normal 0.9784426286670488 0.20651881853021528 -1.5973902806305842e-18
  outer loop
    vertex 4226.31005859375 -3058.1000976562495 9.999999999999998
    vertex 4226.5 -3059.0 9.999999999999998
    vertex 4226.5 -3059.0 0.0
  endloop
endfacet
facet normal 0.9784426286670488 0.20651881853021528 -1.5973902806305842e-18
  outer loop
    vertex 4325.31005859375 -3058.1000976562495 9.999999999999998
    vertex 4325.499999999999 -3059.0 9.999999999999998
    vertex 4325.499999999999 -3059.0 0.0
  endloop
endfacet
facet normal 0.23358842627242848 -0.9723355630190487 6.427655800729703e-19
  outer loop
    vertex 4182.0 -3183.10009765625 9.999999999999998
    vertex 4182.0 -3183.10009765625 0.0
    vertex 4182.25 -3183.0400390624995 9.999999999999998
  endloop
endfacet
facet normal 0.2174920944670146 -0.9760620824744456 -1.5612346504012983e-19
  outer loop
    vertex 4182.25 -3183.0400390624995 9.999999999999998
    vertex 4182.16015625 -3183.06005859375 0.0
    vertex 4182.25 -3183.0400390624995 0.0
  endloop
endfacet
facet normal 0.24253561823236328 -0.970142472933826 -0.00023685118964688506
  outer loop
    vertex 4182.25 -3183.0400390624995 9.999999999999998
    vertex 4182.0 -3183.10009765625 0.0
    vertex 4182.16015625 -3183.06005859375 0.0
  endloop
endfacet
facet normal -0.0 1.0 -0.0
  outer loop
    vertex 4362.0 -3183.10009765625 9.999999999999998
    vertex 4431.75 -3183.10009765625 0.0
    vertex 4362.0 -3183.10009765625 0.0
  endloop
endfacet
facet normal -0.0 1.0 -0.0
  outer loop
    vertex 4431.75 -3183.10009765625 0.0
    vertex 4362.0 -3183.10009765625 9.999999999999998
    vertex 4431.75 -3183.10009765625 9.999999999999998
  endloop
endfacet
endsolid Untitled-6019dcea
